  0
SECTION
  2
HEADER
  9
$ACADVER
  1
AC1024
  9
$ACADMAINTVER
 70
6
  9
$DWGCODEPAGE
  3
ANSI_1252
  9
$LASTSAVEDBY
  1
ezdxf
  9
$INSBASE
 10
0.0
 20
0.0
 30
0.0
  9
$EXTMIN
 10
1e+20
 20
1e+20
 30
1e+20
  9
$EXTMAX
 10
-1e+20
 20
-1e+20
 30
-1e+20
  9
$LIMMIN
 10
0.0
 20
0.0
  9
$LIMMAX
 10
420.0
 20
297.0
  9
$ORTHOMODE
 70
0
  9
$REGENMODE
 70
1
  9
$FILLMODE
 70
1
  9
$QTEXTMODE
 70
0
  9
$MIRRTEXT
 70
1
  9
$LTSCALE
 40
1.0
  9
$ATTMODE
 70
1
  9
$TEXTSIZE
 40
2.5
  9
$TRACEWID
 40
1.0
  9
$TEXTSTYLE
  7
Standard
  9
$CLAYER
  8
0
  9
$CELTYPE
  6
ByLayer
  9
$CECOLOR
 62
256
  9
$CELTSCALE
 40
1.0
  9
$DISPSILH
 70
0
  9
$DIMSCALE
 40
1.0
  9
$DIMASZ
 40
2.5
  9
$DIMEXO
 40
0.625
  9
$DIMDLI
 40
3.75
  9
$DIMRND
 40
0.0
  9
$DIMDLE
 40
0.0
  9
$DIMEXE
 40
1.25
  9
$DIMTP
 40
0.0
  9
$DIMTM
 40
0.0
  9
$DIMTXT
 40
2.5
  9
$DIMCEN
 40
2.5
  9
$DIMTSZ
 40
0.0
  9
$DIMTOL
 70
0
  9
$DIMLIM
 70
0
  9
$DIMTIH
 70
0
  9
$DIMTOH
 70
0
  9
$DIMSE1
 70
0
  9
$DIMSE2
 70
0
  9
$DIMTAD
 70
1
  9
$DIMZIN
 70
8
  9
$DIMBLK
  1

  9
$DIMASO
 70
1
  9
$DIMSHO
 70
1
  9
$DIMPOST
  1

  9
$DIMAPOST
  1

  9
$DIMALT
 70
0
  9
$DIMALTD
 70
3
  9
$DIMALTF
 40
0.03937007874
  9
$DIMLFAC
 40
1.0
  9
$DIMTOFL
 70
1
  9
$DIMTVP
 40
0.0
  9
$DIMTIX
 70
0
  9
$DIMSOXD
 70
0
  9
$DIMSAH
 70
0
  9
$DIMBLK1
  1

  9
$DIMBLK2
  1

  9
$DIMSTYLE
  2
ISO-25
  9
$DIMCLRD
 70
0
  9
$DIMCLRE
 70
0
  9
$DIMCLRT
 70
0
  9
$DIMTFAC
 40
1.0
  9
$DIMGAP
 40
0.625
  9
$DIMJUST
 70
0
  9
$DIMSD1
 70
0
  9
$DIMSD2
 70
0
  9
$DIMTOLJ
 70
0
  9
$DIMTZIN
 70
8
  9
$DIMALTZ
 70
0
  9
$DIMALTTZ
 70
0
  9
$DIMUPT
 70
0
  9
$DIMDEC
 70
2
  9
$DIMTDEC
 70
2
  9
$DIMALTU
 70
2
  9
$DIMALTTD
 70
3
  9
$DIMTXSTY
  7
Standard
  9
$DIMAUNIT
 70
0
  9
$DIMADEC
 70
0
  9
$DIMALTRND
 40
0.0
  9
$DIMAZIN
 70
0
  9
$DIMDSEP
 70
44
  9
$DIMATFIT
 70
3
  9
$DIMFRAC
 70
0
  9
$DIMLDRBLK
  1

  9
$DIMLUNIT
 70
2
  9
$DIMLWD
 70
-2
  9
$DIMLWE
 70
-2
  9
$DIMTMOVE
 70
0
  9
$DIMFXL
 40
1.0
  9
$DIMFXLON
 70
0
  9
$DIMJOGANG
 40
0.785398163397
  9
$DIMTFILL
 70
0
  9
$DIMTFILLCLR
 70
0
  9
$DIMARCSYM
 70
0
  9
$DIMLTYPE
  6

  9
$DIMLTEX1
  6

  9
$DIMLTEX2
  6

  9
$DIMTXTDIRECTION
 70
0
  9
$LUNITS
 70
2
  9
$LUPREC
 70
4
  9
$SKETCHINC
 40
1.0
  9
$FILLETRAD
 40
10.0
  9
$AUNITS
 70
0
  9
$AUPREC
 70
2
  9
$MENU
  1
.
  9
$ELEVATION
 40
0.0
  9
$PELEVATION
 40
0.0
  9
$THICKNESS
 40
0.0
  9
$LIMCHECK
 70
0
  9
$CHAMFERA
 40
0.0
  9
$CHAMFERB
 40
0.0
  9
$CHAMFERC
 40
0.0
  9
$CHAMFERD
 40
0.0
  9
$SKPOLY
 70
0
  9
$TDCREATE
 40
2460915.6328125
  9
$TDUCREATE
 40
2458532.153996898
  9
$TDUPDATE
 40
2460915.6328125
  9
$TDUUPDATE
 40
2458532.1544311
  9
$TDINDWG
 40
0.0
  9
$TDUSRTIMER
 40
0.0
  9
$USRTIMER
 70
1
  9
$ANGBASE
 50
0.0
  9
$ANGDIR
 70
0
  9
$PDMODE
 70
0
  9
$PDSIZE
 40
0.0
  9
$PLINEWID
 40
0.0
  9
$SPLFRAME
 70
0
  9
$SPLINETYPE
 70
6
  9
$SPLINESEGS
 70
8
  9
$HANDSEED
  5
2FE
  9
$SURFTAB1
 70
6
  9
$SURFTAB2
 70
6
  9
$SURFTYPE
 70
6
  9
$SURFU
 70
6
  9
$SURFV
 70
6
  9
$UCSBASE
  2

  9
$UCSNAME
  2

  9
$UCSORG
 10
0.0
 20
0.0
 30
0.0
  9
$UCSXDIR
 10
1.0
 20
0.0
 30
0.0
  9
$UCSYDIR
 10
0.0
 20
1.0
 30
0.0
  9
$UCSORTHOREF
  2

  9
$UCSORTHOVIEW
 70
0
  9
$UCSORGTOP
 10
0.0
 20
0.0
 30
0.0
  9
$UCSORGBOTTOM
 10
0.0
 20
0.0
 30
0.0
  9
$UCSORGLEFT
 10
0.0
 20
0.0
 30
0.0
  9
$UCSORGRIGHT
 10
0.0
 20
0.0
 30
0.0
  9
$UCSORGFRONT
 10
0.0
 20
0.0
 30
0.0
  9
$UCSORGBACK
 10
0.0
 20
0.0
 30
0.0
  9
$PUCSBASE
  2

  9
$PUCSNAME
  2

  9
$PUCSORG
 10
0.0
 20
0.0
 30
0.0
  9
$PUCSXDIR
 10
1.0
 20
0.0
 30
0.0
  9
$PUCSYDIR
 10
0.0
 20
1.0
 30
0.0
  9
$PUCSORTHOREF
  2

  9
$PUCSORTHOVIEW
 70
0
  9
$PUCSORGTOP
 10
0.0
 20
0.0
 30
0.0
  9
$PUCSORGBOTTOM
 10
0.0
 20
0.0
 30
0.0
  9
$PUCSORGLEFT
 10
0.0
 20
0.0
 30
0.0
  9
$PUCSORGRIGHT
 10
0.0
 20
0.0
 30
0.0
  9
$PUCSORGFRONT
 10
0.0
 20
0.0
 30
0.0
  9
$PUCSORGBACK
 10
0.0
 20
0.0
 30
0.0
  9
$USERI1
 70
0
  9
$USERI2
 70
0
  9
$USERI3
 70
0
  9
$USERI4
 70
0
  9
$USERI5
 70
0
  9
$USERR1
 40
0.0
  9
$USERR2
 40
0.0
  9
$USERR3
 40
0.0
  9
$USERR4
 40
0.0
  9
$USERR5
 40
0.0
  9
$WORLDVIEW
 70
1
  9
$SHADEDGE
 70
3
  9
$SHADEDIF
 70
70
  9
$TILEMODE
 70
1
  9
$MAXACTVP
 70
64
  9
$PINSBASE
 10
0.0
 20
0.0
 30
0.0
  9
$PLIMCHECK
 70
0
  9
$PEXTMIN
 10
1e+20
 20
1e+20
 30
1e+20
  9
$PEXTMAX
 10
-1e+20
 20
-1e+20
 30
-1e+20
  9
$PLIMMIN
 10
0.0
 20
0.0
  9
$PLIMMAX
 10
420.0
 20
297.0
  9
$UNITMODE
 70
0
  9
$VISRETAIN
 70
1
  9
$PLINEGEN
 70
0
  9
$PSLTSCALE
 70
1
  9
$TREEDEPTH
 70
3020
  9
$CMLSTYLE
  2
Standard
  9
$CMLJUST
 70
0
  9
$CMLSCALE
 40
20.0
  9
$PROXYGRAPHICS
 70
1
  9
$MEASUREMENT
 70
1
  9
$CELWEIGHT
370
-1
  9
$ENDCAPS
280
0
  9
$JOINSTYLE
280
0
  9
$LWDISPLAY
290
0
  9
$INSUNITS
 70
6
  9
$HYPERLINKBASE
  1

  9
$STYLESHEET
  1

  9
$XEDIT
290
1
  9
$CEPSNTYPE
380
0
  9
$PSTYLEMODE
290
1
  9
$FINGERPRINTGUID
  2
{C27DB099-B5AE-4630-927C-1A7850850135}
  9
$VERSIONGUID
  2
{3EB09177-B10C-4810-87E8-6626130730E2}
  9
$EXTNAMES
290
1
  9
$PSVPSCALE
 40
0.0
  9
$OLESTARTUP
290
0
  9
$SORTENTS
280
127
  9
$INDEXCTL
280
0
  9
$HIDETEXT
280
1
  9
$XCLIPFRAME
280
1
  9
$HALOGAP
280
0
  9
$OBSCOLOR
 70
257
  9
$OBSLTYPE
280
0
  9
$INTERSECTIONDISPLAY
280
0
  9
$INTERSECTIONCOLOR
 70
257
  9
$DIMASSOC
280
2
  9
$PROJECTNAME
  1

  9
$CAMERADISPLAY
290
0
  9
$LENSLENGTH
 40
50.0
  9
$CAMERAHEIGHT
 40
0.0
  9
$STEPSPERSEC
 40
24.0
  9
$STEPSIZE
 40
100.0
  9
$3DDWFPREC
 40
2.0
  9
$PSOLWIDTH
 40
0.005
  9
$PSOLHEIGHT
 40
0.08
  9
$LOFTANG1
 40
1.570796326795
  9
$LOFTANG2
 40
1.570796326795
  9
$LOFTMAG1
 40
0.0
  9
$LOFTMAG2
 40
0.0
  9
$LOFTPARAM
 70
7
  9
$LOFTNORMALS
280
1
  9
$LATITUDE
 40
37.795
  9
$LONGITUDE
 40
-122.394
  9
$NORTHDIRECTION
 40
0.0
  9
$TIMEZONE
 70
-8000
  9
$LIGHTGLYPHDISPLAY
280
1
  9
$TILEMODELIGHTSYNCH
280
1
  9
$CMATERIAL
347
20
  9
$SOLIDHIST
280
0
  9
$SHOWHIST
280
1
  9
$DWFFRAME
280
2
  9
$DGNFRAME
280
2
  9
$REALWORLDSCALE
290
1
  9
$INTERFERECOLOR
 62
256
  9
$CSHADOW
280
0
  9
$SHADOWPLANELOCATION
 40
0.0
  0
ENDSEC
  0
SECTION
  2
CLASSES
  0
CLASS
  1
ACDBDICTIONARYWDFLT
  2
AcDbDictionaryWithDefault
  3
ObjectDBX Classes
 90
0
 91
0
280
0
281
0
  0
CLASS
  1
SUN
  2
AcDbSun
  3
SCENEOE
 90
1153
 91
0
280
0
281
0
  0
CLASS
  1
VISUALSTYLE
  2
AcDbVisualStyle
  3
ObjectDBX Classes
 90
4095
 91
0
280
0
281
0
  0
CLASS
  1
MATERIAL
  2
AcDbMaterial
  3
ObjectDBX Classes
 90
1153
 91
0
280
0
281
0
  0
CLASS
  1
SCALE
  2
AcDbScale
  3
ObjectDBX Classes
 90
1153
 91
0
280
0
281
0
  0
CLASS
  1
TABLESTYLE
  2
AcDbTableStyle
  3
ObjectDBX Classes
 90
4095
 91
0
280
0
281
0
  0
CLASS
  1
MLEADERSTYLE
  2
AcDbMLeaderStyle
  3
ACDB_MLEADERSTYLE_CLASS
 90
4095
 91
0
280
0
281
0
  0
CLASS
  1
DICTIONARYVAR
  2
AcDbDictionaryVar
  3
ObjectDBX Classes
 90
0
 91
0
280
0
281
0
  0
CLASS
  1
CELLSTYLEMAP
  2
AcDbCellStyleMap
  3
ObjectDBX Classes
 90
1152
 91
0
280
0
281
0
  0
CLASS
  1
MENTALRAYRENDERSETTINGS
  2
AcDbMentalRayRenderSettings
  3
SCENEOE
 90
1024
 91
0
280
0
281
0
  0
CLASS
  1
ACDBDETAILVIEWSTYLE
  2
AcDbDetailViewStyle
  3
ObjectDBX Classes
 90
1025
 91
0
280
0
281
0
  0
CLASS
  1
ACDBSECTIONVIEWSTYLE
  2
AcDbSectionViewStyle
  3
ObjectDBX Classes
 90
1025
 91
0
280
0
281
0
  0
CLASS
  1
RASTERVARIABLES
  2
AcDbRasterVariables
  3
ISM
 90
0
 91
0
280
0
281
0
  0
CLASS
  1
LAYOUT
  2
AcDbLayout
  3
ObjectDBX Classes
 90
0
 91
0
280
0
281
0
  0
CLASS
  1
ACDBPLACEHOLDER
  2
AcDbPlaceHolder
  3
ObjectDBX Classes
 90
0
 91
0
280
0
281
0
  0
ENDSEC
  0
SECTION
  2
TABLES
  0
TABLE
  2
VPORT
  5
8
330
0
100
AcDbSymbolTable
 70
1
  0
VPORT
  5
23
330
8
100
AcDbSymbolTableRecord
100
AcDbViewportTableRecord
  2
*Active
 70
0
 10
0.0
 20
0.0
 11
1.0
 21
1.0
 12
0.0
 22
0.0
 13
0.0
 23
0.0
 14
0.5
 24
0.5
 15
0.5
 25
0.5
 16
0.0
 26
0.0
 36
1.0
 17
0.0
 27
0.0
 37
0.0
 40
1000.0
 41
1.34
 42
50.0
 43
0.0
 44
0.0
 50
0.0
 51
0.0
 71
0
 72
1000
 73
1
 74
3
 75
0
 76
0
 77
0
 78
0
281
0
 65
0
146
0.0
  0
ENDTAB
  0
TABLE
  2
LTYPE
  5
2
330
0
100
AcDbSymbolTable
 70
3
  0
LTYPE
  5
24
330
2
100
AcDbSymbolTableRecord
100
AcDbLinetypeTableRecord
  2
ByBlock
 70
0
  3

 72
65
 73
0
 40
0.0
  0
LTYPE
  5
25
330
2
100
AcDbSymbolTableRecord
100
AcDbLinetypeTableRecord
  2
ByLayer
 70
0
  3

 72
65
 73
0
 40
0.0
  0
LTYPE
  5
26
330
2
100
AcDbSymbolTableRecord
100
AcDbLinetypeTableRecord
  2
Continuous
 70
0
  3

 72
65
 73
0
 40
0.0
  0
ENDTAB
  0
TABLE
  2
LAYER
  5
1
330
0
100
AcDbSymbolTable
 70
11
  0
LAYER
  5
27
330
1
100
AcDbSymbolTableRecord
100
AcDbLayerTableRecord
  2
0
 70
0
 62
7
  6
Continuous
370
-3
390
13
347
21
  0
LAYER
  5
28
330
1
100
AcDbSymbolTableRecord
100
AcDbLayerTableRecord
  2
Defpoints
 70
0
 62
7
  6
Continuous
290
0
370
-3
390
13
347
21
  0
LAYER
  5
2F
330
1
100
AcDbSymbolTableRecord
100
AcDbLayerTableRecord
  2
PARETE
 70
0
 62
5
  6
Continuous
370
-3
390
13
347
21
  0
LAYER
  5
30
330
1
100
AcDbSymbolTableRecord
100
AcDbLayerTableRecord
  2
APERTURE
 70
0
 62
1
  6
Continuous
370
-3
390
13
347
21
  0
LAYER
  5
31
330
1
100
AcDbSymbolTableRecord
100
AcDbLayerTableRecord
  2
BLOCCHI_STD
 70
0
 62
7
  6
Continuous
370
-3
390
13
347
21
  0
LAYER
  5
32
330
1
100
AcDbSymbolTableRecord
100
AcDbLayerTableRecord
  2
BLOCCHI_CUSTOM
 70
0
 62
3
  6
Continuous
370
-3
390
13
347
21
  0
LAYER
  5
33
330
1
100
AcDbSymbolTableRecord
100
AcDbLayerTableRecord
  2
QUOTE
 70
0
 62
6
  6
Continuous
370
-3
390
13
347
21
  0
LAYER
  5
34
330
1
100
AcDbSymbolTableRecord
100
AcDbLayerTableRecord
  2
TESTI
 70
0
 62
7
  6
Continuous
370
-3
390
13
347
21
  0
LAYER
  5
35
330
1
100
AcDbSymbolTableRecord
100
AcDbLayerTableRecord
  2
TAGLIO
 70
0
 62
4
  6
Continuous
370
-3
390
13
347
21
  0
LAYER
  5
36
330
1
100
AcDbSymbolTableRecord
100
AcDbLayerTableRecord
  2
CARTIGLIO
 70
0
 62
7
  6
Continuous
370
-3
390
13
347
21
  0
LAYER
  5
37
330
1
100
AcDbSymbolTableRecord
100
AcDbLayerTableRecord
  2
LEGENDA
 70
0
 62
7
  6
Continuous
370
-3
390
13
347
21
  0
ENDTAB
  0
TABLE
  2
STYLE
  5
5
330
0
100
AcDbSymbolTable
 70
1
  0
STYLE
  5
29
330
5
100
AcDbSymbolTableRecord
100
AcDbTextStyleTableRecord
  2
Standard
 70
0
 40
0.0
 41
1.0
 50
0.0
 71
0
 42
2.5
  3
txt
  4

  0
ENDTAB
  0
TABLE
  2
VIEW
  5
7
330
0
100
AcDbSymbolTable
 70
0
  0
ENDTAB
  0
TABLE
  2
UCS
  5
6
330
0
100
AcDbSymbolTable
 70
0
  0
ENDTAB
  0
TABLE
  2
APPID
  5
3
330
0
100
AcDbSymbolTable
 70
3
  0
APPID
  5
2A
330
3
100
AcDbSymbolTableRecord
100
AcDbRegAppTableRecord
  2
ACAD
 70
0
  0
APPID
  5
2FB
330
3
100
AcDbSymbolTableRecord
100
AcDbRegAppTableRecord
  2
HATCHBACKGROUNDCOLOR
 70
0
  0
APPID
  5
2FC
330
3
100
AcDbSymbolTableRecord
100
AcDbRegAppTableRecord
  2
EZDXF
 70
0
  0
ENDTAB
  0
TABLE
  2
DIMSTYLE
  5
4
330
0
100
AcDbSymbolTable
 70
1
100
AcDbDimStyleTable
  0
DIMSTYLE
105
2B
330
4
100
AcDbSymbolTableRecord
100
AcDbDimStyleTableRecord
  2
Standard
 70
0
 40
1.0
 41
2.5
 42
0.625
 43
3.75
 44
1.25
 45
0.0
 46
0.0
 47
0.0
 48
0.0
 49
2.5
140
2.5
141
2.5
142
0.0
143
0.03937007874
144
1.0
145
0.0
146
1.0
147
0.625
148
0.0
 69
0
 70
0
 71
0
 72
0
 73
0
 74
0
 75
0
 76
0
 77
1
 78
8
 79
3
170
0
171
3
172
1
173
0
174
0
175
0
176
0
177
0
178
0
179
2
271
2
272
2
273
2
274
3
275
0
276
0
277
2
278
44
279
0
280
0
281
0
282
0
283
0
284
8
285
0
286
0
288
0
289
3
290
0
371
-2
372
-2
  0
ENDTAB
  0
TABLE
  2
BLOCK_RECORD
  5
9
330
0
100
AcDbSymbolTable
 70
2
  0
BLOCK_RECORD
  5
17
330
9
100
AcDbSymbolTableRecord
100
AcDbBlockTableRecord
  2
*Model_Space
340
1A
 70
0
280
1
281
0
  0
BLOCK_RECORD
  5
1B
330
9
100
AcDbSymbolTableRecord
100
AcDbBlockTableRecord
  2
*Paper_Space
340
1E
 70
0
280
1
281
0
  0
ENDTAB
  0
ENDSEC
  0
SECTION
  2
BLOCKS
  0
BLOCK
  5
18
330
17
100
AcDbEntity
  8
0
100
AcDbBlockBegin
  2
*Model_Space
 70
0
 10
0.0
 20
0.0
 30
0.0
  3
*Model_Space
  1

  0
ENDBLK
  5
19
330
17
100
AcDbEntity
  8
0
100
AcDbBlockEnd
  0
BLOCK
  5
1C
330
1B
100
AcDbEntity
  8
0
100
AcDbBlockBegin
  2
*Paper_Space
 70
0
 10
0.0
 20
0.0
 30
0.0
  3
*Paper_Space
  1

  0
ENDBLK
  5
1D
330
1B
100
AcDbEntity
  8
0
100
AcDbBlockEnd
  0
ENDSEC
  0
SECTION
  2
ENTITIES
  0
LWPOLYLINE
  5
38
330
17
100
AcDbEntity
  8
PARETE
370
100
100
AcDbPolyline
 90
5
 70
1
 10
0.0
 20
0.0
 10
12000.0
 20
0.0
 10
12000.0
 20
4500.0
 10
0.0
 20
2500.0
 10
0.0
 20
0.0
  0
LWPOLYLINE
  5
39
330
17
100
AcDbEntity
  8
APERTURE
100
AcDbPolyline
 90
5
 70
1
 10
2000.0
 20
0.0
 10
3200.0
 20
0.0
 10
3200.0
 20
2200.0
 10
2000.0
 20
2200.0
 10
2000.0
 20
0.0
  0
TEXT
  5
3A
330
17
100
AcDbEntity
  8
TESTI
100
AcDbText
 10
2600.0
 20
1100.0
 30
0.0
 40
150.0
  1
AP11200x2200
 72
1
 11
2600.0
 21
1100.0
 31
0.0
100
AcDbText
 73
2
  0
LWPOLYLINE
  5
3B
330
17
100
AcDbEntity
  8
APERTURE
100
AcDbPolyline
 90
5
 70
1
 10
8500.0
 20
0.0
 10
9700.0
 20
0.0
 10
9700.0
 20
2200.0
 10
8500.0
 20
2200.0
 10
8500.0
 20
0.0
  0
TEXT
  5
3C
330
17
100
AcDbEntity
  8
TESTI
100
AcDbText
 10
9100.0
 20
1100.0
 30
0.0
 40
150.0
  1
AP21200x2200
 72
1
 11
9100.0
 21
1100.0
 31
0.0
100
AcDbText
 73
2
  0
LWPOLYLINE
  5
3D
330
17
100
AcDbEntity
  8
BLOCCHI_STD
100
AcDbPolyline
 90
5
 70
0
 10
0.0
 20
0.0
 10
1239.0
 20
0.0
 10
1239.0
 20
495.0
 10
0.0
 20
495.0
 10
0.0
 20
0.0
  0
TEXT
  5
3E
330
17
100
AcDbEntity
  8
TESTI
100
AcDbText
 10
619.5
 20
247.5
 30
0.0
 40
120.0
  1
A1
 72
1
 11
619.5
 21
247.5
 31
0.0
100
AcDbText
 73
2
  0
LWPOLYLINE
  5
3F
330
17
100
AcDbEntity
  8
BLOCCHI_STD
100
AcDbPolyline
 90
5
 70
0
 10
1239.0
 20
0.0
 10
1652.0
 20
0.0
 10
1652.0
 20
495.0
 10
1239.0
 20
495.0
 10
1239.0
 20
0.0
  0
TEXT
  5
40
330
17
100
AcDbEntity
  8
TESTI
100
AcDbText
 10
1445.5
 20
247.5
 30
0.0
 40
120.0
  1
C1
 72
1
 11
1445.5
 21
247.5
 31
0.0
100
AcDbText
 73
2
  0
LWPOLYLINE
  5
41
330
17
100
AcDbEntity
  8
BLOCCHI_STD
100
AcDbPolyline
 90
5
 70
0
 10
3202.0
 20
0.0
 10
4441.0
 20
0.0
 10
4441.0
 20
495.0
 10
3202.0
 20
495.0
 10
3202.0
 20
0.0
  0
TEXT
  5
42
330
17
100
AcDbEntity
  8
TESTI
100
AcDbText
 10
3821.5
 20
247.5
 30
0.0
 40
120.0
  1
A2
 72
1
 11
3821.5
 21
247.5
 31
0.0
100
AcDbText
 73
2
  0
LWPOLYLINE
  5
43
330
17
100
AcDbEntity
  8
BLOCCHI_STD
100
AcDbPolyline
 90
5
 70
0
 10
4441.0
 20
0.0
 10
5680.0
 20
0.0
 10
5680.0
 20
495.0
 10
4441.0
 20
495.0
 10
4441.0
 20
0.0
  0
TEXT
  5
44
330
17
100
AcDbEntity
  8
TESTI
100
AcDbText
 10
5060.5
 20
247.5
 30
0.0
 40
120.0
  1
A3
 72
1
 11
5060.5
 21
247.5
 31
0.0
100
AcDbText
 73
2
  0
LWPOLYLINE
  5
45
330
17
100
AcDbEntity
  8
BLOCCHI_STD
100
AcDbPolyline
 90
5
 70
0
 10
5680.0
 20
0.0
 10
6919.0
 20
0.0
 10
6919.0
 20
495.0
 10
5680.0
 20
495.0
 10
5680.0
 20
0.0
  0
TEXT
  5
46
330
17
100
AcDbEntity
  8
TESTI
100
AcDbText
 10
6299.5
 20
247.5
 30
0.0
 40
120.0
  1
A4
 72
1
 11
6299.5
 21
247.5
 31
0.0
100
AcDbText
 73
2
  0
LWPOLYLINE
  5
47
330
17
100
AcDbEntity
  8
BLOCCHI_STD
100
AcDbPolyline
 90
5
 70
0
 10
6919.0
 20
0.0
 10
8158.0
 20
0.0
 10
8158.0
 20
495.0
 10
6919.0
 20
495.0
 10
6919.0
 20
0.0
  0
TEXT
  5
48
330
17
100
AcDbEntity
  8
TESTI
100
AcDbText
 10
7538.5
 20
247.5
 30
0.0
 40
120.0
  1
A5
 72
1
 11
7538.5
 21
247.5
 31
0.0
100
AcDbText
 73
2
  0
LWPOLYLINE
  5
49
330
17
100
AcDbEntity
  8
BLOCCHI_STD
100
AcDbPolyline
 90
5
 70
0
 10
9702.0
 20
0.0
 10
10941.0
 20
0.0
 10
10941.0
 20
495.0
 10
9702.0
 20
495.0
 10
9702.0
 20
0.0
  0
TEXT
  5
4A
330
17
100
AcDbEntity
  8
TESTI
100
AcDbText
 10
10321.5
 20
247.5
 30
0.0
 40
120.0
  1
A6
 72
1
 11
10321.5
 21
247.5
 31
0.0
100
AcDbText
 73
2
  0
LWPOLYLINE
  5
4B
330
17
100
AcDbEntity
  8
BLOCCHI_STD
100
AcDbPolyline
 90
5
 70
0
 10
10941.0
 20
0.0
 10
11767.0
 20
0.0
 10
11767.0
 20
495.0
 10
10941.0
 20
495.0
 10
10941.0
 20
0.0
  0
TEXT
  5
4C
330
17
100
AcDbEntity
  8
TESTI
100
AcDbText
 10
11354.0
 20
247.5
 30
0.0
 40
120.0
  1
B1
 72
1
 11
11354.0
 21
247.5
 31
0.0
100
AcDbText
 73
2
  0
LWPOLYLINE
  5
4D
330
17
100
AcDbEntity
  8
BLOCCHI_STD
100
AcDbPolyline
 90
5
 70
0
 10
9702.0
 20
495.0
 10
10528.0
 20
495.0
 10
10528.0
 20
990.0
 10
9702.0
 20
990.0
 10
9702.0
 20
495.0
  0
TEXT
  5
4E
330
17
100
AcDbEntity
  8
TESTI
100
AcDbText
 10
10115.0
 20
742.5
 30
0.0
 40
120.0
  1
B2
 72
1
 11
10115.0
 21
742.5
 31
0.0
100
AcDbText
 73
2
  0
LWPOLYLINE
  5
4F
330
17
100
AcDbEntity
  8
BLOCCHI_STD
100
AcDbPolyline
 90
5
 70
0
 10
10528.0
 20
495.0
 10
11767.0
 20
495.0
 10
11767.0
 20
990.0
 10
10528.0
 20
990.0
 10
10528.0
 20
495.0
  0
TEXT
  5
50
330
17
100
AcDbEntity
  8
TESTI
100
AcDbText
 10
11147.5
 20
742.5
 30
0.0
 40
120.0
  1
A7
 72
1
 11
11147.5
 21
742.5
 31
0.0
100
AcDbText
 73
2
  0
LWPOLYLINE
  5
51
330
17
100
AcDbEntity
  8
BLOCCHI_STD
100
AcDbPolyline
 90
5
 70
0
 10
3202.0
 20
495.0
 10
4028.0
 20
495.0
 10
4028.0
 20
990.0
 10
3202.0
 20
990.0
 10
3202.0
 20
495.0
  0
TEXT
  5
52
330
17
100
AcDbEntity
  8
TESTI
100
AcDbText
 10
3615.0
 20
742.5
 30
0.0
 40
120.0
  1
B3
 72
1
 11
3615.0
 21
742.5
 31
0.0
100
AcDbText
 73
2
  0
LWPOLYLINE
  5
53
330
17
100
AcDbEntity
  8
BLOCCHI_STD
100
AcDbPolyline
 90
5
 70
0
 10
4028.0
 20
495.0
 10
5267.0
 20
495.0
 10
5267.0
 20
990.0
 10
4028.0
 20
990.0
 10
4028.0
 20
495.0
  0
TEXT
  5
54
330
17
100
AcDbEntity
  8
TESTI
100
AcDbText
 10
4647.5
 20
742.5
 30
0.0
 40
120.0
  1
A8
 72
1
 11
4647.5
 21
742.5
 31
0.0
100
AcDbText
 73
2
  0
LWPOLYLINE
  5
55
330
17
100
AcDbEntity
  8
BLOCCHI_STD
100
AcDbPolyline
 90
5
 70
0
 10
5267.0
 20
495.0
 10
6506.0
 20
495.0
 10
6506.0
 20
990.0
 10
5267.0
 20
990.0
 10
5267.0
 20
495.0
  0
TEXT
  5
56
330
17
100
AcDbEntity
  8
TESTI
100
AcDbText
 10
5886.5
 20
742.5
 30
0.0
 40
120.0
  1
A9
 72
1
 11
5886.5
 21
742.5
 31
0.0
100
AcDbText
 73
2
  0
LWPOLYLINE
  5
57
330
17
100
AcDbEntity
  8
BLOCCHI_STD
100
AcDbPolyline
 90
5
 70
0
 10
6506.0
 20
495.0
 10
7745.0
 20
495.0
 10
7745.0
 20
990.0
 10
6506.0
 20
990.0
 10
6506.0
 20
495.0
  0
TEXT
  5
58
330
17
100
AcDbEntity
  8
TESTI
100
AcDbText
 10
7125.5
 20
742.5
 30
0.0
 40
120.0
  1
A10
 72
1
 11
7125.5
 21
742.5
 31
0.0
100
AcDbText
 73
2
  0
LWPOLYLINE
  5
59
330
17
100
AcDbEntity
  8
BLOCCHI_STD
100
AcDbPolyline
 90
5
 70
0
 10
7745.0
 20
495.0
 10
8158.0
 20
495.0
 10
8158.0
 20
990.0
 10
7745.0
 20
990.0
 10
7745.0
 20
495.0
  0
TEXT
  5
5A
330
17
100
AcDbEntity
  8
TESTI
100
AcDbText
 10
7951.5
 20
742.5
 30
0.0
 40
120.0
  1
C2
 72
1
 11
7951.5
 21
742.5
 31
0.0
100
AcDbText
 73
2
  0
LWPOLYLINE
  5
5B
330
17
100
AcDbEntity
  8
BLOCCHI_STD
100
AcDbPolyline
 90
5
 70
0
 10
0.0
 20
495.0
 10
826.0
 20
495.0
 10
826.0
 20
990.0
 10
0.0
 20
990.0
 10
0.0
 20
495.0
  0
TEXT
  5
5C
330
17
100
AcDbEntity
  8
TESTI
100
AcDbText
 10
413.0
 20
742.5
 30
0.0
 40
120.0
  1
B4
 72
1
 11
413.0
 21
742.5
 31
0.0
100
AcDbText
 73
2
  0
LWPOLYLINE
  5
5D
330
17
100
AcDbEntity
  8
BLOCCHI_STD
100
AcDbPolyline
 90
5
 70
0
 10
826.0
 20
495.0
 10
1652.0
 20
495.0
 10
1652.0
 20
990.0
 10
826.0
 20
990.0
 10
826.0
 20
495.0
  0
TEXT
  5
5E
330
17
100
AcDbEntity
  8
TESTI
100
AcDbText
 10
1239.0
 20
742.5
 30
0.0
 40
120.0
  1
B5
 72
1
 11
1239.0
 21
742.5
 31
0.0
100
AcDbText
 73
2
  0
LWPOLYLINE
  5
5F
330
17
100
AcDbEntity
  8
BLOCCHI_STD
100
AcDbPolyline
 90
5
 70
0
 10
9702.0
 20
990.0
 10
10941.0
 20
990.0
 10
10941.0
 20
1485.0
 10
9702.0
 20
1485.0
 10
9702.0
 20
990.0
  0
TEXT
  5
60
330
17
100
AcDbEntity
  8
TESTI
100
AcDbText
 10
10321.5
 20
1237.5
 30
0.0
 40
120.0
  1
A11
 72
1
 11
10321.5
 21
1237.5
 31
0.0
100
AcDbText
 73
2
  0
LWPOLYLINE
  5
61
330
17
100
AcDbEntity
  8
BLOCCHI_STD
100
AcDbPolyline
 90
5
 70
0
 10
10941.0
 20
990.0
 10
11767.0
 20
990.0
 10
11767.0
 20
1485.0
 10
10941.0
 20
1485.0
 10
10941.0
 20
990.0
  0
TEXT
  5
62
330
17
100
AcDbEntity
  8
TESTI
100
AcDbText
 10
11354.0
 20
1237.5
 30
0.0
 40
120.0
  1
B6
 72
1
 11
11354.0
 21
1237.5
 31
0.0
100
AcDbText
 73
2
  0
LWPOLYLINE
  5
63
330
17
100
AcDbEntity
  8
BLOCCHI_STD
100
AcDbPolyline
 90
5
 70
0
 10
3202.0
 20
990.0
 10
4441.0
 20
990.0
 10
4441.0
 20
1485.0
 10
3202.0
 20
1485.0
 10
3202.0
 20
990.0
  0
TEXT
  5
64
330
17
100
AcDbEntity
  8
TESTI
100
AcDbText
 10
3821.5
 20
1237.5
 30
0.0
 40
120.0
  1
A12
 72
1
 11
3821.5
 21
1237.5
 31
0.0
100
AcDbText
 73
2
  0
LWPOLYLINE
  5
65
330
17
100
AcDbEntity
  8
BLOCCHI_STD
100
AcDbPolyline
 90
5
 70
0
 10
4441.0
 20
990.0
 10
5680.0
 20
990.0
 10
5680.0
 20
1485.0
 10
4441.0
 20
1485.0
 10
4441.0
 20
990.0
  0
TEXT
  5
66
330
17
100
AcDbEntity
  8
TESTI
100
AcDbText
 10
5060.5
 20
1237.5
 30
0.0
 40
120.0
  1
A13
 72
1
 11
5060.5
 21
1237.5
 31
0.0
100
AcDbText
 73
2
  0
LWPOLYLINE
  5
67
330
17
100
AcDbEntity
  8
BLOCCHI_STD
100
AcDbPolyline
 90
5
 70
0
 10
5680.0
 20
990.0
 10
6919.0
 20
990.0
 10
6919.0
 20
1485.0
 10
5680.0
 20
1485.0
 10
5680.0
 20
990.0
  0
TEXT
  5
68
330
17
100
AcDbEntity
  8
TESTI
100
AcDbText
 10
6299.5
 20
1237.5
 30
0.0
 40
120.0
  1
A14
 72
1
 11
6299.5
 21
1237.5
 31
0.0
100
AcDbText
 73
2
  0
LWPOLYLINE
  5
69
330
17
100
AcDbEntity
  8
BLOCCHI_STD
100
AcDbPolyline
 90
5
 70
0
 10
6919.0
 20
990.0
 10
8158.0
 20
990.0
 10
8158.0
 20
1485.0
 10
6919.0
 20
1485.0
 10
6919.0
 20
990.0
  0
TEXT
  5
6A
330
17
100
AcDbEntity
  8
TESTI
100
AcDbText
 10
7538.5
 20
1237.5
 30
0.0
 40
120.0
  1
A15
 72
1
 11
7538.5
 21
1237.5
 31
0.0
100
AcDbText
 73
2
  0
LWPOLYLINE
  5
6B
330
17
100
AcDbEntity
  8
BLOCCHI_STD
100
AcDbPolyline
 90
5
 70
0
 10
0.0
 20
990.0
 10
1239.0
 20
990.0
 10
1239.0
 20
1485.0
 10
0.0
 20
1485.0
 10
0.0
 20
990.0
  0
TEXT
  5
6C
330
17
100
AcDbEntity
  8
TESTI
100
AcDbText
 10
619.5
 20
1237.5
 30
0.0
 40
120.0
  1
A16
 72
1
 11
619.5
 21
1237.5
 31
0.0
100
AcDbText
 73
2
  0
LWPOLYLINE
  5
6D
330
17
100
AcDbEntity
  8
BLOCCHI_STD
100
AcDbPolyline
 90
5
 70
0
 10
1239.0
 20
990.0
 10
1652.0
 20
990.0
 10
1652.0
 20
1485.0
 10
1239.0
 20
1485.0
 10
1239.0
 20
990.0
  0
TEXT
  5
6E
330
17
100
AcDbEntity
  8
TESTI
100
AcDbText
 10
1445.5
 20
1237.5
 30
0.0
 40
120.0
  1
C3
 72
1
 11
1445.5
 21
1237.5
 31
0.0
100
AcDbText
 73
2
  0
LWPOLYLINE
  5
6F
330
17
100
AcDbEntity
  8
BLOCCHI_STD
100
AcDbPolyline
 90
5
 70
0
 10
9702.0
 20
1485.0
 10
10528.0
 20
1485.0
 10
10528.0
 20
1980.0
 10
9702.0
 20
1980.0
 10
9702.0
 20
1485.0
  0
TEXT
  5
70
330
17
100
AcDbEntity
  8
TESTI
100
AcDbText
 10
10115.0
 20
1732.5
 30
0.0
 40
120.0
  1
B7
 72
1
 11
10115.0
 21
1732.5
 31
0.0
100
AcDbText
 73
2
  0
LWPOLYLINE
  5
71
330
17
100
AcDbEntity
  8
BLOCCHI_STD
100
AcDbPolyline
 90
5
 70
0
 10
10528.0
 20
1485.0
 10
11767.0
 20
1485.0
 10
11767.0
 20
1980.0
 10
10528.0
 20
1980.0
 10
10528.0
 20
1485.0
  0
TEXT
  5
72
330
17
100
AcDbEntity
  8
TESTI
100
AcDbText
 10
11147.5
 20
1732.5
 30
0.0
 40
120.0
  1
A17
 72
1
 11
11147.5
 21
1732.5
 31
0.0
100
AcDbText
 73
2
  0
LWPOLYLINE
  5
73
330
17
100
AcDbEntity
  8
BLOCCHI_STD
100
AcDbPolyline
 90
5
 70
0
 10
3202.0
 20
1485.0
 10
4028.0
 20
1485.0
 10
4028.0
 20
1980.0
 10
3202.0
 20
1980.0
 10
3202.0
 20
1485.0
  0
TEXT
  5
74
330
17
100
AcDbEntity
  8
TESTI
100
AcDbText
 10
3615.0
 20
1732.5
 30
0.0
 40
120.0
  1
B8
 72
1
 11
3615.0
 21
1732.5
 31
0.0
100
AcDbText
 73
2
  0
LWPOLYLINE
  5
75
330
17
100
AcDbEntity
  8
BLOCCHI_STD
100
AcDbPolyline
 90
5
 70
0
 10
4028.0
 20
1485.0
 10
5267.0
 20
1485.0
 10
5267.0
 20
1980.0
 10
4028.0
 20
1980.0
 10
4028.0
 20
1485.0
  0
TEXT
  5
76
330
17
100
AcDbEntity
  8
TESTI
100
AcDbText
 10
4647.5
 20
1732.5
 30
0.0
 40
120.0
  1
A18
 72
1
 11
4647.5
 21
1732.5
 31
0.0
100
AcDbText
 73
2
  0
LWPOLYLINE
  5
77
330
17
100
AcDbEntity
  8
BLOCCHI_STD
100
AcDbPolyline
 90
5
 70
0
 10
5267.0
 20
1485.0
 10
6506.0
 20
1485.0
 10
6506.0
 20
1980.0
 10
5267.0
 20
1980.0
 10
5267.0
 20
1485.0
  0
TEXT
  5
78
330
17
100
AcDbEntity
  8
TESTI
100
AcDbText
 10
5886.5
 20
1732.5
 30
0.0
 40
120.0
  1
A19
 72
1
 11
5886.5
 21
1732.5
 31
0.0
100
AcDbText
 73
2
  0
LWPOLYLINE
  5
79
330
17
100
AcDbEntity
  8
BLOCCHI_STD
100
AcDbPolyline
 90
5
 70
0
 10
6506.0
 20
1485.0
 10
7745.0
 20
1485.0
 10
7745.0
 20
1980.0
 10
6506.0
 20
1980.0
 10
6506.0
 20
1485.0
  0
TEXT
  5
7A
330
17
100
AcDbEntity
  8
TESTI
100
AcDbText
 10
7125.5
 20
1732.5
 30
0.0
 40
120.0
  1
A20
 72
1
 11
7125.5
 21
1732.5
 31
0.0
100
AcDbText
 73
2
  0
LWPOLYLINE
  5
7B
330
17
100
AcDbEntity
  8
BLOCCHI_STD
100
AcDbPolyline
 90
5
 70
0
 10
7745.0
 20
1485.0
 10
8158.0
 20
1485.0
 10
8158.0
 20
1980.0
 10
7745.0
 20
1980.0
 10
7745.0
 20
1485.0
  0
TEXT
  5
7C
330
17
100
AcDbEntity
  8
TESTI
100
AcDbText
 10
7951.5
 20
1732.5
 30
0.0
 40
120.0
  1
C4
 72
1
 11
7951.5
 21
1732.5
 31
0.0
100
AcDbText
 73
2
  0
LWPOLYLINE
  5
7D
330
17
100
AcDbEntity
  8
BLOCCHI_STD
100
AcDbPolyline
 90
5
 70
0
 10
0.0
 20
1485.0
 10
826.0
 20
1485.0
 10
826.0
 20
1980.0
 10
0.0
 20
1980.0
 10
0.0
 20
1485.0
  0
TEXT
  5
7E
330
17
100
AcDbEntity
  8
TESTI
100
AcDbText
 10
413.0
 20
1732.5
 30
0.0
 40
120.0
  1
B9
 72
1
 11
413.0
 21
1732.5
 31
0.0
100
AcDbText
 73
2
  0
LWPOLYLINE
  5
7F
330
17
100
AcDbEntity
  8
BLOCCHI_STD
100
AcDbPolyline
 90
5
 70
0
 10
826.0
 20
1485.0
 10
1652.0
 20
1485.0
 10
1652.0
 20
1980.0
 10
826.0
 20
1980.0
 10
826.0
 20
1485.0
  0
TEXT
  5
80
330
17
100
AcDbEntity
  8
TESTI
100
AcDbText
 10
1239.0
 20
1732.5
 30
0.0
 40
120.0
  1
B10
 72
1
 11
1239.0
 21
1732.5
 31
0.0
100
AcDbText
 73
2
  0
LWPOLYLINE
  5
81
330
17
100
AcDbEntity
  8
BLOCCHI_STD
100
AcDbPolyline
 90
5
 70
0
 10
0.0
 20
1980.0
 10
1239.0
 20
1980.0
 10
1239.0
 20
2475.0
 10
0.0
 20
2475.0
 10
0.0
 20
1980.0
  0
TEXT
  5
82
330
17
100
AcDbEntity
  8
TESTI
100
AcDbText
 10
619.5
 20
2227.5
 30
0.0
 40
120.0
  1
A21
 72
1
 11
619.5
 21
2227.5
 31
0.0
100
AcDbText
 73
2
  0
LWPOLYLINE
  5
83
330
17
100
AcDbEntity
  8
BLOCCHI_STD
100
AcDbPolyline
 90
5
 70
0
 10
3717.0
 20
1980.0
 10
4956.0
 20
1980.0
 10
4956.0
 20
2475.0
 10
3717.0
 20
2475.0
 10
3717.0
 20
1980.0
  0
TEXT
  5
84
330
17
100
AcDbEntity
  8
TESTI
100
AcDbText
 10
4336.5
 20
2227.5
 30
0.0
 40
120.0
  1
A22
 72
1
 11
4336.5
 21
2227.5
 31
0.0
100
AcDbText
 73
2
  0
LWPOLYLINE
  5
85
330
17
100
AcDbEntity
  8
BLOCCHI_STD
100
AcDbPolyline
 90
5
 70
0
 10
4956.0
 20
1980.0
 10
6195.0
 20
1980.0
 10
6195.0
 20
2475.0
 10
4956.0
 20
2475.0
 10
4956.0
 20
1980.0
  0
TEXT
  5
86
330
17
100
AcDbEntity
  8
TESTI
100
AcDbText
 10
5575.5
 20
2227.5
 30
0.0
 40
120.0
  1
A23
 72
1
 11
5575.5
 21
2227.5
 31
0.0
100
AcDbText
 73
2
  0
LWPOLYLINE
  5
87
330
17
100
AcDbEntity
  8
BLOCCHI_STD
100
AcDbPolyline
 90
5
 70
0
 10
6195.0
 20
1980.0
 10
7434.0
 20
1980.0
 10
7434.0
 20
2475.0
 10
6195.0
 20
2475.0
 10
6195.0
 20
1980.0
  0
TEXT
  5
88
330
17
100
AcDbEntity
  8
TESTI
100
AcDbText
 10
6814.5
 20
2227.5
 30
0.0
 40
120.0
  1
A24
 72
1
 11
6814.5
 21
2227.5
 31
0.0
100
AcDbText
 73
2
  0
LWPOLYLINE
  5
89
330
17
100
AcDbEntity
  8
BLOCCHI_STD
100
AcDbPolyline
 90
5
 70
0
 10
9912.0
 20
1980.0
 10
11151.0
 20
1980.0
 10
11151.0
 20
2475.0
 10
9912.0
 20
2475.0
 10
9912.0
 20
1980.0
  0
TEXT
  5
8A
330
17
100
AcDbEntity
  8
TESTI
100
AcDbText
 10
10531.5
 20
2227.5
 30
0.0
 40
120.0
  1
A25
 72
1
 11
10531.5
 21
2227.5
 31
0.0
100
AcDbText
 73
2
  0
LWPOLYLINE
  5
8B
330
17
100
AcDbEntity
  8
BLOCCHI_STD
100
AcDbPolyline
 90
5
 70
0
 10
11151.0
 20
1980.0
 10
11977.0
 20
1980.0
 10
11977.0
 20
2475.0
 10
11151.0
 20
2475.0
 10
11151.0
 20
1980.0
  0
TEXT
  5
8C
330
17
100
AcDbEntity
  8
TESTI
100
AcDbText
 10
11564.0
 20
2227.5
 30
0.0
 40
120.0
  1
B11
 72
1
 11
11564.0
 21
2227.5
 31
0.0
100
AcDbText
 73
2
  0
LWPOLYLINE
  5
8D
330
17
100
AcDbEntity
  8
BLOCCHI_STD
100
AcDbPolyline
 90
5
 70
0
 10
2891.0
 20
2475.0
 10
4130.0
 20
2475.0
 10
4130.0
 20
2970.0
 10
2891.0
 20
2970.0
 10
2891.0
 20
2475.0
  0
TEXT
  5
8E
330
17
100
AcDbEntity
  8
TESTI
100
AcDbText
 10
3510.5
 20
2722.5
 30
0.0
 40
120.0
  1
A26
 72
1
 11
3510.5
 21
2722.5
 31
0.0
100
AcDbText
 73
2
  0
LWPOLYLINE
  5
8F
330
17
100
AcDbEntity
  8
BLOCCHI_STD
100
AcDbPolyline
 90
5
 70
0
 10
4130.0
 20
2475.0
 10
5369.0
 20
2475.0
 10
5369.0
 20
2970.0
 10
4130.0
 20
2970.0
 10
4130.0
 20
2475.0
  0
TEXT
  5
90
330
17
100
AcDbEntity
  8
TESTI
100
AcDbText
 10
4749.5
 20
2722.5
 30
0.0
 40
120.0
  1
A27
 72
1
 11
4749.5
 21
2722.5
 31
0.0
100
AcDbText
 73
2
  0
LWPOLYLINE
  5
91
330
17
100
AcDbEntity
  8
BLOCCHI_STD
100
AcDbPolyline
 90
5
 70
0
 10
5369.0
 20
2475.0
 10
6608.0
 20
2475.0
 10
6608.0
 20
2970.0
 10
5369.0
 20
2970.0
 10
5369.0
 20
2475.0
  0
TEXT
  5
92
330
17
100
AcDbEntity
  8
TESTI
100
AcDbText
 10
5988.5
 20
2722.5
 30
0.0
 40
120.0
  1
A28
 72
1
 11
5988.5
 21
2722.5
 31
0.0
100
AcDbText
 73
2
  0
LWPOLYLINE
  5
93
330
17
100
AcDbEntity
  8
BLOCCHI_STD
100
AcDbPolyline
 90
5
 70
0
 10
6608.0
 20
2475.0
 10
7847.0
 20
2475.0
 10
7847.0
 20
2970.0
 10
6608.0
 20
2970.0
 10
6608.0
 20
2475.0
  0
TEXT
  5
94
330
17
100
AcDbEntity
  8
TESTI
100
AcDbText
 10
7227.5
 20
2722.5
 30
0.0
 40
120.0
  1
A29
 72
1
 11
7227.5
 21
2722.5
 31
0.0
100
AcDbText
 73
2
  0
LWPOLYLINE
  5
95
330
17
100
AcDbEntity
  8
BLOCCHI_STD
100
AcDbPolyline
 90
5
 70
0
 10
7847.0
 20
2475.0
 10
9086.0
 20
2475.0
 10
9086.0
 20
2970.0
 10
7847.0
 20
2970.0
 10
7847.0
 20
2475.0
  0
TEXT
  5
96
330
17
100
AcDbEntity
  8
TESTI
100
AcDbText
 10
8466.5
 20
2722.5
 30
0.0
 40
120.0
  1
A30
 72
1
 11
8466.5
 21
2722.5
 31
0.0
100
AcDbText
 73
2
  0
LWPOLYLINE
  5
97
330
17
100
AcDbEntity
  8
BLOCCHI_STD
100
AcDbPolyline
 90
5
 70
0
 10
9086.0
 20
2475.0
 10
10325.0
 20
2475.0
 10
10325.0
 20
2970.0
 10
9086.0
 20
2970.0
 10
9086.0
 20
2475.0
  0
TEXT
  5
98
330
17
100
AcDbEntity
  8
TESTI
100
AcDbText
 10
9705.5
 20
2722.5
 30
0.0
 40
120.0
  1
A31
 72
1
 11
9705.5
 21
2722.5
 31
0.0
100
AcDbText
 73
2
  0
LWPOLYLINE
  5
99
330
17
100
AcDbEntity
  8
BLOCCHI_STD
100
AcDbPolyline
 90
5
 70
0
 10
10325.0
 20
2475.0
 10
11564.0
 20
2475.0
 10
11564.0
 20
2970.0
 10
10325.0
 20
2970.0
 10
10325.0
 20
2475.0
  0
TEXT
  5
9A
330
17
100
AcDbEntity
  8
TESTI
100
AcDbText
 10
10944.5
 20
2722.5
 30
0.0
 40
120.0
  1
A32
 72
1
 11
10944.5
 21
2722.5
 31
0.0
100
AcDbText
 73
2
  0
LWPOLYLINE
  5
9B
330
17
100
AcDbEntity
  8
BLOCCHI_STD
100
AcDbPolyline
 90
5
 70
0
 10
11564.0
 20
2475.0
 10
11977.0
 20
2475.0
 10
11977.0
 20
2970.0
 10
11564.0
 20
2970.0
 10
11564.0
 20
2475.0
  0
TEXT
  5
9C
330
17
100
AcDbEntity
  8
TESTI
100
AcDbText
 10
11770.5
 20
2722.5
 30
0.0
 40
120.0
  1
C5
 72
1
 11
11770.5
 21
2722.5
 31
0.0
100
AcDbText
 73
2
  0
LWPOLYLINE
  5
9D
330
17
100
AcDbEntity
  8
BLOCCHI_STD
100
AcDbPolyline
 90
5
 70
0
 10
6537.0
 20
2970.0
 10
7776.0
 20
2970.0
 10
7776.0
 20
3465.0
 10
6537.0
 20
3465.0
 10
6537.0
 20
2970.0
  0
TEXT
  5
9E
330
17
100
AcDbEntity
  8
TESTI
100
AcDbText
 10
7156.5
 20
3217.5
 30
0.0
 40
120.0
  1
A33
 72
1
 11
7156.5
 21
3217.5
 31
0.0
100
AcDbText
 73
2
  0
LWPOLYLINE
  5
9F
330
17
100
AcDbEntity
  8
BLOCCHI_STD
100
AcDbPolyline
 90
5
 70
0
 10
7776.0
 20
2970.0
 10
9015.0
 20
2970.0
 10
9015.0
 20
3465.0
 10
7776.0
 20
3465.0
 10
7776.0
 20
2970.0
  0
TEXT
  5
A0
330
17
100
AcDbEntity
  8
TESTI
100
AcDbText
 10
8395.5
 20
3217.5
 30
0.0
 40
120.0
  1
A34
 72
1
 11
8395.5
 21
3217.5
 31
0.0
100
AcDbText
 73
2
  0
LWPOLYLINE
  5
A1
330
17
100
AcDbEntity
  8
BLOCCHI_STD
100
AcDbPolyline
 90
5
 70
0
 10
9015.0
 20
2970.0
 10
10254.0
 20
2970.0
 10
10254.0
 20
3465.0
 10
9015.0
 20
3465.0
 10
9015.0
 20
2970.0
  0
TEXT
  5
A2
330
17
100
AcDbEntity
  8
TESTI
100
AcDbText
 10
9634.5
 20
3217.5
 30
0.0
 40
120.0
  1
A35
 72
1
 11
9634.5
 21
3217.5
 31
0.0
100
AcDbText
 73
2
  0
LWPOLYLINE
  5
A3
330
17
100
AcDbEntity
  8
BLOCCHI_STD
100
AcDbPolyline
 90
5
 70
0
 10
10254.0
 20
2970.0
 10
11493.0
 20
2970.0
 10
11493.0
 20
3465.0
 10
10254.0
 20
3465.0
 10
10254.0
 20
2970.0
  0
TEXT
  5
A4
330
17
100
AcDbEntity
  8
TESTI
100
AcDbText
 10
10873.5
 20
3217.5
 30
0.0
 40
120.0
  1
A36
 72
1
 11
10873.5
 21
3217.5
 31
0.0
100
AcDbText
 73
2
  0
LWPOLYLINE
  5
A5
330
17
100
AcDbEntity
  8
BLOCCHI_STD
100
AcDbPolyline
 90
5
 70
0
 10
11493.0
 20
2970.0
 10
11906.0
 20
2970.0
 10
11906.0
 20
3465.0
 10
11493.0
 20
3465.0
 10
11493.0
 20
2970.0
  0
TEXT
  5
A6
330
17
100
AcDbEntity
  8
TESTI
100
AcDbText
 10
11699.5
 20
3217.5
 30
0.0
 40
120.0
  1
C6
 72
1
 11
11699.5
 21
3217.5
 31
0.0
100
AcDbText
 73
2
  0
LWPOLYLINE
  5
A7
330
17
100
AcDbEntity
  8
BLOCCHI_STD
100
AcDbPolyline
 90
5
 70
0
 10
9094.0
 20
3465.0
 10
10333.0
 20
3465.0
 10
10333.0
 20
3960.0
 10
9094.0
 20
3960.0
 10
9094.0
 20
3465.0
  0
TEXT
  5
A8
330
17
100
AcDbEntity
  8
TESTI
100
AcDbText
 10
9713.5
 20
3712.5
 30
0.0
 40
120.0
  1
A37
 72
1
 11
9713.5
 21
3712.5
 31
0.0
100
AcDbText
 73
2
  0
LWPOLYLINE
  5
A9
330
17
100
AcDbEntity
  8
BLOCCHI_STD
100
AcDbPolyline
 90
5
 70
0
 10
10333.0
 20
3465.0
 10
11572.0
 20
3465.0
 10
11572.0
 20
3960.0
 10
10333.0
 20
3960.0
 10
10333.0
 20
3465.0
  0
TEXT
  5
AA
330
17
100
AcDbEntity
  8
TESTI
100
AcDbText
 10
10952.5
 20
3712.5
 30
0.0
 40
120.0
  1
A38
 72
1
 11
10952.5
 21
3712.5
 31
0.0
100
AcDbText
 73
2
  0
LWPOLYLINE
  5
AB
330
17
100
AcDbEntity
  8
BLOCCHI_STD
100
AcDbPolyline
 90
5
 70
0
 10
11572.0
 20
3465.0
 10
11985.0
 20
3465.0
 10
11985.0
 20
3960.0
 10
11572.0
 20
3960.0
 10
11572.0
 20
3465.0
  0
TEXT
  5
AC
330
17
100
AcDbEntity
  8
TESTI
100
AcDbText
 10
11778.5
 20
3712.5
 30
0.0
 40
120.0
  1
C7
 72
1
 11
11778.5
 21
3712.5
 31
0.0
100
AcDbText
 73
2
  0
LWPOLYLINE
  5
AD
330
17
100
AcDbEntity
  8
BLOCCHI_CUSTOM
100
AcDbPolyline
 90
5
 70
1
 10
1998.0
 20
0.0
 10
1652.0
 20
0.0
 10
1652.0
 20
495.0
 10
1998.0
 20
495.0
 10
1998.0
 20
0.0
  0
TEXT
  5
AE
330
17
100
AcDbEntity
  8
TESTI
100
AcDbText
 10
1825.0
 20
247.5
 30
0.0
 40
90.0
  1
CU1(1)346x495CU1
 72
1
 11
1825.0
 21
247.5
 31
0.0
100
AcDbText
 73
2
  0
LWPOLYLINE
  5
AF
330
17
100
AcDbEntity
  8
BLOCCHI_CUSTOM
100
AcDbPolyline
 90
5
 70
1
 10
8158.0
 20
495.0
 10
8498.0
 20
495.0
 10
8498.0
 20
0.0
 10
8158.0
 20
0.0
 10
8158.0
 20
495.0
  0
TEXT
  5
B0
330
17
100
AcDbEntity
  8
TESTI
100
AcDbText
 10
8328.0
 20
247.5
 30
0.0
 40
90.0
  1
CU1(2)340x495CU1
 72
1
 11
8328.0
 21
247.5
 31
0.0
100
AcDbText
 73
2
  0
LWPOLYLINE
  5
B1
330
17
100
AcDbEntity
  8
BLOCCHI_CUSTOM
100
AcDbPolyline
 90
5
 70
1
 10
11767.0
 20
495.0
 10
12000.0
 20
495.0
 10
12000.0
 20
0.0
 10
11767.0
 20
0.0
 10
11767.0
 20
495.0
  0
TEXT
  5
B2
330
17
100
AcDbEntity
  8
TESTI
100
AcDbText
 10
11883.5
 20
247.5
 30
0.0
 40
90.0
  1
CU1(3)233x495CU1
 72
1
 11
11883.5
 21
247.5
 31
0.0
100
AcDbText
 73
2
  0
LWPOLYLINE
  5
B3
330
17
100
AcDbEntity
  8
BLOCCHI_CUSTOM
100
AcDbPolyline
 90
5
 70
1
 10
1998.0
 20
495.0
 10
1652.0
 20
495.0
 10
1652.0
 20
990.0
 10
1998.0
 20
990.0
 10
1998.0
 20
495.0
  0
TEXT
  5
B4
330
17
100
AcDbEntity
  8
TESTI
100
AcDbText
 10
1825.0
 20
742.5
 30
0.0
 40
90.0
  1
CU1(4)346x495CU1
 72
1
 11
1825.0
 21
742.5
 31
0.0
100
AcDbText
 73
2
  0
LWPOLYLINE
  5
B5
330
17
100
AcDbEntity
  8
BLOCCHI_CUSTOM
100
AcDbPolyline
 90
5
 70
1
 10
8158.0
 20
495.0
 10
8158.0
 20
990.0
 10
8498.0
 20
990.0
 10
8498.0
 20
495.0
 10
8158.0
 20
495.0
  0
TEXT
  5
B6
330
17
100
AcDbEntity
  8
TESTI
100
AcDbText
 10
8328.0
 20
742.5
 30
0.0
 40
90.0
  1
CU1(5)340x495CU1
 72
1
 11
8328.0
 21
742.5
 31
0.0
100
AcDbText
 73
2
  0
LWPOLYLINE
  5
B7
330
17
100
AcDbEntity
  8
BLOCCHI_CUSTOM
100
AcDbPolyline
 90
5
 70
1
 10
11767.0
 20
495.0
 10
11767.0
 20
990.0
 10
12000.0
 20
990.0
 10
12000.0
 20
495.0
 10
11767.0
 20
495.0
  0
TEXT
  5
B8
330
17
100
AcDbEntity
  8
TESTI
100
AcDbText
 10
11883.5
 20
742.5
 30
0.0
 40
90.0
  1
CU1(6)233x495CU1
 72
1
 11
11883.5
 21
742.5
 31
0.0
100
AcDbText
 73
2
  0
LWPOLYLINE
  5
B9
330
17
100
AcDbEntity
  8
BLOCCHI_CUSTOM
100
AcDbPolyline
 90
5
 70
1
 10
1998.0
 20
990.0
 10
1652.0
 20
990.0
 10
1652.0
 20
1485.0
 10
1998.0
 20
1485.0
 10
1998.0
 20
990.0
  0
TEXT
  5
BA
330
17
100
AcDbEntity
  8
TESTI
100
AcDbText
 10
1825.0
 20
1237.5
 30
0.0
 40
90.0
  1
CU1(7)346x495CU1
 72
1
 11
1825.0
 21
1237.5
 31
0.0
100
AcDbText
 73
2
  0
LWPOLYLINE
  5
BB
330
17
100
AcDbEntity
  8
BLOCCHI_CUSTOM
100
AcDbPolyline
 90
5
 70
1
 10
8158.0
 20
990.0
 10
8158.0
 20
1485.0
 10
8498.0
 20
1485.0
 10
8498.0
 20
990.0
 10
8158.0
 20
990.0
  0
TEXT
  5
BC
330
17
100
AcDbEntity
  8
TESTI
100
AcDbText
 10
8328.0
 20
1237.5
 30
0.0
 40
90.0
  1
CU1(8)340x495CU1
 72
1
 11
8328.0
 21
1237.5
 31
0.0
100
AcDbText
 73
2
  0
LWPOLYLINE
  5
BD
330
17
100
AcDbEntity
  8
BLOCCHI_CUSTOM
100
AcDbPolyline
 90
5
 70
1
 10
11767.0
 20
990.0
 10
11767.0
 20
1485.0
 10
12000.0
 20
1485.0
 10
12000.0
 20
990.0
 10
11767.0
 20
990.0
  0
TEXT
  5
BE
330
17
100
AcDbEntity
  8
TESTI
100
AcDbText
 10
11883.5
 20
1237.5
 30
0.0
 40
90.0
  1
CU1(9)233x495CU1
 72
1
 11
11883.5
 21
1237.5
 31
0.0
100
AcDbText
 73
2
  0
LWPOLYLINE
  5
BF
330
17
100
AcDbEntity
  8
BLOCCHI_CUSTOM
100
AcDbPolyline
 90
5
 70
1
 10
1998.0
 20
1485.0
 10
1652.0
 20
1485.0
 10
1652.0
 20
1980.0
 10
1998.0
 20
1980.0
 10
1998.0
 20
1485.0
  0
TEXT
  5
C0
330
17
100
AcDbEntity
  8
TESTI
100
AcDbText
 10
1825.0
 20
1732.5
 30
0.0
 40
90.0
  1
CU1(10)346x495CU1
 72
1
 11
1825.0
 21
1732.5
 31
0.0
100
AcDbText
 73
2
  0
LWPOLYLINE
  5
C1
330
17
100
AcDbEntity
  8
BLOCCHI_CUSTOM
100
AcDbPolyline
 90
5
 70
1
 10
8158.0
 20
1485.0
 10
8158.0
 20
1980.0
 10
8498.0
 20
1980.0
 10
8498.0
 20
1485.0
 10
8158.0
 20
1485.0
  0
TEXT
  5
C2
330
17
100
AcDbEntity
  8
TESTI
100
AcDbText
 10
8328.0
 20
1732.5
 30
0.0
 40
90.0
  1
CU1(11)340x495CU1
 72
1
 11
8328.0
 21
1732.5
 31
0.0
100
AcDbText
 73
2
  0
LWPOLYLINE
  5
C3
330
17
100
AcDbEntity
  8
BLOCCHI_CUSTOM
100
AcDbPolyline
 90
5
 70
1
 10
11767.0
 20
1485.0
 10
11767.0
 20
1980.0
 10
12000.0
 20
1980.0
 10
12000.0
 20
1485.0
 10
11767.0
 20
1485.0
  0
TEXT
  5
C4
330
17
100
AcDbEntity
  8
TESTI
100
AcDbText
 10
11883.5
 20
1732.5
 30
0.0
 40
90.0
  1
CU1(12)233x495CU1
 72
1
 11
11883.5
 21
1732.5
 31
0.0
100
AcDbText
 73
2
  0
LWPOLYLINE
  5
C5
330
17
100
AcDbEntity
  8
BLOCCHI_CUSTOM
100
AcDbPolyline
 90
5
 70
1
 10
1239.0
 20
1980.0
 10
1239.0
 20
2475.0
 10
1652.0
 20
2475.0
 10
1652.0
 20
1980.0
 10
1239.0
 20
1980.0
  0
TEXT
  5
C6
330
17
100
AcDbEntity
  8
TESTI
100
AcDbText
 10
1445.5
 20
2227.5
 30
0.0
 40
90.0
  1
CU1(13)413x495CU1
 72
1
 11
1445.5
 21
2227.5
 31
0.0
100
AcDbText
 73
2
  0
LWPOLYLINE
  5
C7
330
17
100
AcDbEntity
  8
BLOCCHI_CUSTOM
100
AcDbPolyline
 90
23
 70
1
 10
1999.6098193559678
 20
2201.9615705608066
 10
1999.419430645491
 20
2201.9138806714645
 10
1999.2346331352699
 20
2201.8477590650227
 10
1999.057206526348
 20
2201.763842528697
 10
1998.8888595339608
 20
2201.662939224605
 10
1998.7312134316728
 20
2201.5460209067255
 10
1998.585786437627
 20
2201.414213562373
 10
1998.4539790932745
 20
2201.2687865683274
 10
1998.337060775395
 20
2201.111140466039
 10
1998.2361574713034
 20
2200.942793473652
 10
1998.1522409349775
 20
2200.7653668647304
 10
1998.0861193285357
 20
2200.580569354509
 10
1998.0384294391936
 20
2200.390180644032
 10
1998.0096305466557
 20
2200.196034280659
 10
1998.0
 20
2200.0
 10
1998.0
 20
1980.0
 10
1652.0
 20
1980.0
 10
1652.0
 20
2475.0
 10
2065.0
 20
2475.0
 10
2065.0
 20
2202.0
 10
2000.0
 20
2202.0
 10
1999.8039657193408
 20
2201.9903694533446
 10
1999.6098193559678
 20
2201.9615705608066
  0
TEXT
  5
C8
330
17
100
AcDbEntity
  8
TESTI
100
AcDbText
 10
1858.5
 20
2227.5
 30
0.0
 40
90.0
  1
CU1(14)413x495CU1
 72
1
 11
1858.5
 21
2227.5
 31
0.0
100
AcDbText
 73
2
  0
LWPOLYLINE
  5
C9
330
17
100
AcDbEntity
  8
BLOCCHI_CUSTOM
100
AcDbPolyline
 90
5
 70
1
 10
2478.0
 20
2475.0
 10
2478.0
 20
2202.0
 10
2065.0
 20
2202.0
 10
2065.0
 20
2475.0
 10
2478.0
 20
2475.0
  0
TEXT
  5
CA
330
17
100
AcDbEntity
  8
TESTI
100
AcDbText
 10
2271.5
 20
2338.5
 30
0.0
 40
90.0
  1
CU2(1)413x273CU2
 72
1
 11
2271.5
 21
2338.5
 31
0.0
100
AcDbText
 73
2
  0
LWPOLYLINE
  5
CB
330
17
100
AcDbEntity
  8
BLOCCHI_CUSTOM
100
AcDbPolyline
 90
5
 70
1
 10
2891.0
 20
2475.0
 10
2891.0
 20
2202.0
 10
2478.0
 20
2202.0
 10
2478.0
 20
2475.0
 10
2891.0
 20
2475.0
  0
TEXT
  5
CC
330
17
100
AcDbEntity
  8
TESTI
100
AcDbText
 10
2684.5
 20
2338.5
 30
0.0
 40
90.0
  1
CU2(2)413x273CU2
 72
1
 11
2684.5
 21
2338.5
 31
0.0
100
AcDbText
 73
2
  0
LWPOLYLINE
  5
CD
330
17
100
AcDbEntity
  8
BLOCCHI_CUSTOM
100
AcDbPolyline
 90
23
 70
1
 10
3304.0
 20
2475.0
 10
3304.0
 20
1980.0
 10
3202.0
 20
1980.0
 10
3202.0
 20
2200.0
 10
3201.9903694533446
 20
2200.196034280659
 10
3201.9615705608066
 20
2200.390180644032
 10
3201.9138806714645
 20
2200.580569354509
 10
3201.8477590650227
 20
2200.7653668647304
 10
3201.763842528697
 20
2200.942793473652
 10
3201.662939224605
 20
2201.111140466039
 10
3201.5460209067255
 20
2201.2687865683274
 10
3201.414213562373
 20
2201.414213562373
 10
3201.2687865683274
 20
2201.5460209067255
 10
3201.111140466039
 20
2201.662939224605
 10
3200.942793473652
 20
2201.763842528697
 10
3200.7653668647304
 20
2201.8477590650227
 10
3200.580569354509
 20
2201.9138806714645
 10
3200.390180644032
 20
2201.9615705608066
 10
3200.196034280659
 20
2201.9903694533446
 10
3200.0
 20
2202.0
 10
2891.0
 20
2202.0
 10
2891.0
 20
2475.0
 10
3304.0
 20
2475.0
  0
TEXT
  5
CE
330
17
100
AcDbEntity
  8
TESTI
100
AcDbText
 10
3097.5
 20
2227.5
 30
0.0
 40
90.0
  1
CU1(15)413x495CU1
 72
1
 11
3097.5
 21
2227.5
 31
0.0
100
AcDbText
 73
2
  0
LWPOLYLINE
  5
CF
330
17
100
AcDbEntity
  8
BLOCCHI_CUSTOM
100
AcDbPolyline
 90
5
 70
1
 10
3717.0
 20
2475.0
 10
3717.0
 20
1980.0
 10
3304.0
 20
1980.0
 10
3304.0
 20
2475.0
 10
3717.0
 20
2475.0
  0
TEXT
  5
D0
330
17
100
AcDbEntity
  8
TESTI
100
AcDbText
 10
3510.5
 20
2227.5
 30
0.0
 40
90.0
  1
CU1(16)413x495CU1
 72
1
 11
3510.5
 21
2227.5
 31
0.0
100
AcDbText
 73
2
  0
LWPOLYLINE
  5
D1
330
17
100
AcDbEntity
  8
BLOCCHI_CUSTOM
100
AcDbPolyline
 90
5
 70
1
 10
7434.0
 20
1980.0
 10
7434.0
 20
2475.0
 10
7847.0
 20
2475.0
 10
7847.0
 20
1980.0
 10
7434.0
 20
1980.0
  0
TEXT
  5
D2
330
17
100
AcDbEntity
  8
TESTI
100
AcDbText
 10
7640.5
 20
2227.5
 30
0.0
 40
90.0
  1
CU1(17)413x495CU1
 72
1
 11
7640.5
 21
2227.5
 31
0.0
100
AcDbText
 73
2
  0
LWPOLYLINE
  5
D3
330
17
100
AcDbEntity
  8
BLOCCHI_CUSTOM
100
AcDbPolyline
 90
5
 70
1
 10
7847.0
 20
1980.0
 10
7847.0
 20
2475.0
 10
8260.0
 20
2475.0
 10
8260.0
 20
1980.0
 10
7847.0
 20
1980.0
  0
TEXT
  5
D4
330
17
100
AcDbEntity
  8
TESTI
100
AcDbText
 10
8053.5
 20
2227.5
 30
0.0
 40
90.0
  1
CU1(18)413x495CU1
 72
1
 11
8053.5
 21
2227.5
 31
0.0
100
AcDbText
 73
2
  0
LWPOLYLINE
  5
D5
330
17
100
AcDbEntity
  8
BLOCCHI_CUSTOM
100
AcDbPolyline
 90
23
 70
1
 10
8499.609819355968
 20
2201.9615705608066
 10
8499.419430645492
 20
2201.9138806714645
 10
8499.23463313527
 20
2201.8477590650227
 10
8499.057206526348
 20
2201.763842528697
 10
8498.888859533961
 20
2201.662939224605
 10
8498.731213431673
 20
2201.5460209067255
 10
8498.585786437627
 20
2201.414213562373
 10
8498.453979093274
 20
2201.2687865683274
 10
8498.337060775395
 20
2201.111140466039
 10
8498.236157471303
 20
2200.942793473652
 10
8498.152240934978
 20
2200.7653668647304
 10
8498.086119328536
 20
2200.580569354509
 10
8498.038429439193
 20
2200.390180644032
 10
8498.009630546656
 20
2200.196034280659
 10
8498.0
 20
2200.0
 10
8498.0
 20
1980.0
 10
8260.0
 20
1980.0
 10
8260.0
 20
2475.0
 10
8673.0
 20
2475.0
 10
8673.0
 20
2202.0
 10
8500.0
 20
2202.0
 10
8499.80396571934
 20
2201.9903694533446
 10
8499.609819355968
 20
2201.9615705608066
  0
TEXT
  5
D6
330
17
100
AcDbEntity
  8
TESTI
100
AcDbText
 10
8466.5
 20
2227.5
 30
0.0
 40
90.0
  1
CU1(19)413x495CU1
 72
1
 11
8466.5
 21
2227.5
 31
0.0
100
AcDbText
 73
2
  0
LWPOLYLINE
  5
D7
330
17
100
AcDbEntity
  8
BLOCCHI_CUSTOM
100
AcDbPolyline
 90
5
 70
1
 10
9086.0
 20
2475.0
 10
9086.0
 20
2202.0
 10
8673.0
 20
2202.0
 10
8673.0
 20
2475.0
 10
9086.0
 20
2475.0
  0
TEXT
  5
D8
330
17
100
AcDbEntity
  8
TESTI
100
AcDbText
 10
8879.5
 20
2338.5
 30
0.0
 40
90.0
  1
CU2(3)413x273CU2
 72
1
 11
8879.5
 21
2338.5
 31
0.0
100
AcDbText
 73
2
  0
LWPOLYLINE
  5
D9
330
17
100
AcDbEntity
  8
BLOCCHI_CUSTOM
100
AcDbPolyline
 90
5
 70
1
 10
9499.0
 20
2475.0
 10
9499.0
 20
2202.0
 10
9086.0
 20
2202.0
 10
9086.0
 20
2475.0
 10
9499.0
 20
2475.0
  0
TEXT
  5
DA
330
17
100
AcDbEntity
  8
TESTI
100
AcDbText
 10
9292.5
 20
2338.5
 30
0.0
 40
90.0
  1
CU2(4)413x273CU2
 72
1
 11
9292.5
 21
2338.5
 31
0.0
100
AcDbText
 73
2
  0
LWPOLYLINE
  5
DB
330
17
100
AcDbEntity
  8
BLOCCHI_CUSTOM
100
AcDbPolyline
 90
23
 70
1
 10
9912.0
 20
2475.0
 10
9912.0
 20
1980.0
 10
9702.0
 20
1980.0
 10
9702.0
 20
2200.0
 10
9701.990369453344
 20
2200.196034280659
 10
9701.961570560807
 20
2200.390180644032
 10
9701.913880671464
 20
2200.580569354509
 10
9701.847759065022
 20
2200.7653668647304
 10
9701.763842528697
 20
2200.942793473652
 10
9701.662939224605
 20
2201.111140466039
 10
9701.546020906726
 20
2201.2687865683274
 10
9701.414213562373
 20
2201.414213562373
 10
9701.268786568327
 20
2201.5460209067255
 10
9701.111140466039
 20
2201.662939224605
 10
9700.942793473652
 20
2201.763842528697
 10
9700.76536686473
 20
2201.8477590650227
 10
9700.580569354508
 20
2201.9138806714645
 10
9700.390180644032
 20
2201.9615705608066
 10
9700.19603428066
 20
2201.9903694533446
 10
9700.0
 20
2202.0
 10
9499.0
 20
2202.0
 10
9499.0
 20
2475.0
 10
9912.0
 20
2475.0
  0
TEXT
  5
DC
330
17
100
AcDbEntity
  8
TESTI
100
AcDbText
 10
9705.5
 20
2227.5
 30
0.0
 40
90.0
  1
CU1(20)413x495CU1
 72
1
 11
9705.5
 21
2227.5
 31
0.0
100
AcDbText
 73
2
  0
LWPOLYLINE
  5
DD
330
17
100
AcDbEntity
  8
BLOCCHI_CUSTOM
100
AcDbPolyline
 90
5
 70
1
 10
11977.0
 20
2475.0
 10
12000.0
 20
2475.0
 10
12000.0
 20
1980.0
 10
11977.0
 20
1980.0
 10
11977.0
 20
2475.0
  0
TEXT
  5
DE
330
17
100
AcDbEntity
  8
TESTI
100
AcDbText
 10
11988.5
 20
2227.5
 30
0.0
 40
90.0
  1
CU1(21)23x495CU1
 72
1
 11
11988.5
 21
2227.5
 31
0.0
100
AcDbText
 73
2
  0
LWPOLYLINE
  5
DF
330
17
100
AcDbEntity
  8
BLOCCHI_CUSTOM
100
AcDbPolyline
 90
5
 70
1
 10
413.0
 20
2568.8333333333335
 10
413.0
 20
2475.0
 10
0.0
 20
2475.0
 10
0.0
 20
2500.0
 10
413.0
 20
2568.8333333333335
  0
TEXT
  5
E0
330
17
100
AcDbEntity
  8
TESTI
100
AcDbText
 10
206.5
 20
2522.0
 30
0.0
 40
90.0
  1
CU2(5)413x94CU2
 72
1
 11
206.5
 21
2522.0
 31
0.0
100
AcDbText
 73
2
  0
LWPOLYLINE
  5
E1
330
17
100
AcDbEntity
  8
BLOCCHI_CUSTOM
100
AcDbPolyline
 90
5
 70
1
 10
826.0
 20
2637.666666666667
 10
826.0
 20
2475.0
 10
413.0
 20
2475.0
 10
413.0
 20
2568.8333333333335
 10
826.0
 20
2637.666666666667
  0
TEXT
  5
E2
330
17
100
AcDbEntity
  8
TESTI
100
AcDbText
 10
619.5
 20
2556.5
 30
0.0
 40
90.0
  1
CU2(6)413x163CU2
 72
1
 11
619.5
 21
2556.5
 31
0.0
100
AcDbText
 73
2
  0
LWPOLYLINE
  5
E3
330
17
100
AcDbEntity
  8
BLOCCHI_CUSTOM
100
AcDbPolyline
 90
5
 70
1
 10
1239.0
 20
2706.5
 10
1239.0
 20
2475.0
 10
826.0
 20
2475.0
 10
826.0
 20
2637.666666666667
 10
1239.0
 20
2706.5
  0
TEXT
  5
E4
330
17
100
AcDbEntity
  8
TESTI
100
AcDbText
 10
1032.5
 20
2591.0
 30
0.0
 40
90.0
  1
CU2(7)413x232CU2
 72
1
 11
1032.5
 21
2591.0
 31
0.0
100
AcDbText
 73
2
  0
LWPOLYLINE
  5
E5
330
17
100
AcDbEntity
  8
BLOCCHI_CUSTOM
100
AcDbPolyline
 90
5
 70
1
 10
1652.0
 20
2775.3333333333335
 10
1652.0
 20
2475.0
 10
1239.0
 20
2475.0
 10
1239.0
 20
2706.5
 10
1652.0
 20
2775.3333333333335
  0
TEXT
  5
E6
330
17
100
AcDbEntity
  8
TESTI
100
AcDbText
 10
1445.5
 20
2625.0
 30
0.0
 40
90.0
  1
CU2(8)413x300CU2
 72
1
 11
1445.5
 21
2625.0
 31
0.0
100
AcDbText
 73
2
  0
LWPOLYLINE
  5
E7
330
17
100
AcDbEntity
  8
BLOCCHI_CUSTOM
100
AcDbPolyline
 90
5
 70
1
 10
2065.0
 20
2844.166666666667
 10
2065.0
 20
2475.0
 10
1652.0
 20
2475.0
 10
1652.0
 20
2775.3333333333335
 10
2065.0
 20
2844.166666666667
  0
TEXT
  5
E8
330
17
100
AcDbEntity
  8
TESTI
100
AcDbText
 10
1858.5
 20
2659.5
 30
0.0
 40
90.0
  1
CU2(9)413x369CU2
 72
1
 11
1858.5
 21
2659.5
 31
0.0
100
AcDbText
 73
2
  0
LWPOLYLINE
  5
E9
330
17
100
AcDbEntity
  8
BLOCCHI_CUSTOM
100
AcDbPolyline
 90
5
 70
1
 10
2478.0
 20
2913.0
 10
2478.0
 20
2475.0
 10
2065.0
 20
2475.0
 10
2065.0
 20
2844.166666666667
 10
2478.0
 20
2913.0
  0
TEXT
  5
EA
330
17
100
AcDbEntity
  8
TESTI
100
AcDbText
 10
2271.5
 20
2694.0
 30
0.0
 40
90.0
  1
CU2(10)413x438CU2
 72
1
 11
2271.5
 21
2694.0
 31
0.0
100
AcDbText
 73
2
  0
LWPOLYLINE
  5
EB
330
17
100
AcDbEntity
  8
BLOCCHI_CUSTOM
100
AcDbPolyline
 90
6
 70
1
 10
2820.0
 20
2970.0
 10
2891.0
 20
2970.0
 10
2891.0
 20
2475.0
 10
2478.0
 20
2475.0
 10
2478.0
 20
2913.0
 10
2820.0
 20
2970.0
  0
TEXT
  5
EC
330
17
100
AcDbEntity
  8
TESTI
100
AcDbText
 10
2684.5
 20
2722.5
 30
0.0
 40
90.0
  1
CU1(22)413x495CU1
 72
1
 11
2684.5
 21
2722.5
 31
0.0
100
AcDbText
 73
2
  0
LWPOLYLINE
  5
ED
330
17
100
AcDbEntity
  8
BLOCCHI_CUSTOM
100
AcDbPolyline
 90
5
 70
1
 10
11977.0
 20
2475.0
 10
11977.0
 20
2970.0
 10
12000.0
 20
2970.0
 10
12000.0
 20
2475.0
 10
11977.0
 20
2475.0
  0
TEXT
  5
EE
330
17
100
AcDbEntity
  8
TESTI
100
AcDbText
 10
11988.5
 20
2722.5
 30
0.0
 40
90.0
  1
CU1(23)23x495CU1
 72
1
 11
11988.5
 21
2722.5
 31
0.0
100
AcDbText
 73
2
  0
LWPOLYLINE
  5
EF
330
17
100
AcDbEntity
  8
BLOCCHI_CUSTOM
100
AcDbPolyline
 90
4
 70
1
 10
2820.0
 20
2970.0
 10
3233.0
 20
3038.8333333333335
 10
3233.0
 20
2970.0
 10
2820.0
 20
2970.0
  0
TEXT
  5
F0
330
17
100
AcDbEntity
  8
TESTI
100
AcDbText
 10
3026.5
 20
3004.5
 30
0.0
 40
90.0
  1
CU2(11)413x69CU2
 72
1
 11
3026.5
 21
3004.5
 31
0.0
100
AcDbText
 73
2
  0
LWPOLYLINE
  5
F1
330
17
100
AcDbEntity
  8
BLOCCHI_CUSTOM
100
AcDbPolyline
 90
5
 70
1
 10
3233.0
 20
2970.0
 10
3233.0
 20
3038.8333333333335
 10
3646.0
 20
3107.6666666666665
 10
3646.0
 20
2970.0
 10
3233.0
 20
2970.0
  0
TEXT
  5
F2
330
17
100
AcDbEntity
  8
TESTI
100
AcDbText
 10
3439.5
 20
3039.0
 30
0.0
 40
90.0
  1
CU2(12)413x138CU2
 72
1
 11
3439.5
 21
3039.0
 31
0.0
100
AcDbText
 73
2
  0
LWPOLYLINE
  5
F3
330
17
100
AcDbEntity
  8
BLOCCHI_CUSTOM
100
AcDbPolyline
 90
5
 70
1
 10
3646.0
 20
2970.0
 10
3646.0
 20
3107.6666666666665
 10
4059.0
 20
3176.5
 10
4059.0
 20
2970.0
 10
3646.0
 20
2970.0
  0
TEXT
  5
F4
330
17
100
AcDbEntity
  8
TESTI
100
AcDbText
 10
3852.5
 20
3073.0
 30
0.0
 40
90.0
  1
CU2(13)413x206CU2
 72
1
 11
3852.5
 21
3073.0
 31
0.0
100
AcDbText
 73
2
  0
LWPOLYLINE
  5
F5
330
17
100
AcDbEntity
  8
BLOCCHI_CUSTOM
100
AcDbPolyline
 90
5
 70
1
 10
4472.0
 20
3245.3333333333335
 10
4472.0
 20
2970.0
 10
4059.0
 20
2970.0
 10
4059.0
 20
3176.5
 10
4472.0
 20
3245.3333333333335
  0
TEXT
  5
F6
330
17
100
AcDbEntity
  8
TESTI
100
AcDbText
 10
4265.5
 20
3107.5
 30
0.0
 40
90.0
  1
CU2(14)413x275CU2
 72
1
 11
4265.5
 21
3107.5
 31
0.0
100
AcDbText
 73
2
  0
LWPOLYLINE
  5
F7
330
17
100
AcDbEntity
  8
BLOCCHI_CUSTOM
100
AcDbPolyline
 90
5
 70
1
 10
4885.0
 20
3314.1666666666665
 10
4885.0
 20
2970.0
 10
4472.0
 20
2970.0
 10
4472.0
 20
3245.3333333333335
 10
4885.0
 20
3314.1666666666665
  0
TEXT
  5
F8
330
17
100
AcDbEntity
  8
TESTI
100
AcDbText
 10
4678.5
 20
3142.0
 30
0.0
 40
90.0
  1
CU2(15)413x344CU2
 72
1
 11
4678.5
 21
3142.0
 31
0.0
100
AcDbText
 73
2
  0
LWPOLYLINE
  5
F9
330
17
100
AcDbEntity
  8
BLOCCHI_CUSTOM
100
AcDbPolyline
 90
5
 70
1
 10
5298.0
 20
3383.0
 10
5298.0
 20
2970.0
 10
4885.0
 20
2970.0
 10
4885.0
 20
3314.1666666666665
 10
5298.0
 20
3383.0
  0
TEXT
  5
FA
330
17
100
AcDbEntity
  8
TESTI
100
AcDbText
 10
5091.5
 20
3176.5
 30
0.0
 40
90.0
  1
CU2(16)413x413CU2
 72
1
 11
5091.5
 21
3176.5
 31
0.0
100
AcDbText
 73
2
  0
LWPOLYLINE
  5
FB
330
17
100
AcDbEntity
  8
BLOCCHI_CUSTOM
100
AcDbPolyline
 90
5
 70
1
 10
5711.0
 20
3451.8333333333335
 10
5711.0
 20
2970.0
 10
5298.0
 20
2970.0
 10
5298.0
 20
3383.0
 10
5711.0
 20
3451.8333333333335
  0
TEXT
  5
FC
330
17
100
AcDbEntity
  8
TESTI
100
AcDbText
 10
5504.5
 20
3211.0
 30
0.0
 40
90.0
  1
CU2(17)413x482CU2
 72
1
 11
5504.5
 21
3211.0
 31
0.0
100
AcDbText
 73
2
  0
LWPOLYLINE
  5
FD
330
17
100
AcDbEntity
  8
BLOCCHI_CUSTOM
100
AcDbPolyline
 90
6
 70
1
 10
5790.0
 20
3465.0
 10
6124.0
 20
3465.0
 10
6124.0
 20
2970.0
 10
5711.0
 20
2970.0
 10
5711.0
 20
3451.8333333333335
 10
5790.0
 20
3465.0
  0
TEXT
  5
FE
330
17
100
AcDbEntity
  8
TESTI
100
AcDbText
 10
5917.5
 20
3217.5
 30
0.0
 40
90.0
  1
CU1(24)413x495CU1
 72
1
 11
5917.5
 21
3217.5
 31
0.0
100
AcDbText
 73
2
  0
LWPOLYLINE
  5
FF
330
17
100
AcDbEntity
  8
BLOCCHI_CUSTOM
100
AcDbPolyline
 90
5
 70
1
 10
6537.0
 20
3465.0
 10
6537.0
 20
2970.0
 10
6124.0
 20
2970.0
 10
6124.0
 20
3465.0
 10
6537.0
 20
3465.0
  0
TEXT
  5
100
330
17
100
AcDbEntity
  8
TESTI
100
AcDbText
 10
6330.5
 20
3217.5
 30
0.0
 40
90.0
  1
CU1(25)413x495CU1
 72
1
 11
6330.5
 21
3217.5
 31
0.0
100
AcDbText
 73
2
  0
LWPOLYLINE
  5
101
330
17
100
AcDbEntity
  8
BLOCCHI_CUSTOM
100
AcDbPolyline
 90
5
 70
1
 10
11906.0
 20
2970.0
 10
11906.0
 20
3465.0
 10
12000.0
 20
3465.0
 10
12000.0
 20
2970.0
 10
11906.0
 20
2970.0
  0
TEXT
  5
102
330
17
100
AcDbEntity
  8
TESTI
100
AcDbText
 10
11953.0
 20
3217.5
 30
0.0
 40
90.0
  1
CU1(26)94x495CU1
 72
1
 11
11953.0
 21
3217.5
 31
0.0
100
AcDbText
 73
2
  0
LWPOLYLINE
  5
103
330
17
100
AcDbEntity
  8
BLOCCHI_CUSTOM
100
AcDbPolyline
 90
4
 70
1
 10
5790.0
 20
3465.0
 10
6203.0
 20
3533.833333333333
 10
6203.0
 20
3465.0
 10
5790.0
 20
3465.0
  0
TEXT
  5
104
330
17
100
AcDbEntity
  8
TESTI
100
AcDbText
 10
5996.5
 20
3499.5
 30
0.0
 40
90.0
  1
CU2(18)413x69CU2
 72
1
 11
5996.5
 21
3499.5
 31
0.0
100
AcDbText
 73
2
  0
LWPOLYLINE
  5
105
330
17
100
AcDbEntity
  8
BLOCCHI_CUSTOM
100
AcDbPolyline
 90
5
 70
1
 10
6203.0
 20
3465.0
 10
6203.0
 20
3533.833333333333
 10
6616.0
 20
3602.6666666666665
 10
6616.0
 20
3465.0
 10
6203.0
 20
3465.0
  0
TEXT
  5
106
330
17
100
AcDbEntity
  8
TESTI
100
AcDbText
 10
6409.5
 20
3534.0
 30
0.0
 40
90.0
  1
CU2(19)413x138CU2
 72
1
 11
6409.5
 21
3534.0
 31
0.0
100
AcDbText
 73
2
  0
LWPOLYLINE
  5
107
330
17
100
AcDbEntity
  8
BLOCCHI_CUSTOM
100
AcDbPolyline
 90
5
 70
1
 10
7029.0
 20
3671.5
 10
7029.0
 20
3465.0
 10
6616.0
 20
3465.0
 10
6616.0
 20
3602.6666666666665
 10
7029.0
 20
3671.5
  0
TEXT
  5
108
330
17
100
AcDbEntity
  8
TESTI
100
AcDbText
 10
6822.5
 20
3568.0
 30
0.0
 40
90.0
  1
CU2(20)413x206CU2
 72
1
 11
6822.5
 21
3568.0
 31
0.0
100
AcDbText
 73
2
  0
LWPOLYLINE
  5
109
330
17
100
AcDbEntity
  8
BLOCCHI_CUSTOM
100
AcDbPolyline
 90
5
 70
1
 10
7442.0
 20
3740.333333333333
 10
7442.0
 20
3465.0
 10
7029.0
 20
3465.0
 10
7029.0
 20
3671.5
 10
7442.0
 20
3740.333333333333
  0
TEXT
  5
10A
330
17
100
AcDbEntity
  8
TESTI
100
AcDbText
 10
7235.5
 20
3602.5
 30
0.0
 40
90.0
  1
CU2(21)413x275CU2
 72
1
 11
7235.5
 21
3602.5
 31
0.0
100
AcDbText
 73
2
  0
LWPOLYLINE
  5
10B
330
17
100
AcDbEntity
  8
BLOCCHI_CUSTOM
100
AcDbPolyline
 90
5
 70
1
 10
7855.0
 20
3809.1666666666665
 10
7855.0
 20
3465.0
 10
7442.0
 20
3465.0
 10
7442.0
 20
3740.333333333333
 10
7855.0
 20
3809.1666666666665
  0
TEXT
  5
10C
330
17
100
AcDbEntity
  8
TESTI
100
AcDbText
 10
7648.5
 20
3637.0
 30
0.0
 40
90.0
  1
CU2(22)413x344CU2
 72
1
 11
7648.5
 21
3637.0
 31
0.0
100
AcDbText
 73
2
  0
LWPOLYLINE
  5
10D
330
17
100
AcDbEntity
  8
BLOCCHI_CUSTOM
100
AcDbPolyline
 90
5
 70
1
 10
8268.0
 20
3878.0
 10
8268.0
 20
3465.0
 10
7855.0
 20
3465.0
 10
7855.0
 20
3809.1666666666665
 10
8268.0
 20
3878.0
  0
TEXT
  5
10E
330
17
100
AcDbEntity
  8
TESTI
100
AcDbText
 10
8061.5
 20
3671.5
 30
0.0
 40
90.0
  1
CU2(23)413x413CU2
 72
1
 11
8061.5
 21
3671.5
 31
0.0
100
AcDbText
 73
2
  0
LWPOLYLINE
  5
10F
330
17
100
AcDbEntity
  8
BLOCCHI_CUSTOM
100
AcDbPolyline
 90
5
 70
1
 10
8681.0
 20
3946.8333333333335
 10
8681.0
 20
3465.0
 10
8268.0
 20
3465.0
 10
8268.0
 20
3878.0
 10
8681.0
 20
3946.8333333333335
  0
TEXT
  5
110
330
17
100
AcDbEntity
  8
TESTI
100
AcDbText
 10
8474.5
 20
3706.0
 30
0.0
 40
90.0
  1
CU2(24)413x482CU2
 72
1
 11
8474.5
 21
3706.0
 31
0.0
100
AcDbText
 73
2
  0
LWPOLYLINE
  5
111
330
17
100
AcDbEntity
  8
BLOCCHI_CUSTOM
100
AcDbPolyline
 90
6
 70
1
 10
8760.0
 20
3960.0
 10
9094.0
 20
3960.0
 10
9094.0
 20
3465.0
 10
8681.0
 20
3465.0
 10
8681.0
 20
3946.8333333333335
 10
8760.0
 20
3960.0
  0
TEXT
  5
112
330
17
100
AcDbEntity
  8
TESTI
100
AcDbText
 10
8887.5
 20
3712.5
 30
0.0
 40
90.0
  1
CU1(27)413x495CU1
 72
1
 11
8887.5
 21
3712.5
 31
0.0
100
AcDbText
 73
2
  0
LWPOLYLINE
  5
113
330
17
100
AcDbEntity
  8
BLOCCHI_CUSTOM
100
AcDbPolyline
 90
5
 70
1
 10
11985.0
 20
3465.0
 10
11985.0
 20
3960.0
 10
12000.0
 20
3960.0
 10
12000.0
 20
3465.0
 10
11985.0
 20
3465.0
  0
TEXT
  5
114
330
17
100
AcDbEntity
  8
TESTI
100
AcDbText
 10
11992.5
 20
3712.5
 30
0.0
 40
90.0
  1
CU1(28)15x495CU1
 72
1
 11
11992.5
 21
3712.5
 31
0.0
100
AcDbText
 73
2
  0
LWPOLYLINE
  5
115
330
17
100
AcDbEntity
  8
BLOCCHI_CUSTOM
100
AcDbPolyline
 90
4
 70
1
 10
8760.0
 20
3960.0
 10
9173.0
 20
4028.8333333333335
 10
9173.0
 20
3960.0
 10
8760.0
 20
3960.0
  0
TEXT
  5
116
330
17
100
AcDbEntity
  8
TESTI
100
AcDbText
 10
8966.5
 20
3994.5
 30
0.0
 40
90.0
  1
CU2(25)413x69CU2
 72
1
 11
8966.5
 21
3994.5
 31
0.0
100
AcDbText
 73
2
  0
LWPOLYLINE
  5
117
330
17
100
AcDbEntity
  8
BLOCCHI_CUSTOM
100
AcDbPolyline
 90
5
 70
1
 10
9173.0
 20
3960.0
 10
9173.0
 20
4028.8333333333335
 10
9586.0
 20
4097.666666666667
 10
9586.0
 20
3960.0
 10
9173.0
 20
3960.0
  0
TEXT
  5
118
330
17
100
AcDbEntity
  8
TESTI
100
AcDbText
 10
9379.5
 20
4029.0
 30
0.0
 40
90.0
  1
CU2(26)413x138CU2
 72
1
 11
9379.5
 21
4029.0
 31
0.0
100
AcDbText
 73
2
  0
LWPOLYLINE
  5
119
330
17
100
AcDbEntity
  8
BLOCCHI_CUSTOM
100
AcDbPolyline
 90
5
 70
1
 10
9586.0
 20
3960.0
 10
9586.0
 20
4097.666666666667
 10
9999.0
 20
4166.5
 10
9999.0
 20
3960.0
 10
9586.0
 20
3960.0
  0
TEXT
  5
11A
330
17
100
AcDbEntity
  8
TESTI
100
AcDbText
 10
9792.5
 20
4063.0
 30
0.0
 40
90.0
  1
CU2(27)413x206CU2
 72
1
 11
9792.5
 21
4063.0
 31
0.0
100
AcDbText
 73
2
  0
LWPOLYLINE
  5
11B
330
17
100
AcDbEntity
  8
BLOCCHI_CUSTOM
100
AcDbPolyline
 90
5
 70
1
 10
10412.0
 20
4235.333333333333
 10
10412.0
 20
3960.0
 10
9999.0
 20
3960.0
 10
9999.0
 20
4166.5
 10
10412.0
 20
4235.333333333333
  0
TEXT
  5
11C
330
17
100
AcDbEntity
  8
TESTI
100
AcDbText
 10
10205.5
 20
4097.5
 30
0.0
 40
90.0
  1
CU2(28)413x275CU2
 72
1
 11
10205.5
 21
4097.5
 31
0.0
100
AcDbText
 73
2
  0
LWPOLYLINE
  5
11D
330
17
100
AcDbEntity
  8
BLOCCHI_CUSTOM
100
AcDbPolyline
 90
5
 70
1
 10
10825.0
 20
4304.166666666667
 10
10825.0
 20
3960.0
 10
10412.0
 20
3960.0
 10
10412.0
 20
4235.333333333333
 10
10825.0
 20
4304.166666666667
  0
TEXT
  5
11E
330
17
100
AcDbEntity
  8
TESTI
100
AcDbText
 10
10618.5
 20
4132.0
 30
0.0
 40
90.0
  1
CU2(29)413x344CU2
 72
1
 11
10618.5
 21
4132.0
 31
0.0
100
AcDbText
 73
2
  0
LWPOLYLINE
  5
11F
330
17
100
AcDbEntity
  8
BLOCCHI_CUSTOM
100
AcDbPolyline
 90
5
 70
1
 10
11238.0
 20
4373.0
 10
11238.0
 20
3960.0
 10
10825.0
 20
3960.0
 10
10825.0
 20
4304.166666666667
 10
11238.0
 20
4373.0
  0
TEXT
  5
120
330
17
100
AcDbEntity
  8
TESTI
100
AcDbText
 10
11031.5
 20
4166.5
 30
0.0
 40
90.0
  1
CU2(30)413x413CU2
 72
1
 11
11031.5
 21
4166.5
 31
0.0
100
AcDbText
 73
2
  0
LWPOLYLINE
  5
121
330
17
100
AcDbEntity
  8
BLOCCHI_CUSTOM
100
AcDbPolyline
 90
5
 70
1
 10
11651.0
 20
4441.833333333333
 10
11651.0
 20
3960.0
 10
11238.0
 20
3960.0
 10
11238.0
 20
4373.0
 10
11651.0
 20
4441.833333333333
  0
TEXT
  5
122
330
17
100
AcDbEntity
  8
TESTI
100
AcDbText
 10
11444.5
 20
4201.0
 30
0.0
 40
90.0
  1
CU2(31)413x482CU2
 72
1
 11
11444.5
 21
4201.0
 31
0.0
100
AcDbText
 73
2
  0
LWPOLYLINE
  5
123
330
17
100
AcDbEntity
  8
BLOCCHI_CUSTOM
100
AcDbPolyline
 90
6
 70
1
 10
11730.0
 20
4455.0
 10
12000.0
 20
4455.0
 10
12000.0
 20
3960.0
 10
11651.0
 20
3960.0
 10
11651.0
 20
4441.833333333333
 10
11730.0
 20
4455.0
  0
TEXT
  5
124
330
17
100
AcDbEntity
  8
TESTI
100
AcDbText
 10
11825.5
 20
4207.5
 30
0.0
 40
90.0
  1
CU1(29)349x495CU1
 72
1
 11
11825.5
 21
4207.5
 31
0.0
100
AcDbText
 73
2
  0
DIMENSION
  5
125
330
17
100
AcDbEntity
  8
QUOTE
100
AcDbDimension
280
0
  3
Standard
 10
0.0
 20
-300.0
 30
0.0
 70
32
 71
5
  1
12000
100
AcDbAlignedDimension
 13
0.0
 23
0.0
 33
0.0
 14
12000.0
 24
0.0
 34
0.0
 50
0.0
100
AcDbRotatedDimension
  0
DIMENSION
  5
126
330
17
100
AcDbEntity
  8
QUOTE
100
AcDbDimension
280
0
  3
Standard
 10
-300.0
 20
0.0
 30
0.0
 70
32
 71
5
  1
4500
100
AcDbAlignedDimension
 13
0.0
 23
0.0
 33
0.0
 14
0.0
 24
4500.0
 34
0.0
 50
0.0
100
AcDbRotatedDimension
  0
TEXT
  5
127
330
17
100
AcDbEntity
  8
TESTI
100
AcDbText
 10
6000.0
 20
5300.0
 30
0.0
 40
300.0
  1
LAYOUT PARETE PRINCIPALE
 72
1
 11
6000.0
 21
5300.0
 31
0.0
100
AcDbText
 73
2
  0
TEXT
  5
128
330
17
100
AcDbEntity
  8
TESTI
100
AcDbText
 10
18300.0
 20
2100.0
 30
0.0
 40
250.0
  1
SCHEMA DI TAGLIO
 72
1
 11
18300.0
 21
2100.0
 31
0.0
100
AcDbText
 73
2
  0
TEXT
  5
129
330
17
100
AcDbEntity
  8
TESTI
100
AcDbText
 10
18300.0
 20
1800.0
 30
0.0
 40
200.0
  1
PEZZI CUSTOM
 72
1
 11
18300.0
 21
1800.0
 31
0.0
100
AcDbText
 73
2
  0
LWPOLYLINE
  5
12A
330
17
100
AcDbEntity
  8
TAGLIO
100
AcDbPolyline
 90
5
 70
0
 10
13600.0
 20
700.0
 10
14013.0
 20
700.0
 10
14013.0
 20
205.0
 10
13600.0
 20
205.0
 10
13600.0
 20
700.0
  0
TEXT
  5
12B
330
17
100
AcDbEntity
  8
TESTI
100
AcDbText
 10
13806.5
 20
452.5
 30
0.0
 40
100.0
  1
CU1(13)
 72
1
 11
13806.5
 21
452.5
 31
0.0
100
AcDbText
 73
2
  0
TEXT
  5
12C
330
17
100
AcDbEntity
  8
QUOTE
100
AcDbText
 10
13806.5
 20
780.0
 30
0.0
 40
60.0
  1
413
 72
1
 11
13806.5
 21
780.0
 31
0.0
100
AcDbText
 73
2
  0
LWPOLYLINE
  5
12D
330
17
100
AcDbEntity
  8
TAGLIO
100
AcDbPolyline
 90
5
 70
0
 10
14113.0
 20
700.0
 10
14526.0
 20
700.0
 10
14526.0
 20
205.0
 10
14113.0
 20
205.0
 10
14113.0
 20
700.0
  0
TEXT
  5
12E
330
17
100
AcDbEntity
  8
TESTI
100
AcDbText
 10
14319.5
 20
452.5
 30
0.0
 40
100.0
  1
CU1(14)
 72
1
 11
14319.5
 21
452.5
 31
0.0
100
AcDbText
 73
2
  0
TEXT
  5
12F
330
17
100
AcDbEntity
  8
QUOTE
100
AcDbText
 10
14319.5
 20
780.0
 30
0.0
 40
60.0
  1
413
 72
1
 11
14319.5
 21
780.0
 31
0.0
100
AcDbText
 73
2
  0
LWPOLYLINE
  5
130
330
17
100
AcDbEntity
  8
TAGLIO
100
AcDbPolyline
 90
5
 70
0
 10
14626.0
 20
700.0
 10
15039.0
 20
700.0
 10
15039.0
 20
205.0
 10
14626.0
 20
205.0
 10
14626.0
 20
700.0
  0
TEXT
  5
131
330
17
100
AcDbEntity
  8
TESTI
100
AcDbText
 10
14832.5
 20
452.5
 30
0.0
 40
100.0
  1
CU1(15)
 72
1
 11
14832.5
 21
452.5
 31
0.0
100
AcDbText
 73
2
  0
TEXT
  5
132
330
17
100
AcDbEntity
  8
QUOTE
100
AcDbText
 10
14832.5
 20
780.0
 30
0.0
 40
60.0
  1
413
 72
1
 11
14832.5
 21
780.0
 31
0.0
100
AcDbText
 73
2
  0
LWPOLYLINE
  5
133
330
17
100
AcDbEntity
  8
TAGLIO
100
AcDbPolyline
 90
5
 70
0
 10
15139.0
 20
700.0
 10
15552.0
 20
700.0
 10
15552.0
 20
205.0
 10
15139.0
 20
205.0
 10
15139.0
 20
700.0
  0
TEXT
  5
134
330
17
100
AcDbEntity
  8
TESTI
100
AcDbText
 10
15345.5
 20
452.5
 30
0.0
 40
100.0
  1
CU1(16)
 72
1
 11
15345.5
 21
452.5
 31
0.0
100
AcDbText
 73
2
  0
TEXT
  5
135
330
17
100
AcDbEntity
  8
QUOTE
100
AcDbText
 10
15345.5
 20
780.0
 30
0.0
 40
60.0
  1
413
 72
1
 11
15345.5
 21
780.0
 31
0.0
100
AcDbText
 73
2
  0
LWPOLYLINE
  5
136
330
17
100
AcDbEntity
  8
TAGLIO
100
AcDbPolyline
 90
5
 70
0
 10
15652.0
 20
700.0
 10
16065.0
 20
700.0
 10
16065.0
 20
205.0
 10
15652.0
 20
205.0
 10
15652.0
 20
700.0
  0
TEXT
  5
137
330
17
100
AcDbEntity
  8
TESTI
100
AcDbText
 10
15858.5
 20
452.5
 30
0.0
 40
100.0
  1
CU1(17)
 72
1
 11
15858.5
 21
452.5
 31
0.0
100
AcDbText
 73
2
  0
TEXT
  5
138
330
17
100
AcDbEntity
  8
QUOTE
100
AcDbText
 10
15858.5
 20
780.0
 30
0.0
 40
60.0
  1
413
 72
1
 11
15858.5
 21
780.0
 31
0.0
100
AcDbText
 73
2
  0
LWPOLYLINE
  5
139
330
17
100
AcDbEntity
  8
TAGLIO
100
AcDbPolyline
 90
5
 70
0
 10
16165.0
 20
700.0
 10
16578.0
 20
700.0
 10
16578.0
 20
205.0
 10
16165.0
 20
205.0
 10
16165.0
 20
700.0
  0
TEXT
  5
13A
330
17
100
AcDbEntity
  8
TESTI
100
AcDbText
 10
16371.5
 20
452.5
 30
0.0
 40
100.0
  1
CU1(18)
 72
1
 11
16371.5
 21
452.5
 31
0.0
100
AcDbText
 73
2
  0
TEXT
  5
13B
330
17
100
AcDbEntity
  8
QUOTE
100
AcDbText
 10
16371.5
 20
780.0
 30
0.0
 40
60.0
  1
413
 72
1
 11
16371.5
 21
780.0
 31
0.0
100
AcDbText
 73
2
  0
LWPOLYLINE
  5
13C
330
17
100
AcDbEntity
  8
TAGLIO
100
AcDbPolyline
 90
5
 70
0
 10
16678.0
 20
700.0
 10
17091.0
 20
700.0
 10
17091.0
 20
205.0
 10
16678.0
 20
205.0
 10
16678.0
 20
700.0
  0
TEXT
  5
13D
330
17
100
AcDbEntity
  8
TESTI
100
AcDbText
 10
16884.5
 20
452.5
 30
0.0
 40
100.0
  1
CU1(19)
 72
1
 11
16884.5
 21
452.5
 31
0.0
100
AcDbText
 73
2
  0
TEXT
  5
13E
330
17
100
AcDbEntity
  8
QUOTE
100
AcDbText
 10
16884.5
 20
780.0
 30
0.0
 40
60.0
  1
413
 72
1
 11
16884.5
 21
780.0
 31
0.0
100
AcDbText
 73
2
  0
LWPOLYLINE
  5
13F
330
17
100
AcDbEntity
  8
TAGLIO
100
AcDbPolyline
 90
5
 70
0
 10
17191.0
 20
700.0
 10
17604.0
 20
700.0
 10
17604.0
 20
205.0
 10
17191.0
 20
205.0
 10
17191.0
 20
700.0
  0
TEXT
  5
140
330
17
100
AcDbEntity
  8
TESTI
100
AcDbText
 10
17397.5
 20
452.5
 30
0.0
 40
100.0
  1
CU1(20)
 72
1
 11
17397.5
 21
452.5
 31
0.0
100
AcDbText
 73
2
  0
TEXT
  5
141
330
17
100
AcDbEntity
  8
QUOTE
100
AcDbText
 10
17397.5
 20
780.0
 30
0.0
 40
60.0
  1
413
 72
1
 11
17397.5
 21
780.0
 31
0.0
100
AcDbText
 73
2
  0
LWPOLYLINE
  5
142
330
17
100
AcDbEntity
  8
TAGLIO
100
AcDbPolyline
 90
5
 70
0
 10
17704.0
 20
700.0
 10
18117.0
 20
700.0
 10
18117.0
 20
205.0
 10
17704.0
 20
205.0
 10
17704.0
 20
700.0
  0
TEXT
  5
143
330
17
100
AcDbEntity
  8
TESTI
100
AcDbText
 10
17910.5
 20
452.5
 30
0.0
 40
100.0
  1
CU1(22)
 72
1
 11
17910.5
 21
452.5
 31
0.0
100
AcDbText
 73
2
  0
TEXT
  5
144
330
17
100
AcDbEntity
  8
QUOTE
100
AcDbText
 10
17910.5
 20
780.0
 30
0.0
 40
60.0
  1
413
 72
1
 11
17910.5
 21
780.0
 31
0.0
100
AcDbText
 73
2
  0
LWPOLYLINE
  5
145
330
17
100
AcDbEntity
  8
TAGLIO
100
AcDbPolyline
 90
5
 70
0
 10
18217.0
 20
700.0
 10
18630.0
 20
700.0
 10
18630.0
 20
205.0
 10
18217.0
 20
205.0
 10
18217.0
 20
700.0
  0
TEXT
  5
146
330
17
100
AcDbEntity
  8
TESTI
100
AcDbText
 10
18423.5
 20
452.5
 30
0.0
 40
100.0
  1
CU1(24)
 72
1
 11
18423.5
 21
452.5
 31
0.0
100
AcDbText
 73
2
  0
TEXT
  5
147
330
17
100
AcDbEntity
  8
QUOTE
100
AcDbText
 10
18423.5
 20
780.0
 30
0.0
 40
60.0
  1
413
 72
1
 11
18423.5
 21
780.0
 31
0.0
100
AcDbText
 73
2
  0
LWPOLYLINE
  5
148
330
17
100
AcDbEntity
  8
TAGLIO
100
AcDbPolyline
 90
5
 70
0
 10
18730.0
 20
700.0
 10
19143.0
 20
700.0
 10
19143.0
 20
205.0
 10
18730.0
 20
205.0
 10
18730.0
 20
700.0
  0
TEXT
  5
149
330
17
100
AcDbEntity
  8
TESTI
100
AcDbText
 10
18936.5
 20
452.5
 30
0.0
 40
100.0
  1
CU1(25)
 72
1
 11
18936.5
 21
452.5
 31
0.0
100
AcDbText
 73
2
  0
TEXT
  5
14A
330
17
100
AcDbEntity
  8
QUOTE
100
AcDbText
 10
18936.5
 20
780.0
 30
0.0
 40
60.0
  1
413
 72
1
 11
18936.5
 21
780.0
 31
0.0
100
AcDbText
 73
2
  0
LWPOLYLINE
  5
14B
330
17
100
AcDbEntity
  8
TAGLIO
100
AcDbPolyline
 90
5
 70
0
 10
19243.0
 20
700.0
 10
19656.0
 20
700.0
 10
19656.0
 20
205.0
 10
19243.0
 20
205.0
 10
19243.0
 20
700.0
  0
TEXT
  5
14C
330
17
100
AcDbEntity
  8
TESTI
100
AcDbText
 10
19449.5
 20
452.5
 30
0.0
 40
100.0
  1
CU1(27)
 72
1
 11
19449.5
 21
452.5
 31
0.0
100
AcDbText
 73
2
  0
TEXT
  5
14D
330
17
100
AcDbEntity
  8
QUOTE
100
AcDbText
 10
19449.5
 20
780.0
 30
0.0
 40
60.0
  1
413
 72
1
 11
19449.5
 21
780.0
 31
0.0
100
AcDbText
 73
2
  0
LWPOLYLINE
  5
14E
330
17
100
AcDbEntity
  8
TAGLIO
100
AcDbPolyline
 90
5
 70
0
 10
19756.0
 20
700.0
 10
20105.0
 20
700.0
 10
20105.0
 20
205.0
 10
19756.0
 20
205.0
 10
19756.0
 20
700.0
  0
TEXT
  5
14F
330
17
100
AcDbEntity
  8
TESTI
100
AcDbText
 10
19930.5
 20
452.5
 30
0.0
 40
100.0
  1
CU1(29)
 72
1
 11
19930.5
 21
452.5
 31
0.0
100
AcDbText
 73
2
  0
TEXT
  5
150
330
17
100
AcDbEntity
  8
QUOTE
100
AcDbText
 10
19930.5
 20
780.0
 30
0.0
 40
60.0
  1
349
 72
1
 11
19930.5
 21
780.0
 31
0.0
100
AcDbText
 73
2
  0
LWPOLYLINE
  5
151
330
17
100
AcDbEntity
  8
TAGLIO
100
AcDbPolyline
 90
5
 70
0
 10
20205.0
 20
700.0
 10
20551.0
 20
700.0
 10
20551.0
 20
205.0
 10
20205.0
 20
205.0
 10
20205.0
 20
700.0
  0
TEXT
  5
152
330
17
100
AcDbEntity
  8
TESTI
100
AcDbText
 10
20378.0
 20
452.5
 30
0.0
 40
100.0
  1
CU1(1)
 72
1
 11
20378.0
 21
452.5
 31
0.0
100
AcDbText
 73
2
  0
TEXT
  5
153
330
17
100
AcDbEntity
  8
QUOTE
100
AcDbText
 10
20378.0
 20
780.0
 30
0.0
 40
60.0
  1
346
 72
1
 11
20378.0
 21
780.0
 31
0.0
100
AcDbText
 73
2
  0
LWPOLYLINE
  5
154
330
17
100
AcDbEntity
  8
TAGLIO
100
AcDbPolyline
 90
5
 70
0
 10
20651.0
 20
700.0
 10
20997.0
 20
700.0
 10
20997.0
 20
205.0
 10
20651.0
 20
205.0
 10
20651.0
 20
700.0
  0
TEXT
  5
155
330
17
100
AcDbEntity
  8
TESTI
100
AcDbText
 10
20824.0
 20
452.5
 30
0.0
 40
100.0
  1
CU1(4)
 72
1
 11
20824.0
 21
452.5
 31
0.0
100
AcDbText
 73
2
  0
TEXT
  5
156
330
17
100
AcDbEntity
  8
QUOTE
100
AcDbText
 10
20824.0
 20
780.0
 30
0.0
 40
60.0
  1
346
 72
1
 11
20824.0
 21
780.0
 31
0.0
100
AcDbText
 73
2
  0
LWPOLYLINE
  5
157
330
17
100
AcDbEntity
  8
TAGLIO
100
AcDbPolyline
 90
5
 70
0
 10
21097.0
 20
700.0
 10
21443.0
 20
700.0
 10
21443.0
 20
205.0
 10
21097.0
 20
205.0
 10
21097.0
 20
700.0
  0
TEXT
  5
158
330
17
100
AcDbEntity
  8
TESTI
100
AcDbText
 10
21270.0
 20
452.5
 30
0.0
 40
100.0
  1
CU1(7)
 72
1
 11
21270.0
 21
452.5
 31
0.0
100
AcDbText
 73
2
  0
TEXT
  5
159
330
17
100
AcDbEntity
  8
QUOTE
100
AcDbText
 10
21270.0
 20
780.0
 30
0.0
 40
60.0
  1
346
 72
1
 11
21270.0
 21
780.0
 31
0.0
100
AcDbText
 73
2
  0
LWPOLYLINE
  5
15A
330
17
100
AcDbEntity
  8
TAGLIO
100
AcDbPolyline
 90
5
 70
0
 10
21543.0
 20
700.0
 10
21889.0
 20
700.0
 10
21889.0
 20
205.0
 10
21543.0
 20
205.0
 10
21543.0
 20
700.0
  0
TEXT
  5
15B
330
17
100
AcDbEntity
  8
TESTI
100
AcDbText
 10
21716.0
 20
452.5
 30
0.0
 40
100.0
  1
CU1(10)
 72
1
 11
21716.0
 21
452.5
 31
0.0
100
AcDbText
 73
2
  0
TEXT
  5
15C
330
17
100
AcDbEntity
  8
QUOTE
100
AcDbText
 10
21716.0
 20
780.0
 30
0.0
 40
60.0
  1
346
 72
1
 11
21716.0
 21
780.0
 31
0.0
100
AcDbText
 73
2
  0
LWPOLYLINE
  5
15D
330
17
100
AcDbEntity
  8
TAGLIO
100
AcDbPolyline
 90
5
 70
0
 10
21989.0
 20
700.0
 10
22329.0
 20
700.0
 10
22329.0
 20
205.0
 10
21989.0
 20
205.0
 10
21989.0
 20
700.0
  0
TEXT
  5
15E
330
17
100
AcDbEntity
  8
TESTI
100
AcDbText
 10
22159.0
 20
452.5
 30
0.0
 40
100.0
  1
CU1(2)
 72
1
 11
22159.0
 21
452.5
 31
0.0
100
AcDbText
 73
2
  0
TEXT
  5
15F
330
17
100
AcDbEntity
  8
QUOTE
100
AcDbText
 10
22159.0
 20
780.0
 30
0.0
 40
60.0
  1
340
 72
1
 11
22159.0
 21
780.0
 31
0.0
100
AcDbText
 73
2
  0
LWPOLYLINE
  5
160
330
17
100
AcDbEntity
  8
TAGLIO
100
AcDbPolyline
 90
5
 70
0
 10
22429.0
 20
700.0
 10
22769.0
 20
700.0
 10
22769.0
 20
205.0
 10
22429.0
 20
205.0
 10
22429.0
 20
700.0
  0
TEXT
  5
161
330
17
100
AcDbEntity
  8
TESTI
100
AcDbText
 10
22599.0
 20
452.5
 30
0.0
 40
100.0
  1
CU1(5)
 72
1
 11
22599.0
 21
452.5
 31
0.0
100
AcDbText
 73
2
  0
TEXT
  5
162
330
17
100
AcDbEntity
  8
QUOTE
100
AcDbText
 10
22599.0
 20
780.0
 30
0.0
 40
60.0
  1
340
 72
1
 11
22599.0
 21
780.0
 31
0.0
100
AcDbText
 73
2
  0
TEXT
  5
163
330
17
100
AcDbEntity
  8
TESTI
100
AcDbText
 10
2900.0
 20
-1300.0
 30
0.0
 40
150.0
  1
BLOCCHI STANDARD
 72
1
 11
2900.0
 21
-1300.0
 31
0.0
100
AcDbText
 73
2
  0
LWPOLYLINE
  5
164
330
17
100
AcDbEntity
  8
CARTIGLIO
100
AcDbPolyline
 90
5
 70
0
 10
0.0
 20
-1500.0
 10
2320.0
 20
-1500.0
 10
2320.0
 20
-1700.0
 10
0.0
 20
-1700.0
 10
0.0
 20
-1500.0
  0
TEXT
  5
165
330
17
100
AcDbEntity
  8
TESTI
100
AcDbText
 10
1160.0
 20
-1600.0
 30
0.0
 40
80.0
  1
TIPO
 72
1
 11
1160.0
 21
-1600.0
 31
0.0
100
AcDbText
 73
2
  0
LWPOLYLINE
  5
166
330
17
100
AcDbEntity
  8
CARTIGLIO
100
AcDbPolyline
 90
5
 70
0
 10
2320.0
 20
-1500.0
 10
3480.0
 20
-1500.0
 10
3480.0
 20
-1700.0
 10
2320.0
 20
-1700.0
 10
2320.0
 20
-1500.0
  0
TEXT
  5
167
330
17
100
AcDbEntity
  8
TESTI
100
AcDbText
 10
2900.0
 20
-1600.0
 30
0.0
 40
80.0
  1
QT
 72
1
 11
2900.0
 21
-1600.0
 31
0.0
100
AcDbText
 73
2
  0
LWPOLYLINE
  5
168
330
17
100
AcDbEntity
  8
CARTIGLIO
100
AcDbPolyline
 90
5
 70
0
 10
3480.0
 20
-1500.0
 10
5800.0
 20
-1500.0
 10
5800.0
 20
-1700.0
 10
3480.0
 20
-1700.0
 10
3480.0
 20
-1500.0
  0
TEXT
  5
169
330
17
100
AcDbEntity
  8
TESTI
100
AcDbText
 10
4640.0
 20
-1600.0
 30
0.0
 40
80.0
  1
DIMENSIONI
 72
1
 11
4640.0
 21
-1600.0
 31
0.0
100
AcDbText
 73
2
  0
LWPOLYLINE
  5
16A
330
17
100
AcDbEntity
  8
CARTIGLIO
100
AcDbPolyline
 90
5
 70
0
 10
0.0
 20
-1900.0
 10
2320.0
 20
-1900.0
 10
2320.0
 20
-2100.0
 10
0.0
 20
-2100.0
 10
0.0
 20
-1900.0
  0
TEXT
  5
16B
330
17
100
AcDbEntity
  8
TESTI
100
AcDbText
 10
1160.0
 20
-2000.0
 30
0.0
 40
70.0
  1
Tipo A
 72
1
 11
1160.0
 21
-2000.0
 31
0.0
100
AcDbText
 73
2
  0
LWPOLYLINE
  5
16C
330
17
100
AcDbEntity
  8
CARTIGLIO
100
AcDbPolyline
 90
5
 70
0
 10
2320.0
 20
-1900.0
 10
3480.0
 20
-1900.0
 10
3480.0
 20
-2100.0
 10
2320.0
 20
-2100.0
 10
2320.0
 20
-1900.0
  0
TEXT
  5
16D
330
17
100
AcDbEntity
  8
TESTI
100
AcDbText
 10
2900.0
 20
-2000.0
 30
0.0
 40
70.0
  1
38
 72
1
 11
2900.0
 21
-2000.0
 31
0.0
100
AcDbText
 73
2
  0
LWPOLYLINE
  5
16E
330
17
100
AcDbEntity
  8
CARTIGLIO
100
AcDbPolyline
 90
5
 70
0
 10
3480.0
 20
-1900.0
 10
5800.0
 20
-1900.0
 10
5800.0
 20
-2100.0
 10
3480.0
 20
-2100.0
 10
3480.0
 20
-1900.0
  0
TEXT
  5
16F
330
17
100
AcDbEntity
  8
TESTI
100
AcDbText
 10
4640.0
 20
-2000.0
 30
0.0
 40
70.0
  1
1239495
 72
1
 11
4640.0
 21
-2000.0
 31
0.0
100
AcDbText
 73
2
  0
LWPOLYLINE
  5
170
330
17
100
AcDbEntity
  8
CARTIGLIO
100
AcDbPolyline
 90
5
 70
0
 10
0.0
 20
-2100.0
 10
2320.0
 20
-2100.0
 10
2320.0
 20
-2300.0
 10
0.0
 20
-2300.0
 10
0.0
 20
-2100.0
  0
TEXT
  5
171
330
17
100
AcDbEntity
  8
TESTI
100
AcDbText
 10
1160.0
 20
-2200.0
 30
0.0
 40
70.0
  1
Tipo B
 72
1
 11
1160.0
 21
-2200.0
 31
0.0
100
AcDbText
 73
2
  0
LWPOLYLINE
  5
172
330
17
100
AcDbEntity
  8
CARTIGLIO
100
AcDbPolyline
 90
5
 70
0
 10
2320.0
 20
-2100.0
 10
3480.0
 20
-2100.0
 10
3480.0
 20
-2300.0
 10
2320.0
 20
-2300.0
 10
2320.0
 20
-2100.0
  0
TEXT
  5
173
330
17
100
AcDbEntity
  8
TESTI
100
AcDbText
 10
2900.0
 20
-2200.0
 30
0.0
 40
70.0
  1
11
 72
1
 11
2900.0
 21
-2200.0
 31
0.0
100
AcDbText
 73
2
  0
LWPOLYLINE
  5
174
330
17
100
AcDbEntity
  8
CARTIGLIO
100
AcDbPolyline
 90
5
 70
0
 10
3480.0
 20
-2100.0
 10
5800.0
 20
-2100.0
 10
5800.0
 20
-2300.0
 10
3480.0
 20
-2300.0
 10
3480.0
 20
-2100.0
  0
TEXT
  5
175
330
17
100
AcDbEntity
  8
TESTI
100
AcDbText
 10
4640.0
 20
-2200.0
 30
0.0
 40
70.0
  1
826495
 72
1
 11
4640.0
 21
-2200.0
 31
0.0
100
AcDbText
 73
2
  0
LWPOLYLINE
  5
176
330
17
100
AcDbEntity
  8
CARTIGLIO
100
AcDbPolyline
 90
5
 70
0
 10
0.0
 20
-2300.0
 10
2320.0
 20
-2300.0
 10
2320.0
 20
-2500.0
 10
0.0
 20
-2500.0
 10
0.0
 20
-2300.0
  0
TEXT
  5
177
330
17
100
AcDbEntity
  8
TESTI
100
AcDbText
 10
1160.0
 20
-2400.0
 30
0.0
 40
70.0
  1
Tipo C
 72
1
 11
1160.0
 21
-2400.0
 31
0.0
100
AcDbText
 73
2
  0
LWPOLYLINE
  5
178
330
17
100
AcDbEntity
  8
CARTIGLIO
100
AcDbPolyline
 90
5
 70
0
 10
2320.0
 20
-2300.0
 10
3480.0
 20
-2300.0
 10
3480.0
 20
-2500.0
 10
2320.0
 20
-2500.0
 10
2320.0
 20
-2300.0
  0
TEXT
  5
179
330
17
100
AcDbEntity
  8
TESTI
100
AcDbText
 10
2900.0
 20
-2400.0
 30
0.0
 40
70.0
  1
7
 72
1
 11
2900.0
 21
-2400.0
 31
0.0
100
AcDbText
 73
2
  0
LWPOLYLINE
  5
17A
330
17
100
AcDbEntity
  8
CARTIGLIO
100
AcDbPolyline
 90
5
 70
0
 10
3480.0
 20
-2300.0
 10
5800.0
 20
-2300.0
 10
5800.0
 20
-2500.0
 10
3480.0
 20
-2500.0
 10
3480.0
 20
-2300.0
  0
TEXT
  5
17B
330
17
100
AcDbEntity
  8
TESTI
100
AcDbText
 10
4640.0
 20
-2400.0
 30
0.0
 40
70.0
  1
413495
 72
1
 11
4640.0
 21
-2400.0
 31
0.0
100
AcDbText
 73
2
  0
TEXT
  5
17C
330
17
100
AcDbEntity
  8
TESTI
100
AcDbText
 10
8900.0
 20
-1300.0
 30
0.0
 40
150.0
  1
PEZZI CUSTOM
 72
1
 11
8900.0
 21
-1300.0
 31
0.0
100
AcDbText
 73
2
  0
LWPOLYLINE
  5
17D
330
17
100
AcDbEntity
  8
CARTIGLIO
100
AcDbPolyline
 90
5
 70
0
 10
6000.0
 20
-1500.0
 10
7740.0
 20
-1500.0
 10
7740.0
 20
-1700.0
 10
6000.0
 20
-1700.0
 10
6000.0
 20
-1500.0
  0
TEXT
  5
17E
330
17
100
AcDbEntity
  8
TESTI
100
AcDbText
 10
6870.0
 20
-1600.0
 30
0.0
 40
80.0
  1
ID
 72
1
 11
6870.0
 21
-1600.0
 31
0.0
100
AcDbText
 73
2
  0
LWPOLYLINE
  5
17F
330
17
100
AcDbEntity
  8
CARTIGLIO
100
AcDbPolyline
 90
5
 70
0
 10
7740.0
 20
-1500.0
 10
9480.0
 20
-1500.0
 10
9480.0
 20
-1700.0
 10
7740.0
 20
-1700.0
 10
7740.0
 20
-1500.0
  0
TEXT
  5
180
330
17
100
AcDbEntity
  8
TESTI
100
AcDbText
 10
8610.0
 20
-1600.0
 30
0.0
 40
80.0
  1
TIPO
 72
1
 11
8610.0
 21
-1600.0
 31
0.0
100
AcDbText
 73
2
  0
LWPOLYLINE
  5
181
330
17
100
AcDbEntity
  8
CARTIGLIO
100
AcDbPolyline
 90
5
 70
0
 10
9480.0
 20
-1500.0
 10
11800.0
 20
-1500.0
 10
11800.0
 20
-1700.0
 10
9480.0
 20
-1700.0
 10
9480.0
 20
-1500.0
  0
TEXT
  5
182
330
17
100
AcDbEntity
  8
TESTI
100
AcDbText
 10
10640.0
 20
-1600.0
 30
0.0
 40
80.0
  1
DIM
 72
1
 11
10640.0
 21
-1600.0
 31
0.0
100
AcDbText
 73
2
  0
LWPOLYLINE
  5
183
330
17
100
AcDbEntity
  8
CARTIGLIO
100
AcDbPolyline
 90
5
 70
0
 10
6000.0
 20
-1700.0
 10
7740.0
 20
-1700.0
 10
7740.0
 20
-1900.0
 10
6000.0
 20
-1900.0
 10
6000.0
 20
-1700.0
  0
TEXT
  5
184
330
17
100
AcDbEntity
  8
TESTI
100
AcDbText
 10
6870.0
 20
-1800.0
 30
0.0
 40
70.0
  1
CU1(1)
 72
1
 11
6870.0
 21
-1800.0
 31
0.0
100
AcDbText
 73
2
  0
LWPOLYLINE
  5
185
330
17
100
AcDbEntity
  8
CARTIGLIO
100
AcDbPolyline
 90
5
 70
0
 10
7740.0
 20
-1700.0
 10
9480.0
 20
-1700.0
 10
9480.0
 20
-1900.0
 10
7740.0
 20
-1900.0
 10
7740.0
 20
-1700.0
  0
TEXT
  5
186
330
17
100
AcDbEntity
  8
TESTI
100
AcDbText
 10
8610.0
 20
-1800.0
 30
0.0
 40
70.0
  1
CU1
 72
1
 11
8610.0
 21
-1800.0
 31
0.0
100
AcDbText
 73
2
  0
LWPOLYLINE
  5
187
330
17
100
AcDbEntity
  8
CARTIGLIO
100
AcDbPolyline
 90
5
 70
0
 10
9480.0
 20
-1700.0
 10
11800.0
 20
-1700.0
 10
11800.0
 20
-1900.0
 10
9480.0
 20
-1900.0
 10
9480.0
 20
-1700.0
  0
TEXT
  5
188
330
17
100
AcDbEntity
  8
TESTI
100
AcDbText
 10
10640.0
 20
-1800.0
 30
0.0
 40
70.0
  1
346495
 72
1
 11
10640.0
 21
-1800.0
 31
0.0
100
AcDbText
 73
2
  0
LWPOLYLINE
  5
189
330
17
100
AcDbEntity
  8
CARTIGLIO
100
AcDbPolyline
 90
5
 70
0
 10
6000.0
 20
-1900.0
 10
7740.0
 20
-1900.0
 10
7740.0
 20
-2100.0
 10
6000.0
 20
-2100.0
 10
6000.0
 20
-1900.0
  0
TEXT
  5
18A
330
17
100
AcDbEntity
  8
TESTI
100
AcDbText
 10
6870.0
 20
-2000.0
 30
0.0
 40
70.0
  1
CU1(2)
 72
1
 11
6870.0
 21
-2000.0
 31
0.0
100
AcDbText
 73
2
  0
LWPOLYLINE
  5
18B
330
17
100
AcDbEntity
  8
CARTIGLIO
100
AcDbPolyline
 90
5
 70
0
 10
7740.0
 20
-1900.0
 10
9480.0
 20
-1900.0
 10
9480.0
 20
-2100.0
 10
7740.0
 20
-2100.0
 10
7740.0
 20
-1900.0
  0
TEXT
  5
18C
330
17
100
AcDbEntity
  8
TESTI
100
AcDbText
 10
8610.0
 20
-2000.0
 30
0.0
 40
70.0
  1
CU1
 72
1
 11
8610.0
 21
-2000.0
 31
0.0
100
AcDbText
 73
2
  0
LWPOLYLINE
  5
18D
330
17
100
AcDbEntity
  8
CARTIGLIO
100
AcDbPolyline
 90
5
 70
0
 10
9480.0
 20
-1900.0
 10
11800.0
 20
-1900.0
 10
11800.0
 20
-2100.0
 10
9480.0
 20
-2100.0
 10
9480.0
 20
-1900.0
  0
TEXT
  5
18E
330
17
100
AcDbEntity
  8
TESTI
100
AcDbText
 10
10640.0
 20
-2000.0
 30
0.0
 40
70.0
  1
340495
 72
1
 11
10640.0
 21
-2000.0
 31
0.0
100
AcDbText
 73
2
  0
LWPOLYLINE
  5
18F
330
17
100
AcDbEntity
  8
CARTIGLIO
100
AcDbPolyline
 90
5
 70
0
 10
6000.0
 20
-2100.0
 10
7740.0
 20
-2100.0
 10
7740.0
 20
-2300.0
 10
6000.0
 20
-2300.0
 10
6000.0
 20
-2100.0
  0
TEXT
  5
190
330
17
100
AcDbEntity
  8
TESTI
100
AcDbText
 10
6870.0
 20
-2200.0
 30
0.0
 40
70.0
  1
CU1(3)
 72
1
 11
6870.0
 21
-2200.0
 31
0.0
100
AcDbText
 73
2
  0
LWPOLYLINE
  5
191
330
17
100
AcDbEntity
  8
CARTIGLIO
100
AcDbPolyline
 90
5
 70
0
 10
7740.0
 20
-2100.0
 10
9480.0
 20
-2100.0
 10
9480.0
 20
-2300.0
 10
7740.0
 20
-2300.0
 10
7740.0
 20
-2100.0
  0
TEXT
  5
192
330
17
100
AcDbEntity
  8
TESTI
100
AcDbText
 10
8610.0
 20
-2200.0
 30
0.0
 40
70.0
  1
CU1
 72
1
 11
8610.0
 21
-2200.0
 31
0.0
100
AcDbText
 73
2
  0
LWPOLYLINE
  5
193
330
17
100
AcDbEntity
  8
CARTIGLIO
100
AcDbPolyline
 90
5
 70
0
 10
9480.0
 20
-2100.0
 10
11800.0
 20
-2100.0
 10
11800.0
 20
-2300.0
 10
9480.0
 20
-2300.0
 10
9480.0
 20
-2100.0
  0
TEXT
  5
194
330
17
100
AcDbEntity
  8
TESTI
100
AcDbText
 10
10640.0
 20
-2200.0
 30
0.0
 40
70.0
  1
233495
 72
1
 11
10640.0
 21
-2200.0
 31
0.0
100
AcDbText
 73
2
  0
LWPOLYLINE
  5
195
330
17
100
AcDbEntity
  8
CARTIGLIO
100
AcDbPolyline
 90
5
 70
0
 10
6000.0
 20
-2300.0
 10
7740.0
 20
-2300.0
 10
7740.0
 20
-2500.0
 10
6000.0
 20
-2500.0
 10
6000.0
 20
-2300.0
  0
TEXT
  5
196
330
17
100
AcDbEntity
  8
TESTI
100
AcDbText
 10
6870.0
 20
-2400.0
 30
0.0
 40
70.0
  1
CU1(4)
 72
1
 11
6870.0
 21
-2400.0
 31
0.0
100
AcDbText
 73
2
  0
LWPOLYLINE
  5
197
330
17
100
AcDbEntity
  8
CARTIGLIO
100
AcDbPolyline
 90
5
 70
0
 10
7740.0
 20
-2300.0
 10
9480.0
 20
-2300.0
 10
9480.0
 20
-2500.0
 10
7740.0
 20
-2500.0
 10
7740.0
 20
-2300.0
  0
TEXT
  5
198
330
17
100
AcDbEntity
  8
TESTI
100
AcDbText
 10
8610.0
 20
-2400.0
 30
0.0
 40
70.0
  1
CU1
 72
1
 11
8610.0
 21
-2400.0
 31
0.0
100
AcDbText
 73
2
  0
LWPOLYLINE
  5
199
330
17
100
AcDbEntity
  8
CARTIGLIO
100
AcDbPolyline
 90
5
 70
0
 10
9480.0
 20
-2300.0
 10
11800.0
 20
-2300.0
 10
11800.0
 20
-2500.0
 10
9480.0
 20
-2500.0
 10
9480.0
 20
-2300.0
  0
TEXT
  5
19A
330
17
100
AcDbEntity
  8
TESTI
100
AcDbText
 10
10640.0
 20
-2400.0
 30
0.0
 40
70.0
  1
346495
 72
1
 11
10640.0
 21
-2400.0
 31
0.0
100
AcDbText
 73
2
  0
LWPOLYLINE
  5
19B
330
17
100
AcDbEntity
  8
CARTIGLIO
100
AcDbPolyline
 90
5
 70
0
 10
6000.0
 20
-2500.0
 10
7740.0
 20
-2500.0
 10
7740.0
 20
-2700.0
 10
6000.0
 20
-2700.0
 10
6000.0
 20
-2500.0
  0
TEXT
  5
19C
330
17
100
AcDbEntity
  8
TESTI
100
AcDbText
 10
6870.0
 20
-2600.0
 30
0.0
 40
70.0
  1
CU1(5)
 72
1
 11
6870.0
 21
-2600.0
 31
0.0
100
AcDbText
 73
2
  0
LWPOLYLINE
  5
19D
330
17
100
AcDbEntity
  8
CARTIGLIO
100
AcDbPolyline
 90
5
 70
0
 10
7740.0
 20
-2500.0
 10
9480.0
 20
-2500.0
 10
9480.0
 20
-2700.0
 10
7740.0
 20
-2700.0
 10
7740.0
 20
-2500.0
  0
TEXT
  5
19E
330
17
100
AcDbEntity
  8
TESTI
100
AcDbText
 10
8610.0
 20
-2600.0
 30
0.0
 40
70.0
  1
CU1
 72
1
 11
8610.0
 21
-2600.0
 31
0.0
100
AcDbText
 73
2
  0
LWPOLYLINE
  5
19F
330
17
100
AcDbEntity
  8
CARTIGLIO
100
AcDbPolyline
 90
5
 70
0
 10
9480.0
 20
-2500.0
 10
11800.0
 20
-2500.0
 10
11800.0
 20
-2700.0
 10
9480.0
 20
-2700.0
 10
9480.0
 20
-2500.0
  0
TEXT
  5
1A0
330
17
100
AcDbEntity
  8
TESTI
100
AcDbText
 10
10640.0
 20
-2600.0
 30
0.0
 40
70.0
  1
340495
 72
1
 11
10640.0
 21
-2600.0
 31
0.0
100
AcDbText
 73
2
  0
LWPOLYLINE
  5
1A1
330
17
100
AcDbEntity
  8
CARTIGLIO
100
AcDbPolyline
 90
5
 70
0
 10
6000.0
 20
-2700.0
 10
7740.0
 20
-2700.0
 10
7740.0
 20
-2900.0
 10
6000.0
 20
-2900.0
 10
6000.0
 20
-2700.0
  0
TEXT
  5
1A2
330
17
100
AcDbEntity
  8
TESTI
100
AcDbText
 10
6870.0
 20
-2800.0
 30
0.0
 40
70.0
  1
CU1(6)
 72
1
 11
6870.0
 21
-2800.0
 31
0.0
100
AcDbText
 73
2
  0
LWPOLYLINE
  5
1A3
330
17
100
AcDbEntity
  8
CARTIGLIO
100
AcDbPolyline
 90
5
 70
0
 10
7740.0
 20
-2700.0
 10
9480.0
 20
-2700.0
 10
9480.0
 20
-2900.0
 10
7740.0
 20
-2900.0
 10
7740.0
 20
-2700.0
  0
TEXT
  5
1A4
330
17
100
AcDbEntity
  8
TESTI
100
AcDbText
 10
8610.0
 20
-2800.0
 30
0.0
 40
70.0
  1
CU1
 72
1
 11
8610.0
 21
-2800.0
 31
0.0
100
AcDbText
 73
2
  0
LWPOLYLINE
  5
1A5
330
17
100
AcDbEntity
  8
CARTIGLIO
100
AcDbPolyline
 90
5
 70
0
 10
9480.0
 20
-2700.0
 10
11800.0
 20
-2700.0
 10
11800.0
 20
-2900.0
 10
9480.0
 20
-2900.0
 10
9480.0
 20
-2700.0
  0
TEXT
  5
1A6
330
17
100
AcDbEntity
  8
TESTI
100
AcDbText
 10
10640.0
 20
-2800.0
 30
0.0
 40
70.0
  1
233495
 72
1
 11
10640.0
 21
-2800.0
 31
0.0
100
AcDbText
 73
2
  0
LWPOLYLINE
  5
1A7
330
17
100
AcDbEntity
  8
CARTIGLIO
100
AcDbPolyline
 90
5
 70
0
 10
6000.0
 20
-2900.0
 10
7740.0
 20
-2900.0
 10
7740.0
 20
-3100.0
 10
6000.0
 20
-3100.0
 10
6000.0
 20
-2900.0
  0
TEXT
  5
1A8
330
17
100
AcDbEntity
  8
TESTI
100
AcDbText
 10
6870.0
 20
-3000.0
 30
0.0
 40
70.0
  1
CU1(7)
 72
1
 11
6870.0
 21
-3000.0
 31
0.0
100
AcDbText
 73
2
  0
LWPOLYLINE
  5
1A9
330
17
100
AcDbEntity
  8
CARTIGLIO
100
AcDbPolyline
 90
5
 70
0
 10
7740.0
 20
-2900.0
 10
9480.0
 20
-2900.0
 10
9480.0
 20
-3100.0
 10
7740.0
 20
-3100.0
 10
7740.0
 20
-2900.0
  0
TEXT
  5
1AA
330
17
100
AcDbEntity
  8
TESTI
100
AcDbText
 10
8610.0
 20
-3000.0
 30
0.0
 40
70.0
  1
CU1
 72
1
 11
8610.0
 21
-3000.0
 31
0.0
100
AcDbText
 73
2
  0
LWPOLYLINE
  5
1AB
330
17
100
AcDbEntity
  8
CARTIGLIO
100
AcDbPolyline
 90
5
 70
0
 10
9480.0
 20
-2900.0
 10
11800.0
 20
-2900.0
 10
11800.0
 20
-3100.0
 10
9480.0
 20
-3100.0
 10
9480.0
 20
-2900.0
  0
TEXT
  5
1AC
330
17
100
AcDbEntity
  8
TESTI
100
AcDbText
 10
10640.0
 20
-3000.0
 30
0.0
 40
70.0
  1
346495
 72
1
 11
10640.0
 21
-3000.0
 31
0.0
100
AcDbText
 73
2
  0
LWPOLYLINE
  5
1AD
330
17
100
AcDbEntity
  8
CARTIGLIO
100
AcDbPolyline
 90
5
 70
0
 10
6000.0
 20
-3100.0
 10
7740.0
 20
-3100.0
 10
7740.0
 20
-3300.0
 10
6000.0
 20
-3300.0
 10
6000.0
 20
-3100.0
  0
TEXT
  5
1AE
330
17
100
AcDbEntity
  8
TESTI
100
AcDbText
 10
6870.0
 20
-3200.0
 30
0.0
 40
70.0
  1
CU1(8)
 72
1
 11
6870.0
 21
-3200.0
 31
0.0
100
AcDbText
 73
2
  0
LWPOLYLINE
  5
1AF
330
17
100
AcDbEntity
  8
CARTIGLIO
100
AcDbPolyline
 90
5
 70
0
 10
7740.0
 20
-3100.0
 10
9480.0
 20
-3100.0
 10
9480.0
 20
-3300.0
 10
7740.0
 20
-3300.0
 10
7740.0
 20
-3100.0
  0
TEXT
  5
1B0
330
17
100
AcDbEntity
  8
TESTI
100
AcDbText
 10
8610.0
 20
-3200.0
 30
0.0
 40
70.0
  1
CU1
 72
1
 11
8610.0
 21
-3200.0
 31
0.0
100
AcDbText
 73
2
  0
LWPOLYLINE
  5
1B1
330
17
100
AcDbEntity
  8
CARTIGLIO
100
AcDbPolyline
 90
5
 70
0
 10
9480.0
 20
-3100.0
 10
11800.0
 20
-3100.0
 10
11800.0
 20
-3300.0
 10
9480.0
 20
-3300.0
 10
9480.0
 20
-3100.0
  0
TEXT
  5
1B2
330
17
100
AcDbEntity
  8
TESTI
100
AcDbText
 10
10640.0
 20
-3200.0
 30
0.0
 40
70.0
  1
340495
 72
1
 11
10640.0
 21
-3200.0
 31
0.0
100
AcDbText
 73
2
  0
LWPOLYLINE
  5
1B3
330
17
100
AcDbEntity
  8
CARTIGLIO
100
AcDbPolyline
 90
5
 70
0
 10
6000.0
 20
-3300.0
 10
7740.0
 20
-3300.0
 10
7740.0
 20
-3500.0
 10
6000.0
 20
-3500.0
 10
6000.0
 20
-3300.0
  0
TEXT
  5
1B4
330
17
100
AcDbEntity
  8
TESTI
100
AcDbText
 10
6870.0
 20
-3400.0
 30
0.0
 40
70.0
  1
CU1(9)
 72
1
 11
6870.0
 21
-3400.0
 31
0.0
100
AcDbText
 73
2
  0
LWPOLYLINE
  5
1B5
330
17
100
AcDbEntity
  8
CARTIGLIO
100
AcDbPolyline
 90
5
 70
0
 10
7740.0
 20
-3300.0
 10
9480.0
 20
-3300.0
 10
9480.0
 20
-3500.0
 10
7740.0
 20
-3500.0
 10
7740.0
 20
-3300.0
  0
TEXT
  5
1B6
330
17
100
AcDbEntity
  8
TESTI
100
AcDbText
 10
8610.0
 20
-3400.0
 30
0.0
 40
70.0
  1
CU1
 72
1
 11
8610.0
 21
-3400.0
 31
0.0
100
AcDbText
 73
2
  0
LWPOLYLINE
  5
1B7
330
17
100
AcDbEntity
  8
CARTIGLIO
100
AcDbPolyline
 90
5
 70
0
 10
9480.0
 20
-3300.0
 10
11800.0
 20
-3300.0
 10
11800.0
 20
-3500.0
 10
9480.0
 20
-3500.0
 10
9480.0
 20
-3300.0
  0
TEXT
  5
1B8
330
17
100
AcDbEntity
  8
TESTI
100
AcDbText
 10
10640.0
 20
-3400.0
 30
0.0
 40
70.0
  1
233495
 72
1
 11
10640.0
 21
-3400.0
 31
0.0
100
AcDbText
 73
2
  0
LWPOLYLINE
  5
1B9
330
17
100
AcDbEntity
  8
CARTIGLIO
100
AcDbPolyline
 90
5
 70
0
 10
6000.0
 20
-3500.0
 10
7740.0
 20
-3500.0
 10
7740.0
 20
-3700.0
 10
6000.0
 20
-3700.0
 10
6000.0
 20
-3500.0
  0
TEXT
  5
1BA
330
17
100
AcDbEntity
  8
TESTI
100
AcDbText
 10
6870.0
 20
-3600.0
 30
0.0
 40
70.0
  1
CU1(10)
 72
1
 11
6870.0
 21
-3600.0
 31
0.0
100
AcDbText
 73
2
  0
LWPOLYLINE
  5
1BB
330
17
100
AcDbEntity
  8
CARTIGLIO
100
AcDbPolyline
 90
5
 70
0
 10
7740.0
 20
-3500.0
 10
9480.0
 20
-3500.0
 10
9480.0
 20
-3700.0
 10
7740.0
 20
-3700.0
 10
7740.0
 20
-3500.0
  0
TEXT
  5
1BC
330
17
100
AcDbEntity
  8
TESTI
100
AcDbText
 10
8610.0
 20
-3600.0
 30
0.0
 40
70.0
  1
CU1
 72
1
 11
8610.0
 21
-3600.0
 31
0.0
100
AcDbText
 73
2
  0
LWPOLYLINE
  5
1BD
330
17
100
AcDbEntity
  8
CARTIGLIO
100
AcDbPolyline
 90
5
 70
0
 10
9480.0
 20
-3500.0
 10
11800.0
 20
-3500.0
 10
11800.0
 20
-3700.0
 10
9480.0
 20
-3700.0
 10
9480.0
 20
-3500.0
  0
TEXT
  5
1BE
330
17
100
AcDbEntity
  8
TESTI
100
AcDbText
 10
10640.0
 20
-3600.0
 30
0.0
 40
70.0
  1
346495
 72
1
 11
10640.0
 21
-3600.0
 31
0.0
100
AcDbText
 73
2
  0
LWPOLYLINE
  5
1BF
330
17
100
AcDbEntity
  8
CARTIGLIO
100
AcDbPolyline
 90
5
 70
0
 10
6000.0
 20
-3700.0
 10
7740.0
 20
-3700.0
 10
7740.0
 20
-3900.0
 10
6000.0
 20
-3900.0
 10
6000.0
 20
-3700.0
  0
TEXT
  5
1C0
330
17
100
AcDbEntity
  8
TESTI
100
AcDbText
 10
6870.0
 20
-3800.0
 30
0.0
 40
70.0
  1
CU1(11)
 72
1
 11
6870.0
 21
-3800.0
 31
0.0
100
AcDbText
 73
2
  0
LWPOLYLINE
  5
1C1
330
17
100
AcDbEntity
  8
CARTIGLIO
100
AcDbPolyline
 90
5
 70
0
 10
7740.0
 20
-3700.0
 10
9480.0
 20
-3700.0
 10
9480.0
 20
-3900.0
 10
7740.0
 20
-3900.0
 10
7740.0
 20
-3700.0
  0
TEXT
  5
1C2
330
17
100
AcDbEntity
  8
TESTI
100
AcDbText
 10
8610.0
 20
-3800.0
 30
0.0
 40
70.0
  1
CU1
 72
1
 11
8610.0
 21
-3800.0
 31
0.0
100
AcDbText
 73
2
  0
LWPOLYLINE
  5
1C3
330
17
100
AcDbEntity
  8
CARTIGLIO
100
AcDbPolyline
 90
5
 70
0
 10
9480.0
 20
-3700.0
 10
11800.0
 20
-3700.0
 10
11800.0
 20
-3900.0
 10
9480.0
 20
-3900.0
 10
9480.0
 20
-3700.0
  0
TEXT
  5
1C4
330
17
100
AcDbEntity
  8
TESTI
100
AcDbText
 10
10640.0
 20
-3800.0
 30
0.0
 40
70.0
  1
340495
 72
1
 11
10640.0
 21
-3800.0
 31
0.0
100
AcDbText
 73
2
  0
LWPOLYLINE
  5
1C5
330
17
100
AcDbEntity
  8
CARTIGLIO
100
AcDbPolyline
 90
5
 70
0
 10
6000.0
 20
-3900.0
 10
7740.0
 20
-3900.0
 10
7740.0
 20
-4100.0
 10
6000.0
 20
-4100.0
 10
6000.0
 20
-3900.0
  0
TEXT
  5
1C6
330
17
100
AcDbEntity
  8
TESTI
100
AcDbText
 10
6870.0
 20
-4000.0
 30
0.0
 40
70.0
  1
CU1(12)
 72
1
 11
6870.0
 21
-4000.0
 31
0.0
100
AcDbText
 73
2
  0
LWPOLYLINE
  5
1C7
330
17
100
AcDbEntity
  8
CARTIGLIO
100
AcDbPolyline
 90
5
 70
0
 10
7740.0
 20
-3900.0
 10
9480.0
 20
-3900.0
 10
9480.0
 20
-4100.0
 10
7740.0
 20
-4100.0
 10
7740.0
 20
-3900.0
  0
TEXT
  5
1C8
330
17
100
AcDbEntity
  8
TESTI
100
AcDbText
 10
8610.0
 20
-4000.0
 30
0.0
 40
70.0
  1
CU1
 72
1
 11
8610.0
 21
-4000.0
 31
0.0
100
AcDbText
 73
2
  0
LWPOLYLINE
  5
1C9
330
17
100
AcDbEntity
  8
CARTIGLIO
100
AcDbPolyline
 90
5
 70
0
 10
9480.0
 20
-3900.0
 10
11800.0
 20
-3900.0
 10
11800.0
 20
-4100.0
 10
9480.0
 20
-4100.0
 10
9480.0
 20
-3900.0
  0
TEXT
  5
1CA
330
17
100
AcDbEntity
  8
TESTI
100
AcDbText
 10
10640.0
 20
-4000.0
 30
0.0
 40
70.0
  1
233495
 72
1
 11
10640.0
 21
-4000.0
 31
0.0
100
AcDbText
 73
2
  0
LWPOLYLINE
  5
1CB
330
17
100
AcDbEntity
  8
CARTIGLIO
100
AcDbPolyline
 90
5
 70
0
 10
6000.0
 20
-4100.0
 10
7740.0
 20
-4100.0
 10
7740.0
 20
-4300.0
 10
6000.0
 20
-4300.0
 10
6000.0
 20
-4100.0
  0
TEXT
  5
1CC
330
17
100
AcDbEntity
  8
TESTI
100
AcDbText
 10
6870.0
 20
-4200.0
 30
0.0
 40
70.0
  1
CU1(13)
 72
1
 11
6870.0
 21
-4200.0
 31
0.0
100
AcDbText
 73
2
  0
LWPOLYLINE
  5
1CD
330
17
100
AcDbEntity
  8
CARTIGLIO
100
AcDbPolyline
 90
5
 70
0
 10
7740.0
 20
-4100.0
 10
9480.0
 20
-4100.0
 10
9480.0
 20
-4300.0
 10
7740.0
 20
-4300.0
 10
7740.0
 20
-4100.0
  0
TEXT
  5
1CE
330
17
100
AcDbEntity
  8
TESTI
100
AcDbText
 10
8610.0
 20
-4200.0
 30
0.0
 40
70.0
  1
CU1
 72
1
 11
8610.0
 21
-4200.0
 31
0.0
100
AcDbText
 73
2
  0
LWPOLYLINE
  5
1CF
330
17
100
AcDbEntity
  8
CARTIGLIO
100
AcDbPolyline
 90
5
 70
0
 10
9480.0
 20
-4100.0
 10
11800.0
 20
-4100.0
 10
11800.0
 20
-4300.0
 10
9480.0
 20
-4300.0
 10
9480.0
 20
-4100.0
  0
TEXT
  5
1D0
330
17
100
AcDbEntity
  8
TESTI
100
AcDbText
 10
10640.0
 20
-4200.0
 30
0.0
 40
70.0
  1
413495
 72
1
 11
10640.0
 21
-4200.0
 31
0.0
100
AcDbText
 73
2
  0
LWPOLYLINE
  5
1D1
330
17
100
AcDbEntity
  8
CARTIGLIO
100
AcDbPolyline
 90
5
 70
0
 10
6000.0
 20
-4300.0
 10
7740.0
 20
-4300.0
 10
7740.0
 20
-4500.0
 10
6000.0
 20
-4500.0
 10
6000.0
 20
-4300.0
  0
TEXT
  5
1D2
330
17
100
AcDbEntity
  8
TESTI
100
AcDbText
 10
6870.0
 20
-4400.0
 30
0.0
 40
70.0
  1
CU1(14)
 72
1
 11
6870.0
 21
-4400.0
 31
0.0
100
AcDbText
 73
2
  0
LWPOLYLINE
  5
1D3
330
17
100
AcDbEntity
  8
CARTIGLIO
100
AcDbPolyline
 90
5
 70
0
 10
7740.0
 20
-4300.0
 10
9480.0
 20
-4300.0
 10
9480.0
 20
-4500.0
 10
7740.0
 20
-4500.0
 10
7740.0
 20
-4300.0
  0
TEXT
  5
1D4
330
17
100
AcDbEntity
  8
TESTI
100
AcDbText
 10
8610.0
 20
-4400.0
 30
0.0
 40
70.0
  1
CU1
 72
1
 11
8610.0
 21
-4400.0
 31
0.0
100
AcDbText
 73
2
  0
LWPOLYLINE
  5
1D5
330
17
100
AcDbEntity
  8
CARTIGLIO
100
AcDbPolyline
 90
5
 70
0
 10
9480.0
 20
-4300.0
 10
11800.0
 20
-4300.0
 10
11800.0
 20
-4500.0
 10
9480.0
 20
-4500.0
 10
9480.0
 20
-4300.0
  0
TEXT
  5
1D6
330
17
100
AcDbEntity
  8
TESTI
100
AcDbText
 10
10640.0
 20
-4400.0
 30
0.0
 40
70.0
  1
413495
 72
1
 11
10640.0
 21
-4400.0
 31
0.0
100
AcDbText
 73
2
  0
LWPOLYLINE
  5
1D7
330
17
100
AcDbEntity
  8
CARTIGLIO
100
AcDbPolyline
 90
5
 70
0
 10
6000.0
 20
-4500.0
 10
7740.0
 20
-4500.0
 10
7740.0
 20
-4700.0
 10
6000.0
 20
-4700.0
 10
6000.0
 20
-4500.0
  0
TEXT
  5
1D8
330
17
100
AcDbEntity
  8
TESTI
100
AcDbText
 10
6870.0
 20
-4600.0
 30
0.0
 40
70.0
  1
CU2(1)
 72
1
 11
6870.0
 21
-4600.0
 31
0.0
100
AcDbText
 73
2
  0
LWPOLYLINE
  5
1D9
330
17
100
AcDbEntity
  8
CARTIGLIO
100
AcDbPolyline
 90
5
 70
0
 10
7740.0
 20
-4500.0
 10
9480.0
 20
-4500.0
 10
9480.0
 20
-4700.0
 10
7740.0
 20
-4700.0
 10
7740.0
 20
-4500.0
  0
TEXT
  5
1DA
330
17
100
AcDbEntity
  8
TESTI
100
AcDbText
 10
8610.0
 20
-4600.0
 30
0.0
 40
70.0
  1
CU2
 72
1
 11
8610.0
 21
-4600.0
 31
0.0
100
AcDbText
 73
2
  0
LWPOLYLINE
  5
1DB
330
17
100
AcDbEntity
  8
CARTIGLIO
100
AcDbPolyline
 90
5
 70
0
 10
9480.0
 20
-4500.0
 10
11800.0
 20
-4500.0
 10
11800.0
 20
-4700.0
 10
9480.0
 20
-4700.0
 10
9480.0
 20
-4500.0
  0
TEXT
  5
1DC
330
17
100
AcDbEntity
  8
TESTI
100
AcDbText
 10
10640.0
 20
-4600.0
 30
0.0
 40
70.0
  1
413273
 72
1
 11
10640.0
 21
-4600.0
 31
0.0
100
AcDbText
 73
2
  0
LWPOLYLINE
  5
1DD
330
17
100
AcDbEntity
  8
CARTIGLIO
100
AcDbPolyline
 90
5
 70
0
 10
6000.0
 20
-4700.0
 10
7740.0
 20
-4700.0
 10
7740.0
 20
-4900.0
 10
6000.0
 20
-4900.0
 10
6000.0
 20
-4700.0
  0
TEXT
  5
1DE
330
17
100
AcDbEntity
  8
TESTI
100
AcDbText
 10
6870.0
 20
-4800.0
 30
0.0
 40
70.0
  1
CU2(2)
 72
1
 11
6870.0
 21
-4800.0
 31
0.0
100
AcDbText
 73
2
  0
LWPOLYLINE
  5
1DF
330
17
100
AcDbEntity
  8
CARTIGLIO
100
AcDbPolyline
 90
5
 70
0
 10
7740.0
 20
-4700.0
 10
9480.0
 20
-4700.0
 10
9480.0
 20
-4900.0
 10
7740.0
 20
-4900.0
 10
7740.0
 20
-4700.0
  0
TEXT
  5
1E0
330
17
100
AcDbEntity
  8
TESTI
100
AcDbText
 10
8610.0
 20
-4800.0
 30
0.0
 40
70.0
  1
CU2
 72
1
 11
8610.0
 21
-4800.0
 31
0.0
100
AcDbText
 73
2
  0
LWPOLYLINE
  5
1E1
330
17
100
AcDbEntity
  8
CARTIGLIO
100
AcDbPolyline
 90
5
 70
0
 10
9480.0
 20
-4700.0
 10
11800.0
 20
-4700.0
 10
11800.0
 20
-4900.0
 10
9480.0
 20
-4900.0
 10
9480.0
 20
-4700.0
  0
TEXT
  5
1E2
330
17
100
AcDbEntity
  8
TESTI
100
AcDbText
 10
10640.0
 20
-4800.0
 30
0.0
 40
70.0
  1
413273
 72
1
 11
10640.0
 21
-4800.0
 31
0.0
100
AcDbText
 73
2
  0
LWPOLYLINE
  5
1E3
330
17
100
AcDbEntity
  8
CARTIGLIO
100
AcDbPolyline
 90
5
 70
0
 10
6000.0
 20
-4900.0
 10
7740.0
 20
-4900.0
 10
7740.0
 20
-5100.0
 10
6000.0
 20
-5100.0
 10
6000.0
 20
-4900.0
  0
TEXT
  5
1E4
330
17
100
AcDbEntity
  8
TESTI
100
AcDbText
 10
6870.0
 20
-5000.0
 30
0.0
 40
70.0
  1
CU1(15)
 72
1
 11
6870.0
 21
-5000.0
 31
0.0
100
AcDbText
 73
2
  0
LWPOLYLINE
  5
1E5
330
17
100
AcDbEntity
  8
CARTIGLIO
100
AcDbPolyline
 90
5
 70
0
 10
7740.0
 20
-4900.0
 10
9480.0
 20
-4900.0
 10
9480.0
 20
-5100.0
 10
7740.0
 20
-5100.0
 10
7740.0
 20
-4900.0
  0
TEXT
  5
1E6
330
17
100
AcDbEntity
  8
TESTI
100
AcDbText
 10
8610.0
 20
-5000.0
 30
0.0
 40
70.0
  1
CU1
 72
1
 11
8610.0
 21
-5000.0
 31
0.0
100
AcDbText
 73
2
  0
LWPOLYLINE
  5
1E7
330
17
100
AcDbEntity
  8
CARTIGLIO
100
AcDbPolyline
 90
5
 70
0
 10
9480.0
 20
-4900.0
 10
11800.0
 20
-4900.0
 10
11800.0
 20
-5100.0
 10
9480.0
 20
-5100.0
 10
9480.0
 20
-4900.0
  0
TEXT
  5
1E8
330
17
100
AcDbEntity
  8
TESTI
100
AcDbText
 10
10640.0
 20
-5000.0
 30
0.0
 40
70.0
  1
413495
 72
1
 11
10640.0
 21
-5000.0
 31
0.0
100
AcDbText
 73
2
  0
LWPOLYLINE
  5
1E9
330
17
100
AcDbEntity
  8
CARTIGLIO
100
AcDbPolyline
 90
5
 70
0
 10
6000.0
 20
-5100.0
 10
7740.0
 20
-5100.0
 10
7740.0
 20
-5300.0
 10
6000.0
 20
-5300.0
 10
6000.0
 20
-5100.0
  0
TEXT
  5
1EA
330
17
100
AcDbEntity
  8
TESTI
100
AcDbText
 10
6870.0
 20
-5200.0
 30
0.0
 40
70.0
  1
CU1(16)
 72
1
 11
6870.0
 21
-5200.0
 31
0.0
100
AcDbText
 73
2
  0
LWPOLYLINE
  5
1EB
330
17
100
AcDbEntity
  8
CARTIGLIO
100
AcDbPolyline
 90
5
 70
0
 10
7740.0
 20
-5100.0
 10
9480.0
 20
-5100.0
 10
9480.0
 20
-5300.0
 10
7740.0
 20
-5300.0
 10
7740.0
 20
-5100.0
  0
TEXT
  5
1EC
330
17
100
AcDbEntity
  8
TESTI
100
AcDbText
 10
8610.0
 20
-5200.0
 30
0.0
 40
70.0
  1
CU1
 72
1
 11
8610.0
 21
-5200.0
 31
0.0
100
AcDbText
 73
2
  0
LWPOLYLINE
  5
1ED
330
17
100
AcDbEntity
  8
CARTIGLIO
100
AcDbPolyline
 90
5
 70
0
 10
9480.0
 20
-5100.0
 10
11800.0
 20
-5100.0
 10
11800.0
 20
-5300.0
 10
9480.0
 20
-5300.0
 10
9480.0
 20
-5100.0
  0
TEXT
  5
1EE
330
17
100
AcDbEntity
  8
TESTI
100
AcDbText
 10
10640.0
 20
-5200.0
 30
0.0
 40
70.0
  1
413495
 72
1
 11
10640.0
 21
-5200.0
 31
0.0
100
AcDbText
 73
2
  0
LWPOLYLINE
  5
1EF
330
17
100
AcDbEntity
  8
CARTIGLIO
100
AcDbPolyline
 90
5
 70
0
 10
6000.0
 20
-5300.0
 10
7740.0
 20
-5300.0
 10
7740.0
 20
-5500.0
 10
6000.0
 20
-5500.0
 10
6000.0
 20
-5300.0
  0
TEXT
  5
1F0
330
17
100
AcDbEntity
  8
TESTI
100
AcDbText
 10
6870.0
 20
-5400.0
 30
0.0
 40
70.0
  1
CU1(17)
 72
1
 11
6870.0
 21
-5400.0
 31
0.0
100
AcDbText
 73
2
  0
LWPOLYLINE
  5
1F1
330
17
100
AcDbEntity
  8
CARTIGLIO
100
AcDbPolyline
 90
5
 70
0
 10
7740.0
 20
-5300.0
 10
9480.0
 20
-5300.0
 10
9480.0
 20
-5500.0
 10
7740.0
 20
-5500.0
 10
7740.0
 20
-5300.0
  0
TEXT
  5
1F2
330
17
100
AcDbEntity
  8
TESTI
100
AcDbText
 10
8610.0
 20
-5400.0
 30
0.0
 40
70.0
  1
CU1
 72
1
 11
8610.0
 21
-5400.0
 31
0.0
100
AcDbText
 73
2
  0
LWPOLYLINE
  5
1F3
330
17
100
AcDbEntity
  8
CARTIGLIO
100
AcDbPolyline
 90
5
 70
0
 10
9480.0
 20
-5300.0
 10
11800.0
 20
-5300.0
 10
11800.0
 20
-5500.0
 10
9480.0
 20
-5500.0
 10
9480.0
 20
-5300.0
  0
TEXT
  5
1F4
330
17
100
AcDbEntity
  8
TESTI
100
AcDbText
 10
10640.0
 20
-5400.0
 30
0.0
 40
70.0
  1
413495
 72
1
 11
10640.0
 21
-5400.0
 31
0.0
100
AcDbText
 73
2
  0
LWPOLYLINE
  5
1F5
330
17
100
AcDbEntity
  8
CARTIGLIO
100
AcDbPolyline
 90
5
 70
0
 10
6000.0
 20
-5500.0
 10
7740.0
 20
-5500.0
 10
7740.0
 20
-5700.0
 10
6000.0
 20
-5700.0
 10
6000.0
 20
-5500.0
  0
TEXT
  5
1F6
330
17
100
AcDbEntity
  8
TESTI
100
AcDbText
 10
6870.0
 20
-5600.0
 30
0.0
 40
70.0
  1
CU1(18)
 72
1
 11
6870.0
 21
-5600.0
 31
0.0
100
AcDbText
 73
2
  0
LWPOLYLINE
  5
1F7
330
17
100
AcDbEntity
  8
CARTIGLIO
100
AcDbPolyline
 90
5
 70
0
 10
7740.0
 20
-5500.0
 10
9480.0
 20
-5500.0
 10
9480.0
 20
-5700.0
 10
7740.0
 20
-5700.0
 10
7740.0
 20
-5500.0
  0
TEXT
  5
1F8
330
17
100
AcDbEntity
  8
TESTI
100
AcDbText
 10
8610.0
 20
-5600.0
 30
0.0
 40
70.0
  1
CU1
 72
1
 11
8610.0
 21
-5600.0
 31
0.0
100
AcDbText
 73
2
  0
LWPOLYLINE
  5
1F9
330
17
100
AcDbEntity
  8
CARTIGLIO
100
AcDbPolyline
 90
5
 70
0
 10
9480.0
 20
-5500.0
 10
11800.0
 20
-5500.0
 10
11800.0
 20
-5700.0
 10
9480.0
 20
-5700.0
 10
9480.0
 20
-5500.0
  0
TEXT
  5
1FA
330
17
100
AcDbEntity
  8
TESTI
100
AcDbText
 10
10640.0
 20
-5600.0
 30
0.0
 40
70.0
  1
413495
 72
1
 11
10640.0
 21
-5600.0
 31
0.0
100
AcDbText
 73
2
  0
LWPOLYLINE
  5
1FB
330
17
100
AcDbEntity
  8
CARTIGLIO
100
AcDbPolyline
 90
5
 70
0
 10
6000.0
 20
-5700.0
 10
7740.0
 20
-5700.0
 10
7740.0
 20
-5900.0
 10
6000.0
 20
-5900.0
 10
6000.0
 20
-5700.0
  0
TEXT
  5
1FC
330
17
100
AcDbEntity
  8
TESTI
100
AcDbText
 10
6870.0
 20
-5800.0
 30
0.0
 40
70.0
  1
CU1(19)
 72
1
 11
6870.0
 21
-5800.0
 31
0.0
100
AcDbText
 73
2
  0
LWPOLYLINE
  5
1FD
330
17
100
AcDbEntity
  8
CARTIGLIO
100
AcDbPolyline
 90
5
 70
0
 10
7740.0
 20
-5700.0
 10
9480.0
 20
-5700.0
 10
9480.0
 20
-5900.0
 10
7740.0
 20
-5900.0
 10
7740.0
 20
-5700.0
  0
TEXT
  5
1FE
330
17
100
AcDbEntity
  8
TESTI
100
AcDbText
 10
8610.0
 20
-5800.0
 30
0.0
 40
70.0
  1
CU1
 72
1
 11
8610.0
 21
-5800.0
 31
0.0
100
AcDbText
 73
2
  0
LWPOLYLINE
  5
1FF
330
17
100
AcDbEntity
  8
CARTIGLIO
100
AcDbPolyline
 90
5
 70
0
 10
9480.0
 20
-5700.0
 10
11800.0
 20
-5700.0
 10
11800.0
 20
-5900.0
 10
9480.0
 20
-5900.0
 10
9480.0
 20
-5700.0
  0
TEXT
  5
200
330
17
100
AcDbEntity
  8
TESTI
100
AcDbText
 10
10640.0
 20
-5800.0
 30
0.0
 40
70.0
  1
413495
 72
1
 11
10640.0
 21
-5800.0
 31
0.0
100
AcDbText
 73
2
  0
LWPOLYLINE
  5
201
330
17
100
AcDbEntity
  8
CARTIGLIO
100
AcDbPolyline
 90
5
 70
0
 10
6000.0
 20
-5900.0
 10
7740.0
 20
-5900.0
 10
7740.0
 20
-6100.0
 10
6000.0
 20
-6100.0
 10
6000.0
 20
-5900.0
  0
TEXT
  5
202
330
17
100
AcDbEntity
  8
TESTI
100
AcDbText
 10
6870.0
 20
-6000.0
 30
0.0
 40
70.0
  1
CU2(3)
 72
1
 11
6870.0
 21
-6000.0
 31
0.0
100
AcDbText
 73
2
  0
LWPOLYLINE
  5
203
330
17
100
AcDbEntity
  8
CARTIGLIO
100
AcDbPolyline
 90
5
 70
0
 10
7740.0
 20
-5900.0
 10
9480.0
 20
-5900.0
 10
9480.0
 20
-6100.0
 10
7740.0
 20
-6100.0
 10
7740.0
 20
-5900.0
  0
TEXT
  5
204
330
17
100
AcDbEntity
  8
TESTI
100
AcDbText
 10
8610.0
 20
-6000.0
 30
0.0
 40
70.0
  1
CU2
 72
1
 11
8610.0
 21
-6000.0
 31
0.0
100
AcDbText
 73
2
  0
LWPOLYLINE
  5
205
330
17
100
AcDbEntity
  8
CARTIGLIO
100
AcDbPolyline
 90
5
 70
0
 10
9480.0
 20
-5900.0
 10
11800.0
 20
-5900.0
 10
11800.0
 20
-6100.0
 10
9480.0
 20
-6100.0
 10
9480.0
 20
-5900.0
  0
TEXT
  5
206
330
17
100
AcDbEntity
  8
TESTI
100
AcDbText
 10
10640.0
 20
-6000.0
 30
0.0
 40
70.0
  1
413273
 72
1
 11
10640.0
 21
-6000.0
 31
0.0
100
AcDbText
 73
2
  0
LWPOLYLINE
  5
207
330
17
100
AcDbEntity
  8
CARTIGLIO
100
AcDbPolyline
 90
5
 70
0
 10
6000.0
 20
-6100.0
 10
7740.0
 20
-6100.0
 10
7740.0
 20
-6300.0
 10
6000.0
 20
-6300.0
 10
6000.0
 20
-6100.0
  0
TEXT
  5
208
330
17
100
AcDbEntity
  8
TESTI
100
AcDbText
 10
6870.0
 20
-6200.0
 30
0.0
 40
70.0
  1
CU2(4)
 72
1
 11
6870.0
 21
-6200.0
 31
0.0
100
AcDbText
 73
2
  0
LWPOLYLINE
  5
209
330
17
100
AcDbEntity
  8
CARTIGLIO
100
AcDbPolyline
 90
5
 70
0
 10
7740.0
 20
-6100.0
 10
9480.0
 20
-6100.0
 10
9480.0
 20
-6300.0
 10
7740.0
 20
-6300.0
 10
7740.0
 20
-6100.0
  0
TEXT
  5
20A
330
17
100
AcDbEntity
  8
TESTI
100
AcDbText
 10
8610.0
 20
-6200.0
 30
0.0
 40
70.0
  1
CU2
 72
1
 11
8610.0
 21
-6200.0
 31
0.0
100
AcDbText
 73
2
  0
LWPOLYLINE
  5
20B
330
17
100
AcDbEntity
  8
CARTIGLIO
100
AcDbPolyline
 90
5
 70
0
 10
9480.0
 20
-6100.0
 10
11800.0
 20
-6100.0
 10
11800.0
 20
-6300.0
 10
9480.0
 20
-6300.0
 10
9480.0
 20
-6100.0
  0
TEXT
  5
20C
330
17
100
AcDbEntity
  8
TESTI
100
AcDbText
 10
10640.0
 20
-6200.0
 30
0.0
 40
70.0
  1
413273
 72
1
 11
10640.0
 21
-6200.0
 31
0.0
100
AcDbText
 73
2
  0
LWPOLYLINE
  5
20D
330
17
100
AcDbEntity
  8
CARTIGLIO
100
AcDbPolyline
 90
5
 70
0
 10
6000.0
 20
-6300.0
 10
7740.0
 20
-6300.0
 10
7740.0
 20
-6500.0
 10
6000.0
 20
-6500.0
 10
6000.0
 20
-6300.0
  0
TEXT
  5
20E
330
17
100
AcDbEntity
  8
TESTI
100
AcDbText
 10
6870.0
 20
-6400.0
 30
0.0
 40
70.0
  1
CU1(20)
 72
1
 11
6870.0
 21
-6400.0
 31
0.0
100
AcDbText
 73
2
  0
LWPOLYLINE
  5
20F
330
17
100
AcDbEntity
  8
CARTIGLIO
100
AcDbPolyline
 90
5
 70
0
 10
7740.0
 20
-6300.0
 10
9480.0
 20
-6300.0
 10
9480.0
 20
-6500.0
 10
7740.0
 20
-6500.0
 10
7740.0
 20
-6300.0
  0
TEXT
  5
210
330
17
100
AcDbEntity
  8
TESTI
100
AcDbText
 10
8610.0
 20
-6400.0
 30
0.0
 40
70.0
  1
CU1
 72
1
 11
8610.0
 21
-6400.0
 31
0.0
100
AcDbText
 73
2
  0
LWPOLYLINE
  5
211
330
17
100
AcDbEntity
  8
CARTIGLIO
100
AcDbPolyline
 90
5
 70
0
 10
9480.0
 20
-6300.0
 10
11800.0
 20
-6300.0
 10
11800.0
 20
-6500.0
 10
9480.0
 20
-6500.0
 10
9480.0
 20
-6300.0
  0
TEXT
  5
212
330
17
100
AcDbEntity
  8
TESTI
100
AcDbText
 10
10640.0
 20
-6400.0
 30
0.0
 40
70.0
  1
413495
 72
1
 11
10640.0
 21
-6400.0
 31
0.0
100
AcDbText
 73
2
  0
LWPOLYLINE
  5
213
330
17
100
AcDbEntity
  8
CARTIGLIO
100
AcDbPolyline
 90
5
 70
0
 10
6000.0
 20
-6500.0
 10
7740.0
 20
-6500.0
 10
7740.0
 20
-6700.0
 10
6000.0
 20
-6700.0
 10
6000.0
 20
-6500.0
  0
TEXT
  5
214
330
17
100
AcDbEntity
  8
TESTI
100
AcDbText
 10
6870.0
 20
-6600.0
 30
0.0
 40
70.0
  1
CU1(21)
 72
1
 11
6870.0
 21
-6600.0
 31
0.0
100
AcDbText
 73
2
  0
LWPOLYLINE
  5
215
330
17
100
AcDbEntity
  8
CARTIGLIO
100
AcDbPolyline
 90
5
 70
0
 10
7740.0
 20
-6500.0
 10
9480.0
 20
-6500.0
 10
9480.0
 20
-6700.0
 10
7740.0
 20
-6700.0
 10
7740.0
 20
-6500.0
  0
TEXT
  5
216
330
17
100
AcDbEntity
  8
TESTI
100
AcDbText
 10
8610.0
 20
-6600.0
 30
0.0
 40
70.0
  1
CU1
 72
1
 11
8610.0
 21
-6600.0
 31
0.0
100
AcDbText
 73
2
  0
LWPOLYLINE
  5
217
330
17
100
AcDbEntity
  8
CARTIGLIO
100
AcDbPolyline
 90
5
 70
0
 10
9480.0
 20
-6500.0
 10
11800.0
 20
-6500.0
 10
11800.0
 20
-6700.0
 10
9480.0
 20
-6700.0
 10
9480.0
 20
-6500.0
  0
TEXT
  5
218
330
17
100
AcDbEntity
  8
TESTI
100
AcDbText
 10
10640.0
 20
-6600.0
 30
0.0
 40
70.0
  1
23495
 72
1
 11
10640.0
 21
-6600.0
 31
0.0
100
AcDbText
 73
2
  0
LWPOLYLINE
  5
219
330
17
100
AcDbEntity
  8
CARTIGLIO
100
AcDbPolyline
 90
5
 70
0
 10
6000.0
 20
-6700.0
 10
7740.0
 20
-6700.0
 10
7740.0
 20
-6900.0
 10
6000.0
 20
-6900.0
 10
6000.0
 20
-6700.0
  0
TEXT
  5
21A
330
17
100
AcDbEntity
  8
TESTI
100
AcDbText
 10
6870.0
 20
-6800.0
 30
0.0
 40
70.0
  1
CU2(5)
 72
1
 11
6870.0
 21
-6800.0
 31
0.0
100
AcDbText
 73
2
  0
LWPOLYLINE
  5
21B
330
17
100
AcDbEntity
  8
CARTIGLIO
100
AcDbPolyline
 90
5
 70
0
 10
7740.0
 20
-6700.0
 10
9480.0
 20
-6700.0
 10
9480.0
 20
-6900.0
 10
7740.0
 20
-6900.0
 10
7740.0
 20
-6700.0
  0
TEXT
  5
21C
330
17
100
AcDbEntity
  8
TESTI
100
AcDbText
 10
8610.0
 20
-6800.0
 30
0.0
 40
70.0
  1
CU2
 72
1
 11
8610.0
 21
-6800.0
 31
0.0
100
AcDbText
 73
2
  0
LWPOLYLINE
  5
21D
330
17
100
AcDbEntity
  8
CARTIGLIO
100
AcDbPolyline
 90
5
 70
0
 10
9480.0
 20
-6700.0
 10
11800.0
 20
-6700.0
 10
11800.0
 20
-6900.0
 10
9480.0
 20
-6900.0
 10
9480.0
 20
-6700.0
  0
TEXT
  5
21E
330
17
100
AcDbEntity
  8
TESTI
100
AcDbText
 10
10640.0
 20
-6800.0
 30
0.0
 40
70.0
  1
41394
 72
1
 11
10640.0
 21
-6800.0
 31
0.0
100
AcDbText
 73
2
  0
LWPOLYLINE
  5
21F
330
17
100
AcDbEntity
  8
CARTIGLIO
100
AcDbPolyline
 90
5
 70
0
 10
6000.0
 20
-6900.0
 10
7740.0
 20
-6900.0
 10
7740.0
 20
-7100.0
 10
6000.0
 20
-7100.0
 10
6000.0
 20
-6900.0
  0
TEXT
  5
220
330
17
100
AcDbEntity
  8
TESTI
100
AcDbText
 10
6870.0
 20
-7000.0
 30
0.0
 40
70.0
  1
CU2(6)
 72
1
 11
6870.0
 21
-7000.0
 31
0.0
100
AcDbText
 73
2
  0
LWPOLYLINE
  5
221
330
17
100
AcDbEntity
  8
CARTIGLIO
100
AcDbPolyline
 90
5
 70
0
 10
7740.0
 20
-6900.0
 10
9480.0
 20
-6900.0
 10
9480.0
 20
-7100.0
 10
7740.0
 20
-7100.0
 10
7740.0
 20
-6900.0
  0
TEXT
  5
222
330
17
100
AcDbEntity
  8
TESTI
100
AcDbText
 10
8610.0
 20
-7000.0
 30
0.0
 40
70.0
  1
CU2
 72
1
 11
8610.0
 21
-7000.0
 31
0.0
100
AcDbText
 73
2
  0
LWPOLYLINE
  5
223
330
17
100
AcDbEntity
  8
CARTIGLIO
100
AcDbPolyline
 90
5
 70
0
 10
9480.0
 20
-6900.0
 10
11800.0
 20
-6900.0
 10
11800.0
 20
-7100.0
 10
9480.0
 20
-7100.0
 10
9480.0
 20
-6900.0
  0
TEXT
  5
224
330
17
100
AcDbEntity
  8
TESTI
100
AcDbText
 10
10640.0
 20
-7000.0
 30
0.0
 40
70.0
  1
413163
 72
1
 11
10640.0
 21
-7000.0
 31
0.0
100
AcDbText
 73
2
  0
LWPOLYLINE
  5
225
330
17
100
AcDbEntity
  8
CARTIGLIO
100
AcDbPolyline
 90
5
 70
0
 10
6000.0
 20
-7100.0
 10
7740.0
 20
-7100.0
 10
7740.0
 20
-7300.0
 10
6000.0
 20
-7300.0
 10
6000.0
 20
-7100.0
  0
TEXT
  5
226
330
17
100
AcDbEntity
  8
TESTI
100
AcDbText
 10
6870.0
 20
-7200.0
 30
0.0
 40
70.0
  1
CU2(7)
 72
1
 11
6870.0
 21
-7200.0
 31
0.0
100
AcDbText
 73
2
  0
LWPOLYLINE
  5
227
330
17
100
AcDbEntity
  8
CARTIGLIO
100
AcDbPolyline
 90
5
 70
0
 10
7740.0
 20
-7100.0
 10
9480.0
 20
-7100.0
 10
9480.0
 20
-7300.0
 10
7740.0
 20
-7300.0
 10
7740.0
 20
-7100.0
  0
TEXT
  5
228
330
17
100
AcDbEntity
  8
TESTI
100
AcDbText
 10
8610.0
 20
-7200.0
 30
0.0
 40
70.0
  1
CU2
 72
1
 11
8610.0
 21
-7200.0
 31
0.0
100
AcDbText
 73
2
  0
LWPOLYLINE
  5
229
330
17
100
AcDbEntity
  8
CARTIGLIO
100
AcDbPolyline
 90
5
 70
0
 10
9480.0
 20
-7100.0
 10
11800.0
 20
-7100.0
 10
11800.0
 20
-7300.0
 10
9480.0
 20
-7300.0
 10
9480.0
 20
-7100.0
  0
TEXT
  5
22A
330
17
100
AcDbEntity
  8
TESTI
100
AcDbText
 10
10640.0
 20
-7200.0
 30
0.0
 40
70.0
  1
413232
 72
1
 11
10640.0
 21
-7200.0
 31
0.0
100
AcDbText
 73
2
  0
LWPOLYLINE
  5
22B
330
17
100
AcDbEntity
  8
CARTIGLIO
100
AcDbPolyline
 90
5
 70
0
 10
6000.0
 20
-7300.0
 10
7740.0
 20
-7300.0
 10
7740.0
 20
-7500.0
 10
6000.0
 20
-7500.0
 10
6000.0
 20
-7300.0
  0
TEXT
  5
22C
330
17
100
AcDbEntity
  8
TESTI
100
AcDbText
 10
6870.0
 20
-7400.0
 30
0.0
 40
70.0
  1
CU2(8)
 72
1
 11
6870.0
 21
-7400.0
 31
0.0
100
AcDbText
 73
2
  0
LWPOLYLINE
  5
22D
330
17
100
AcDbEntity
  8
CARTIGLIO
100
AcDbPolyline
 90
5
 70
0
 10
7740.0
 20
-7300.0
 10
9480.0
 20
-7300.0
 10
9480.0
 20
-7500.0
 10
7740.0
 20
-7500.0
 10
7740.0
 20
-7300.0
  0
TEXT
  5
22E
330
17
100
AcDbEntity
  8
TESTI
100
AcDbText
 10
8610.0
 20
-7400.0
 30
0.0
 40
70.0
  1
CU2
 72
1
 11
8610.0
 21
-7400.0
 31
0.0
100
AcDbText
 73
2
  0
LWPOLYLINE
  5
22F
330
17
100
AcDbEntity
  8
CARTIGLIO
100
AcDbPolyline
 90
5
 70
0
 10
9480.0
 20
-7300.0
 10
11800.0
 20
-7300.0
 10
11800.0
 20
-7500.0
 10
9480.0
 20
-7500.0
 10
9480.0
 20
-7300.0
  0
TEXT
  5
230
330
17
100
AcDbEntity
  8
TESTI
100
AcDbText
 10
10640.0
 20
-7400.0
 30
0.0
 40
70.0
  1
413300
 72
1
 11
10640.0
 21
-7400.0
 31
0.0
100
AcDbText
 73
2
  0
LWPOLYLINE
  5
231
330
17
100
AcDbEntity
  8
CARTIGLIO
100
AcDbPolyline
 90
5
 70
0
 10
6000.0
 20
-7500.0
 10
7740.0
 20
-7500.0
 10
7740.0
 20
-7700.0
 10
6000.0
 20
-7700.0
 10
6000.0
 20
-7500.0
  0
TEXT
  5
232
330
17
100
AcDbEntity
  8
TESTI
100
AcDbText
 10
6870.0
 20
-7600.0
 30
0.0
 40
70.0
  1
CU2(9)
 72
1
 11
6870.0
 21
-7600.0
 31
0.0
100
AcDbText
 73
2
  0
LWPOLYLINE
  5
233
330
17
100
AcDbEntity
  8
CARTIGLIO
100
AcDbPolyline
 90
5
 70
0
 10
7740.0
 20
-7500.0
 10
9480.0
 20
-7500.0
 10
9480.0
 20
-7700.0
 10
7740.0
 20
-7700.0
 10
7740.0
 20
-7500.0
  0
TEXT
  5
234
330
17
100
AcDbEntity
  8
TESTI
100
AcDbText
 10
8610.0
 20
-7600.0
 30
0.0
 40
70.0
  1
CU2
 72
1
 11
8610.0
 21
-7600.0
 31
0.0
100
AcDbText
 73
2
  0
LWPOLYLINE
  5
235
330
17
100
AcDbEntity
  8
CARTIGLIO
100
AcDbPolyline
 90
5
 70
0
 10
9480.0
 20
-7500.0
 10
11800.0
 20
-7500.0
 10
11800.0
 20
-7700.0
 10
9480.0
 20
-7700.0
 10
9480.0
 20
-7500.0
  0
TEXT
  5
236
330
17
100
AcDbEntity
  8
TESTI
100
AcDbText
 10
10640.0
 20
-7600.0
 30
0.0
 40
70.0
  1
413369
 72
1
 11
10640.0
 21
-7600.0
 31
0.0
100
AcDbText
 73
2
  0
LWPOLYLINE
  5
237
330
17
100
AcDbEntity
  8
CARTIGLIO
100
AcDbPolyline
 90
5
 70
0
 10
6000.0
 20
-7700.0
 10
7740.0
 20
-7700.0
 10
7740.0
 20
-7900.0
 10
6000.0
 20
-7900.0
 10
6000.0
 20
-7700.0
  0
TEXT
  5
238
330
17
100
AcDbEntity
  8
TESTI
100
AcDbText
 10
6870.0
 20
-7800.0
 30
0.0
 40
70.0
  1
CU2(10)
 72
1
 11
6870.0
 21
-7800.0
 31
0.0
100
AcDbText
 73
2
  0
LWPOLYLINE
  5
239
330
17
100
AcDbEntity
  8
CARTIGLIO
100
AcDbPolyline
 90
5
 70
0
 10
7740.0
 20
-7700.0
 10
9480.0
 20
-7700.0
 10
9480.0
 20
-7900.0
 10
7740.0
 20
-7900.0
 10
7740.0
 20
-7700.0
  0
TEXT
  5
23A
330
17
100
AcDbEntity
  8
TESTI
100
AcDbText
 10
8610.0
 20
-7800.0
 30
0.0
 40
70.0
  1
CU2
 72
1
 11
8610.0
 21
-7800.0
 31
0.0
100
AcDbText
 73
2
  0
LWPOLYLINE
  5
23B
330
17
100
AcDbEntity
  8
CARTIGLIO
100
AcDbPolyline
 90
5
 70
0
 10
9480.0
 20
-7700.0
 10
11800.0
 20
-7700.0
 10
11800.0
 20
-7900.0
 10
9480.0
 20
-7900.0
 10
9480.0
 20
-7700.0
  0
TEXT
  5
23C
330
17
100
AcDbEntity
  8
TESTI
100
AcDbText
 10
10640.0
 20
-7800.0
 30
0.0
 40
70.0
  1
413438
 72
1
 11
10640.0
 21
-7800.0
 31
0.0
100
AcDbText
 73
2
  0
LWPOLYLINE
  5
23D
330
17
100
AcDbEntity
  8
CARTIGLIO
100
AcDbPolyline
 90
5
 70
0
 10
6000.0
 20
-7900.0
 10
7740.0
 20
-7900.0
 10
7740.0
 20
-8100.0
 10
6000.0
 20
-8100.0
 10
6000.0
 20
-7900.0
  0
TEXT
  5
23E
330
17
100
AcDbEntity
  8
TESTI
100
AcDbText
 10
6870.0
 20
-8000.0
 30
0.0
 40
70.0
  1
CU1(22)
 72
1
 11
6870.0
 21
-8000.0
 31
0.0
100
AcDbText
 73
2
  0
LWPOLYLINE
  5
23F
330
17
100
AcDbEntity
  8
CARTIGLIO
100
AcDbPolyline
 90
5
 70
0
 10
7740.0
 20
-7900.0
 10
9480.0
 20
-7900.0
 10
9480.0
 20
-8100.0
 10
7740.0
 20
-8100.0
 10
7740.0
 20
-7900.0
  0
TEXT
  5
240
330
17
100
AcDbEntity
  8
TESTI
100
AcDbText
 10
8610.0
 20
-8000.0
 30
0.0
 40
70.0
  1
CU1
 72
1
 11
8610.0
 21
-8000.0
 31
0.0
100
AcDbText
 73
2
  0
LWPOLYLINE
  5
241
330
17
100
AcDbEntity
  8
CARTIGLIO
100
AcDbPolyline
 90
5
 70
0
 10
9480.0
 20
-7900.0
 10
11800.0
 20
-7900.0
 10
11800.0
 20
-8100.0
 10
9480.0
 20
-8100.0
 10
9480.0
 20
-7900.0
  0
TEXT
  5
242
330
17
100
AcDbEntity
  8
TESTI
100
AcDbText
 10
10640.0
 20
-8000.0
 30
0.0
 40
70.0
  1
413495
 72
1
 11
10640.0
 21
-8000.0
 31
0.0
100
AcDbText
 73
2
  0
LWPOLYLINE
  5
243
330
17
100
AcDbEntity
  8
CARTIGLIO
100
AcDbPolyline
 90
5
 70
0
 10
6000.0
 20
-8100.0
 10
7740.0
 20
-8100.0
 10
7740.0
 20
-8300.0
 10
6000.0
 20
-8300.0
 10
6000.0
 20
-8100.0
  0
TEXT
  5
244
330
17
100
AcDbEntity
  8
TESTI
100
AcDbText
 10
6870.0
 20
-8200.0
 30
0.0
 40
70.0
  1
CU1(23)
 72
1
 11
6870.0
 21
-8200.0
 31
0.0
100
AcDbText
 73
2
  0
LWPOLYLINE
  5
245
330
17
100
AcDbEntity
  8
CARTIGLIO
100
AcDbPolyline
 90
5
 70
0
 10
7740.0
 20
-8100.0
 10
9480.0
 20
-8100.0
 10
9480.0
 20
-8300.0
 10
7740.0
 20
-8300.0
 10
7740.0
 20
-8100.0
  0
TEXT
  5
246
330
17
100
AcDbEntity
  8
TESTI
100
AcDbText
 10
8610.0
 20
-8200.0
 30
0.0
 40
70.0
  1
CU1
 72
1
 11
8610.0
 21
-8200.0
 31
0.0
100
AcDbText
 73
2
  0
LWPOLYLINE
  5
247
330
17
100
AcDbEntity
  8
CARTIGLIO
100
AcDbPolyline
 90
5
 70
0
 10
9480.0
 20
-8100.0
 10
11800.0
 20
-8100.0
 10
11800.0
 20
-8300.0
 10
9480.0
 20
-8300.0
 10
9480.0
 20
-8100.0
  0
TEXT
  5
248
330
17
100
AcDbEntity
  8
TESTI
100
AcDbText
 10
10640.0
 20
-8200.0
 30
0.0
 40
70.0
  1
23495
 72
1
 11
10640.0
 21
-8200.0
 31
0.0
100
AcDbText
 73
2
  0
LWPOLYLINE
  5
249
330
17
100
AcDbEntity
  8
CARTIGLIO
100
AcDbPolyline
 90
5
 70
0
 10
6000.0
 20
-8300.0
 10
7740.0
 20
-8300.0
 10
7740.0
 20
-8500.0
 10
6000.0
 20
-8500.0
 10
6000.0
 20
-8300.0
  0
TEXT
  5
24A
330
17
100
AcDbEntity
  8
TESTI
100
AcDbText
 10
6870.0
 20
-8400.0
 30
0.0
 40
70.0
  1
CU2(11)
 72
1
 11
6870.0
 21
-8400.0
 31
0.0
100
AcDbText
 73
2
  0
LWPOLYLINE
  5
24B
330
17
100
AcDbEntity
  8
CARTIGLIO
100
AcDbPolyline
 90
5
 70
0
 10
7740.0
 20
-8300.0
 10
9480.0
 20
-8300.0
 10
9480.0
 20
-8500.0
 10
7740.0
 20
-8500.0
 10
7740.0
 20
-8300.0
  0
TEXT
  5
24C
330
17
100
AcDbEntity
  8
TESTI
100
AcDbText
 10
8610.0
 20
-8400.0
 30
0.0
 40
70.0
  1
CU2
 72
1
 11
8610.0
 21
-8400.0
 31
0.0
100
AcDbText
 73
2
  0
LWPOLYLINE
  5
24D
330
17
100
AcDbEntity
  8
CARTIGLIO
100
AcDbPolyline
 90
5
 70
0
 10
9480.0
 20
-8300.0
 10
11800.0
 20
-8300.0
 10
11800.0
 20
-8500.0
 10
9480.0
 20
-8500.0
 10
9480.0
 20
-8300.0
  0
TEXT
  5
24E
330
17
100
AcDbEntity
  8
TESTI
100
AcDbText
 10
10640.0
 20
-8400.0
 30
0.0
 40
70.0
  1
41369
 72
1
 11
10640.0
 21
-8400.0
 31
0.0
100
AcDbText
 73
2
  0
LWPOLYLINE
  5
24F
330
17
100
AcDbEntity
  8
CARTIGLIO
100
AcDbPolyline
 90
5
 70
0
 10
6000.0
 20
-8500.0
 10
7740.0
 20
-8500.0
 10
7740.0
 20
-8700.0
 10
6000.0
 20
-8700.0
 10
6000.0
 20
-8500.0
  0
TEXT
  5
250
330
17
100
AcDbEntity
  8
TESTI
100
AcDbText
 10
6870.0
 20
-8600.0
 30
0.0
 40
70.0
  1
CU2(12)
 72
1
 11
6870.0
 21
-8600.0
 31
0.0
100
AcDbText
 73
2
  0
LWPOLYLINE
  5
251
330
17
100
AcDbEntity
  8
CARTIGLIO
100
AcDbPolyline
 90
5
 70
0
 10
7740.0
 20
-8500.0
 10
9480.0
 20
-8500.0
 10
9480.0
 20
-8700.0
 10
7740.0
 20
-8700.0
 10
7740.0
 20
-8500.0
  0
TEXT
  5
252
330
17
100
AcDbEntity
  8
TESTI
100
AcDbText
 10
8610.0
 20
-8600.0
 30
0.0
 40
70.0
  1
CU2
 72
1
 11
8610.0
 21
-8600.0
 31
0.0
100
AcDbText
 73
2
  0
LWPOLYLINE
  5
253
330
17
100
AcDbEntity
  8
CARTIGLIO
100
AcDbPolyline
 90
5
 70
0
 10
9480.0
 20
-8500.0
 10
11800.0
 20
-8500.0
 10
11800.0
 20
-8700.0
 10
9480.0
 20
-8700.0
 10
9480.0
 20
-8500.0
  0
TEXT
  5
254
330
17
100
AcDbEntity
  8
TESTI
100
AcDbText
 10
10640.0
 20
-8600.0
 30
0.0
 40
70.0
  1
413138
 72
1
 11
10640.0
 21
-8600.0
 31
0.0
100
AcDbText
 73
2
  0
LWPOLYLINE
  5
255
330
17
100
AcDbEntity
  8
CARTIGLIO
100
AcDbPolyline
 90
5
 70
0
 10
6000.0
 20
-8700.0
 10
7740.0
 20
-8700.0
 10
7740.0
 20
-8900.0
 10
6000.0
 20
-8900.0
 10
6000.0
 20
-8700.0
  0
TEXT
  5
256
330
17
100
AcDbEntity
  8
TESTI
100
AcDbText
 10
6870.0
 20
-8800.0
 30
0.0
 40
70.0
  1
CU2(13)
 72
1
 11
6870.0
 21
-8800.0
 31
0.0
100
AcDbText
 73
2
  0
LWPOLYLINE
  5
257
330
17
100
AcDbEntity
  8
CARTIGLIO
100
AcDbPolyline
 90
5
 70
0
 10
7740.0
 20
-8700.0
 10
9480.0
 20
-8700.0
 10
9480.0
 20
-8900.0
 10
7740.0
 20
-8900.0
 10
7740.0
 20
-8700.0
  0
TEXT
  5
258
330
17
100
AcDbEntity
  8
TESTI
100
AcDbText
 10
8610.0
 20
-8800.0
 30
0.0
 40
70.0
  1
CU2
 72
1
 11
8610.0
 21
-8800.0
 31
0.0
100
AcDbText
 73
2
  0
LWPOLYLINE
  5
259
330
17
100
AcDbEntity
  8
CARTIGLIO
100
AcDbPolyline
 90
5
 70
0
 10
9480.0
 20
-8700.0
 10
11800.0
 20
-8700.0
 10
11800.0
 20
-8900.0
 10
9480.0
 20
-8900.0
 10
9480.0
 20
-8700.0
  0
TEXT
  5
25A
330
17
100
AcDbEntity
  8
TESTI
100
AcDbText
 10
10640.0
 20
-8800.0
 30
0.0
 40
70.0
  1
413206
 72
1
 11
10640.0
 21
-8800.0
 31
0.0
100
AcDbText
 73
2
  0
LWPOLYLINE
  5
25B
330
17
100
AcDbEntity
  8
CARTIGLIO
100
AcDbPolyline
 90
5
 70
0
 10
6000.0
 20
-8900.0
 10
7740.0
 20
-8900.0
 10
7740.0
 20
-9100.0
 10
6000.0
 20
-9100.0
 10
6000.0
 20
-8900.0
  0
TEXT
  5
25C
330
17
100
AcDbEntity
  8
TESTI
100
AcDbText
 10
6870.0
 20
-9000.0
 30
0.0
 40
70.0
  1
CU2(14)
 72
1
 11
6870.0
 21
-9000.0
 31
0.0
100
AcDbText
 73
2
  0
LWPOLYLINE
  5
25D
330
17
100
AcDbEntity
  8
CARTIGLIO
100
AcDbPolyline
 90
5
 70
0
 10
7740.0
 20
-8900.0
 10
9480.0
 20
-8900.0
 10
9480.0
 20
-9100.0
 10
7740.0
 20
-9100.0
 10
7740.0
 20
-8900.0
  0
TEXT
  5
25E
330
17
100
AcDbEntity
  8
TESTI
100
AcDbText
 10
8610.0
 20
-9000.0
 30
0.0
 40
70.0
  1
CU2
 72
1
 11
8610.0
 21
-9000.0
 31
0.0
100
AcDbText
 73
2
  0
LWPOLYLINE
  5
25F
330
17
100
AcDbEntity
  8
CARTIGLIO
100
AcDbPolyline
 90
5
 70
0
 10
9480.0
 20
-8900.0
 10
11800.0
 20
-8900.0
 10
11800.0
 20
-9100.0
 10
9480.0
 20
-9100.0
 10
9480.0
 20
-8900.0
  0
TEXT
  5
260
330
17
100
AcDbEntity
  8
TESTI
100
AcDbText
 10
10640.0
 20
-9000.0
 30
0.0
 40
70.0
  1
413275
 72
1
 11
10640.0
 21
-9000.0
 31
0.0
100
AcDbText
 73
2
  0
LWPOLYLINE
  5
261
330
17
100
AcDbEntity
  8
CARTIGLIO
100
AcDbPolyline
 90
5
 70
0
 10
6000.0
 20
-9100.0
 10
7740.0
 20
-9100.0
 10
7740.0
 20
-9300.0
 10
6000.0
 20
-9300.0
 10
6000.0
 20
-9100.0
  0
TEXT
  5
262
330
17
100
AcDbEntity
  8
TESTI
100
AcDbText
 10
6870.0
 20
-9200.0
 30
0.0
 40
70.0
  1
CU2(15)
 72
1
 11
6870.0
 21
-9200.0
 31
0.0
100
AcDbText
 73
2
  0
LWPOLYLINE
  5
263
330
17
100
AcDbEntity
  8
CARTIGLIO
100
AcDbPolyline
 90
5
 70
0
 10
7740.0
 20
-9100.0
 10
9480.0
 20
-9100.0
 10
9480.0
 20
-9300.0
 10
7740.0
 20
-9300.0
 10
7740.0
 20
-9100.0
  0
TEXT
  5
264
330
17
100
AcDbEntity
  8
TESTI
100
AcDbText
 10
8610.0
 20
-9200.0
 30
0.0
 40
70.0
  1
CU2
 72
1
 11
8610.0
 21
-9200.0
 31
0.0
100
AcDbText
 73
2
  0
LWPOLYLINE
  5
265
330
17
100
AcDbEntity
  8
CARTIGLIO
100
AcDbPolyline
 90
5
 70
0
 10
9480.0
 20
-9100.0
 10
11800.0
 20
-9100.0
 10
11800.0
 20
-9300.0
 10
9480.0
 20
-9300.0
 10
9480.0
 20
-9100.0
  0
TEXT
  5
266
330
17
100
AcDbEntity
  8
TESTI
100
AcDbText
 10
10640.0
 20
-9200.0
 30
0.0
 40
70.0
  1
413344
 72
1
 11
10640.0
 21
-9200.0
 31
0.0
100
AcDbText
 73
2
  0
LWPOLYLINE
  5
267
330
17
100
AcDbEntity
  8
CARTIGLIO
100
AcDbPolyline
 90
5
 70
0
 10
6000.0
 20
-9300.0
 10
7740.0
 20
-9300.0
 10
7740.0
 20
-9500.0
 10
6000.0
 20
-9500.0
 10
6000.0
 20
-9300.0
  0
TEXT
  5
268
330
17
100
AcDbEntity
  8
TESTI
100
AcDbText
 10
6870.0
 20
-9400.0
 30
0.0
 40
70.0
  1
CU2(16)
 72
1
 11
6870.0
 21
-9400.0
 31
0.0
100
AcDbText
 73
2
  0
LWPOLYLINE
  5
269
330
17
100
AcDbEntity
  8
CARTIGLIO
100
AcDbPolyline
 90
5
 70
0
 10
7740.0
 20
-9300.0
 10
9480.0
 20
-9300.0
 10
9480.0
 20
-9500.0
 10
7740.0
 20
-9500.0
 10
7740.0
 20
-9300.0
  0
TEXT
  5
26A
330
17
100
AcDbEntity
  8
TESTI
100
AcDbText
 10
8610.0
 20
-9400.0
 30
0.0
 40
70.0
  1
CU2
 72
1
 11
8610.0
 21
-9400.0
 31
0.0
100
AcDbText
 73
2
  0
LWPOLYLINE
  5
26B
330
17
100
AcDbEntity
  8
CARTIGLIO
100
AcDbPolyline
 90
5
 70
0
 10
9480.0
 20
-9300.0
 10
11800.0
 20
-9300.0
 10
11800.0
 20
-9500.0
 10
9480.0
 20
-9500.0
 10
9480.0
 20
-9300.0
  0
TEXT
  5
26C
330
17
100
AcDbEntity
  8
TESTI
100
AcDbText
 10
10640.0
 20
-9400.0
 30
0.0
 40
70.0
  1
413413
 72
1
 11
10640.0
 21
-9400.0
 31
0.0
100
AcDbText
 73
2
  0
LWPOLYLINE
  5
26D
330
17
100
AcDbEntity
  8
CARTIGLIO
100
AcDbPolyline
 90
5
 70
0
 10
6000.0
 20
-9500.0
 10
7740.0
 20
-9500.0
 10
7740.0
 20
-9700.0
 10
6000.0
 20
-9700.0
 10
6000.0
 20
-9500.0
  0
TEXT
  5
26E
330
17
100
AcDbEntity
  8
TESTI
100
AcDbText
 10
6870.0
 20
-9600.0
 30
0.0
 40
70.0
  1
CU2(17)
 72
1
 11
6870.0
 21
-9600.0
 31
0.0
100
AcDbText
 73
2
  0
LWPOLYLINE
  5
26F
330
17
100
AcDbEntity
  8
CARTIGLIO
100
AcDbPolyline
 90
5
 70
0
 10
7740.0
 20
-9500.0
 10
9480.0
 20
-9500.0
 10
9480.0
 20
-9700.0
 10
7740.0
 20
-9700.0
 10
7740.0
 20
-9500.0
  0
TEXT
  5
270
330
17
100
AcDbEntity
  8
TESTI
100
AcDbText
 10
8610.0
 20
-9600.0
 30
0.0
 40
70.0
  1
CU2
 72
1
 11
8610.0
 21
-9600.0
 31
0.0
100
AcDbText
 73
2
  0
LWPOLYLINE
  5
271
330
17
100
AcDbEntity
  8
CARTIGLIO
100
AcDbPolyline
 90
5
 70
0
 10
9480.0
 20
-9500.0
 10
11800.0
 20
-9500.0
 10
11800.0
 20
-9700.0
 10
9480.0
 20
-9700.0
 10
9480.0
 20
-9500.0
  0
TEXT
  5
272
330
17
100
AcDbEntity
  8
TESTI
100
AcDbText
 10
10640.0
 20
-9600.0
 30
0.0
 40
70.0
  1
413482
 72
1
 11
10640.0
 21
-9600.0
 31
0.0
100
AcDbText
 73
2
  0
LWPOLYLINE
  5
273
330
17
100
AcDbEntity
  8
CARTIGLIO
100
AcDbPolyline
 90
5
 70
0
 10
6000.0
 20
-9700.0
 10
7740.0
 20
-9700.0
 10
7740.0
 20
-9900.0
 10
6000.0
 20
-9900.0
 10
6000.0
 20
-9700.0
  0
TEXT
  5
274
330
17
100
AcDbEntity
  8
TESTI
100
AcDbText
 10
6870.0
 20
-9800.0
 30
0.0
 40
70.0
  1
CU1(24)
 72
1
 11
6870.0
 21
-9800.0
 31
0.0
100
AcDbText
 73
2
  0
LWPOLYLINE
  5
275
330
17
100
AcDbEntity
  8
CARTIGLIO
100
AcDbPolyline
 90
5
 70
0
 10
7740.0
 20
-9700.0
 10
9480.0
 20
-9700.0
 10
9480.0
 20
-9900.0
 10
7740.0
 20
-9900.0
 10
7740.0
 20
-9700.0
  0
TEXT
  5
276
330
17
100
AcDbEntity
  8
TESTI
100
AcDbText
 10
8610.0
 20
-9800.0
 30
0.0
 40
70.0
  1
CU1
 72
1
 11
8610.0
 21
-9800.0
 31
0.0
100
AcDbText
 73
2
  0
LWPOLYLINE
  5
277
330
17
100
AcDbEntity
  8
CARTIGLIO
100
AcDbPolyline
 90
5
 70
0
 10
9480.0
 20
-9700.0
 10
11800.0
 20
-9700.0
 10
11800.0
 20
-9900.0
 10
9480.0
 20
-9900.0
 10
9480.0
 20
-9700.0
  0
TEXT
  5
278
330
17
100
AcDbEntity
  8
TESTI
100
AcDbText
 10
10640.0
 20
-9800.0
 30
0.0
 40
70.0
  1
413495
 72
1
 11
10640.0
 21
-9800.0
 31
0.0
100
AcDbText
 73
2
  0
LWPOLYLINE
  5
279
330
17
100
AcDbEntity
  8
CARTIGLIO
100
AcDbPolyline
 90
5
 70
0
 10
6000.0
 20
-9900.0
 10
7740.0
 20
-9900.0
 10
7740.0
 20
-10100.0
 10
6000.0
 20
-10100.0
 10
6000.0
 20
-9900.0
  0
TEXT
  5
27A
330
17
100
AcDbEntity
  8
TESTI
100
AcDbText
 10
6870.0
 20
-10000.0
 30
0.0
 40
70.0
  1
CU1(25)
 72
1
 11
6870.0
 21
-10000.0
 31
0.0
100
AcDbText
 73
2
  0
LWPOLYLINE
  5
27B
330
17
100
AcDbEntity
  8
CARTIGLIO
100
AcDbPolyline
 90
5
 70
0
 10
7740.0
 20
-9900.0
 10
9480.0
 20
-9900.0
 10
9480.0
 20
-10100.0
 10
7740.0
 20
-10100.0
 10
7740.0
 20
-9900.0
  0
TEXT
  5
27C
330
17
100
AcDbEntity
  8
TESTI
100
AcDbText
 10
8610.0
 20
-10000.0
 30
0.0
 40
70.0
  1
CU1
 72
1
 11
8610.0
 21
-10000.0
 31
0.0
100
AcDbText
 73
2
  0
LWPOLYLINE
  5
27D
330
17
100
AcDbEntity
  8
CARTIGLIO
100
AcDbPolyline
 90
5
 70
0
 10
9480.0
 20
-9900.0
 10
11800.0
 20
-9900.0
 10
11800.0
 20
-10100.0
 10
9480.0
 20
-10100.0
 10
9480.0
 20
-9900.0
  0
TEXT
  5
27E
330
17
100
AcDbEntity
  8
TESTI
100
AcDbText
 10
10640.0
 20
-10000.0
 30
0.0
 40
70.0
  1
413495
 72
1
 11
10640.0
 21
-10000.0
 31
0.0
100
AcDbText
 73
2
  0
LWPOLYLINE
  5
27F
330
17
100
AcDbEntity
  8
CARTIGLIO
100
AcDbPolyline
 90
5
 70
0
 10
6000.0
 20
-10100.0
 10
7740.0
 20
-10100.0
 10
7740.0
 20
-10300.0
 10
6000.0
 20
-10300.0
 10
6000.0
 20
-10100.0
  0
TEXT
  5
280
330
17
100
AcDbEntity
  8
TESTI
100
AcDbText
 10
6870.0
 20
-10200.0
 30
0.0
 40
70.0
  1
CU1(26)
 72
1
 11
6870.0
 21
-10200.0
 31
0.0
100
AcDbText
 73
2
  0
LWPOLYLINE
  5
281
330
17
100
AcDbEntity
  8
CARTIGLIO
100
AcDbPolyline
 90
5
 70
0
 10
7740.0
 20
-10100.0
 10
9480.0
 20
-10100.0
 10
9480.0
 20
-10300.0
 10
7740.0
 20
-10300.0
 10
7740.0
 20
-10100.0
  0
TEXT
  5
282
330
17
100
AcDbEntity
  8
TESTI
100
AcDbText
 10
8610.0
 20
-10200.0
 30
0.0
 40
70.0
  1
CU1
 72
1
 11
8610.0
 21
-10200.0
 31
0.0
100
AcDbText
 73
2
  0
LWPOLYLINE
  5
283
330
17
100
AcDbEntity
  8
CARTIGLIO
100
AcDbPolyline
 90
5
 70
0
 10
9480.0
 20
-10100.0
 10
11800.0
 20
-10100.0
 10
11800.0
 20
-10300.0
 10
9480.0
 20
-10300.0
 10
9480.0
 20
-10100.0
  0
TEXT
  5
284
330
17
100
AcDbEntity
  8
TESTI
100
AcDbText
 10
10640.0
 20
-10200.0
 30
0.0
 40
70.0
  1
94495
 72
1
 11
10640.0
 21
-10200.0
 31
0.0
100
AcDbText
 73
2
  0
LWPOLYLINE
  5
285
330
17
100
AcDbEntity
  8
CARTIGLIO
100
AcDbPolyline
 90
5
 70
0
 10
6000.0
 20
-10300.0
 10
7740.0
 20
-10300.0
 10
7740.0
 20
-10500.0
 10
6000.0
 20
-10500.0
 10
6000.0
 20
-10300.0
  0
TEXT
  5
286
330
17
100
AcDbEntity
  8
TESTI
100
AcDbText
 10
6870.0
 20
-10400.0
 30
0.0
 40
70.0
  1
CU2(18)
 72
1
 11
6870.0
 21
-10400.0
 31
0.0
100
AcDbText
 73
2
  0
LWPOLYLINE
  5
287
330
17
100
AcDbEntity
  8
CARTIGLIO
100
AcDbPolyline
 90
5
 70
0
 10
7740.0
 20
-10300.0
 10
9480.0
 20
-10300.0
 10
9480.0
 20
-10500.0
 10
7740.0
 20
-10500.0
 10
7740.0
 20
-10300.0
  0
TEXT
  5
288
330
17
100
AcDbEntity
  8
TESTI
100
AcDbText
 10
8610.0
 20
-10400.0
 30
0.0
 40
70.0
  1
CU2
 72
1
 11
8610.0
 21
-10400.0
 31
0.0
100
AcDbText
 73
2
  0
LWPOLYLINE
  5
289
330
17
100
AcDbEntity
  8
CARTIGLIO
100
AcDbPolyline
 90
5
 70
0
 10
9480.0
 20
-10300.0
 10
11800.0
 20
-10300.0
 10
11800.0
 20
-10500.0
 10
9480.0
 20
-10500.0
 10
9480.0
 20
-10300.0
  0
TEXT
  5
28A
330
17
100
AcDbEntity
  8
TESTI
100
AcDbText
 10
10640.0
 20
-10400.0
 30
0.0
 40
70.0
  1
41369
 72
1
 11
10640.0
 21
-10400.0
 31
0.0
100
AcDbText
 73
2
  0
LWPOLYLINE
  5
28B
330
17
100
AcDbEntity
  8
CARTIGLIO
100
AcDbPolyline
 90
5
 70
0
 10
6000.0
 20
-10500.0
 10
7740.0
 20
-10500.0
 10
7740.0
 20
-10700.0
 10
6000.0
 20
-10700.0
 10
6000.0
 20
-10500.0
  0
TEXT
  5
28C
330
17
100
AcDbEntity
  8
TESTI
100
AcDbText
 10
6870.0
 20
-10600.0
 30
0.0
 40
70.0
  1
CU2(19)
 72
1
 11
6870.0
 21
-10600.0
 31
0.0
100
AcDbText
 73
2
  0
LWPOLYLINE
  5
28D
330
17
100
AcDbEntity
  8
CARTIGLIO
100
AcDbPolyline
 90
5
 70
0
 10
7740.0
 20
-10500.0
 10
9480.0
 20
-10500.0
 10
9480.0
 20
-10700.0
 10
7740.0
 20
-10700.0
 10
7740.0
 20
-10500.0
  0
TEXT
  5
28E
330
17
100
AcDbEntity
  8
TESTI
100
AcDbText
 10
8610.0
 20
-10600.0
 30
0.0
 40
70.0
  1
CU2
 72
1
 11
8610.0
 21
-10600.0
 31
0.0
100
AcDbText
 73
2
  0
LWPOLYLINE
  5
28F
330
17
100
AcDbEntity
  8
CARTIGLIO
100
AcDbPolyline
 90
5
 70
0
 10
9480.0
 20
-10500.0
 10
11800.0
 20
-10500.0
 10
11800.0
 20
-10700.0
 10
9480.0
 20
-10700.0
 10
9480.0
 20
-10500.0
  0
TEXT
  5
290
330
17
100
AcDbEntity
  8
TESTI
100
AcDbText
 10
10640.0
 20
-10600.0
 30
0.0
 40
70.0
  1
413138
 72
1
 11
10640.0
 21
-10600.0
 31
0.0
100
AcDbText
 73
2
  0
LWPOLYLINE
  5
291
330
17
100
AcDbEntity
  8
CARTIGLIO
100
AcDbPolyline
 90
5
 70
0
 10
6000.0
 20
-10700.0
 10
7740.0
 20
-10700.0
 10
7740.0
 20
-10900.0
 10
6000.0
 20
-10900.0
 10
6000.0
 20
-10700.0
  0
TEXT
  5
292
330
17
100
AcDbEntity
  8
TESTI
100
AcDbText
 10
6870.0
 20
-10800.0
 30
0.0
 40
70.0
  1
CU2(20)
 72
1
 11
6870.0
 21
-10800.0
 31
0.0
100
AcDbText
 73
2
  0
LWPOLYLINE
  5
293
330
17
100
AcDbEntity
  8
CARTIGLIO
100
AcDbPolyline
 90
5
 70
0
 10
7740.0
 20
-10700.0
 10
9480.0
 20
-10700.0
 10
9480.0
 20
-10900.0
 10
7740.0
 20
-10900.0
 10
7740.0
 20
-10700.0
  0
TEXT
  5
294
330
17
100
AcDbEntity
  8
TESTI
100
AcDbText
 10
8610.0
 20
-10800.0
 30
0.0
 40
70.0
  1
CU2
 72
1
 11
8610.0
 21
-10800.0
 31
0.0
100
AcDbText
 73
2
  0
LWPOLYLINE
  5
295
330
17
100
AcDbEntity
  8
CARTIGLIO
100
AcDbPolyline
 90
5
 70
0
 10
9480.0
 20
-10700.0
 10
11800.0
 20
-10700.0
 10
11800.0
 20
-10900.0
 10
9480.0
 20
-10900.0
 10
9480.0
 20
-10700.0
  0
TEXT
  5
296
330
17
100
AcDbEntity
  8
TESTI
100
AcDbText
 10
10640.0
 20
-10800.0
 30
0.0
 40
70.0
  1
413206
 72
1
 11
10640.0
 21
-10800.0
 31
0.0
100
AcDbText
 73
2
  0
LWPOLYLINE
  5
297
330
17
100
AcDbEntity
  8
CARTIGLIO
100
AcDbPolyline
 90
5
 70
0
 10
6000.0
 20
-10900.0
 10
7740.0
 20
-10900.0
 10
7740.0
 20
-11100.0
 10
6000.0
 20
-11100.0
 10
6000.0
 20
-10900.0
  0
TEXT
  5
298
330
17
100
AcDbEntity
  8
TESTI
100
AcDbText
 10
6870.0
 20
-11000.0
 30
0.0
 40
70.0
  1
CU2(21)
 72
1
 11
6870.0
 21
-11000.0
 31
0.0
100
AcDbText
 73
2
  0
LWPOLYLINE
  5
299
330
17
100
AcDbEntity
  8
CARTIGLIO
100
AcDbPolyline
 90
5
 70
0
 10
7740.0
 20
-10900.0
 10
9480.0
 20
-10900.0
 10
9480.0
 20
-11100.0
 10
7740.0
 20
-11100.0
 10
7740.0
 20
-10900.0
  0
TEXT
  5
29A
330
17
100
AcDbEntity
  8
TESTI
100
AcDbText
 10
8610.0
 20
-11000.0
 30
0.0
 40
70.0
  1
CU2
 72
1
 11
8610.0
 21
-11000.0
 31
0.0
100
AcDbText
 73
2
  0
LWPOLYLINE
  5
29B
330
17
100
AcDbEntity
  8
CARTIGLIO
100
AcDbPolyline
 90
5
 70
0
 10
9480.0
 20
-10900.0
 10
11800.0
 20
-10900.0
 10
11800.0
 20
-11100.0
 10
9480.0
 20
-11100.0
 10
9480.0
 20
-10900.0
  0
TEXT
  5
29C
330
17
100
AcDbEntity
  8
TESTI
100
AcDbText
 10
10640.0
 20
-11000.0
 30
0.0
 40
70.0
  1
413275
 72
1
 11
10640.0
 21
-11000.0
 31
0.0
100
AcDbText
 73
2
  0
LWPOLYLINE
  5
29D
330
17
100
AcDbEntity
  8
CARTIGLIO
100
AcDbPolyline
 90
5
 70
0
 10
6000.0
 20
-11100.0
 10
7740.0
 20
-11100.0
 10
7740.0
 20
-11300.0
 10
6000.0
 20
-11300.0
 10
6000.0
 20
-11100.0
  0
TEXT
  5
29E
330
17
100
AcDbEntity
  8
TESTI
100
AcDbText
 10
6870.0
 20
-11200.0
 30
0.0
 40
70.0
  1
CU2(22)
 72
1
 11
6870.0
 21
-11200.0
 31
0.0
100
AcDbText
 73
2
  0
LWPOLYLINE
  5
29F
330
17
100
AcDbEntity
  8
CARTIGLIO
100
AcDbPolyline
 90
5
 70
0
 10
7740.0
 20
-11100.0
 10
9480.0
 20
-11100.0
 10
9480.0
 20
-11300.0
 10
7740.0
 20
-11300.0
 10
7740.0
 20
-11100.0
  0
TEXT
  5
2A0
330
17
100
AcDbEntity
  8
TESTI
100
AcDbText
 10
8610.0
 20
-11200.0
 30
0.0
 40
70.0
  1
CU2
 72
1
 11
8610.0
 21
-11200.0
 31
0.0
100
AcDbText
 73
2
  0
LWPOLYLINE
  5
2A1
330
17
100
AcDbEntity
  8
CARTIGLIO
100
AcDbPolyline
 90
5
 70
0
 10
9480.0
 20
-11100.0
 10
11800.0
 20
-11100.0
 10
11800.0
 20
-11300.0
 10
9480.0
 20
-11300.0
 10
9480.0
 20
-11100.0
  0
TEXT
  5
2A2
330
17
100
AcDbEntity
  8
TESTI
100
AcDbText
 10
10640.0
 20
-11200.0
 30
0.0
 40
70.0
  1
413344
 72
1
 11
10640.0
 21
-11200.0
 31
0.0
100
AcDbText
 73
2
  0
LWPOLYLINE
  5
2A3
330
17
100
AcDbEntity
  8
CARTIGLIO
100
AcDbPolyline
 90
5
 70
0
 10
6000.0
 20
-11300.0
 10
7740.0
 20
-11300.0
 10
7740.0
 20
-11500.0
 10
6000.0
 20
-11500.0
 10
6000.0
 20
-11300.0
  0
TEXT
  5
2A4
330
17
100
AcDbEntity
  8
TESTI
100
AcDbText
 10
6870.0
 20
-11400.0
 30
0.0
 40
70.0
  1
CU2(23)
 72
1
 11
6870.0
 21
-11400.0
 31
0.0
100
AcDbText
 73
2
  0
LWPOLYLINE
  5
2A5
330
17
100
AcDbEntity
  8
CARTIGLIO
100
AcDbPolyline
 90
5
 70
0
 10
7740.0
 20
-11300.0
 10
9480.0
 20
-11300.0
 10
9480.0
 20
-11500.0
 10
7740.0
 20
-11500.0
 10
7740.0
 20
-11300.0
  0
TEXT
  5
2A6
330
17
100
AcDbEntity
  8
TESTI
100
AcDbText
 10
8610.0
 20
-11400.0
 30
0.0
 40
70.0
  1
CU2
 72
1
 11
8610.0
 21
-11400.0
 31
0.0
100
AcDbText
 73
2
  0
LWPOLYLINE
  5
2A7
330
17
100
AcDbEntity
  8
CARTIGLIO
100
AcDbPolyline
 90
5
 70
0
 10
9480.0
 20
-11300.0
 10
11800.0
 20
-11300.0
 10
11800.0
 20
-11500.0
 10
9480.0
 20
-11500.0
 10
9480.0
 20
-11300.0
  0
TEXT
  5
2A8
330
17
100
AcDbEntity
  8
TESTI
100
AcDbText
 10
10640.0
 20
-11400.0
 30
0.0
 40
70.0
  1
413413
 72
1
 11
10640.0
 21
-11400.0
 31
0.0
100
AcDbText
 73
2
  0
LWPOLYLINE
  5
2A9
330
17
100
AcDbEntity
  8
CARTIGLIO
100
AcDbPolyline
 90
5
 70
0
 10
6000.0
 20
-11500.0
 10
7740.0
 20
-11500.0
 10
7740.0
 20
-11700.0
 10
6000.0
 20
-11700.0
 10
6000.0
 20
-11500.0
  0
TEXT
  5
2AA
330
17
100
AcDbEntity
  8
TESTI
100
AcDbText
 10
6870.0
 20
-11600.0
 30
0.0
 40
70.0
  1
CU2(24)
 72
1
 11
6870.0
 21
-11600.0
 31
0.0
100
AcDbText
 73
2
  0
LWPOLYLINE
  5
2AB
330
17
100
AcDbEntity
  8
CARTIGLIO
100
AcDbPolyline
 90
5
 70
0
 10
7740.0
 20
-11500.0
 10
9480.0
 20
-11500.0
 10
9480.0
 20
-11700.0
 10
7740.0
 20
-11700.0
 10
7740.0
 20
-11500.0
  0
TEXT
  5
2AC
330
17
100
AcDbEntity
  8
TESTI
100
AcDbText
 10
8610.0
 20
-11600.0
 30
0.0
 40
70.0
  1
CU2
 72
1
 11
8610.0
 21
-11600.0
 31
0.0
100
AcDbText
 73
2
  0
LWPOLYLINE
  5
2AD
330
17
100
AcDbEntity
  8
CARTIGLIO
100
AcDbPolyline
 90
5
 70
0
 10
9480.0
 20
-11500.0
 10
11800.0
 20
-11500.0
 10
11800.0
 20
-11700.0
 10
9480.0
 20
-11700.0
 10
9480.0
 20
-11500.0
  0
TEXT
  5
2AE
330
17
100
AcDbEntity
  8
TESTI
100
AcDbText
 10
10640.0
 20
-11600.0
 30
0.0
 40
70.0
  1
413482
 72
1
 11
10640.0
 21
-11600.0
 31
0.0
100
AcDbText
 73
2
  0
LWPOLYLINE
  5
2AF
330
17
100
AcDbEntity
  8
CARTIGLIO
100
AcDbPolyline
 90
5
 70
0
 10
6000.0
 20
-11700.0
 10
7740.0
 20
-11700.0
 10
7740.0
 20
-11900.0
 10
6000.0
 20
-11900.0
 10
6000.0
 20
-11700.0
  0
TEXT
  5
2B0
330
17
100
AcDbEntity
  8
TESTI
100
AcDbText
 10
6870.0
 20
-11800.0
 30
0.0
 40
70.0
  1
CU1(27)
 72
1
 11
6870.0
 21
-11800.0
 31
0.0
100
AcDbText
 73
2
  0
LWPOLYLINE
  5
2B1
330
17
100
AcDbEntity
  8
CARTIGLIO
100
AcDbPolyline
 90
5
 70
0
 10
7740.0
 20
-11700.0
 10
9480.0
 20
-11700.0
 10
9480.0
 20
-11900.0
 10
7740.0
 20
-11900.0
 10
7740.0
 20
-11700.0
  0
TEXT
  5
2B2
330
17
100
AcDbEntity
  8
TESTI
100
AcDbText
 10
8610.0
 20
-11800.0
 30
0.0
 40
70.0
  1
CU1
 72
1
 11
8610.0
 21
-11800.0
 31
0.0
100
AcDbText
 73
2
  0
LWPOLYLINE
  5
2B3
330
17
100
AcDbEntity
  8
CARTIGLIO
100
AcDbPolyline
 90
5
 70
0
 10
9480.0
 20
-11700.0
 10
11800.0
 20
-11700.0
 10
11800.0
 20
-11900.0
 10
9480.0
 20
-11900.0
 10
9480.0
 20
-11700.0
  0
TEXT
  5
2B4
330
17
100
AcDbEntity
  8
TESTI
100
AcDbText
 10
10640.0
 20
-11800.0
 30
0.0
 40
70.0
  1
413495
 72
1
 11
10640.0
 21
-11800.0
 31
0.0
100
AcDbText
 73
2
  0
LWPOLYLINE
  5
2B5
330
17
100
AcDbEntity
  8
CARTIGLIO
100
AcDbPolyline
 90
5
 70
0
 10
6000.0
 20
-11900.0
 10
7740.0
 20
-11900.0
 10
7740.0
 20
-12100.0
 10
6000.0
 20
-12100.0
 10
6000.0
 20
-11900.0
  0
TEXT
  5
2B6
330
17
100
AcDbEntity
  8
TESTI
100
AcDbText
 10
6870.0
 20
-12000.0
 30
0.0
 40
70.0
  1
CU1(28)
 72
1
 11
6870.0
 21
-12000.0
 31
0.0
100
AcDbText
 73
2
  0
LWPOLYLINE
  5
2B7
330
17
100
AcDbEntity
  8
CARTIGLIO
100
AcDbPolyline
 90
5
 70
0
 10
7740.0
 20
-11900.0
 10
9480.0
 20
-11900.0
 10
9480.0
 20
-12100.0
 10
7740.0
 20
-12100.0
 10
7740.0
 20
-11900.0
  0
TEXT
  5
2B8
330
17
100
AcDbEntity
  8
TESTI
100
AcDbText
 10
8610.0
 20
-12000.0
 30
0.0
 40
70.0
  1
CU1
 72
1
 11
8610.0
 21
-12000.0
 31
0.0
100
AcDbText
 73
2
  0
LWPOLYLINE
  5
2B9
330
17
100
AcDbEntity
  8
CARTIGLIO
100
AcDbPolyline
 90
5
 70
0
 10
9480.0
 20
-11900.0
 10
11800.0
 20
-11900.0
 10
11800.0
 20
-12100.0
 10
9480.0
 20
-12100.0
 10
9480.0
 20
-11900.0
  0
TEXT
  5
2BA
330
17
100
AcDbEntity
  8
TESTI
100
AcDbText
 10
10640.0
 20
-12000.0
 30
0.0
 40
70.0
  1
15495
 72
1
 11
10640.0
 21
-12000.0
 31
0.0
100
AcDbText
 73
2
  0
LWPOLYLINE
  5
2BB
330
17
100
AcDbEntity
  8
CARTIGLIO
100
AcDbPolyline
 90
5
 70
0
 10
6000.0
 20
-12100.0
 10
7740.0
 20
-12100.0
 10
7740.0
 20
-12300.0
 10
6000.0
 20
-12300.0
 10
6000.0
 20
-12100.0
  0
TEXT
  5
2BC
330
17
100
AcDbEntity
  8
TESTI
100
AcDbText
 10
6870.0
 20
-12200.0
 30
0.0
 40
70.0
  1
CU2(25)
 72
1
 11
6870.0
 21
-12200.0
 31
0.0
100
AcDbText
 73
2
  0
LWPOLYLINE
  5
2BD
330
17
100
AcDbEntity
  8
CARTIGLIO
100
AcDbPolyline
 90
5
 70
0
 10
7740.0
 20
-12100.0
 10
9480.0
 20
-12100.0
 10
9480.0
 20
-12300.0
 10
7740.0
 20
-12300.0
 10
7740.0
 20
-12100.0
  0
TEXT
  5
2BE
330
17
100
AcDbEntity
  8
TESTI
100
AcDbText
 10
8610.0
 20
-12200.0
 30
0.0
 40
70.0
  1
CU2
 72
1
 11
8610.0
 21
-12200.0
 31
0.0
100
AcDbText
 73
2
  0
LWPOLYLINE
  5
2BF
330
17
100
AcDbEntity
  8
CARTIGLIO
100
AcDbPolyline
 90
5
 70
0
 10
9480.0
 20
-12100.0
 10
11800.0
 20
-12100.0
 10
11800.0
 20
-12300.0
 10
9480.0
 20
-12300.0
 10
9480.0
 20
-12100.0
  0
TEXT
  5
2C0
330
17
100
AcDbEntity
  8
TESTI
100
AcDbText
 10
10640.0
 20
-12200.0
 30
0.0
 40
70.0
  1
41369
 72
1
 11
10640.0
 21
-12200.0
 31
0.0
100
AcDbText
 73
2
  0
LWPOLYLINE
  5
2C1
330
17
100
AcDbEntity
  8
CARTIGLIO
100
AcDbPolyline
 90
5
 70
0
 10
6000.0
 20
-12300.0
 10
7740.0
 20
-12300.0
 10
7740.0
 20
-12500.0
 10
6000.0
 20
-12500.0
 10
6000.0
 20
-12300.0
  0
TEXT
  5
2C2
330
17
100
AcDbEntity
  8
TESTI
100
AcDbText
 10
6870.0
 20
-12400.0
 30
0.0
 40
70.0
  1
CU2(26)
 72
1
 11
6870.0
 21
-12400.0
 31
0.0
100
AcDbText
 73
2
  0
LWPOLYLINE
  5
2C3
330
17
100
AcDbEntity
  8
CARTIGLIO
100
AcDbPolyline
 90
5
 70
0
 10
7740.0
 20
-12300.0
 10
9480.0
 20
-12300.0
 10
9480.0
 20
-12500.0
 10
7740.0
 20
-12500.0
 10
7740.0
 20
-12300.0
  0
TEXT
  5
2C4
330
17
100
AcDbEntity
  8
TESTI
100
AcDbText
 10
8610.0
 20
-12400.0
 30
0.0
 40
70.0
  1
CU2
 72
1
 11
8610.0
 21
-12400.0
 31
0.0
100
AcDbText
 73
2
  0
LWPOLYLINE
  5
2C5
330
17
100
AcDbEntity
  8
CARTIGLIO
100
AcDbPolyline
 90
5
 70
0
 10
9480.0
 20
-12300.0
 10
11800.0
 20
-12300.0
 10
11800.0
 20
-12500.0
 10
9480.0
 20
-12500.0
 10
9480.0
 20
-12300.0
  0
TEXT
  5
2C6
330
17
100
AcDbEntity
  8
TESTI
100
AcDbText
 10
10640.0
 20
-12400.0
 30
0.0
 40
70.0
  1
413138
 72
1
 11
10640.0
 21
-12400.0
 31
0.0
100
AcDbText
 73
2
  0
LWPOLYLINE
  5
2C7
330
17
100
AcDbEntity
  8
CARTIGLIO
100
AcDbPolyline
 90
5
 70
0
 10
6000.0
 20
-12500.0
 10
7740.0
 20
-12500.0
 10
7740.0
 20
-12700.0
 10
6000.0
 20
-12700.0
 10
6000.0
 20
-12500.0
  0
TEXT
  5
2C8
330
17
100
AcDbEntity
  8
TESTI
100
AcDbText
 10
6870.0
 20
-12600.0
 30
0.0
 40
70.0
  1
CU2(27)
 72
1
 11
6870.0
 21
-12600.0
 31
0.0
100
AcDbText
 73
2
  0
LWPOLYLINE
  5
2C9
330
17
100
AcDbEntity
  8
CARTIGLIO
100
AcDbPolyline
 90
5
 70
0
 10
7740.0
 20
-12500.0
 10
9480.0
 20
-12500.0
 10
9480.0
 20
-12700.0
 10
7740.0
 20
-12700.0
 10
7740.0
 20
-12500.0
  0
TEXT
  5
2CA
330
17
100
AcDbEntity
  8
TESTI
100
AcDbText
 10
8610.0
 20
-12600.0
 30
0.0
 40
70.0
  1
CU2
 72
1
 11
8610.0
 21
-12600.0
 31
0.0
100
AcDbText
 73
2
  0
LWPOLYLINE
  5
2CB
330
17
100
AcDbEntity
  8
CARTIGLIO
100
AcDbPolyline
 90
5
 70
0
 10
9480.0
 20
-12500.0
 10
11800.0
 20
-12500.0
 10
11800.0
 20
-12700.0
 10
9480.0
 20
-12700.0
 10
9480.0
 20
-12500.0
  0
TEXT
  5
2CC
330
17
100
AcDbEntity
  8
TESTI
100
AcDbText
 10
10640.0
 20
-12600.0
 30
0.0
 40
70.0
  1
413206
 72
1
 11
10640.0
 21
-12600.0
 31
0.0
100
AcDbText
 73
2
  0
LWPOLYLINE
  5
2CD
330
17
100
AcDbEntity
  8
CARTIGLIO
100
AcDbPolyline
 90
5
 70
0
 10
6000.0
 20
-12700.0
 10
7740.0
 20
-12700.0
 10
7740.0
 20
-12900.0
 10
6000.0
 20
-12900.0
 10
6000.0
 20
-12700.0
  0
TEXT
  5
2CE
330
17
100
AcDbEntity
  8
TESTI
100
AcDbText
 10
6870.0
 20
-12800.0
 30
0.0
 40
70.0
  1
CU2(28)
 72
1
 11
6870.0
 21
-12800.0
 31
0.0
100
AcDbText
 73
2
  0
LWPOLYLINE
  5
2CF
330
17
100
AcDbEntity
  8
CARTIGLIO
100
AcDbPolyline
 90
5
 70
0
 10
7740.0
 20
-12700.0
 10
9480.0
 20
-12700.0
 10
9480.0
 20
-12900.0
 10
7740.0
 20
-12900.0
 10
7740.0
 20
-12700.0
  0
TEXT
  5
2D0
330
17
100
AcDbEntity
  8
TESTI
100
AcDbText
 10
8610.0
 20
-12800.0
 30
0.0
 40
70.0
  1
CU2
 72
1
 11
8610.0
 21
-12800.0
 31
0.0
100
AcDbText
 73
2
  0
LWPOLYLINE
  5
2D1
330
17
100
AcDbEntity
  8
CARTIGLIO
100
AcDbPolyline
 90
5
 70
0
 10
9480.0
 20
-12700.0
 10
11800.0
 20
-12700.0
 10
11800.0
 20
-12900.0
 10
9480.0
 20
-12900.0
 10
9480.0
 20
-12700.0
  0
TEXT
  5
2D2
330
17
100
AcDbEntity
  8
TESTI
100
AcDbText
 10
10640.0
 20
-12800.0
 30
0.0
 40
70.0
  1
413275
 72
1
 11
10640.0
 21
-12800.0
 31
0.0
100
AcDbText
 73
2
  0
LWPOLYLINE
  5
2D3
330
17
100
AcDbEntity
  8
CARTIGLIO
100
AcDbPolyline
 90
5
 70
0
 10
6000.0
 20
-12900.0
 10
7740.0
 20
-12900.0
 10
7740.0
 20
-13100.0
 10
6000.0
 20
-13100.0
 10
6000.0
 20
-12900.0
  0
TEXT
  5
2D4
330
17
100
AcDbEntity
  8
TESTI
100
AcDbText
 10
6870.0
 20
-13000.0
 30
0.0
 40
70.0
  1
CU2(29)
 72
1
 11
6870.0
 21
-13000.0
 31
0.0
100
AcDbText
 73
2
  0
LWPOLYLINE
  5
2D5
330
17
100
AcDbEntity
  8
CARTIGLIO
100
AcDbPolyline
 90
5
 70
0
 10
7740.0
 20
-12900.0
 10
9480.0
 20
-12900.0
 10
9480.0
 20
-13100.0
 10
7740.0
 20
-13100.0
 10
7740.0
 20
-12900.0
  0
TEXT
  5
2D6
330
17
100
AcDbEntity
  8
TESTI
100
AcDbText
 10
8610.0
 20
-13000.0
 30
0.0
 40
70.0
  1
CU2
 72
1
 11
8610.0
 21
-13000.0
 31
0.0
100
AcDbText
 73
2
  0
LWPOLYLINE
  5
2D7
330
17
100
AcDbEntity
  8
CARTIGLIO
100
AcDbPolyline
 90
5
 70
0
 10
9480.0
 20
-12900.0
 10
11800.0
 20
-12900.0
 10
11800.0
 20
-13100.0
 10
9480.0
 20
-13100.0
 10
9480.0
 20
-12900.0
  0
TEXT
  5
2D8
330
17
100
AcDbEntity
  8
TESTI
100
AcDbText
 10
10640.0
 20
-13000.0
 30
0.0
 40
70.0
  1
413344
 72
1
 11
10640.0
 21
-13000.0
 31
0.0
100
AcDbText
 73
2
  0
LWPOLYLINE
  5
2D9
330
17
100
AcDbEntity
  8
CARTIGLIO
100
AcDbPolyline
 90
5
 70
0
 10
6000.0
 20
-13100.0
 10
7740.0
 20
-13100.0
 10
7740.0
 20
-13300.0
 10
6000.0
 20
-13300.0
 10
6000.0
 20
-13100.0
  0
TEXT
  5
2DA
330
17
100
AcDbEntity
  8
TESTI
100
AcDbText
 10
6870.0
 20
-13200.0
 30
0.0
 40
70.0
  1
CU2(30)
 72
1
 11
6870.0
 21
-13200.0
 31
0.0
100
AcDbText
 73
2
  0
LWPOLYLINE
  5
2DB
330
17
100
AcDbEntity
  8
CARTIGLIO
100
AcDbPolyline
 90
5
 70
0
 10
7740.0
 20
-13100.0
 10
9480.0
 20
-13100.0
 10
9480.0
 20
-13300.0
 10
7740.0
 20
-13300.0
 10
7740.0
 20
-13100.0
  0
TEXT
  5
2DC
330
17
100
AcDbEntity
  8
TESTI
100
AcDbText
 10
8610.0
 20
-13200.0
 30
0.0
 40
70.0
  1
CU2
 72
1
 11
8610.0
 21
-13200.0
 31
0.0
100
AcDbText
 73
2
  0
LWPOLYLINE
  5
2DD
330
17
100
AcDbEntity
  8
CARTIGLIO
100
AcDbPolyline
 90
5
 70
0
 10
9480.0
 20
-13100.0
 10
11800.0
 20
-13100.0
 10
11800.0
 20
-13300.0
 10
9480.0
 20
-13300.0
 10
9480.0
 20
-13100.0
  0
TEXT
  5
2DE
330
17
100
AcDbEntity
  8
TESTI
100
AcDbText
 10
10640.0
 20
-13200.0
 30
0.0
 40
70.0
  1
413413
 72
1
 11
10640.0
 21
-13200.0
 31
0.0
100
AcDbText
 73
2
  0
LWPOLYLINE
  5
2DF
330
17
100
AcDbEntity
  8
CARTIGLIO
100
AcDbPolyline
 90
5
 70
0
 10
6000.0
 20
-13300.0
 10
7740.0
 20
-13300.0
 10
7740.0
 20
-13500.0
 10
6000.0
 20
-13500.0
 10
6000.0
 20
-13300.0
  0
TEXT
  5
2E0
330
17
100
AcDbEntity
  8
TESTI
100
AcDbText
 10
6870.0
 20
-13400.0
 30
0.0
 40
70.0
  1
CU2(31)
 72
1
 11
6870.0
 21
-13400.0
 31
0.0
100
AcDbText
 73
2
  0
LWPOLYLINE
  5
2E1
330
17
100
AcDbEntity
  8
CARTIGLIO
100
AcDbPolyline
 90
5
 70
0
 10
7740.0
 20
-13300.0
 10
9480.0
 20
-13300.0
 10
9480.0
 20
-13500.0
 10
7740.0
 20
-13500.0
 10
7740.0
 20
-13300.0
  0
TEXT
  5
2E2
330
17
100
AcDbEntity
  8
TESTI
100
AcDbText
 10
8610.0
 20
-13400.0
 30
0.0
 40
70.0
  1
CU2
 72
1
 11
8610.0
 21
-13400.0
 31
0.0
100
AcDbText
 73
2
  0
LWPOLYLINE
  5
2E3
330
17
100
AcDbEntity
  8
CARTIGLIO
100
AcDbPolyline
 90
5
 70
0
 10
9480.0
 20
-13300.0
 10
11800.0
 20
-13300.0
 10
11800.0
 20
-13500.0
 10
9480.0
 20
-13500.0
 10
9480.0
 20
-13300.0
  0
TEXT
  5
2E4
330
17
100
AcDbEntity
  8
TESTI
100
AcDbText
 10
10640.0
 20
-13400.0
 30
0.0
 40
70.0
  1
413482
 72
1
 11
10640.0
 21
-13400.0
 31
0.0
100
AcDbText
 73
2
  0
LWPOLYLINE
  5
2E5
330
17
100
AcDbEntity
  8
CARTIGLIO
100
AcDbPolyline
 90
5
 70
0
 10
6000.0
 20
-13500.0
 10
7740.0
 20
-13500.0
 10
7740.0
 20
-13700.0
 10
6000.0
 20
-13700.0
 10
6000.0
 20
-13500.0
  0
TEXT
  5
2E6
330
17
100
AcDbEntity
  8
TESTI
100
AcDbText
 10
6870.0
 20
-13600.0
 30
0.0
 40
70.0
  1
CU1(29)
 72
1
 11
6870.0
 21
-13600.0
 31
0.0
100
AcDbText
 73
2
  0
LWPOLYLINE
  5
2E7
330
17
100
AcDbEntity
  8
CARTIGLIO
100
AcDbPolyline
 90
5
 70
0
 10
7740.0
 20
-13500.0
 10
9480.0
 20
-13500.0
 10
9480.0
 20
-13700.0
 10
7740.0
 20
-13700.0
 10
7740.0
 20
-13500.0
  0
TEXT
  5
2E8
330
17
100
AcDbEntity
  8
TESTI
100
AcDbText
 10
8610.0
 20
-13600.0
 30
0.0
 40
70.0
  1
CU1
 72
1
 11
8610.0
 21
-13600.0
 31
0.0
100
AcDbText
 73
2
  0
LWPOLYLINE
  5
2E9
330
17
100
AcDbEntity
  8
CARTIGLIO
100
AcDbPolyline
 90
5
 70
0
 10
9480.0
 20
-13500.0
 10
11800.0
 20
-13500.0
 10
11800.0
 20
-13700.0
 10
9480.0
 20
-13700.0
 10
9480.0
 20
-13500.0
  0
TEXT
  5
2EA
330
17
100
AcDbEntity
  8
TESTI
100
AcDbText
 10
10640.0
 20
-13600.0
 30
0.0
 40
70.0
  1
349495
 72
1
 11
10640.0
 21
-13600.0
 31
0.0
100
AcDbText
 73
2
  0
LWPOLYLINE
  5
2EB
330
17
100
AcDbEntity
  8
CARTIGLIO
100
AcDbPolyline
 90
5
 70
0
 10
9500.0
 20
-17900.0
 10
12000.0
 20
-17900.0
 10
12000.0
 20
-16400.0
 10
9500.0
 20
-16400.0
 10
9500.0
 20
-17900.0
  0
TEXT
  5
2EC
330
17
100
AcDbEntity
  8
TESTI
100
AcDbText
 10
10750.0
 20
-16600.0
 30
0.0
 40
120.0
  1
DEMO PARETE TRAPEZOIDALE
 72
1
 11
10750.0
 21
-16600.0
 31
0.0
100
AcDbText
 73
2
  0
TEXT
  5
2ED
330
17
100
AcDbEntity
  8
TESTI
100
AcDbText
 10
9600.0
 20
-16800.0
 30
0.0
 40
80.0
  1
Data: 27/08/2025 15:11
 11
9600.0
 21
-16800.0
 31
0.0
100
AcDbText
 73
1
  0
TEXT
  5
2EE
330
17
100
AcDbEntity
  8
TESTI
100
AcDbText
 10
9600.0
 20
-16950.0
 30
0.0
 40
80.0
  1
Blocchi Standard: 56
 11
9600.0
 21
-16950.0
 31
0.0
100
AcDbText
 73
1
  0
TEXT
  5
2EF
330
17
100
AcDbEntity
  8
TESTI
100
AcDbText
 10
9600.0
 20
-17100.0
 30
0.0
 40
80.0
  1
Pezzi Custom: 60
 11
9600.0
 21
-17100.0
 31
0.0
100
AcDbText
 73
1
  0
TEXT
  5
2F0
330
17
100
AcDbEntity
  8
TESTI
100
AcDbText
 10
9600.0
 20
-17250.0
 30
0.0
 40
80.0
  1
Efficienza: 48.3%
 11
9600.0
 21
-17250.0
 31
0.0
100
AcDbText
 73
1
  0
TEXT
  5
2F1
330
17
100
AcDbEntity
  8
TESTI
100
AcDbText
 10
9600.0
 20
-17400.0
 30
0.0
 40
80.0
  1
Algoritmo: Greedy + Backtrack
 11
9600.0
 21
-17400.0
 31
0.0
100
AcDbText
 73
1
  0
TEXT
  5
2F2
330
17
100
AcDbEntity
  8
TESTI
100
AcDbText
 10
11550.0
 20
-29100.0
 30
0.0
 40
120.0
  1
LEGENDA E NOTE TECNICHE
 72
1
 11
11550.0
 21
-29100.0
 31
0.0
100
AcDbText
 73
2
  0
TEXT
  5
2F3
330
17
100
AcDbEntity
  8
TESTI
100
AcDbText
 10
100.0
 20
-29300.0
 30
0.0
 40
60.0
  1
 Blocchi Standard
 11
100.0
 21
-29300.0
 31
0.0
100
AcDbText
 73
1
  0
TEXT
  5
2F4
330
17
100
AcDbEntity
  8
TESTI
100
AcDbText
 10
100.0
 20
-29420.0
 30
0.0
 40
60.0
  1
 Pezzi Custom
 11
100.0
 21
-29420.0
 31
0.0
100
AcDbText
 73
1
  0
TEXT
  5
2F5
330
17
100
AcDbEntity
  8
TESTI
100
AcDbText
 10
100.0
 20
-29540.0
 30
0.0
 40
60.0
  1
 Aperture
 11
100.0
 21
-29540.0
 31
0.0
100
AcDbText
 73
1
  0
TEXT
  5
2F6
330
17
100
AcDbEntity
  8
TESTI
100
AcDbText
 10
100.0
 20
-29660.0
 30
0.0
 40
60.0
  1
 Quote (mm)
 11
100.0
 21
-29660.0
 31
0.0
100
AcDbText
 73
1
  0
TEXT
  5
2F7
330
17
100
AcDbEntity
  8
TESTI
100
AcDbText
 10
11650.0
 20
-29300.0
 30
0.0
 40
60.0
  1
 Dimensioni in millimetri
 11
11650.0
 21
-29300.0
 31
0.0
100
AcDbText
 73
1
  0
TEXT
  5
2F8
330
17
100
AcDbEntity
  8
TESTI
100
AcDbText
 10
11650.0
 20
-29420.0
 30
0.0
 40
60.0
  1
 Tolleranze taglio 2mm
 11
11650.0
 21
-29420.0
 31
0.0
100
AcDbText
 73
1
  0
TEXT
  5
2F9
330
17
100
AcDbEntity
  8
TESTI
100
AcDbText
 10
11650.0
 20
-29540.0
 30
0.0
 40
60.0
  1
 CU1: taglio larghezza da blocco C
 11
11650.0
 21
-29540.0
 31
0.0
100
AcDbText
 73
1
  0
TEXT
  5
2FA
330
17
100
AcDbEntity
  8
TESTI
100
AcDbText
 10
11650.0
 20
-29660.0
 30
0.0
 40
60.0
  1
 CU2: taglio flessibile da blocco C
 11
11650.0
 21
-29660.0
 31
0.0
100
AcDbText
 73
1
  0
ENDSEC
  0
SECTION
  2
OBJECTS
  0
DICTIONARY
  5
A
330
0
100
AcDbDictionary
281
1
  3
ACAD_COLOR
350
B
  3
ACAD_GROUP
350
C
  3
ACAD_LAYOUT
350
D
  3
ACAD_MATERIAL
350
E
  3
ACAD_MLEADERSTYLE
350
F
  3
ACAD_MLINESTYLE
350
10
  3
ACAD_PLOTSETTINGS
350
11
  3
ACAD_PLOTSTYLENAME
350
12
  3
ACAD_SCALELIST
350
14
  3
ACAD_TABLESTYLE
350
15
  3
ACAD_VISUALSTYLE
350
16
  3
EZDXF_META
350
2D
  0
DICTIONARY
  5
B
330
A
100
AcDbDictionary
281
1
  0
DICTIONARY
  5
C
330
A
100
AcDbDictionary
281
1
  0
DICTIONARY
  5
D
330
A
100
AcDbDictionary
281
1
  3
Model
350
1A
  3
Layout1
350
1E
  0
DICTIONARY
  5
E
330
A
100
AcDbDictionary
281
1
  3
ByBlock
350
1F
  3
ByLayer
350
20
  3
Global
350
21
  0
DICTIONARY
  5
F
330
A
100
AcDbDictionary
281
1
  3
Standard
350
2C
  0
DICTIONARY
  5
10
330
A
100
AcDbDictionary
281
1
  3
Standard
350
22
  0
DICTIONARY
  5
11
330
A
100
AcDbDictionary
281
1
  0
ACDBDICTIONARYWDFLT
  5
12
330
A
100
AcDbDictionary
281
1
  3
Normal
350
13
100
AcDbDictionaryWithDefault
340
13
  0
ACDBPLACEHOLDER
  5
13
330
12
  0
DICTIONARY
  5
14
330
A
100
AcDbDictionary
281
1
  0
DICTIONARY
  5
15
330
A
100
AcDbDictionary
281
1
  0
DICTIONARY
  5
16
330
A
100
AcDbDictionary
281
1
  0
LAYOUT
  5
1A
330
D
100
AcDbPlotSettings
  1

  4
A3
  6

 40
7.5
 41
20.0
 42
7.5
 43
20.0
 44
420.0
 45
297.0
 46
0.0
 47
0.0
 48
0.0
 49
0.0
140
0.0
141
0.0
142
1.0
143
1.0
 70
1024
 72
1
 73
0
 74
5
  7

 75
16
 76
0
 77
2
 78
300
147
1.0
148
0.0
149
0.0
100
AcDbLayout
  1
Model
 70
1
 71
0
 10
0.0
 20
0.0
 11
420.0
 21
297.0
 12
0.0
 22
0.0
 32
0.0
 14
1e+20
 24
1e+20
 34
1e+20
 15
-1e+20
 25
-1e+20
 35
-1e+20
146
0.0
 13
0.0
 23
0.0
 33
0.0
 16
1.0
 26
0.0
 36
0.0
 17
0.0
 27
1.0
 37
0.0
 76
1
330
17
  0
LAYOUT
  5
1E
330
D
100
AcDbPlotSettings
  1

  4
A3
  6

 40
7.5
 41
20.0
 42
7.5
 43
20.0
 44
420.0
 45
297.0
 46
0.0
 47
0.0
 48
0.0
 49
0.0
140
0.0
141
0.0
142
1.0
143
1.0
 70
0
 72
1
 73
0
 74
5
  7

 75
16
 76
0
 77
2
 78
300
147
1.0
148
0.0
149
0.0
100
AcDbLayout
  1
Layout1
 70
1
 71
1
 10
0.0
 20
0.0
 11
420.0
 21
297.0
 12
0.0
 22
0.0
 32
0.0
 14
1e+20
 24
1e+20
 34
1e+20
 15
-1e+20
 25
-1e+20
 35
-1e+20
146
0.0
 13
0.0
 23
0.0
 33
0.0
 16
1.0
 26
0.0
 36
0.0
 17
0.0
 27
1.0
 37
0.0
 76
1
330
1B
  0
MATERIAL
  5
1F
102
{ACAD_REACTORS
330
E
102
}
330
E
100
AcDbMaterial
  1
ByBlock
  2

 70
0
 40
1.0
 71
1
 41
1.0
 91
-1023410177
 42
1.0
 72
1
  3

 73
1
 74
1
 75
1
 44
0.5
 73
0
 45
1.0
 46
1.0
 77
1
  4

 78
1
 79
1
170
1
 48
1.0
171
1
  6

172
1
173
1
174
1
140
1.0
141
1.0
175
1
  7

176
1
177
1
178
1
143
1.0
179
1
  8

270
1
271
1
272
1
145
1.0
146
1.0
273
1
  9

274
1
275
1
276
1
 42
1.0
 72
1
  3

 73
1
 74
1
 75
1
 94
63
  0
MATERIAL
  5
20
102
{ACAD_REACTORS
330
E
102
}
330
E
100
AcDbMaterial
  1
ByLayer
  2

 70
0
 40
1.0
 71
1
 41
1.0
 91
-1023410177
 42
1.0
 72
1
  3

 73
1
 74
1
 75
1
 44
0.5
 73
0
 45
1.0
 46
1.0
 77
1
  4

 78
1
 79
1
170
1
 48
1.0
171
1
  6

172
1
173
1
174
1
140
1.0
141
1.0
175
1
  7

176
1
177
1
178
1
143
1.0
179
1
  8

270
1
271
1
272
1
145
1.0
146
1.0
273
1
  9

274
1
275
1
276
1
 42
1.0
 72
1
  3

 73
1
 74
1
 75
1
 94
63
  0
MATERIAL
  5
21
102
{ACAD_REACTORS
330
E
102
}
330
E
100
AcDbMaterial
  1
Global
  2

 70
0
 40
1.0
 71
1
 41
1.0
 91
-1023410177
 42
1.0
 72
1
  3

 73
1
 74
1
 75
1
 44
0.5
 73
0
 45
1.0
 46
1.0
 77
1
  4

 78
1
 79
1
170
1
 48
1.0
171
1
  6

172
1
173
1
174
1
140
1.0
141
1.0
175
1
  7

176
1
177
1
178
1
143
1.0
179
1
  8

270
1
271
1
272
1
145
1.0
146
1.0
273
1
  9

274
1
275
1
276
1
 42
1.0
 72
1
  3

 73
1
 74
1
 75
1
 94
63
  0
MLINESTYLE
  5
22
102
{ACAD_REACTORS
330
10
102
}
330
10
100
AcDbMlineStyle
  2
Standard
 70
0
  3

 62
256
 51
90.0
 52
90.0
 71
2
 49
0.5
 62
256
  6
BYLAYER
 49
-0.5
 62
256
  6
BYLAYER
  0
MLEADERSTYLE
  5
2C
102
{ACAD_REACTORS
330
F
102
}
330
F
100
AcDbMLeaderStyle
179
2
170
2
171
1
172
0
 90
2
 40
0.0
 41
0.0
173
1
 91
-1056964608
 92
-2
290
1
 42
2.0
291
1
 43
8.0
  3
Standard
 44
4.0
300

342
29
174
1
175
1
176
0
178
1
 93
-1056964608
 45
4.0
292
0
297
0
 46
4.0
 94
-1056964608
 47
1.0
 49
1.0
140
1.0
294
1
141
0.0
177
0
142
1.0
295
0
296
0
143
3.75
271
0
272
9
273
9
  0
DICTIONARY
  5
2D
330
A
100
AcDbDictionary
280
1
281
1
  3
CREATED_BY_EZDXF
350
2E
  3
WRITTEN_BY_EZDXF
350
2FD
  0
DICTIONARYVAR
  5
2E
330
2D
100
DictionaryVariables
280
0
  1
1.4.2 @ 2025-08-27T13:11:15.179358+00:00
  0
DICTIONARYVAR
  5
2FD
330
2D
100
DictionaryVariables
280
0
  1
1.4.2 @ 2025-08-27T13:11:15.230893+00:00
  0
ENDSEC
  0
EOF
