  0
SECTION
  2
HEADER
  9
$ACADVER
  1
AC1024
  9
$ACADMAINTVER
 70
6
  9
$DWGCODEPAGE
  3
ANSI_1252
  9
$LASTSAVEDBY
  1
ezdxf
  9
$INSBASE
 10
0.0
 20
0.0
 30
0.0
  9
$EXTMIN
 10
1e+20
 20
1e+20
 30
1e+20
  9
$EXTMAX
 10
-1e+20
 20
-1e+20
 30
-1e+20
  9
$LIMMIN
 10
0.0
 20
0.0
  9
$LIMMAX
 10
420.0
 20
297.0
  9
$ORTHOMODE
 70
0
  9
$REGENMODE
 70
1
  9
$FILLMODE
 70
1
  9
$QTEXTMODE
 70
0
  9
$MIRRTEXT
 70
1
  9
$LTSCALE
 40
1.0
  9
$ATTMODE
 70
1
  9
$TEXTSIZE
 40
2.5
  9
$TRACEWID
 40
1.0
  9
$TEXTSTYLE
  7
Standard
  9
$CLAYER
  8
0
  9
$CELTYPE
  6
ByLayer
  9
$CECOLOR
 62
256
  9
$CELTSCALE
 40
1.0
  9
$DISPSILH
 70
0
  9
$DIMSCALE
 40
1.0
  9
$DIMASZ
 40
2.5
  9
$DIMEXO
 40
0.625
  9
$DIMDLI
 40
3.75
  9
$DIMRND
 40
0.0
  9
$DIMDLE
 40
0.0
  9
$DIMEXE
 40
1.25
  9
$DIMTP
 40
0.0
  9
$DIMTM
 40
0.0
  9
$DIMTXT
 40
2.5
  9
$DIMCEN
 40
2.5
  9
$DIMTSZ
 40
0.0
  9
$DIMTOL
 70
0
  9
$DIMLIM
 70
0
  9
$DIMTIH
 70
0
  9
$DIMTOH
 70
0
  9
$DIMSE1
 70
0
  9
$DIMSE2
 70
0
  9
$DIMTAD
 70
1
  9
$DIMZIN
 70
8
  9
$DIMBLK
  1

  9
$DIMASO
 70
1
  9
$DIMSHO
 70
1
  9
$DIMPOST
  1

  9
$DIMAPOST
  1

  9
$DIMALT
 70
0
  9
$DIMALTD
 70
3
  9
$DIMALTF
 40
0.03937007874
  9
$DIMLFAC
 40
1.0
  9
$DIMTOFL
 70
1
  9
$DIMTVP
 40
0.0
  9
$DIMTIX
 70
0
  9
$DIMSOXD
 70
0
  9
$DIMSAH
 70
0
  9
$DIMBLK1
  1

  9
$DIMBLK2
  1

  9
$DIMSTYLE
  2
ISO-25
  9
$DIMCLRD
 70
0
  9
$DIMCLRE
 70
0
  9
$DIMCLRT
 70
0
  9
$DIMTFAC
 40
1.0
  9
$DIMGAP
 40
0.625
  9
$DIMJUST
 70
0
  9
$DIMSD1
 70
0
  9
$DIMSD2
 70
0
  9
$DIMTOLJ
 70
0
  9
$DIMTZIN
 70
8
  9
$DIMALTZ
 70
0
  9
$DIMALTTZ
 70
0
  9
$DIMUPT
 70
0
  9
$DIMDEC
 70
2
  9
$DIMTDEC
 70
2
  9
$DIMALTU
 70
2
  9
$DIMALTTD
 70
3
  9
$DIMTXSTY
  7
Standard
  9
$DIMAUNIT
 70
0
  9
$DIMADEC
 70
0
  9
$DIMALTRND
 40
0.0
  9
$DIMAZIN
 70
0
  9
$DIMDSEP
 70
44
  9
$DIMATFIT
 70
3
  9
$DIMFRAC
 70
0
  9
$DIMLDRBLK
  1

  9
$DIMLUNIT
 70
2
  9
$DIMLWD
 70
-2
  9
$DIMLWE
 70
-2
  9
$DIMTMOVE
 70
0
  9
$DIMFXL
 40
1.0
  9
$DIMFXLON
 70
0
  9
$DIMJOGANG
 40
0.785398163397
  9
$DIMTFILL
 70
0
  9
$DIMTFILLCLR
 70
0
  9
$DIMARCSYM
 70
0
  9
$DIMLTYPE
  6

  9
$DIMLTEX1
  6

  9
$DIMLTEX2
  6

  9
$DIMTXTDIRECTION
 70
0
  9
$LUNITS
 70
2
  9
$LUPREC
 70
4
  9
$SKETCHINC
 40
1.0
  9
$FILLETRAD
 40
10.0
  9
$AUNITS
 70
0
  9
$AUPREC
 70
2
  9
$MENU
  1
.
  9
$ELEVATION
 40
0.0
  9
$PELEVATION
 40
0.0
  9
$THICKNESS
 40
0.0
  9
$LIMCHECK
 70
0
  9
$CHAMFERA
 40
0.0
  9
$CHAMFERB
 40
0.0
  9
$CHAMFERC
 40
0.0
  9
$CHAMFERD
 40
0.0
  9
$SKPOLY
 70
0
  9
$TDCREATE
 40
2460915.631296296
  9
$TDUCREATE
 40
2458532.153996898
  9
$TDUPDATE
 40
2460915.631296296
  9
$TDUUPDATE
 40
2458532.1544311
  9
$TDINDWG
 40
0.0
  9
$TDUSRTIMER
 40
0.0
  9
$USRTIMER
 70
1
  9
$ANGBASE
 50
0.0
  9
$ANGDIR
 70
0
  9
$PDMODE
 70
0
  9
$PDSIZE
 40
0.0
  9
$PLINEWID
 40
0.0
  9
$SPLFRAME
 70
0
  9
$SPLINETYPE
 70
6
  9
$SPLINESEGS
 70
8
  9
$HANDSEED
  5
249
  9
$SURFTAB1
 70
6
  9
$SURFTAB2
 70
6
  9
$SURFTYPE
 70
6
  9
$SURFU
 70
6
  9
$SURFV
 70
6
  9
$UCSBASE
  2

  9
$UCSNAME
  2

  9
$UCSORG
 10
0.0
 20
0.0
 30
0.0
  9
$UCSXDIR
 10
1.0
 20
0.0
 30
0.0
  9
$UCSYDIR
 10
0.0
 20
1.0
 30
0.0
  9
$UCSORTHOREF
  2

  9
$UCSORTHOVIEW
 70
0
  9
$UCSORGTOP
 10
0.0
 20
0.0
 30
0.0
  9
$UCSORGBOTTOM
 10
0.0
 20
0.0
 30
0.0
  9
$UCSORGLEFT
 10
0.0
 20
0.0
 30
0.0
  9
$UCSORGRIGHT
 10
0.0
 20
0.0
 30
0.0
  9
$UCSORGFRONT
 10
0.0
 20
0.0
 30
0.0
  9
$UCSORGBACK
 10
0.0
 20
0.0
 30
0.0
  9
$PUCSBASE
  2

  9
$PUCSNAME
  2

  9
$PUCSORG
 10
0.0
 20
0.0
 30
0.0
  9
$PUCSXDIR
 10
1.0
 20
0.0
 30
0.0
  9
$PUCSYDIR
 10
0.0
 20
1.0
 30
0.0
  9
$PUCSORTHOREF
  2

  9
$PUCSORTHOVIEW
 70
0
  9
$PUCSORGTOP
 10
0.0
 20
0.0
 30
0.0
  9
$PUCSORGBOTTOM
 10
0.0
 20
0.0
 30
0.0
  9
$PUCSORGLEFT
 10
0.0
 20
0.0
 30
0.0
  9
$PUCSORGRIGHT
 10
0.0
 20
0.0
 30
0.0
  9
$PUCSORGFRONT
 10
0.0
 20
0.0
 30
0.0
  9
$PUCSORGBACK
 10
0.0
 20
0.0
 30
0.0
  9
$USERI1
 70
0
  9
$USERI2
 70
0
  9
$USERI3
 70
0
  9
$USERI4
 70
0
  9
$USERI5
 70
0
  9
$USERR1
 40
0.0
  9
$USERR2
 40
0.0
  9
$USERR3
 40
0.0
  9
$USERR4
 40
0.0
  9
$USERR5
 40
0.0
  9
$WORLDVIEW
 70
1
  9
$SHADEDGE
 70
3
  9
$SHADEDIF
 70
70
  9
$TILEMODE
 70
1
  9
$MAXACTVP
 70
64
  9
$PINSBASE
 10
0.0
 20
0.0
 30
0.0
  9
$PLIMCHECK
 70
0
  9
$PEXTMIN
 10
1e+20
 20
1e+20
 30
1e+20
  9
$PEXTMAX
 10
-1e+20
 20
-1e+20
 30
-1e+20
  9
$PLIMMIN
 10
0.0
 20
0.0
  9
$PLIMMAX
 10
420.0
 20
297.0
  9
$UNITMODE
 70
0
  9
$VISRETAIN
 70
1
  9
$PLINEGEN
 70
0
  9
$PSLTSCALE
 70
1
  9
$TREEDEPTH
 70
3020
  9
$CMLSTYLE
  2
Standard
  9
$CMLJUST
 70
0
  9
$CMLSCALE
 40
20.0
  9
$PROXYGRAPHICS
 70
1
  9
$MEASUREMENT
 70
1
  9
$CELWEIGHT
370
-1
  9
$ENDCAPS
280
0
  9
$JOINSTYLE
280
0
  9
$LWDISPLAY
290
0
  9
$INSUNITS
 70
6
  9
$HYPERLINKBASE
  1

  9
$STYLESHEET
  1

  9
$XEDIT
290
1
  9
$CEPSNTYPE
380
0
  9
$PSTYLEMODE
290
1
  9
$FINGERPRINTGUID
  2
{C1A7EA54-9377-42DE-BA8A-742B6C504730}
  9
$VERSIONGUID
  2
{783B0F43-DC79-49DC-8FE7-8D0C97C3F662}
  9
$EXTNAMES
290
1
  9
$PSVPSCALE
 40
0.0
  9
$OLESTARTUP
290
0
  9
$SORTENTS
280
127
  9
$INDEXCTL
280
0
  9
$HIDETEXT
280
1
  9
$XCLIPFRAME
280
1
  9
$HALOGAP
280
0
  9
$OBSCOLOR
 70
257
  9
$OBSLTYPE
280
0
  9
$INTERSECTIONDISPLAY
280
0
  9
$INTERSECTIONCOLOR
 70
257
  9
$DIMASSOC
280
2
  9
$PROJECTNAME
  1

  9
$CAMERADISPLAY
290
0
  9
$LENSLENGTH
 40
50.0
  9
$CAMERAHEIGHT
 40
0.0
  9
$STEPSPERSEC
 40
24.0
  9
$STEPSIZE
 40
100.0
  9
$3DDWFPREC
 40
2.0
  9
$PSOLWIDTH
 40
0.005
  9
$PSOLHEIGHT
 40
0.08
  9
$LOFTANG1
 40
1.570796326795
  9
$LOFTANG2
 40
1.570796326795
  9
$LOFTMAG1
 40
0.0
  9
$LOFTMAG2
 40
0.0
  9
$LOFTPARAM
 70
7
  9
$LOFTNORMALS
280
1
  9
$LATITUDE
 40
37.795
  9
$LONGITUDE
 40
-122.394
  9
$NORTHDIRECTION
 40
0.0
  9
$TIMEZONE
 70
-8000
  9
$LIGHTGLYPHDISPLAY
280
1
  9
$TILEMODELIGHTSYNCH
280
1
  9
$CMATERIAL
347
20
  9
$SOLIDHIST
280
0
  9
$SHOWHIST
280
1
  9
$DWFFRAME
280
2
  9
$DGNFRAME
280
2
  9
$REALWORLDSCALE
290
1
  9
$INTERFERECOLOR
 62
256
  9
$CSHADOW
280
0
  9
$SHADOWPLANELOCATION
 40
0.0
  0
ENDSEC
  0
SECTION
  2
CLASSES
  0
CLASS
  1
ACDBDICTIONARYWDFLT
  2
AcDbDictionaryWithDefault
  3
ObjectDBX Classes
 90
0
 91
0
280
0
281
0
  0
CLASS
  1
SUN
  2
AcDbSun
  3
SCENEOE
 90
1153
 91
0
280
0
281
0
  0
CLASS
  1
VISUALSTYLE
  2
AcDbVisualStyle
  3
ObjectDBX Classes
 90
4095
 91
0
280
0
281
0
  0
CLASS
  1
MATERIAL
  2
AcDbMaterial
  3
ObjectDBX Classes
 90
1153
 91
0
280
0
281
0
  0
CLASS
  1
SCALE
  2
AcDbScale
  3
ObjectDBX Classes
 90
1153
 91
0
280
0
281
0
  0
CLASS
  1
TABLESTYLE
  2
AcDbTableStyle
  3
ObjectDBX Classes
 90
4095
 91
0
280
0
281
0
  0
CLASS
  1
MLEADERSTYLE
  2
AcDbMLeaderStyle
  3
ACDB_MLEADERSTYLE_CLASS
 90
4095
 91
0
280
0
281
0
  0
CLASS
  1
DICTIONARYVAR
  2
AcDbDictionaryVar
  3
ObjectDBX Classes
 90
0
 91
0
280
0
281
0
  0
CLASS
  1
CELLSTYLEMAP
  2
AcDbCellStyleMap
  3
ObjectDBX Classes
 90
1152
 91
0
280
0
281
0
  0
CLASS
  1
MENTALRAYRENDERSETTINGS
  2
AcDbMentalRayRenderSettings
  3
SCENEOE
 90
1024
 91
0
280
0
281
0
  0
CLASS
  1
ACDBDETAILVIEWSTYLE
  2
AcDbDetailViewStyle
  3
ObjectDBX Classes
 90
1025
 91
0
280
0
281
0
  0
CLASS
  1
ACDBSECTIONVIEWSTYLE
  2
AcDbSectionViewStyle
  3
ObjectDBX Classes
 90
1025
 91
0
280
0
281
0
  0
CLASS
  1
RASTERVARIABLES
  2
AcDbRasterVariables
  3
ISM
 90
0
 91
0
280
0
281
0
  0
CLASS
  1
LAYOUT
  2
AcDbLayout
  3
ObjectDBX Classes
 90
0
 91
0
280
0
281
0
  0
CLASS
  1
ACDBPLACEHOLDER
  2
AcDbPlaceHolder
  3
ObjectDBX Classes
 90
0
 91
0
280
0
281
0
  0
ENDSEC
  0
SECTION
  2
TABLES
  0
TABLE
  2
VPORT
  5
8
330
0
100
AcDbSymbolTable
 70
1
  0
VPORT
  5
23
330
8
100
AcDbSymbolTableRecord
100
AcDbViewportTableRecord
  2
*Active
 70
0
 10
0.0
 20
0.0
 11
1.0
 21
1.0
 12
0.0
 22
0.0
 13
0.0
 23
0.0
 14
0.5
 24
0.5
 15
0.5
 25
0.5
 16
0.0
 26
0.0
 36
1.0
 17
0.0
 27
0.0
 37
0.0
 40
1000.0
 41
1.34
 42
50.0
 43
0.0
 44
0.0
 50
0.0
 51
0.0
 71
0
 72
1000
 73
1
 74
3
 75
0
 76
0
 77
0
 78
0
281
0
 65
0
146
0.0
  0
ENDTAB
  0
TABLE
  2
LTYPE
  5
2
330
0
100
AcDbSymbolTable
 70
3
  0
LTYPE
  5
24
330
2
100
AcDbSymbolTableRecord
100
AcDbLinetypeTableRecord
  2
ByBlock
 70
0
  3

 72
65
 73
0
 40
0.0
  0
LTYPE
  5
25
330
2
100
AcDbSymbolTableRecord
100
AcDbLinetypeTableRecord
  2
ByLayer
 70
0
  3

 72
65
 73
0
 40
0.0
  0
LTYPE
  5
26
330
2
100
AcDbSymbolTableRecord
100
AcDbLinetypeTableRecord
  2
Continuous
 70
0
  3

 72
65
 73
0
 40
0.0
  0
ENDTAB
  0
TABLE
  2
LAYER
  5
1
330
0
100
AcDbSymbolTable
 70
11
  0
LAYER
  5
27
330
1
100
AcDbSymbolTableRecord
100
AcDbLayerTableRecord
  2
0
 70
0
 62
7
  6
Continuous
370
-3
390
13
347
21
  0
LAYER
  5
28
330
1
100
AcDbSymbolTableRecord
100
AcDbLayerTableRecord
  2
Defpoints
 70
0
 62
7
  6
Continuous
290
0
370
-3
390
13
347
21
  0
LAYER
  5
2F
330
1
100
AcDbSymbolTableRecord
100
AcDbLayerTableRecord
  2
PARETE
 70
0
 62
5
  6
Continuous
370
-3
390
13
347
21
  0
LAYER
  5
30
330
1
100
AcDbSymbolTableRecord
100
AcDbLayerTableRecord
  2
APERTURE
 70
0
 62
1
  6
Continuous
370
-3
390
13
347
21
  0
LAYER
  5
31
330
1
100
AcDbSymbolTableRecord
100
AcDbLayerTableRecord
  2
BLOCCHI_STD
 70
0
 62
7
  6
Continuous
370
-3
390
13
347
21
  0
LAYER
  5
32
330
1
100
AcDbSymbolTableRecord
100
AcDbLayerTableRecord
  2
BLOCCHI_CUSTOM
 70
0
 62
3
  6
Continuous
370
-3
390
13
347
21
  0
LAYER
  5
33
330
1
100
AcDbSymbolTableRecord
100
AcDbLayerTableRecord
  2
QUOTE
 70
0
 62
6
  6
Continuous
370
-3
390
13
347
21
  0
LAYER
  5
34
330
1
100
AcDbSymbolTableRecord
100
AcDbLayerTableRecord
  2
TESTI
 70
0
 62
7
  6
Continuous
370
-3
390
13
347
21
  0
LAYER
  5
35
330
1
100
AcDbSymbolTableRecord
100
AcDbLayerTableRecord
  2
TAGLIO
 70
0
 62
4
  6
Continuous
370
-3
390
13
347
21
  0
LAYER
  5
36
330
1
100
AcDbSymbolTableRecord
100
AcDbLayerTableRecord
  2
CARTIGLIO
 70
0
 62
7
  6
Continuous
370
-3
390
13
347
21
  0
LAYER
  5
37
330
1
100
AcDbSymbolTableRecord
100
AcDbLayerTableRecord
  2
LEGENDA
 70
0
 62
7
  6
Continuous
370
-3
390
13
347
21
  0
ENDTAB
  0
TABLE
  2
STYLE
  5
5
330
0
100
AcDbSymbolTable
 70
1
  0
STYLE
  5
29
330
5
100
AcDbSymbolTableRecord
100
AcDbTextStyleTableRecord
  2
Standard
 70
0
 40
0.0
 41
1.0
 50
0.0
 71
0
 42
2.5
  3
txt
  4

  0
ENDTAB
  0
TABLE
  2
VIEW
  5
7
330
0
100
AcDbSymbolTable
 70
0
  0
ENDTAB
  0
TABLE
  2
UCS
  5
6
330
0
100
AcDbSymbolTable
 70
0
  0
ENDTAB
  0
TABLE
  2
APPID
  5
3
330
0
100
AcDbSymbolTable
 70
3
  0
APPID
  5
2A
330
3
100
AcDbSymbolTableRecord
100
AcDbRegAppTableRecord
  2
ACAD
 70
0
  0
APPID
  5
246
330
3
100
AcDbSymbolTableRecord
100
AcDbRegAppTableRecord
  2
HATCHBACKGROUNDCOLOR
 70
0
  0
APPID
  5
247
330
3
100
AcDbSymbolTableRecord
100
AcDbRegAppTableRecord
  2
EZDXF
 70
0
  0
ENDTAB
  0
TABLE
  2
DIMSTYLE
  5
4
330
0
100
AcDbSymbolTable
 70
1
100
AcDbDimStyleTable
  0
DIMSTYLE
105
2B
330
4
100
AcDbSymbolTableRecord
100
AcDbDimStyleTableRecord
  2
Standard
 70
0
 40
1.0
 41
2.5
 42
0.625
 43
3.75
 44
1.25
 45
0.0
 46
0.0
 47
0.0
 48
0.0
 49
2.5
140
2.5
141
2.5
142
0.0
143
0.03937007874
144
1.0
145
0.0
146
1.0
147
0.625
148
0.0
 69
0
 70
0
 71
0
 72
0
 73
0
 74
0
 75
0
 76
0
 77
1
 78
8
 79
3
170
0
171
3
172
1
173
0
174
0
175
0
176
0
177
0
178
0
179
2
271
2
272
2
273
2
274
3
275
0
276
0
277
2
278
44
279
0
280
0
281
0
282
0
283
0
284
8
285
0
286
0
288
0
289
3
290
0
371
-2
372
-2
  0
ENDTAB
  0
TABLE
  2
BLOCK_RECORD
  5
9
330
0
100
AcDbSymbolTable
 70
2
  0
BLOCK_RECORD
  5
17
330
9
100
AcDbSymbolTableRecord
100
AcDbBlockTableRecord
  2
*Model_Space
340
1A
 70
0
280
1
281
0
  0
BLOCK_RECORD
  5
1B
330
9
100
AcDbSymbolTableRecord
100
AcDbBlockTableRecord
  2
*Paper_Space
340
1E
 70
0
280
1
281
0
  0
ENDTAB
  0
ENDSEC
  0
SECTION
  2
BLOCKS
  0
BLOCK
  5
18
330
17
100
AcDbEntity
  8
0
100
AcDbBlockBegin
  2
*Model_Space
 70
0
 10
0.0
 20
0.0
 30
0.0
  3
*Model_Space
  1

  0
ENDBLK
  5
19
330
17
100
AcDbEntity
  8
0
100
AcDbBlockEnd
  0
BLOCK
  5
1C
330
1B
100
AcDbEntity
  8
0
100
AcDbBlockBegin
  2
*Paper_Space
 70
0
 10
0.0
 20
0.0
 30
0.0
  3
*Paper_Space
  1

  0
ENDBLK
  5
1D
330
1B
100
AcDbEntity
  8
0
100
AcDbBlockEnd
  0
ENDSEC
  0
SECTION
  2
ENTITIES
  0
LWPOLYLINE
  5
38
330
17
100
AcDbEntity
  8
PARETE
370
100
100
AcDbPolyline
 90
5
 70
1
 10
0.0
 20
0.0
 10
8000.0
 20
0.0
 10
8000.0
 20
3000.0
 10
0.0
 20
3000.0
 10
0.0
 20
0.0
  0
LWPOLYLINE
  5
39
330
17
100
AcDbEntity
  8
APERTURE
100
AcDbPolyline
 90
5
 70
1
 10
1000.0
 20
0.0
 10
2200.0
 20
0.0
 10
2200.0
 20
2200.0
 10
1000.0
 20
2200.0
 10
1000.0
 20
0.0
  0
TEXT
  5
3A
330
17
100
AcDbEntity
  8
TESTI
100
AcDbText
 10
1600.0
 20
1100.0
 30
0.0
 40
150.0
  1
AP11200x2200
 72
1
 11
1600.0
 21
1100.0
 31
0.0
100
AcDbText
 73
2
  0
LWPOLYLINE
  5
3B
330
17
100
AcDbEntity
  8
APERTURE
100
AcDbPolyline
 90
5
 70
1
 10
4000.0
 20
800.0
 10
5500.0
 20
800.0
 10
5500.0
 20
2000.0
 10
4000.0
 20
2000.0
 10
4000.0
 20
800.0
  0
TEXT
  5
3C
330
17
100
AcDbEntity
  8
TESTI
100
AcDbText
 10
4750.0
 20
1400.0
 30
0.0
 40
150.0
  1
AP21500x1200
 72
1
 11
4750.0
 21
1400.0
 31
0.0
100
AcDbText
 73
2
  0
LWPOLYLINE
  5
3D
330
17
100
AcDbEntity
  8
APERTURE
100
AcDbPolyline
 90
5
 70
1
 10
6500.0
 20
0.0
 10
7400.0
 20
0.0
 10
7400.0
 20
2200.0
 10
6500.0
 20
2200.0
 10
6500.0
 20
0.0
  0
TEXT
  5
3E
330
17
100
AcDbEntity
  8
TESTI
100
AcDbText
 10
6950.0
 20
1100.0
 30
0.0
 40
150.0
  1
AP3900x2200
 72
1
 11
6950.0
 21
1100.0
 31
0.0
100
AcDbText
 73
2
  0
LWPOLYLINE
  5
3F
330
17
100
AcDbEntity
  8
APERTURE
100
AcDbPolyline
 90
17
 70
1
 10
3200.0
 20
1500.0
 10
3184.7759065022574
 20
1576.5366864730179
 10
3141.4213562373097
 20
1641.4213562373095
 10
3076.536686473018
 20
1684.7759065022574
 10
3000.0
 20
1700.0
 10
2923.463313526982
 20
1684.7759065022574
 10
2858.5786437626907
 20
1641.4213562373095
 10
2815.2240934977426
 20
1576.5366864730179
 10
2800.0
 20
1500.0
 10
2815.2240934977426
 20
1423.4633135269821
 10
2858.5786437626903
 20
1358.5786437626905
 10
2923.463313526982
 20
1315.2240934977426
 10
3000.0
 20
1300.0
 10
3076.536686473018
 20
1315.2240934977426
 10
3141.4213562373093
 20
1358.5786437626905
 10
3184.7759065022574
 20
1423.463313526982
 10
3200.0
 20
1500.0
  0
TEXT
  5
40
330
17
100
AcDbEntity
  8
TESTI
100
AcDbText
 10
3000.0
 20
1500.0
 30
0.0
 40
150.0
  1
AP4400x400
 72
1
 11
3000.0
 21
1500.0
 31
0.0
100
AcDbText
 73
2
  0
LWPOLYLINE
  5
41
330
17
100
AcDbEntity
  8
BLOCCHI_STD
100
AcDbPolyline
 90
5
 70
0
 10
0.0
 20
0.0
 10
826.0
 20
0.0
 10
826.0
 20
495.0
 10
0.0
 20
495.0
 10
0.0
 20
0.0
  0
TEXT
  5
42
330
17
100
AcDbEntity
  8
TESTI
100
AcDbText
 10
413.0
 20
247.5
 30
0.0
 40
120.0
  1
B1
 72
1
 11
413.0
 21
247.5
 31
0.0
100
AcDbText
 73
2
  0
LWPOLYLINE
  5
43
330
17
100
AcDbEntity
  8
BLOCCHI_STD
100
AcDbPolyline
 90
5
 70
0
 10
2202.0
 20
0.0
 10
3441.0
 20
0.0
 10
3441.0
 20
495.0
 10
2202.0
 20
495.0
 10
2202.0
 20
0.0
  0
TEXT
  5
44
330
17
100
AcDbEntity
  8
TESTI
100
AcDbText
 10
2821.5
 20
247.5
 30
0.0
 40
120.0
  1
A1
 72
1
 11
2821.5
 21
247.5
 31
0.0
100
AcDbText
 73
2
  0
LWPOLYLINE
  5
45
330
17
100
AcDbEntity
  8
BLOCCHI_STD
100
AcDbPolyline
 90
5
 70
0
 10
3441.0
 20
0.0
 10
4680.0
 20
0.0
 10
4680.0
 20
495.0
 10
3441.0
 20
495.0
 10
3441.0
 20
0.0
  0
TEXT
  5
46
330
17
100
AcDbEntity
  8
TESTI
100
AcDbText
 10
4060.5
 20
247.5
 30
0.0
 40
120.0
  1
A2
 72
1
 11
4060.5
 21
247.5
 31
0.0
100
AcDbText
 73
2
  0
LWPOLYLINE
  5
47
330
17
100
AcDbEntity
  8
BLOCCHI_STD
100
AcDbPolyline
 90
5
 70
0
 10
4680.0
 20
0.0
 10
5919.0
 20
0.0
 10
5919.0
 20
495.0
 10
4680.0
 20
495.0
 10
4680.0
 20
0.0
  0
TEXT
  5
48
330
17
100
AcDbEntity
  8
TESTI
100
AcDbText
 10
5299.5
 20
247.5
 30
0.0
 40
120.0
  1
A3
 72
1
 11
5299.5
 21
247.5
 31
0.0
100
AcDbText
 73
2
  0
LWPOLYLINE
  5
49
330
17
100
AcDbEntity
  8
BLOCCHI_STD
100
AcDbPolyline
 90
5
 70
0
 10
5919.0
 20
0.0
 10
6332.0
 20
0.0
 10
6332.0
 20
495.0
 10
5919.0
 20
495.0
 10
5919.0
 20
0.0
  0
TEXT
  5
4A
330
17
100
AcDbEntity
  8
TESTI
100
AcDbText
 10
6125.5
 20
247.5
 30
0.0
 40
120.0
  1
C1
 72
1
 11
6125.5
 21
247.5
 31
0.0
100
AcDbText
 73
2
  0
LWPOLYLINE
  5
4B
330
17
100
AcDbEntity
  8
BLOCCHI_STD
100
AcDbPolyline
 90
5
 70
0
 10
7402.0
 20
0.0
 10
7815.0
 20
0.0
 10
7815.0
 20
495.0
 10
7402.0
 20
495.0
 10
7402.0
 20
0.0
  0
TEXT
  5
4C
330
17
100
AcDbEntity
  8
TESTI
100
AcDbText
 10
7608.5
 20
247.5
 30
0.0
 40
120.0
  1
C2
 72
1
 11
7608.5
 21
247.5
 31
0.0
100
AcDbText
 73
2
  0
LWPOLYLINE
  5
4D
330
17
100
AcDbEntity
  8
BLOCCHI_STD
100
AcDbPolyline
 90
5
 70
0
 10
7402.0
 20
413.0
 10
7815.0
 20
413.0
 10
7815.0
 20
908.0
 10
7402.0
 20
908.0
 10
7402.0
 20
413.0
  0
TEXT
  5
4E
330
17
100
AcDbEntity
  8
TESTI
100
AcDbText
 10
7608.5
 20
660.5
 30
0.0
 40
120.0
  1
C3
 72
1
 11
7608.5
 21
660.5
 31
0.0
100
AcDbText
 73
2
  0
LWPOLYLINE
  5
4F
330
17
100
AcDbEntity
  8
BLOCCHI_STD
100
AcDbPolyline
 90
5
 70
0
 10
2202.0
 20
413.0
 10
2615.0
 20
413.0
 10
2615.0
 20
908.0
 10
2202.0
 20
908.0
 10
2202.0
 20
413.0
  0
TEXT
  5
50
330
17
100
AcDbEntity
  8
TESTI
100
AcDbText
 10
2408.5
 20
660.5
 30
0.0
 40
120.0
  1
C4
 72
1
 11
2408.5
 21
660.5
 31
0.0
100
AcDbText
 73
2
  0
LWPOLYLINE
  5
51
330
17
100
AcDbEntity
  8
BLOCCHI_STD
100
AcDbPolyline
 90
5
 70
0
 10
2615.0
 20
413.0
 10
3854.0
 20
413.0
 10
3854.0
 20
908.0
 10
2615.0
 20
908.0
 10
2615.0
 20
413.0
  0
TEXT
  5
52
330
17
100
AcDbEntity
  8
TESTI
100
AcDbText
 10
3234.5
 20
660.5
 30
0.0
 40
120.0
  1
A4
 72
1
 11
3234.5
 21
660.5
 31
0.0
100
AcDbText
 73
2
  0
LWPOLYLINE
  5
53
330
17
100
AcDbEntity
  8
BLOCCHI_STD
100
AcDbPolyline
 90
5
 70
0
 10
0.0
 20
413.0
 10
826.0
 20
413.0
 10
826.0
 20
908.0
 10
0.0
 20
908.0
 10
0.0
 20
413.0
  0
TEXT
  5
54
330
17
100
AcDbEntity
  8
TESTI
100
AcDbText
 10
413.0
 20
660.5
 30
0.0
 40
120.0
  1
B2
 72
1
 11
413.0
 21
660.5
 31
0.0
100
AcDbText
 73
2
  0
LWPOLYLINE
  5
55
330
17
100
AcDbEntity
  8
BLOCCHI_STD
100
AcDbPolyline
 90
5
 70
0
 10
7402.0
 20
826.0
 10
7815.0
 20
826.0
 10
7815.0
 20
1321.0
 10
7402.0
 20
1321.0
 10
7402.0
 20
826.0
  0
TEXT
  5
56
330
17
100
AcDbEntity
  8
TESTI
100
AcDbText
 10
7608.5
 20
1073.5
 30
0.0
 40
120.0
  1
C5
 72
1
 11
7608.5
 21
1073.5
 31
0.0
100
AcDbText
 73
2
  0
LWPOLYLINE
  5
57
330
17
100
AcDbEntity
  8
BLOCCHI_STD
100
AcDbPolyline
 90
5
 70
0
 10
5502.0
 20
826.0
 10
6328.0
 20
826.0
 10
6328.0
 20
1321.0
 10
5502.0
 20
1321.0
 10
5502.0
 20
826.0
  0
TEXT
  5
58
330
17
100
AcDbEntity
  8
TESTI
100
AcDbText
 10
5915.0
 20
1073.5
 30
0.0
 40
120.0
  1
B3
 72
1
 11
5915.0
 21
1073.5
 31
0.0
100
AcDbText
 73
2
  0
LWPOLYLINE
  5
59
330
17
100
AcDbEntity
  8
BLOCCHI_STD
100
AcDbPolyline
 90
5
 70
0
 10
2202.0
 20
826.0
 10
3441.0
 20
826.0
 10
3441.0
 20
1321.0
 10
2202.0
 20
1321.0
 10
2202.0
 20
826.0
  0
TEXT
  5
5A
330
17
100
AcDbEntity
  8
TESTI
100
AcDbText
 10
2821.5
 20
1073.5
 30
0.0
 40
120.0
  1
A5
 72
1
 11
2821.5
 21
1073.5
 31
0.0
100
AcDbText
 73
2
  0
LWPOLYLINE
  5
5B
330
17
100
AcDbEntity
  8
BLOCCHI_STD
100
AcDbPolyline
 90
5
 70
0
 10
3441.0
 20
826.0
 10
3854.0
 20
826.0
 10
3854.0
 20
1321.0
 10
3441.0
 20
1321.0
 10
3441.0
 20
826.0
  0
TEXT
  5
5C
330
17
100
AcDbEntity
  8
TESTI
100
AcDbText
 10
3647.5
 20
1073.5
 30
0.0
 40
120.0
  1
C6
 72
1
 11
3647.5
 21
1073.5
 31
0.0
100
AcDbText
 73
2
  0
LWPOLYLINE
  5
5D
330
17
100
AcDbEntity
  8
BLOCCHI_STD
100
AcDbPolyline
 90
5
 70
0
 10
0.0
 20
826.0
 10
826.0
 20
826.0
 10
826.0
 20
1321.0
 10
0.0
 20
1321.0
 10
0.0
 20
826.0
  0
TEXT
  5
5E
330
17
100
AcDbEntity
  8
TESTI
100
AcDbText
 10
413.0
 20
1073.5
 30
0.0
 40
120.0
  1
B4
 72
1
 11
413.0
 21
1073.5
 31
0.0
100
AcDbText
 73
2
  0
LWPOLYLINE
  5
5F
330
17
100
AcDbEntity
  8
BLOCCHI_STD
100
AcDbPolyline
 90
5
 70
0
 10
7402.0
 20
1239.0
 10
7815.0
 20
1239.0
 10
7815.0
 20
1734.0
 10
7402.0
 20
1734.0
 10
7402.0
 20
1239.0
  0
TEXT
  5
60
330
17
100
AcDbEntity
  8
TESTI
100
AcDbText
 10
7608.5
 20
1486.5
 30
0.0
 40
120.0
  1
C7
 72
1
 11
7608.5
 21
1486.5
 31
0.0
100
AcDbText
 73
2
  0
LWPOLYLINE
  5
61
330
17
100
AcDbEntity
  8
BLOCCHI_STD
100
AcDbPolyline
 90
5
 70
0
 10
5502.0
 20
1239.0
 10
6328.0
 20
1239.0
 10
6328.0
 20
1734.0
 10
5502.0
 20
1734.0
 10
5502.0
 20
1239.0
  0
TEXT
  5
62
330
17
100
AcDbEntity
  8
TESTI
100
AcDbText
 10
5915.0
 20
1486.5
 30
0.0
 40
120.0
  1
B5
 72
1
 11
5915.0
 21
1486.5
 31
0.0
100
AcDbText
 73
2
  0
LWPOLYLINE
  5
63
330
17
100
AcDbEntity
  8
BLOCCHI_STD
100
AcDbPolyline
 90
5
 70
0
 10
2202.0
 20
1239.0
 10
2615.0
 20
1239.0
 10
2615.0
 20
1734.0
 10
2202.0
 20
1734.0
 10
2202.0
 20
1239.0
  0
TEXT
  5
64
330
17
100
AcDbEntity
  8
TESTI
100
AcDbText
 10
2408.5
 20
1486.5
 30
0.0
 40
120.0
  1
C8
 72
1
 11
2408.5
 21
1486.5
 31
0.0
100
AcDbText
 73
2
  0
LWPOLYLINE
  5
65
330
17
100
AcDbEntity
  8
BLOCCHI_STD
100
AcDbPolyline
 90
5
 70
0
 10
0.0
 20
1239.0
 10
826.0
 20
1239.0
 10
826.0
 20
1734.0
 10
0.0
 20
1734.0
 10
0.0
 20
1239.0
  0
TEXT
  5
66
330
17
100
AcDbEntity
  8
TESTI
100
AcDbText
 10
413.0
 20
1486.5
 30
0.0
 40
120.0
  1
B6
 72
1
 11
413.0
 21
1486.5
 31
0.0
100
AcDbText
 73
2
  0
LWPOLYLINE
  5
67
330
17
100
AcDbEntity
  8
BLOCCHI_STD
100
AcDbPolyline
 90
5
 70
0
 10
7402.0
 20
1652.0
 10
7815.0
 20
1652.0
 10
7815.0
 20
2147.0
 10
7402.0
 20
2147.0
 10
7402.0
 20
1652.0
  0
TEXT
  5
68
330
17
100
AcDbEntity
  8
TESTI
100
AcDbText
 10
7608.5
 20
1899.5
 30
0.0
 40
120.0
  1
C9
 72
1
 11
7608.5
 21
1899.5
 31
0.0
100
AcDbText
 73
2
  0
LWPOLYLINE
  5
69
330
17
100
AcDbEntity
  8
BLOCCHI_STD
100
AcDbPolyline
 90
5
 70
0
 10
5919.0
 20
1652.0
 10
6332.0
 20
1652.0
 10
6332.0
 20
2147.0
 10
5919.0
 20
2147.0
 10
5919.0
 20
1652.0
  0
TEXT
  5
6A
330
17
100
AcDbEntity
  8
TESTI
100
AcDbText
 10
6125.5
 20
1899.5
 30
0.0
 40
120.0
  1
C10
 72
1
 11
6125.5
 21
1899.5
 31
0.0
100
AcDbText
 73
2
  0
LWPOLYLINE
  5
6B
330
17
100
AcDbEntity
  8
BLOCCHI_STD
100
AcDbPolyline
 90
5
 70
0
 10
0.0
 20
1652.0
 10
826.0
 20
1652.0
 10
826.0
 20
2147.0
 10
0.0
 20
2147.0
 10
0.0
 20
1652.0
  0
TEXT
  5
6C
330
17
100
AcDbEntity
  8
TESTI
100
AcDbText
 10
413.0
 20
1899.5
 30
0.0
 40
120.0
  1
B7
 72
1
 11
413.0
 21
1899.5
 31
0.0
100
AcDbText
 73
2
  0
LWPOLYLINE
  5
6D
330
17
100
AcDbEntity
  8
BLOCCHI_STD
100
AcDbPolyline
 90
5
 70
0
 10
0.0
 20
2065.0
 10
826.0
 20
2065.0
 10
826.0
 20
2560.0
 10
0.0
 20
2560.0
 10
0.0
 20
2065.0
  0
TEXT
  5
6E
330
17
100
AcDbEntity
  8
TESTI
100
AcDbText
 10
413.0
 20
2312.5
 30
0.0
 40
120.0
  1
B8
 72
1
 11
413.0
 21
2312.5
 31
0.0
100
AcDbText
 73
2
  0
LWPOLYLINE
  5
6F
330
17
100
AcDbEntity
  8
BLOCCHI_STD
100
AcDbPolyline
 90
5
 70
0
 10
3304.0
 20
2065.0
 10
4543.0
 20
2065.0
 10
4543.0
 20
2560.0
 10
3304.0
 20
2560.0
 10
3304.0
 20
2065.0
  0
TEXT
  5
70
330
17
100
AcDbEntity
  8
TESTI
100
AcDbText
 10
3923.5
 20
2312.5
 30
0.0
 40
120.0
  1
A6
 72
1
 11
3923.5
 21
2312.5
 31
0.0
100
AcDbText
 73
2
  0
LWPOLYLINE
  5
71
330
17
100
AcDbEntity
  8
BLOCCHI_STD
100
AcDbPolyline
 90
5
 70
0
 10
4543.0
 20
2065.0
 10
5782.0
 20
2065.0
 10
5782.0
 20
2560.0
 10
4543.0
 20
2560.0
 10
4543.0
 20
2065.0
  0
TEXT
  5
72
330
17
100
AcDbEntity
  8
TESTI
100
AcDbText
 10
5162.5
 20
2312.5
 30
0.0
 40
120.0
  1
A7
 72
1
 11
5162.5
 21
2312.5
 31
0.0
100
AcDbText
 73
2
  0
LWPOLYLINE
  5
73
330
17
100
AcDbEntity
  8
BLOCCHI_STD
100
AcDbPolyline
 90
5
 70
0
 10
0.0
 20
2478.0
 10
1239.0
 20
2478.0
 10
1239.0
 20
2973.0
 10
0.0
 20
2973.0
 10
0.0
 20
2478.0
  0
TEXT
  5
74
330
17
100
AcDbEntity
  8
TESTI
100
AcDbText
 10
619.5
 20
2725.5
 30
0.0
 40
120.0
  1
A8
 72
1
 11
619.5
 21
2725.5
 31
0.0
100
AcDbText
 73
2
  0
LWPOLYLINE
  5
75
330
17
100
AcDbEntity
  8
BLOCCHI_STD
100
AcDbPolyline
 90
5
 70
0
 10
1239.0
 20
2478.0
 10
2478.0
 20
2478.0
 10
2478.0
 20
2973.0
 10
1239.0
 20
2973.0
 10
1239.0
 20
2478.0
  0
TEXT
  5
76
330
17
100
AcDbEntity
  8
TESTI
100
AcDbText
 10
1858.5
 20
2725.5
 30
0.0
 40
120.0
  1
A9
 72
1
 11
1858.5
 21
2725.5
 31
0.0
100
AcDbText
 73
2
  0
LWPOLYLINE
  5
77
330
17
100
AcDbEntity
  8
BLOCCHI_STD
100
AcDbPolyline
 90
5
 70
0
 10
2478.0
 20
2478.0
 10
3717.0
 20
2478.0
 10
3717.0
 20
2973.0
 10
2478.0
 20
2973.0
 10
2478.0
 20
2478.0
  0
TEXT
  5
78
330
17
100
AcDbEntity
  8
TESTI
100
AcDbText
 10
3097.5
 20
2725.5
 30
0.0
 40
120.0
  1
A10
 72
1
 11
3097.5
 21
2725.5
 31
0.0
100
AcDbText
 73
2
  0
LWPOLYLINE
  5
79
330
17
100
AcDbEntity
  8
BLOCCHI_STD
100
AcDbPolyline
 90
5
 70
0
 10
3717.0
 20
2478.0
 10
4956.0
 20
2478.0
 10
4956.0
 20
2973.0
 10
3717.0
 20
2973.0
 10
3717.0
 20
2478.0
  0
TEXT
  5
7A
330
17
100
AcDbEntity
  8
TESTI
100
AcDbText
 10
4336.5
 20
2725.5
 30
0.0
 40
120.0
  1
A11
 72
1
 11
4336.5
 21
2725.5
 31
0.0
100
AcDbText
 73
2
  0
LWPOLYLINE
  5
7B
330
17
100
AcDbEntity
  8
BLOCCHI_STD
100
AcDbPolyline
 90
5
 70
0
 10
4956.0
 20
2478.0
 10
6195.0
 20
2478.0
 10
6195.0
 20
2973.0
 10
4956.0
 20
2973.0
 10
4956.0
 20
2478.0
  0
TEXT
  5
7C
330
17
100
AcDbEntity
  8
TESTI
100
AcDbText
 10
5575.5
 20
2725.5
 30
0.0
 40
120.0
  1
A12
 72
1
 11
5575.5
 21
2725.5
 31
0.0
100
AcDbText
 73
2
  0
LWPOLYLINE
  5
7D
330
17
100
AcDbEntity
  8
BLOCCHI_STD
100
AcDbPolyline
 90
5
 70
0
 10
6195.0
 20
2478.0
 10
7434.0
 20
2478.0
 10
7434.0
 20
2973.0
 10
6195.0
 20
2973.0
 10
6195.0
 20
2478.0
  0
TEXT
  5
7E
330
17
100
AcDbEntity
  8
TESTI
100
AcDbText
 10
6814.5
 20
2725.5
 30
0.0
 40
120.0
  1
A13
 72
1
 11
6814.5
 21
2725.5
 31
0.0
100
AcDbText
 73
2
  0
LWPOLYLINE
  5
7F
330
17
100
AcDbEntity
  8
BLOCCHI_STD
100
AcDbPolyline
 90
5
 70
0
 10
7434.0
 20
2478.0
 10
7847.0
 20
2478.0
 10
7847.0
 20
2973.0
 10
7434.0
 20
2973.0
 10
7434.0
 20
2478.0
  0
TEXT
  5
80
330
17
100
AcDbEntity
  8
TESTI
100
AcDbText
 10
7640.5
 20
2725.5
 30
0.0
 40
120.0
  1
C11
 72
1
 11
7640.5
 21
2725.5
 31
0.0
100
AcDbText
 73
2
  0
LWPOLYLINE
  5
81
330
17
100
AcDbEntity
  8
BLOCCHI_CUSTOM
100
AcDbPolyline
 90
5
 70
1
 10
998.0
 20
0.0
 10
826.0
 20
0.0
 10
826.0
 20
413.0
 10
998.0
 20
413.0
 10
998.0
 20
0.0
  0
TEXT
  5
82
330
17
100
AcDbEntity
  8
TESTI
100
AcDbText
 10
912.0
 20
206.5
 30
0.0
 40
90.0
  1
CU2(1)172x413CU2
 72
1
 11
912.0
 21
206.5
 31
0.0
100
AcDbText
 73
2
  0
LWPOLYLINE
  5
83
330
17
100
AcDbEntity
  8
BLOCCHI_CUSTOM
100
AcDbPolyline
 90
5
 70
1
 10
6332.0
 20
413.0
 10
6498.0
 20
413.0
 10
6498.0
 20
0.0
 10
6332.0
 20
0.0
 10
6332.0
 20
413.0
  0
TEXT
  5
84
330
17
100
AcDbEntity
  8
TESTI
100
AcDbText
 10
6415.0
 20
206.5
 30
0.0
 40
90.0
  1
CU2(2)166x413CU2
 72
1
 11
6415.0
 21
206.5
 31
0.0
100
AcDbText
 73
2
  0
LWPOLYLINE
  5
85
330
17
100
AcDbEntity
  8
BLOCCHI_CUSTOM
100
AcDbPolyline
 90
5
 70
1
 10
7815.0
 20
413.0
 10
8000.0
 20
413.0
 10
8000.0
 20
0.0
 10
7815.0
 20
0.0
 10
7815.0
 20
413.0
  0
TEXT
  5
86
330
17
100
AcDbEntity
  8
TESTI
100
AcDbText
 10
7907.5
 20
206.5
 30
0.0
 40
90.0
  1
CU2(3)185x413CU2
 72
1
 11
7907.5
 21
206.5
 31
0.0
100
AcDbText
 73
2
  0
LWPOLYLINE
  5
87
330
17
100
AcDbEntity
  8
BLOCCHI_CUSTOM
100
AcDbPolyline
 90
5
 70
1
 10
826.0
 20
413.0
 10
826.0
 20
826.0
 10
998.0
 20
826.0
 10
998.0
 20
413.0
 10
826.0
 20
413.0
  0
TEXT
  5
88
330
17
100
AcDbEntity
  8
TESTI
100
AcDbText
 10
912.0
 20
619.5
 30
0.0
 40
90.0
  1
CU2(4)172x413CU2
 72
1
 11
912.0
 21
619.5
 31
0.0
100
AcDbText
 73
2
  0
LWPOLYLINE
  5
89
330
17
100
AcDbEntity
  8
BLOCCHI_CUSTOM
100
AcDbPolyline
 90
23
 70
1
 10
3998.0
 20
826.0
 10
3998.0
 20
800.0
 10
3998.0096305466554
 20
799.8039657193409
 10
3998.0384294391934
 20
799.6098193559677
 10
3998.0861193285355
 20
799.419430645491
 10
3998.1522409349773
 20
799.2346331352699
 10
3998.236157471303
 20
799.057206526348
 10
3998.337060775395
 20
798.8888595339608
 10
3998.4539790932745
 20
798.7312134316727
 10
3998.585786437627
 20
798.5857864376269
 10
3998.7312134316726
 20
798.4539790932745
 10
3998.888859533961
 20
798.3370607753949
 10
3999.057206526348
 20
798.2361574713033
 10
3999.2346331352696
 20
798.1522409349774
 10
3999.419430645491
 20
798.0861193285356
 10
3999.609819355968
 20
798.0384294391936
 10
3999.803965719341
 20
798.0096305466556
 10
4000.0
 20
798.0
 10
4267.0
 20
798.0
 10
4267.0
 20
413.0
 10
3854.0
 20
413.0
 10
3854.0
 20
826.0
 10
3998.0
 20
826.0
  0
TEXT
  5
8A
330
17
100
AcDbEntity
  8
TESTI
100
AcDbText
 10
4060.5
 20
619.5
 30
0.0
 40
90.0
  1
CU2(5)413x413CU2
 72
1
 11
4060.5
 21
619.5
 31
0.0
100
AcDbText
 73
2
  0
LWPOLYLINE
  5
8B
330
17
100
AcDbEntity
  8
BLOCCHI_CUSTOM
100
AcDbPolyline
 90
5
 70
1
 10
4680.0
 20
798.0
 10
4680.0
 20
413.0
 10
4267.0
 20
413.0
 10
4267.0
 20
798.0
 10
4680.0
 20
798.0
  0
TEXT
  5
8C
330
17
100
AcDbEntity
  8
TESTI
100
AcDbText
 10
4473.5
 20
605.5
 30
0.0
 40
90.0
  1
CU2(6)413x385CU2
 72
1
 11
4473.5
 21
605.5
 31
0.0
100
AcDbText
 73
2
  0
LWPOLYLINE
  5
8D
330
17
100
AcDbEntity
  8
BLOCCHI_CUSTOM
100
AcDbPolyline
 90
5
 70
1
 10
5093.0
 20
798.0
 10
5093.0
 20
413.0
 10
4680.0
 20
413.0
 10
4680.0
 20
798.0
 10
5093.0
 20
798.0
  0
TEXT
  5
8E
330
17
100
AcDbEntity
  8
TESTI
100
AcDbText
 10
4886.5
 20
605.5
 30
0.0
 40
90.0
  1
CU2(7)413x385CU2
 72
1
 11
4886.5
 21
605.5
 31
0.0
100
AcDbText
 73
2
  0
LWPOLYLINE
  5
8F
330
17
100
AcDbEntity
  8
BLOCCHI_CUSTOM
100
AcDbPolyline
 90
23
 70
1
 10
5500.0
 20
798.0
 10
5500.196034280659
 20
798.0096305466556
 10
5500.390180644033
 20
798.0384294391936
 10
5500.580569354509
 20
798.0861193285356
 10
5500.76536686473
 20
798.1522409349774
 10
5500.942793473652
 20
798.2361574713033
 10
5501.11114046604
 20
798.3370607753949
 10
5501.268786568327
 20
798.4539790932745
 10
5501.414213562373
 20
798.5857864376269
 10
5501.546020906725
 20
798.7312134316727
 10
5501.662939224605
 20
798.8888595339608
 10
5501.763842528697
 20
799.057206526348
 10
5501.847759065023
 20
799.2346331352699
 10
5501.9138806714645
 20
799.419430645491
 10
5501.961570560807
 20
799.6098193559677
 10
5501.990369453344
 20
799.8039657193409
 10
5502.0
 20
800.0
 10
5502.0
 20
826.0
 10
5506.0
 20
826.0
 10
5506.0
 20
413.0
 10
5093.0
 20
413.0
 10
5093.0
 20
798.0
 10
5500.0
 20
798.0
  0
TEXT
  5
90
330
17
100
AcDbEntity
  8
TESTI
100
AcDbText
 10
5299.5
 20
619.5
 30
0.0
 40
90.0
  1
CU2(8)413x413CU2
 72
1
 11
5299.5
 21
619.5
 31
0.0
100
AcDbText
 73
2
  0
LWPOLYLINE
  5
91
330
17
100
AcDbEntity
  8
BLOCCHI_CUSTOM
100
AcDbPolyline
 90
5
 70
1
 10
5919.0
 20
826.0
 10
5919.0
 20
413.0
 10
5506.0
 20
413.0
 10
5506.0
 20
826.0
 10
5919.0
 20
826.0
  0
TEXT
  5
92
330
17
100
AcDbEntity
  8
TESTI
100
AcDbText
 10
5712.5
 20
619.5
 30
0.0
 40
90.0
  1
CU2(9)413x413CU2
 72
1
 11
5712.5
 21
619.5
 31
0.0
100
AcDbText
 73
2
  0
LWPOLYLINE
  5
93
330
17
100
AcDbEntity
  8
BLOCCHI_CUSTOM
100
AcDbPolyline
 90
5
 70
1
 10
6332.0
 20
826.0
 10
6332.0
 20
413.0
 10
5919.0
 20
413.0
 10
5919.0
 20
826.0
 10
6332.0
 20
826.0
  0
TEXT
  5
94
330
17
100
AcDbEntity
  8
TESTI
100
AcDbText
 10
6125.5
 20
619.5
 30
0.0
 40
90.0
  1
CU2(10)413x413CU2
 72
1
 11
6125.5
 21
619.5
 31
0.0
100
AcDbText
 73
2
  0
LWPOLYLINE
  5
95
330
17
100
AcDbEntity
  8
BLOCCHI_CUSTOM
100
AcDbPolyline
 90
5
 70
1
 10
6498.0
 20
826.0
 10
6498.0
 20
413.0
 10
6332.0
 20
413.0
 10
6332.0
 20
826.0
 10
6498.0
 20
826.0
  0
TEXT
  5
96
330
17
100
AcDbEntity
  8
TESTI
100
AcDbText
 10
6415.0
 20
619.5
 30
0.0
 40
90.0
  1
CU2(11)166x413CU2
 72
1
 11
6415.0
 21
619.5
 31
0.0
100
AcDbText
 73
2
  0
LWPOLYLINE
  5
97
330
17
100
AcDbEntity
  8
BLOCCHI_CUSTOM
100
AcDbPolyline
 90
5
 70
1
 10
7815.0
 20
826.0
 10
8000.0
 20
826.0
 10
8000.0
 20
413.0
 10
7815.0
 20
413.0
 10
7815.0
 20
826.0
  0
TEXT
  5
98
330
17
100
AcDbEntity
  8
TESTI
100
AcDbText
 10
7907.5
 20
619.5
 30
0.0
 40
90.0
  1
CU2(12)185x413CU2
 72
1
 11
7907.5
 21
619.5
 31
0.0
100
AcDbText
 73
2
  0
LWPOLYLINE
  5
99
330
17
100
AcDbEntity
  8
BLOCCHI_CUSTOM
100
AcDbPolyline
 90
5
 70
1
 10
826.0
 20
826.0
 10
826.0
 20
1239.0
 10
998.0
 20
1239.0
 10
998.0
 20
826.0
 10
826.0
 20
826.0
  0
TEXT
  5
9A
330
17
100
AcDbEntity
  8
TESTI
100
AcDbText
 10
912.0
 20
1032.5
 30
0.0
 40
90.0
  1
CU2(13)172x413CU2
 72
1
 11
912.0
 21
1032.5
 31
0.0
100
AcDbText
 73
2
  0
LWPOLYLINE
  5
9B
330
17
100
AcDbEntity
  8
BLOCCHI_CUSTOM
100
AcDbPolyline
 90
5
 70
1
 10
3854.0
 20
826.0
 10
3854.0
 20
1239.0
 10
3998.0
 20
1239.0
 10
3998.0
 20
826.0
 10
3854.0
 20
826.0
  0
TEXT
  5
9C
330
17
100
AcDbEntity
  8
TESTI
100
AcDbText
 10
3926.0
 20
1032.5
 30
0.0
 40
90.0
  1
CU2(14)144x413CU2
 72
1
 11
3926.0
 21
1032.5
 31
0.0
100
AcDbText
 73
2
  0
LWPOLYLINE
  5
9D
330
17
100
AcDbEntity
  8
BLOCCHI_CUSTOM
100
AcDbPolyline
 90
5
 70
1
 10
6328.0
 20
826.0
 10
6328.0
 20
1239.0
 10
6498.0
 20
1239.0
 10
6498.0
 20
826.0
 10
6328.0
 20
826.0
  0
TEXT
  5
9E
330
17
100
AcDbEntity
  8
TESTI
100
AcDbText
 10
6413.0
 20
1032.5
 30
0.0
 40
90.0
  1
CU2(15)170x413CU2
 72
1
 11
6413.0
 21
1032.5
 31
0.0
100
AcDbText
 73
2
  0
LWPOLYLINE
  5
9F
330
17
100
AcDbEntity
  8
BLOCCHI_CUSTOM
100
AcDbPolyline
 90
5
 70
1
 10
7815.0
 20
826.0
 10
7815.0
 20
1239.0
 10
8000.0
 20
1239.0
 10
8000.0
 20
826.0
 10
7815.0
 20
826.0
  0
TEXT
  5
A0
330
17
100
AcDbEntity
  8
TESTI
100
AcDbText
 10
7907.5
 20
1032.5
 30
0.0
 40
90.0
  1
CU2(16)185x413CU2
 72
1
 11
7907.5
 21
1032.5
 31
0.0
100
AcDbText
 73
2
  0
LWPOLYLINE
  5
A1
330
17
100
AcDbEntity
  8
BLOCCHI_CUSTOM
100
AcDbPolyline
 90
7
 70
1
 10
826.0
 20
2065.0
 10
998.0
 20
2065.0
 10
998.0
 20
1652.0
 10
998.0
 20
1239.0
 10
826.0
 20
1239.0
 10
826.0
 20
1652.0
 10
826.0
 20
2065.0
  0
TEXT
  5
A2
330
17
100
AcDbEntity
  8
TESTI
100
AcDbText
 10
912.0
 20
1652.0
 30
0.0
 40
90.0
  1
CUX(1)172x826CUout_of_spec
 72
1
 11
912.0
 21
1652.0
 31
0.0
100
AcDbText
 73
2
  0
LWPOLYLINE
  5
A3
330
17
100
AcDbEntity
  8
BLOCCHI_CUSTOM
100
AcDbPolyline
 90
5
 70
1
 10
2202.0
 20
2065.0
 10
2615.0
 20
2065.0
 10
2615.0
 20
1652.0
 10
2202.0
 20
1652.0
 10
2202.0
 20
2065.0
  0
TEXT
  5
A4
330
17
100
AcDbEntity
  8
TESTI
100
AcDbText
 10
2408.5
 20
1858.5
 30
0.0
 40
90.0
  1
CU2(17)413x413CU2
 72
1
 11
2408.5
 21
1858.5
 31
0.0
100
AcDbText
 73
2
  0
LWPOLYLINE
  5
A5
330
17
100
AcDbEntity
  8
BLOCCHI_CUSTOM
100
AcDbPolyline
 90
54
 70
1
 10
3028.0
 20
2065.0
 10
3028.0
 20
1696.4696360297862
 10
3000.390180644032
 20
1701.9615705608064
 10
3000.196034280659
 20
1701.9903694533443
 10
3000.0
 20
1702.0
 10
2999.803965719341
 20
1701.9903694533443
 10
2999.609819355968
 20
1701.9615705608064
 10
2923.0731328829497
 20
1686.7374770630638
 10
2922.882744172473
 20
1686.689787173722
 10
2922.6979466622515
 20
1686.6236655672799
 10
2922.52052005333
 20
1686.539749030954
 10
2922.3521730609427
 20
1686.4388457268624
 10
2870.810798086573
 20
1652.0
 10
2857.4675032966516
 20
1643.0842954619145
 10
2857.3098571943633
 20
1642.967377144035
 10
2857.164430200318
 20
1642.8355697996826
 10
2857.032622855965
 20
1642.6901428056367
 10
2856.9157045380857
 20
1642.5324967033487
 10
2813.5611542731376
 20
1577.647826939057
 10
2813.460250969046
 20
1577.47947994667
 10
2813.37633443272
 20
1577.302053337748
 10
2813.310212826278
 20
1577.1172558275268
 10
2813.262522936936
 20
1576.92686711705
 10
2798.0384294391934
 20
1500.3901806440322
 10
2798.0096305466554
 20
1500.196034280659
 10
2798.0
 20
1500.0
 10
2798.0096305466554
 20
1499.803965719341
 10
2798.0384294391934
 20
1499.6098193559678
 10
2813.262522936936
 20
1423.07313288295
 10
2813.310212826278
 20
1422.8827441724732
 10
2813.37633443272
 20
1422.697946662252
 10
2813.460250969046
 20
1422.52052005333
 10
2813.5611542731376
 20
1422.352173060943
 10
2856.9157045380853
 20
1357.4675032966513
 10
2857.0326228559647
 20
1357.3098571943633
 10
2857.1644302003174
 20
1357.1644302003174
 10
2857.309857194363
 20
1357.032622855965
 10
2857.467503296651
 20
1356.9157045380855
 10
2922.3521730609427
 20
1313.5611542731376
 10
2922.52052005333
 20
1313.460250969046
 10
2922.6979466622515
 20
1313.3763344327201
 10
2922.882744172473
 20
1313.310212826278
 10
2923.0731328829497
 20
1313.2625229369362
 10
2999.609819355968
 20
1298.0384294391936
 10
2999.803965719341
 20
1298.0096305466557
 10
3000.0
 20
1298.0
 10
3000.196034280659
 20
1298.0096305466557
 10
3000.390180644032
 20
1298.0384294391936
 10
3028.0
 20
1303.5303639702138
 10
3028.0
 20
1239.0
 10
2615.0
 20
1239.0
 10
2615.0
 20
1652.0
 10
2615.0
 20
2065.0
 10
3028.0
 20
2065.0
  0
TEXT
  5
A6
330
17
100
AcDbEntity
  8
TESTI
100
AcDbText
 10
2821.5
 20
1652.0
 30
0.0
 40
90.0
  1
CUX(2)413x826CUout_of_spec
 72
1
 11
2821.5
 21
1652.0
 31
0.0
100
AcDbText
 73
2
  0
LWPOLYLINE
  5
A7
330
17
100
AcDbEntity
  8
BLOCCHI_CUSTOM
100
AcDbPolyline
 90
43
 70
1
 10
3441.0
 20
2065.0
 10
3441.0
 20
1239.0
 10
3028.0
 20
1239.0
 10
3028.0
 20
1303.5303639702138
 10
3076.9268671170503
 20
1313.2625229369362
 10
3077.117255827527
 20
1313.310212826278
 10
3077.3020533377485
 20
1313.3763344327201
 10
3077.47947994667
 20
1313.460250969046
 10
3077.6478269390573
 20
1313.5611542731376
 10
3142.5324967033484
 20
1356.9157045380855
 10
3142.6901428056367
 20
1357.032622855965
 10
3142.835569799682
 20
1357.1644302003174
 10
3142.967377144035
 20
1357.3098571943633
 10
3143.0842954619143
 20
1357.4675032966513
 10
3186.4388457268624
 20
1422.3521730609427
 10
3186.539749030954
 20
1422.5205200533298
 10
3186.62366556728
 20
1422.6979466622518
 10
3186.689787173722
 20
1422.882744172473
 10
3186.737477063064
 20
1423.0731328829497
 10
3201.9615705608066
 20
1499.6098193559678
 10
3201.9903694533446
 20
1499.803965719341
 10
3202.0
 20
1500.0
 10
3201.9903694533446
 20
1500.196034280659
 10
3201.9615705608066
 20
1500.3901806440322
 10
3186.737477063064
 20
1576.92686711705
 10
3186.689787173722
 20
1577.1172558275268
 10
3186.62366556728
 20
1577.302053337748
 10
3186.539749030954
 20
1577.47947994667
 10
3186.4388457268624
 20
1577.647826939057
 10
3143.0842954619147
 20
1642.5324967033487
 10
3142.9673771440353
 20
1642.6901428056367
 10
3142.8355697996826
 20
1642.8355697996826
 10
3142.690142805637
 20
1642.967377144035
 10
3142.532496703349
 20
1643.0842954619145
 10
3129.1892019134275
 20
1652.0
 10
3077.6478269390573
 20
1686.4388457268624
 10
3077.47947994667
 20
1686.539749030954
 10
3077.3020533377485
 20
1686.6236655672799
 10
3077.117255827527
 20
1686.689787173722
 10
3076.9268671170503
 20
1686.7374770630638
 10
3028.0
 20
1696.4696360297862
 10
3028.0
 20
2065.0
 10
3441.0
 20
2065.0
  0
TEXT
  5
A8
330
17
100
AcDbEntity
  8
TESTI
100
AcDbText
 10
3234.5
 20
1652.0
 30
0.0
 40
90.0
  1
CUX(3)413x826CUout_of_spec
 72
1
 11
3234.5
 21
1652.0
 31
0.0
100
AcDbText
 73
2
  0
LWPOLYLINE
  5
A9
330
17
100
AcDbEntity
  8
BLOCCHI_CUSTOM
100
AcDbPolyline
 90
5
 70
1
 10
3854.0
 20
2065.0
 10
3854.0
 20
1239.0
 10
3441.0
 20
1239.0
 10
3441.0
 20
2065.0
 10
3854.0
 20
2065.0
  0
TEXT
  5
AA
330
17
100
AcDbEntity
  8
TESTI
100
AcDbText
 10
3647.5
 20
1652.0
 30
0.0
 40
90.0
  1
CUX(4)413x826CUout_of_spec
 72
1
 11
3647.5
 21
1652.0
 31
0.0
100
AcDbText
 73
2
  0
LWPOLYLINE
  5
AB
330
17
100
AcDbEntity
  8
BLOCCHI_CUSTOM
100
AcDbPolyline
 90
24
 70
1
 10
4267.0
 20
2065.0
 10
4267.0
 20
2002.0
 10
4000.0
 20
2002.0
 10
3999.803965719341
 20
2001.9903694533443
 10
3999.609819355968
 20
2001.9615705608064
 10
3999.419430645491
 20
2001.9138806714643
 10
3999.2346331352696
 20
2001.8477590650225
 10
3999.057206526348
 20
2001.7638425286966
 10
3998.888859533961
 20
2001.662939224605
 10
3998.7312134316726
 20
2001.5460209067255
 10
3998.585786437627
 20
2001.414213562373
 10
3998.4539790932745
 20
2001.2687865683272
 10
3998.337060775395
 20
2001.1111404660392
 10
3998.236157471303
 20
2000.942793473652
 10
3998.1522409349773
 20
2000.7653668647301
 10
3998.0861193285355
 20
2000.580569354509
 10
3998.0384294391934
 20
2000.3901806440322
 10
3998.0096305466554
 20
2000.1960342806592
 10
3998.0
 20
2000.0
 10
3998.0
 20
1652.0
 10
3998.0
 20
1239.0
 10
3854.0
 20
1239.0
 10
3854.0
 20
2065.0
 10
4267.0
 20
2065.0
  0
TEXT
  5
AC
330
17
100
AcDbEntity
  8
TESTI
100
AcDbText
 10
4060.5
 20
1652.0
 30
0.0
 40
90.0
  1
CUX(5)413x826CUout_of_spec
 72
1
 11
4060.5
 21
1652.0
 31
0.0
100
AcDbText
 73
2
  0
LWPOLYLINE
  5
AD
330
17
100
AcDbEntity
  8
BLOCCHI_CUSTOM
100
AcDbPolyline
 90
5
 70
1
 10
4680.0
 20
2065.0
 10
4680.0
 20
2002.0
 10
4267.0
 20
2002.0
 10
4267.0
 20
2065.0
 10
4680.0
 20
2065.0
  0
TEXT
  5
AE
330
17
100
AcDbEntity
  8
TESTI
100
AcDbText
 10
4473.5
 20
2033.5
 30
0.0
 40
90.0
  1
CU2(18)413x63CU2
 72
1
 11
4473.5
 21
2033.5
 31
0.0
100
AcDbText
 73
2
  0
LWPOLYLINE
  5
AF
330
17
100
AcDbEntity
  8
BLOCCHI_CUSTOM
100
AcDbPolyline
 90
5
 70
1
 10
5093.0
 20
2065.0
 10
5093.0
 20
2002.0
 10
4680.0
 20
2002.0
 10
4680.0
 20
2065.0
 10
5093.0
 20
2065.0
  0
TEXT
  5
B0
330
17
100
AcDbEntity
  8
TESTI
100
AcDbText
 10
4886.5
 20
2033.5
 30
0.0
 40
90.0
  1
CU2(19)413x63CU2
 72
1
 11
4886.5
 21
2033.5
 31
0.0
100
AcDbText
 73
2
  0
LWPOLYLINE
  5
B1
330
17
100
AcDbEntity
  8
BLOCCHI_CUSTOM
100
AcDbPolyline
 90
23
 70
1
 10
5506.0
 20
2065.0
 10
5506.0
 20
1652.0
 10
5502.0
 20
1652.0
 10
5502.0
 20
2000.0
 10
5501.990369453344
 20
2000.1960342806592
 10
5501.961570560807
 20
2000.3901806440322
 10
5501.9138806714645
 20
2000.580569354509
 10
5501.847759065023
 20
2000.7653668647301
 10
5501.763842528697
 20
2000.942793473652
 10
5501.662939224605
 20
2001.1111404660392
 10
5501.546020906725
 20
2001.2687865683272
 10
5501.414213562373
 20
2001.414213562373
 10
5501.268786568327
 20
2001.5460209067255
 10
5501.11114046604
 20
2001.662939224605
 10
5500.942793473652
 20
2001.7638425286966
 10
5500.76536686473
 20
2001.8477590650225
 10
5500.580569354509
 20
2001.9138806714643
 10
5500.390180644033
 20
2001.9615705608064
 10
5500.196034280659
 20
2001.9903694533443
 10
5500.0
 20
2002.0
 10
5093.0
 20
2002.0
 10
5093.0
 20
2065.0
 10
5506.0
 20
2065.0
  0
TEXT
  5
B2
330
17
100
AcDbEntity
  8
TESTI
100
AcDbText
 10
5299.5
 20
1858.5
 30
0.0
 40
90.0
  1
CU2(20)413x413CU2
 72
1
 11
5299.5
 21
1858.5
 31
0.0
100
AcDbText
 73
2
  0
LWPOLYLINE
  5
B3
330
17
100
AcDbEntity
  8
BLOCCHI_CUSTOM
100
AcDbPolyline
 90
5
 70
1
 10
5919.0
 20
2065.0
 10
5919.0
 20
1652.0
 10
5506.0
 20
1652.0
 10
5506.0
 20
2065.0
 10
5919.0
 20
2065.0
  0
TEXT
  5
B4
330
17
100
AcDbEntity
  8
TESTI
100
AcDbText
 10
5712.5
 20
1858.5
 30
0.0
 40
90.0
  1
CU2(21)413x413CU2
 72
1
 11
5712.5
 21
1858.5
 31
0.0
100
AcDbText
 73
2
  0
LWPOLYLINE
  5
B5
330
17
100
AcDbEntity
  8
BLOCCHI_CUSTOM
100
AcDbPolyline
 90
8
 70
1
 10
6332.0
 20
2065.0
 10
6498.0
 20
2065.0
 10
6498.0
 20
1652.0
 10
6498.0
 20
1239.0
 10
6328.0
 20
1239.0
 10
6328.0
 20
1652.0
 10
6332.0
 20
1652.0
 10
6332.0
 20
2065.0
  0
TEXT
  5
B6
330
17
100
AcDbEntity
  8
TESTI
100
AcDbText
 10
6413.0
 20
1652.0
 30
0.0
 40
90.0
  1
CUX(6)170x826CUout_of_spec
 72
1
 11
6413.0
 21
1652.0
 31
0.0
100
AcDbText
 73
2
  0
LWPOLYLINE
  5
B7
330
17
100
AcDbEntity
  8
BLOCCHI_CUSTOM
100
AcDbPolyline
 90
7
 70
1
 10
8000.0
 20
2065.0
 10
8000.0
 20
1652.0
 10
8000.0
 20
1239.0
 10
7815.0
 20
1239.0
 10
7815.0
 20
1652.0
 10
7815.0
 20
2065.0
 10
8000.0
 20
2065.0
  0
TEXT
  5
B8
330
17
100
AcDbEntity
  8
TESTI
100
AcDbText
 10
7907.5
 20
1652.0
 30
0.0
 40
90.0
  1
CUX(7)185x826CUout_of_spec
 72
1
 11
7907.5
 21
1652.0
 31
0.0
100
AcDbText
 73
2
  0
LWPOLYLINE
  5
B9
330
17
100
AcDbEntity
  8
BLOCCHI_CUSTOM
100
AcDbPolyline
 90
23
 70
1
 10
999.6098193559677
 20
2201.9615705608066
 10
999.419430645491
 20
2201.9138806714645
 10
999.2346331352699
 20
2201.8477590650227
 10
999.057206526348
 20
2201.763842528697
 10
998.8888595339608
 20
2201.662939224605
 10
998.7312134316727
 20
2201.5460209067255
 10
998.5857864376269
 20
2201.414213562373
 10
998.4539790932745
 20
2201.2687865683274
 10
998.3370607753949
 20
2201.111140466039
 10
998.2361574713033
 20
2200.942793473652
 10
998.1522409349774
 20
2200.7653668647304
 10
998.0861193285356
 20
2200.580569354509
 10
998.0384294391936
 20
2200.390180644032
 10
998.0096305466556
 20
2200.196034280659
 10
998.0
 20
2200.0
 10
998.0
 20
2065.0
 10
826.0
 20
2065.0
 10
826.0
 20
2478.0
 10
1239.0
 20
2478.0
 10
1239.0
 20
2202.0
 10
1000.0
 20
2202.0
 10
999.8039657193409
 20
2201.9903694533446
 10
999.6098193559677
 20
2201.9615705608066
  0
TEXT
  5
BA
330
17
100
AcDbEntity
  8
TESTI
100
AcDbText
 10
1032.5
 20
2271.5
 30
0.0
 40
90.0
  1
CU2(22)413x413CU2
 72
1
 11
1032.5
 21
2271.5
 31
0.0
100
AcDbText
 73
2
  0
LWPOLYLINE
  5
BB
330
17
100
AcDbEntity
  8
BLOCCHI_CUSTOM
100
AcDbPolyline
 90
5
 70
1
 10
1652.0
 20
2478.0
 10
1652.0
 20
2202.0
 10
1239.0
 20
2202.0
 10
1239.0
 20
2478.0
 10
1652.0
 20
2478.0
  0
TEXT
  5
BC
330
17
100
AcDbEntity
  8
TESTI
100
AcDbText
 10
1445.5
 20
2340.0
 30
0.0
 40
90.0
  1
CU2(23)413x276CU2
 72
1
 11
1445.5
 21
2340.0
 31
0.0
100
AcDbText
 73
2
  0
LWPOLYLINE
  5
BD
330
17
100
AcDbEntity
  8
BLOCCHI_CUSTOM
100
AcDbPolyline
 90
5
 70
1
 10
2065.0
 20
2478.0
 10
2065.0
 20
2202.0
 10
1652.0
 20
2202.0
 10
1652.0
 20
2478.0
 10
2065.0
 20
2478.0
  0
TEXT
  5
BE
330
17
100
AcDbEntity
  8
TESTI
100
AcDbText
 10
1858.5
 20
2340.0
 30
0.0
 40
90.0
  1
CU2(24)413x276CU2
 72
1
 11
1858.5
 21
2340.0
 31
0.0
100
AcDbText
 73
2
  0
LWPOLYLINE
  5
BF
330
17
100
AcDbEntity
  8
BLOCCHI_CUSTOM
100
AcDbPolyline
 90
23
 70
1
 10
2478.0
 20
2478.0
 10
2478.0
 20
2065.0
 10
2202.0
 20
2065.0
 10
2202.0
 20
2200.0
 10
2201.9903694533446
 20
2200.196034280659
 10
2201.9615705608066
 20
2200.390180644032
 10
2201.9138806714645
 20
2200.580569354509
 10
2201.8477590650227
 20
2200.7653668647304
 10
2201.763842528697
 20
2200.942793473652
 10
2201.662939224605
 20
2201.111140466039
 10
2201.5460209067255
 20
2201.2687865683274
 10
2201.414213562373
 20
2201.414213562373
 10
2201.2687865683274
 20
2201.5460209067255
 10
2201.111140466039
 20
2201.662939224605
 10
2200.942793473652
 20
2201.763842528697
 10
2200.7653668647304
 20
2201.8477590650227
 10
2200.580569354509
 20
2201.9138806714645
 10
2200.390180644032
 20
2201.9615705608066
 10
2200.196034280659
 20
2201.9903694533446
 10
2200.0
 20
2202.0
 10
2065.0
 20
2202.0
 10
2065.0
 20
2478.0
 10
2478.0
 20
2478.0
  0
TEXT
  5
C0
330
17
100
AcDbEntity
  8
TESTI
100
AcDbText
 10
2271.5
 20
2271.5
 30
0.0
 40
90.0
  1
CU2(25)413x413CU2
 72
1
 11
2271.5
 21
2271.5
 31
0.0
100
AcDbText
 73
2
  0
LWPOLYLINE
  5
C1
330
17
100
AcDbEntity
  8
BLOCCHI_CUSTOM
100
AcDbPolyline
 90
5
 70
1
 10
2891.0
 20
2478.0
 10
2891.0
 20
2065.0
 10
2478.0
 20
2065.0
 10
2478.0
 20
2478.0
 10
2891.0
 20
2478.0
  0
TEXT
  5
C2
330
17
100
AcDbEntity
  8
TESTI
100
AcDbText
 10
2684.5
 20
2271.5
 30
0.0
 40
90.0
  1
CU2(26)413x413CU2
 72
1
 11
2684.5
 21
2271.5
 31
0.0
100
AcDbText
 73
2
  0
LWPOLYLINE
  5
C3
330
17
100
AcDbEntity
  8
BLOCCHI_CUSTOM
100
AcDbPolyline
 90
5
 70
1
 10
3304.0
 20
2478.0
 10
3304.0
 20
2065.0
 10
2891.0
 20
2065.0
 10
2891.0
 20
2478.0
 10
3304.0
 20
2478.0
  0
TEXT
  5
C4
330
17
100
AcDbEntity
  8
TESTI
100
AcDbText
 10
3097.5
 20
2271.5
 30
0.0
 40
90.0
  1
CU2(27)413x413CU2
 72
1
 11
3097.5
 21
2271.5
 31
0.0
100
AcDbText
 73
2
  0
LWPOLYLINE
  5
C5
330
17
100
AcDbEntity
  8
BLOCCHI_CUSTOM
100
AcDbPolyline
 90
5
 70
1
 10
5782.0
 20
2065.0
 10
5782.0
 20
2478.0
 10
6195.0
 20
2478.0
 10
6195.0
 20
2065.0
 10
5782.0
 20
2065.0
  0
TEXT
  5
C6
330
17
100
AcDbEntity
  8
TESTI
100
AcDbText
 10
5988.5
 20
2271.5
 30
0.0
 40
90.0
  1
CU2(28)413x413CU2
 72
1
 11
5988.5
 21
2271.5
 31
0.0
100
AcDbText
 73
2
  0
LWPOLYLINE
  5
C7
330
17
100
AcDbEntity
  8
BLOCCHI_CUSTOM
100
AcDbPolyline
 90
23
 70
1
 10
6499.609819355967
 20
2201.9615705608066
 10
6499.419430645491
 20
2201.9138806714645
 10
6499.23463313527
 20
2201.8477590650227
 10
6499.057206526348
 20
2201.763842528697
 10
6498.88885953396
 20
2201.662939224605
 10
6498.731213431673
 20
2201.5460209067255
 10
6498.585786437627
 20
2201.414213562373
 10
6498.453979093275
 20
2201.2687865683274
 10
6498.337060775395
 20
2201.111140466039
 10
6498.236157471303
 20
2200.942793473652
 10
6498.152240934977
 20
2200.7653668647304
 10
6498.0861193285355
 20
2200.580569354509
 10
6498.038429439193
 20
2200.390180644032
 10
6498.009630546656
 20
2200.196034280659
 10
6498.0
 20
2200.0
 10
6498.0
 20
2065.0
 10
6195.0
 20
2065.0
 10
6195.0
 20
2478.0
 10
6608.0
 20
2478.0
 10
6608.0
 20
2202.0
 10
6500.0
 20
2202.0
 10
6499.803965719341
 20
2201.9903694533446
 10
6499.609819355967
 20
2201.9615705608066
  0
TEXT
  5
C8
330
17
100
AcDbEntity
  8
TESTI
100
AcDbText
 10
6401.5
 20
2271.5
 30
0.0
 40
90.0
  1
CU2(29)413x413CU2
 72
1
 11
6401.5
 21
2271.5
 31
0.0
100
AcDbText
 73
2
  0
LWPOLYLINE
  5
C9
330
17
100
AcDbEntity
  8
BLOCCHI_CUSTOM
100
AcDbPolyline
 90
5
 70
1
 10
7021.0
 20
2478.0
 10
7021.0
 20
2202.0
 10
6608.0
 20
2202.0
 10
6608.0
 20
2478.0
 10
7021.0
 20
2478.0
  0
TEXT
  5
CA
330
17
100
AcDbEntity
  8
TESTI
100
AcDbText
 10
6814.5
 20
2340.0
 30
0.0
 40
90.0
  1
CU2(30)413x276CU2
 72
1
 11
6814.5
 21
2340.0
 31
0.0
100
AcDbText
 73
2
  0
LWPOLYLINE
  5
CB
330
17
100
AcDbEntity
  8
BLOCCHI_CUSTOM
100
AcDbPolyline
 90
23
 70
1
 10
7434.0
 20
2478.0
 10
7434.0
 20
2065.0
 10
7402.0
 20
2065.0
 10
7402.0
 20
2200.0
 10
7401.990369453344
 20
2200.196034280659
 10
7401.961570560807
 20
2200.390180644032
 10
7401.9138806714645
 20
2200.580569354509
 10
7401.847759065023
 20
2200.7653668647304
 10
7401.763842528697
 20
2200.942793473652
 10
7401.662939224605
 20
2201.111140466039
 10
7401.546020906725
 20
2201.2687865683274
 10
7401.414213562373
 20
2201.414213562373
 10
7401.268786568327
 20
2201.5460209067255
 10
7401.11114046604
 20
2201.662939224605
 10
7400.942793473652
 20
2201.763842528697
 10
7400.76536686473
 20
2201.8477590650227
 10
7400.580569354509
 20
2201.9138806714645
 10
7400.390180644033
 20
2201.9615705608066
 10
7400.196034280659
 20
2201.9903694533446
 10
7400.0
 20
2202.0
 10
7021.0
 20
2202.0
 10
7021.0
 20
2478.0
 10
7434.0
 20
2478.0
  0
TEXT
  5
CC
330
17
100
AcDbEntity
  8
TESTI
100
AcDbText
 10
7227.5
 20
2271.5
 30
0.0
 40
90.0
  1
CU2(31)413x413CU2
 72
1
 11
7227.5
 21
2271.5
 31
0.0
100
AcDbText
 73
2
  0
LWPOLYLINE
  5
CD
330
17
100
AcDbEntity
  8
BLOCCHI_CUSTOM
100
AcDbPolyline
 90
5
 70
1
 10
7847.0
 20
2478.0
 10
7847.0
 20
2065.0
 10
7434.0
 20
2065.0
 10
7434.0
 20
2478.0
 10
7847.0
 20
2478.0
  0
TEXT
  5
CE
330
17
100
AcDbEntity
  8
TESTI
100
AcDbText
 10
7640.5
 20
2271.5
 30
0.0
 40
90.0
  1
CU2(32)413x413CU2
 72
1
 11
7640.5
 21
2271.5
 31
0.0
100
AcDbText
 73
2
  0
LWPOLYLINE
  5
CF
330
17
100
AcDbEntity
  8
BLOCCHI_CUSTOM
100
AcDbPolyline
 90
5
 70
1
 10
8000.0
 20
2478.0
 10
8000.0
 20
2065.0
 10
7847.0
 20
2065.0
 10
7847.0
 20
2478.0
 10
8000.0
 20
2478.0
  0
TEXT
  5
D0
330
17
100
AcDbEntity
  8
TESTI
100
AcDbText
 10
7923.5
 20
2271.5
 30
0.0
 40
90.0
  1
CU2(33)153x413CU2
 72
1
 11
7923.5
 21
2271.5
 31
0.0
100
AcDbText
 73
2
  0
LWPOLYLINE
  5
D1
330
17
100
AcDbEntity
  8
BLOCCHI_CUSTOM
100
AcDbPolyline
 90
5
 70
1
 10
8000.0
 20
2891.0
 10
8000.0
 20
2478.0
 10
7847.0
 20
2478.0
 10
7847.0
 20
2891.0
 10
8000.0
 20
2891.0
  0
TEXT
  5
D2
330
17
100
AcDbEntity
  8
TESTI
100
AcDbText
 10
7923.5
 20
2684.5
 30
0.0
 40
90.0
  1
CU2(34)153x413CU2
 72
1
 11
7923.5
 21
2684.5
 31
0.0
100
AcDbText
 73
2
  0
DIMENSION
  5
D3
330
17
100
AcDbEntity
  8
QUOTE
100
AcDbDimension
280
0
  3
Standard
 10
0.0
 20
-300.0
 30
0.0
 70
32
 71
5
  1
8000
100
AcDbAlignedDimension
 13
0.0
 23
0.0
 33
0.0
 14
8000.0
 24
0.0
 34
0.0
 50
0.0
100
AcDbRotatedDimension
  0
DIMENSION
  5
D4
330
17
100
AcDbEntity
  8
QUOTE
100
AcDbDimension
280
0
  3
Standard
 10
-300.0
 20
0.0
 30
0.0
 70
32
 71
5
  1
3000
100
AcDbAlignedDimension
 13
0.0
 23
0.0
 33
0.0
 14
0.0
 24
3000.0
 34
0.0
 50
0.0
100
AcDbRotatedDimension
  0
TEXT
  5
D5
330
17
100
AcDbEntity
  8
TESTI
100
AcDbText
 10
4000.0
 20
3800.0
 30
0.0
 40
300.0
  1
LAYOUT PARETE PRINCIPALE
 72
1
 11
4000.0
 21
3800.0
 31
0.0
100
AcDbText
 73
2
  0
TEXT
  5
D6
330
17
100
AcDbEntity
  8
TESTI
100
AcDbText
 10
12700.0
 20
4200.0
 30
0.0
 40
250.0
  1
SCHEMA DI TAGLIO
 72
1
 11
12700.0
 21
4200.0
 31
0.0
100
AcDbText
 73
2
  0
TEXT
  5
D7
330
17
100
AcDbEntity
  8
TESTI
100
AcDbText
 10
12700.0
 20
3900.0
 30
0.0
 40
200.0
  1
PEZZI CUSTOM
 72
1
 11
12700.0
 21
3900.0
 31
0.0
100
AcDbText
 73
2
  0
LWPOLYLINE
  5
D8
330
17
100
AcDbEntity
  8
TAGLIO
100
AcDbPolyline
 90
5
 70
0
 10
9600.0
 20
2800.0
 10
10013.0
 20
2800.0
 10
10013.0
 20
1974.0
 10
9600.0
 20
1974.0
 10
9600.0
 20
2800.0
  0
TEXT
  5
D9
330
17
100
AcDbEntity
  8
TESTI
100
AcDbText
 10
9806.5
 20
2387.0
 30
0.0
 40
100.0
  1
CUX(2)
 72
1
 11
9806.5
 21
2387.0
 31
0.0
100
AcDbText
 73
2
  0
TEXT
  5
DA
330
17
100
AcDbEntity
  8
QUOTE
100
AcDbText
 10
9806.5
 20
2880.0
 30
0.0
 40
60.0
  1
413
 72
1
 11
9806.5
 21
2880.0
 31
0.0
100
AcDbText
 73
2
  0
LWPOLYLINE
  5
DB
330
17
100
AcDbEntity
  8
TAGLIO
100
AcDbPolyline
 90
5
 70
0
 10
10113.0
 20
2800.0
 10
10526.0
 20
2800.0
 10
10526.0
 20
1974.0
 10
10113.0
 20
1974.0
 10
10113.0
 20
2800.0
  0
TEXT
  5
DC
330
17
100
AcDbEntity
  8
TESTI
100
AcDbText
 10
10319.5
 20
2387.0
 30
0.0
 40
100.0
  1
CUX(3)
 72
1
 11
10319.5
 21
2387.0
 31
0.0
100
AcDbText
 73
2
  0
TEXT
  5
DD
330
17
100
AcDbEntity
  8
QUOTE
100
AcDbText
 10
10319.5
 20
2880.0
 30
0.0
 40
60.0
  1
413
 72
1
 11
10319.5
 21
2880.0
 31
0.0
100
AcDbText
 73
2
  0
LWPOLYLINE
  5
DE
330
17
100
AcDbEntity
  8
TAGLIO
100
AcDbPolyline
 90
5
 70
0
 10
10626.0
 20
2800.0
 10
11039.0
 20
2800.0
 10
11039.0
 20
1974.0
 10
10626.0
 20
1974.0
 10
10626.0
 20
2800.0
  0
TEXT
  5
DF
330
17
100
AcDbEntity
  8
TESTI
100
AcDbText
 10
10832.5
 20
2387.0
 30
0.0
 40
100.0
  1
CUX(4)
 72
1
 11
10832.5
 21
2387.0
 31
0.0
100
AcDbText
 73
2
  0
TEXT
  5
E0
330
17
100
AcDbEntity
  8
QUOTE
100
AcDbText
 10
10832.5
 20
2880.0
 30
0.0
 40
60.0
  1
413
 72
1
 11
10832.5
 21
2880.0
 31
0.0
100
AcDbText
 73
2
  0
LWPOLYLINE
  5
E1
330
17
100
AcDbEntity
  8
TAGLIO
100
AcDbPolyline
 90
5
 70
0
 10
11139.0
 20
2800.0
 10
11552.0
 20
2800.0
 10
11552.0
 20
1974.0
 10
11139.0
 20
1974.0
 10
11139.0
 20
2800.0
  0
TEXT
  5
E2
330
17
100
AcDbEntity
  8
TESTI
100
AcDbText
 10
11345.5
 20
2387.0
 30
0.0
 40
100.0
  1
CUX(5)
 72
1
 11
11345.5
 21
2387.0
 31
0.0
100
AcDbText
 73
2
  0
TEXT
  5
E3
330
17
100
AcDbEntity
  8
QUOTE
100
AcDbText
 10
11345.5
 20
2880.0
 30
0.0
 40
60.0
  1
413
 72
1
 11
11345.5
 21
2880.0
 31
0.0
100
AcDbText
 73
2
  0
LWPOLYLINE
  5
E4
330
17
100
AcDbEntity
  8
TAGLIO
100
AcDbPolyline
 90
5
 70
0
 10
11652.0
 20
2800.0
 10
11837.0
 20
2800.0
 10
11837.0
 20
1974.0
 10
11652.0
 20
1974.0
 10
11652.0
 20
2800.0
  0
TEXT
  5
E5
330
17
100
AcDbEntity
  8
TESTI
100
AcDbText
 10
11744.5
 20
2387.0
 30
0.0
 40
100.0
  1
CUX(7)
 72
1
 11
11744.5
 21
2387.0
 31
0.0
100
AcDbText
 73
2
  0
TEXT
  5
E6
330
17
100
AcDbEntity
  8
QUOTE
100
AcDbText
 10
11744.5
 20
2880.0
 30
0.0
 40
60.0
  1
185
 72
1
 11
11744.5
 21
2880.0
 31
0.0
100
AcDbText
 73
2
  0
LWPOLYLINE
  5
E7
330
17
100
AcDbEntity
  8
TAGLIO
100
AcDbPolyline
 90
5
 70
0
 10
11937.0
 20
2800.0
 10
12109.0
 20
2800.0
 10
12109.0
 20
1974.0
 10
11937.0
 20
1974.0
 10
11937.0
 20
2800.0
  0
TEXT
  5
E8
330
17
100
AcDbEntity
  8
TESTI
100
AcDbText
 10
12023.0
 20
2387.0
 30
0.0
 40
100.0
  1
CUX(1)
 72
1
 11
12023.0
 21
2387.0
 31
0.0
100
AcDbText
 73
2
  0
TEXT
  5
E9
330
17
100
AcDbEntity
  8
QUOTE
100
AcDbText
 10
12023.0
 20
2880.0
 30
0.0
 40
60.0
  1
172
 72
1
 11
12023.0
 21
2880.0
 31
0.0
100
AcDbText
 73
2
  0
LWPOLYLINE
  5
EA
330
17
100
AcDbEntity
  8
TAGLIO
100
AcDbPolyline
 90
5
 70
0
 10
12209.0
 20
2800.0
 10
12379.0
 20
2800.0
 10
12379.0
 20
1974.0
 10
12209.0
 20
1974.0
 10
12209.0
 20
2800.0
  0
TEXT
  5
EB
330
17
100
AcDbEntity
  8
TESTI
100
AcDbText
 10
12294.0
 20
2387.0
 30
0.0
 40
100.0
  1
CUX(6)
 72
1
 11
12294.0
 21
2387.0
 31
0.0
100
AcDbText
 73
2
  0
TEXT
  5
EC
330
17
100
AcDbEntity
  8
QUOTE
100
AcDbText
 10
12294.0
 20
2880.0
 30
0.0
 40
60.0
  1
170
 72
1
 11
12294.0
 21
2880.0
 31
0.0
100
AcDbText
 73
2
  0
LWPOLYLINE
  5
ED
330
17
100
AcDbEntity
  8
TAGLIO
100
AcDbPolyline
 90
5
 70
0
 10
9600.0
 20
1874.0
 10
10013.0
 20
1874.0
 10
10013.0
 20
1461.0
 10
9600.0
 20
1461.0
 10
9600.0
 20
1874.0
  0
TEXT
  5
EE
330
17
100
AcDbEntity
  8
TESTI
100
AcDbText
 10
9806.5
 20
1667.5
 30
0.0
 40
100.0
  1
CU2(5)
 72
1
 11
9806.5
 21
1667.5
 31
0.0
100
AcDbText
 73
2
  0
TEXT
  5
EF
330
17
100
AcDbEntity
  8
QUOTE
100
AcDbText
 10
9806.5
 20
1954.0
 30
0.0
 40
60.0
  1
413
 72
1
 11
9806.5
 21
1954.0
 31
0.0
100
AcDbText
 73
2
  0
LWPOLYLINE
  5
F0
330
17
100
AcDbEntity
  8
TAGLIO
100
AcDbPolyline
 90
5
 70
0
 10
10113.0
 20
1874.0
 10
10526.0
 20
1874.0
 10
10526.0
 20
1461.0
 10
10113.0
 20
1461.0
 10
10113.0
 20
1874.0
  0
TEXT
  5
F1
330
17
100
AcDbEntity
  8
TESTI
100
AcDbText
 10
10319.5
 20
1667.5
 30
0.0
 40
100.0
  1
CU2(8)
 72
1
 11
10319.5
 21
1667.5
 31
0.0
100
AcDbText
 73
2
  0
TEXT
  5
F2
330
17
100
AcDbEntity
  8
QUOTE
100
AcDbText
 10
10319.5
 20
1954.0
 30
0.0
 40
60.0
  1
413
 72
1
 11
10319.5
 21
1954.0
 31
0.0
100
AcDbText
 73
2
  0
LWPOLYLINE
  5
F3
330
17
100
AcDbEntity
  8
TAGLIO
100
AcDbPolyline
 90
5
 70
0
 10
10626.0
 20
1874.0
 10
11039.0
 20
1874.0
 10
11039.0
 20
1461.0
 10
10626.0
 20
1461.0
 10
10626.0
 20
1874.0
  0
TEXT
  5
F4
330
17
100
AcDbEntity
  8
TESTI
100
AcDbText
 10
10832.5
 20
1667.5
 30
0.0
 40
100.0
  1
CU2(9)
 72
1
 11
10832.5
 21
1667.5
 31
0.0
100
AcDbText
 73
2
  0
TEXT
  5
F5
330
17
100
AcDbEntity
  8
QUOTE
100
AcDbText
 10
10832.5
 20
1954.0
 30
0.0
 40
60.0
  1
413
 72
1
 11
10832.5
 21
1954.0
 31
0.0
100
AcDbText
 73
2
  0
LWPOLYLINE
  5
F6
330
17
100
AcDbEntity
  8
TAGLIO
100
AcDbPolyline
 90
5
 70
0
 10
11139.0
 20
1874.0
 10
11552.0
 20
1874.0
 10
11552.0
 20
1461.0
 10
11139.0
 20
1461.0
 10
11139.0
 20
1874.0
  0
TEXT
  5
F7
330
17
100
AcDbEntity
  8
TESTI
100
AcDbText
 10
11345.5
 20
1667.5
 30
0.0
 40
100.0
  1
CU2(10)
 72
1
 11
11345.5
 21
1667.5
 31
0.0
100
AcDbText
 73
2
  0
TEXT
  5
F8
330
17
100
AcDbEntity
  8
QUOTE
100
AcDbText
 10
11345.5
 20
1954.0
 30
0.0
 40
60.0
  1
413
 72
1
 11
11345.5
 21
1954.0
 31
0.0
100
AcDbText
 73
2
  0
LWPOLYLINE
  5
F9
330
17
100
AcDbEntity
  8
TAGLIO
100
AcDbPolyline
 90
5
 70
0
 10
11652.0
 20
1874.0
 10
12065.0
 20
1874.0
 10
12065.0
 20
1461.0
 10
11652.0
 20
1461.0
 10
11652.0
 20
1874.0
  0
TEXT
  5
FA
330
17
100
AcDbEntity
  8
TESTI
100
AcDbText
 10
11858.5
 20
1667.5
 30
0.0
 40
100.0
  1
CU2(17)
 72
1
 11
11858.5
 21
1667.5
 31
0.0
100
AcDbText
 73
2
  0
TEXT
  5
FB
330
17
100
AcDbEntity
  8
QUOTE
100
AcDbText
 10
11858.5
 20
1954.0
 30
0.0
 40
60.0
  1
413
 72
1
 11
11858.5
 21
1954.0
 31
0.0
100
AcDbText
 73
2
  0
LWPOLYLINE
  5
FC
330
17
100
AcDbEntity
  8
TAGLIO
100
AcDbPolyline
 90
5
 70
0
 10
12165.0
 20
1874.0
 10
12578.0
 20
1874.0
 10
12578.0
 20
1461.0
 10
12165.0
 20
1461.0
 10
12165.0
 20
1874.0
  0
TEXT
  5
FD
330
17
100
AcDbEntity
  8
TESTI
100
AcDbText
 10
12371.5
 20
1667.5
 30
0.0
 40
100.0
  1
CU2(20)
 72
1
 11
12371.5
 21
1667.5
 31
0.0
100
AcDbText
 73
2
  0
TEXT
  5
FE
330
17
100
AcDbEntity
  8
QUOTE
100
AcDbText
 10
12371.5
 20
1954.0
 30
0.0
 40
60.0
  1
413
 72
1
 11
12371.5
 21
1954.0
 31
0.0
100
AcDbText
 73
2
  0
LWPOLYLINE
  5
FF
330
17
100
AcDbEntity
  8
TAGLIO
100
AcDbPolyline
 90
5
 70
0
 10
12678.0
 20
1874.0
 10
13091.0
 20
1874.0
 10
13091.0
 20
1461.0
 10
12678.0
 20
1461.0
 10
12678.0
 20
1874.0
  0
TEXT
  5
100
330
17
100
AcDbEntity
  8
TESTI
100
AcDbText
 10
12884.5
 20
1667.5
 30
0.0
 40
100.0
  1
CU2(21)
 72
1
 11
12884.5
 21
1667.5
 31
0.0
100
AcDbText
 73
2
  0
TEXT
  5
101
330
17
100
AcDbEntity
  8
QUOTE
100
AcDbText
 10
12884.5
 20
1954.0
 30
0.0
 40
60.0
  1
413
 72
1
 11
12884.5
 21
1954.0
 31
0.0
100
AcDbText
 73
2
  0
LWPOLYLINE
  5
102
330
17
100
AcDbEntity
  8
TAGLIO
100
AcDbPolyline
 90
5
 70
0
 10
13191.0
 20
1874.0
 10
13604.0
 20
1874.0
 10
13604.0
 20
1461.0
 10
13191.0
 20
1461.0
 10
13191.0
 20
1874.0
  0
TEXT
  5
103
330
17
100
AcDbEntity
  8
TESTI
100
AcDbText
 10
13397.5
 20
1667.5
 30
0.0
 40
100.0
  1
CU2(22)
 72
1
 11
13397.5
 21
1667.5
 31
0.0
100
AcDbText
 73
2
  0
TEXT
  5
104
330
17
100
AcDbEntity
  8
QUOTE
100
AcDbText
 10
13397.5
 20
1954.0
 30
0.0
 40
60.0
  1
413
 72
1
 11
13397.5
 21
1954.0
 31
0.0
100
AcDbText
 73
2
  0
LWPOLYLINE
  5
105
330
17
100
AcDbEntity
  8
TAGLIO
100
AcDbPolyline
 90
5
 70
0
 10
13704.0
 20
1874.0
 10
14117.0
 20
1874.0
 10
14117.0
 20
1461.0
 10
13704.0
 20
1461.0
 10
13704.0
 20
1874.0
  0
TEXT
  5
106
330
17
100
AcDbEntity
  8
TESTI
100
AcDbText
 10
13910.5
 20
1667.5
 30
0.0
 40
100.0
  1
CU2(25)
 72
1
 11
13910.5
 21
1667.5
 31
0.0
100
AcDbText
 73
2
  0
TEXT
  5
107
330
17
100
AcDbEntity
  8
QUOTE
100
AcDbText
 10
13910.5
 20
1954.0
 30
0.0
 40
60.0
  1
413
 72
1
 11
13910.5
 21
1954.0
 31
0.0
100
AcDbText
 73
2
  0
LWPOLYLINE
  5
108
330
17
100
AcDbEntity
  8
TAGLIO
100
AcDbPolyline
 90
5
 70
0
 10
14217.0
 20
1874.0
 10
14630.0
 20
1874.0
 10
14630.0
 20
1461.0
 10
14217.0
 20
1461.0
 10
14217.0
 20
1874.0
  0
TEXT
  5
109
330
17
100
AcDbEntity
  8
TESTI
100
AcDbText
 10
14423.5
 20
1667.5
 30
0.0
 40
100.0
  1
CU2(26)
 72
1
 11
14423.5
 21
1667.5
 31
0.0
100
AcDbText
 73
2
  0
TEXT
  5
10A
330
17
100
AcDbEntity
  8
QUOTE
100
AcDbText
 10
14423.5
 20
1954.0
 30
0.0
 40
60.0
  1
413
 72
1
 11
14423.5
 21
1954.0
 31
0.0
100
AcDbText
 73
2
  0
LWPOLYLINE
  5
10B
330
17
100
AcDbEntity
  8
TAGLIO
100
AcDbPolyline
 90
5
 70
0
 10
14730.0
 20
1874.0
 10
15143.0
 20
1874.0
 10
15143.0
 20
1461.0
 10
14730.0
 20
1461.0
 10
14730.0
 20
1874.0
  0
TEXT
  5
10C
330
17
100
AcDbEntity
  8
TESTI
100
AcDbText
 10
14936.5
 20
1667.5
 30
0.0
 40
100.0
  1
CU2(27)
 72
1
 11
14936.5
 21
1667.5
 31
0.0
100
AcDbText
 73
2
  0
TEXT
  5
10D
330
17
100
AcDbEntity
  8
QUOTE
100
AcDbText
 10
14936.5
 20
1954.0
 30
0.0
 40
60.0
  1
413
 72
1
 11
14936.5
 21
1954.0
 31
0.0
100
AcDbText
 73
2
  0
LWPOLYLINE
  5
10E
330
17
100
AcDbEntity
  8
TAGLIO
100
AcDbPolyline
 90
5
 70
0
 10
15243.0
 20
1874.0
 10
15656.0
 20
1874.0
 10
15656.0
 20
1461.0
 10
15243.0
 20
1461.0
 10
15243.0
 20
1874.0
  0
TEXT
  5
10F
330
17
100
AcDbEntity
  8
TESTI
100
AcDbText
 10
15449.5
 20
1667.5
 30
0.0
 40
100.0
  1
CU2(28)
 72
1
 11
15449.5
 21
1667.5
 31
0.0
100
AcDbText
 73
2
  0
TEXT
  5
110
330
17
100
AcDbEntity
  8
QUOTE
100
AcDbText
 10
15449.5
 20
1954.0
 30
0.0
 40
60.0
  1
413
 72
1
 11
15449.5
 21
1954.0
 31
0.0
100
AcDbText
 73
2
  0
LWPOLYLINE
  5
111
330
17
100
AcDbEntity
  8
TAGLIO
100
AcDbPolyline
 90
5
 70
0
 10
9600.0
 20
1361.0
 10
10013.0
 20
1361.0
 10
10013.0
 20
1085.0
 10
9600.0
 20
1085.0
 10
9600.0
 20
1361.0
  0
TEXT
  5
112
330
17
100
AcDbEntity
  8
TESTI
100
AcDbText
 10
9806.5
 20
1223.0
 30
0.0
 40
100.0
  1
CU2(23)
 72
1
 11
9806.5
 21
1223.0
 31
0.0
100
AcDbText
 73
2
  0
TEXT
  5
113
330
17
100
AcDbEntity
  8
QUOTE
100
AcDbText
 10
9806.5
 20
1441.0
 30
0.0
 40
60.0
  1
413
 72
1
 11
9806.5
 21
1441.0
 31
0.0
100
AcDbText
 73
2
  0
LWPOLYLINE
  5
114
330
17
100
AcDbEntity
  8
TAGLIO
100
AcDbPolyline
 90
5
 70
0
 10
10113.0
 20
1361.0
 10
10526.0
 20
1361.0
 10
10526.0
 20
1085.0
 10
10113.0
 20
1085.0
 10
10113.0
 20
1361.0
  0
TEXT
  5
115
330
17
100
AcDbEntity
  8
TESTI
100
AcDbText
 10
10319.5
 20
1223.0
 30
0.0
 40
100.0
  1
CU2(24)
 72
1
 11
10319.5
 21
1223.0
 31
0.0
100
AcDbText
 73
2
  0
TEXT
  5
116
330
17
100
AcDbEntity
  8
QUOTE
100
AcDbText
 10
10319.5
 20
1441.0
 30
0.0
 40
60.0
  1
413
 72
1
 11
10319.5
 21
1441.0
 31
0.0
100
AcDbText
 73
2
  0
LWPOLYLINE
  5
117
330
17
100
AcDbEntity
  8
TAGLIO
100
AcDbPolyline
 90
5
 70
0
 10
10626.0
 20
1361.0
 10
11039.0
 20
1361.0
 10
11039.0
 20
1085.0
 10
10626.0
 20
1085.0
 10
10626.0
 20
1361.0
  0
TEXT
  5
118
330
17
100
AcDbEntity
  8
TESTI
100
AcDbText
 10
10832.5
 20
1223.0
 30
0.0
 40
100.0
  1
CU2(30)
 72
1
 11
10832.5
 21
1223.0
 31
0.0
100
AcDbText
 73
2
  0
TEXT
  5
119
330
17
100
AcDbEntity
  8
QUOTE
100
AcDbText
 10
10832.5
 20
1441.0
 30
0.0
 40
60.0
  1
413
 72
1
 11
10832.5
 21
1441.0
 31
0.0
100
AcDbText
 73
2
  0
LWPOLYLINE
  5
11A
330
17
100
AcDbEntity
  8
TAGLIO
100
AcDbPolyline
 90
5
 70
0
 10
9600.0
 20
985.0
 10
10013.0
 20
985.0
 10
10013.0
 20
922.0
 10
9600.0
 20
922.0
 10
9600.0
 20
985.0
  0
TEXT
  5
11B
330
17
100
AcDbEntity
  8
TESTI
100
AcDbText
 10
9806.5
 20
953.5
 30
0.0
 40
100.0
  1
CU2(18)
 72
1
 11
9806.5
 21
953.5
 31
0.0
100
AcDbText
 73
2
  0
TEXT
  5
11C
330
17
100
AcDbEntity
  8
QUOTE
100
AcDbText
 10
9806.5
 20
1065.0
 30
0.0
 40
60.0
  1
413
 72
1
 11
9806.5
 21
1065.0
 31
0.0
100
AcDbText
 73
2
  0
LWPOLYLINE
  5
11D
330
17
100
AcDbEntity
  8
TAGLIO
100
AcDbPolyline
 90
5
 70
0
 10
10113.0
 20
985.0
 10
10526.0
 20
985.0
 10
10526.0
 20
922.0
 10
10113.0
 20
922.0
 10
10113.0
 20
985.0
  0
TEXT
  5
11E
330
17
100
AcDbEntity
  8
TESTI
100
AcDbText
 10
10319.5
 20
953.5
 30
0.0
 40
100.0
  1
CU2(19)
 72
1
 11
10319.5
 21
953.5
 31
0.0
100
AcDbText
 73
2
  0
TEXT
  5
11F
330
17
100
AcDbEntity
  8
QUOTE
100
AcDbText
 10
10319.5
 20
1065.0
 30
0.0
 40
60.0
  1
413
 72
1
 11
10319.5
 21
1065.0
 31
0.0
100
AcDbText
 73
2
  0
TEXT
  5
120
330
17
100
AcDbEntity
  8
TESTI
100
AcDbText
 10
1900.0
 20
-1300.0
 30
0.0
 40
150.0
  1
BLOCCHI STANDARD
 72
1
 11
1900.0
 21
-1300.0
 31
0.0
100
AcDbText
 73
2
  0
LWPOLYLINE
  5
121
330
17
100
AcDbEntity
  8
CARTIGLIO
100
AcDbPolyline
 90
5
 70
0
 10
0.0
 20
-1500.0
 10
1520.0
 20
-1500.0
 10
1520.0
 20
-1700.0
 10
0.0
 20
-1700.0
 10
0.0
 20
-1500.0
  0
TEXT
  5
122
330
17
100
AcDbEntity
  8
TESTI
100
AcDbText
 10
760.0
 20
-1600.0
 30
0.0
 40
80.0
  1
TIPO
 72
1
 11
760.0
 21
-1600.0
 31
0.0
100
AcDbText
 73
2
  0
LWPOLYLINE
  5
123
330
17
100
AcDbEntity
  8
CARTIGLIO
100
AcDbPolyline
 90
5
 70
0
 10
1520.0
 20
-1500.0
 10
2280.0
 20
-1500.0
 10
2280.0
 20
-1700.0
 10
1520.0
 20
-1700.0
 10
1520.0
 20
-1500.0
  0
TEXT
  5
124
330
17
100
AcDbEntity
  8
TESTI
100
AcDbText
 10
1900.0
 20
-1600.0
 30
0.0
 40
80.0
  1
QT
 72
1
 11
1900.0
 21
-1600.0
 31
0.0
100
AcDbText
 73
2
  0
LWPOLYLINE
  5
125
330
17
100
AcDbEntity
  8
CARTIGLIO
100
AcDbPolyline
 90
5
 70
0
 10
2280.0
 20
-1500.0
 10
3800.0
 20
-1500.0
 10
3800.0
 20
-1700.0
 10
2280.0
 20
-1700.0
 10
2280.0
 20
-1500.0
  0
TEXT
  5
126
330
17
100
AcDbEntity
  8
TESTI
100
AcDbText
 10
3040.0
 20
-1600.0
 30
0.0
 40
80.0
  1
DIMENSIONI
 72
1
 11
3040.0
 21
-1600.0
 31
0.0
100
AcDbText
 73
2
  0
LWPOLYLINE
  5
127
330
17
100
AcDbEntity
  8
CARTIGLIO
100
AcDbPolyline
 90
5
 70
0
 10
0.0
 20
-1900.0
 10
1520.0
 20
-1900.0
 10
1520.0
 20
-2100.0
 10
0.0
 20
-2100.0
 10
0.0
 20
-1900.0
  0
TEXT
  5
128
330
17
100
AcDbEntity
  8
TESTI
100
AcDbText
 10
760.0
 20
-2000.0
 30
0.0
 40
70.0
  1
Tipo A
 72
1
 11
760.0
 21
-2000.0
 31
0.0
100
AcDbText
 73
2
  0
LWPOLYLINE
  5
129
330
17
100
AcDbEntity
  8
CARTIGLIO
100
AcDbPolyline
 90
5
 70
0
 10
1520.0
 20
-1900.0
 10
2280.0
 20
-1900.0
 10
2280.0
 20
-2100.0
 10
1520.0
 20
-2100.0
 10
1520.0
 20
-1900.0
  0
TEXT
  5
12A
330
17
100
AcDbEntity
  8
TESTI
100
AcDbText
 10
1900.0
 20
-2000.0
 30
0.0
 40
70.0
  1
13
 72
1
 11
1900.0
 21
-2000.0
 31
0.0
100
AcDbText
 73
2
  0
LWPOLYLINE
  5
12B
330
17
100
AcDbEntity
  8
CARTIGLIO
100
AcDbPolyline
 90
5
 70
0
 10
2280.0
 20
-1900.0
 10
3800.0
 20
-1900.0
 10
3800.0
 20
-2100.0
 10
2280.0
 20
-2100.0
 10
2280.0
 20
-1900.0
  0
TEXT
  5
12C
330
17
100
AcDbEntity
  8
TESTI
100
AcDbText
 10
3040.0
 20
-2000.0
 30
0.0
 40
70.0
  1
1239495
 72
1
 11
3040.0
 21
-2000.0
 31
0.0
100
AcDbText
 73
2
  0
LWPOLYLINE
  5
12D
330
17
100
AcDbEntity
  8
CARTIGLIO
100
AcDbPolyline
 90
5
 70
0
 10
0.0
 20
-2100.0
 10
1520.0
 20
-2100.0
 10
1520.0
 20
-2300.0
 10
0.0
 20
-2300.0
 10
0.0
 20
-2100.0
  0
TEXT
  5
12E
330
17
100
AcDbEntity
  8
TESTI
100
AcDbText
 10
760.0
 20
-2200.0
 30
0.0
 40
70.0
  1
Tipo B
 72
1
 11
760.0
 21
-2200.0
 31
0.0
100
AcDbText
 73
2
  0
LWPOLYLINE
  5
12F
330
17
100
AcDbEntity
  8
CARTIGLIO
100
AcDbPolyline
 90
5
 70
0
 10
1520.0
 20
-2100.0
 10
2280.0
 20
-2100.0
 10
2280.0
 20
-2300.0
 10
1520.0
 20
-2300.0
 10
1520.0
 20
-2100.0
  0
TEXT
  5
130
330
17
100
AcDbEntity
  8
TESTI
100
AcDbText
 10
1900.0
 20
-2200.0
 30
0.0
 40
70.0
  1
8
 72
1
 11
1900.0
 21
-2200.0
 31
0.0
100
AcDbText
 73
2
  0
LWPOLYLINE
  5
131
330
17
100
AcDbEntity
  8
CARTIGLIO
100
AcDbPolyline
 90
5
 70
0
 10
2280.0
 20
-2100.0
 10
3800.0
 20
-2100.0
 10
3800.0
 20
-2300.0
 10
2280.0
 20
-2300.0
 10
2280.0
 20
-2100.0
  0
TEXT
  5
132
330
17
100
AcDbEntity
  8
TESTI
100
AcDbText
 10
3040.0
 20
-2200.0
 30
0.0
 40
70.0
  1
826495
 72
1
 11
3040.0
 21
-2200.0
 31
0.0
100
AcDbText
 73
2
  0
LWPOLYLINE
  5
133
330
17
100
AcDbEntity
  8
CARTIGLIO
100
AcDbPolyline
 90
5
 70
0
 10
0.0
 20
-2300.0
 10
1520.0
 20
-2300.0
 10
1520.0
 20
-2500.0
 10
0.0
 20
-2500.0
 10
0.0
 20
-2300.0
  0
TEXT
  5
134
330
17
100
AcDbEntity
  8
TESTI
100
AcDbText
 10
760.0
 20
-2400.0
 30
0.0
 40
70.0
  1
Tipo C
 72
1
 11
760.0
 21
-2400.0
 31
0.0
100
AcDbText
 73
2
  0
LWPOLYLINE
  5
135
330
17
100
AcDbEntity
  8
CARTIGLIO
100
AcDbPolyline
 90
5
 70
0
 10
1520.0
 20
-2300.0
 10
2280.0
 20
-2300.0
 10
2280.0
 20
-2500.0
 10
1520.0
 20
-2500.0
 10
1520.0
 20
-2300.0
  0
TEXT
  5
136
330
17
100
AcDbEntity
  8
TESTI
100
AcDbText
 10
1900.0
 20
-2400.0
 30
0.0
 40
70.0
  1
11
 72
1
 11
1900.0
 21
-2400.0
 31
0.0
100
AcDbText
 73
2
  0
LWPOLYLINE
  5
137
330
17
100
AcDbEntity
  8
CARTIGLIO
100
AcDbPolyline
 90
5
 70
0
 10
2280.0
 20
-2300.0
 10
3800.0
 20
-2300.0
 10
3800.0
 20
-2500.0
 10
2280.0
 20
-2500.0
 10
2280.0
 20
-2300.0
  0
TEXT
  5
138
330
17
100
AcDbEntity
  8
TESTI
100
AcDbText
 10
3040.0
 20
-2400.0
 30
0.0
 40
70.0
  1
413495
 72
1
 11
3040.0
 21
-2400.0
 31
0.0
100
AcDbText
 73
2
  0
TEXT
  5
139
330
17
100
AcDbEntity
  8
TESTI
100
AcDbText
 10
5900.0
 20
-1300.0
 30
0.0
 40
150.0
  1
PEZZI CUSTOM
 72
1
 11
5900.0
 21
-1300.0
 31
0.0
100
AcDbText
 73
2
  0
LWPOLYLINE
  5
13A
330
17
100
AcDbEntity
  8
CARTIGLIO
100
AcDbPolyline
 90
5
 70
0
 10
4000.0
 20
-1500.0
 10
5140.0
 20
-1500.0
 10
5140.0
 20
-1700.0
 10
4000.0
 20
-1700.0
 10
4000.0
 20
-1500.0
  0
TEXT
  5
13B
330
17
100
AcDbEntity
  8
TESTI
100
AcDbText
 10
4570.0
 20
-1600.0
 30
0.0
 40
80.0
  1
ID
 72
1
 11
4570.0
 21
-1600.0
 31
0.0
100
AcDbText
 73
2
  0
LWPOLYLINE
  5
13C
330
17
100
AcDbEntity
  8
CARTIGLIO
100
AcDbPolyline
 90
5
 70
0
 10
5140.0
 20
-1500.0
 10
6280.0
 20
-1500.0
 10
6280.0
 20
-1700.0
 10
5140.0
 20
-1700.0
 10
5140.0
 20
-1500.0
  0
TEXT
  5
13D
330
17
100
AcDbEntity
  8
TESTI
100
AcDbText
 10
5710.0
 20
-1600.0
 30
0.0
 40
80.0
  1
TIPO
 72
1
 11
5710.0
 21
-1600.0
 31
0.0
100
AcDbText
 73
2
  0
LWPOLYLINE
  5
13E
330
17
100
AcDbEntity
  8
CARTIGLIO
100
AcDbPolyline
 90
5
 70
0
 10
6280.0
 20
-1500.0
 10
7800.0
 20
-1500.0
 10
7800.0
 20
-1700.0
 10
6280.0
 20
-1700.0
 10
6280.0
 20
-1500.0
  0
TEXT
  5
13F
330
17
100
AcDbEntity
  8
TESTI
100
AcDbText
 10
7040.0
 20
-1600.0
 30
0.0
 40
80.0
  1
DIM
 72
1
 11
7040.0
 21
-1600.0
 31
0.0
100
AcDbText
 73
2
  0
LWPOLYLINE
  5
140
330
17
100
AcDbEntity
  8
CARTIGLIO
100
AcDbPolyline
 90
5
 70
0
 10
4000.0
 20
-1700.0
 10
5140.0
 20
-1700.0
 10
5140.0
 20
-1900.0
 10
4000.0
 20
-1900.0
 10
4000.0
 20
-1700.0
  0
TEXT
  5
141
330
17
100
AcDbEntity
  8
TESTI
100
AcDbText
 10
4570.0
 20
-1800.0
 30
0.0
 40
70.0
  1
CU2(1)
 72
1
 11
4570.0
 21
-1800.0
 31
0.0
100
AcDbText
 73
2
  0
LWPOLYLINE
  5
142
330
17
100
AcDbEntity
  8
CARTIGLIO
100
AcDbPolyline
 90
5
 70
0
 10
5140.0
 20
-1700.0
 10
6280.0
 20
-1700.0
 10
6280.0
 20
-1900.0
 10
5140.0
 20
-1900.0
 10
5140.0
 20
-1700.0
  0
TEXT
  5
143
330
17
100
AcDbEntity
  8
TESTI
100
AcDbText
 10
5710.0
 20
-1800.0
 30
0.0
 40
70.0
  1
CU2
 72
1
 11
5710.0
 21
-1800.0
 31
0.0
100
AcDbText
 73
2
  0
LWPOLYLINE
  5
144
330
17
100
AcDbEntity
  8
CARTIGLIO
100
AcDbPolyline
 90
5
 70
0
 10
6280.0
 20
-1700.0
 10
7800.0
 20
-1700.0
 10
7800.0
 20
-1900.0
 10
6280.0
 20
-1900.0
 10
6280.0
 20
-1700.0
  0
TEXT
  5
145
330
17
100
AcDbEntity
  8
TESTI
100
AcDbText
 10
7040.0
 20
-1800.0
 30
0.0
 40
70.0
  1
172413
 72
1
 11
7040.0
 21
-1800.0
 31
0.0
100
AcDbText
 73
2
  0
LWPOLYLINE
  5
146
330
17
100
AcDbEntity
  8
CARTIGLIO
100
AcDbPolyline
 90
5
 70
0
 10
4000.0
 20
-1900.0
 10
5140.0
 20
-1900.0
 10
5140.0
 20
-2100.0
 10
4000.0
 20
-2100.0
 10
4000.0
 20
-1900.0
  0
TEXT
  5
147
330
17
100
AcDbEntity
  8
TESTI
100
AcDbText
 10
4570.0
 20
-2000.0
 30
0.0
 40
70.0
  1
CU2(2)
 72
1
 11
4570.0
 21
-2000.0
 31
0.0
100
AcDbText
 73
2
  0
LWPOLYLINE
  5
148
330
17
100
AcDbEntity
  8
CARTIGLIO
100
AcDbPolyline
 90
5
 70
0
 10
5140.0
 20
-1900.0
 10
6280.0
 20
-1900.0
 10
6280.0
 20
-2100.0
 10
5140.0
 20
-2100.0
 10
5140.0
 20
-1900.0
  0
TEXT
  5
149
330
17
100
AcDbEntity
  8
TESTI
100
AcDbText
 10
5710.0
 20
-2000.0
 30
0.0
 40
70.0
  1
CU2
 72
1
 11
5710.0
 21
-2000.0
 31
0.0
100
AcDbText
 73
2
  0
LWPOLYLINE
  5
14A
330
17
100
AcDbEntity
  8
CARTIGLIO
100
AcDbPolyline
 90
5
 70
0
 10
6280.0
 20
-1900.0
 10
7800.0
 20
-1900.0
 10
7800.0
 20
-2100.0
 10
6280.0
 20
-2100.0
 10
6280.0
 20
-1900.0
  0
TEXT
  5
14B
330
17
100
AcDbEntity
  8
TESTI
100
AcDbText
 10
7040.0
 20
-2000.0
 30
0.0
 40
70.0
  1
166413
 72
1
 11
7040.0
 21
-2000.0
 31
0.0
100
AcDbText
 73
2
  0
LWPOLYLINE
  5
14C
330
17
100
AcDbEntity
  8
CARTIGLIO
100
AcDbPolyline
 90
5
 70
0
 10
4000.0
 20
-2100.0
 10
5140.0
 20
-2100.0
 10
5140.0
 20
-2300.0
 10
4000.0
 20
-2300.0
 10
4000.0
 20
-2100.0
  0
TEXT
  5
14D
330
17
100
AcDbEntity
  8
TESTI
100
AcDbText
 10
4570.0
 20
-2200.0
 30
0.0
 40
70.0
  1
CU2(3)
 72
1
 11
4570.0
 21
-2200.0
 31
0.0
100
AcDbText
 73
2
  0
LWPOLYLINE
  5
14E
330
17
100
AcDbEntity
  8
CARTIGLIO
100
AcDbPolyline
 90
5
 70
0
 10
5140.0
 20
-2100.0
 10
6280.0
 20
-2100.0
 10
6280.0
 20
-2300.0
 10
5140.0
 20
-2300.0
 10
5140.0
 20
-2100.0
  0
TEXT
  5
14F
330
17
100
AcDbEntity
  8
TESTI
100
AcDbText
 10
5710.0
 20
-2200.0
 30
0.0
 40
70.0
  1
CU2
 72
1
 11
5710.0
 21
-2200.0
 31
0.0
100
AcDbText
 73
2
  0
LWPOLYLINE
  5
150
330
17
100
AcDbEntity
  8
CARTIGLIO
100
AcDbPolyline
 90
5
 70
0
 10
6280.0
 20
-2100.0
 10
7800.0
 20
-2100.0
 10
7800.0
 20
-2300.0
 10
6280.0
 20
-2300.0
 10
6280.0
 20
-2100.0
  0
TEXT
  5
151
330
17
100
AcDbEntity
  8
TESTI
100
AcDbText
 10
7040.0
 20
-2200.0
 30
0.0
 40
70.0
  1
185413
 72
1
 11
7040.0
 21
-2200.0
 31
0.0
100
AcDbText
 73
2
  0
LWPOLYLINE
  5
152
330
17
100
AcDbEntity
  8
CARTIGLIO
100
AcDbPolyline
 90
5
 70
0
 10
4000.0
 20
-2300.0
 10
5140.0
 20
-2300.0
 10
5140.0
 20
-2500.0
 10
4000.0
 20
-2500.0
 10
4000.0
 20
-2300.0
  0
TEXT
  5
153
330
17
100
AcDbEntity
  8
TESTI
100
AcDbText
 10
4570.0
 20
-2400.0
 30
0.0
 40
70.0
  1
CU2(4)
 72
1
 11
4570.0
 21
-2400.0
 31
0.0
100
AcDbText
 73
2
  0
LWPOLYLINE
  5
154
330
17
100
AcDbEntity
  8
CARTIGLIO
100
AcDbPolyline
 90
5
 70
0
 10
5140.0
 20
-2300.0
 10
6280.0
 20
-2300.0
 10
6280.0
 20
-2500.0
 10
5140.0
 20
-2500.0
 10
5140.0
 20
-2300.0
  0
TEXT
  5
155
330
17
100
AcDbEntity
  8
TESTI
100
AcDbText
 10
5710.0
 20
-2400.0
 30
0.0
 40
70.0
  1
CU2
 72
1
 11
5710.0
 21
-2400.0
 31
0.0
100
AcDbText
 73
2
  0
LWPOLYLINE
  5
156
330
17
100
AcDbEntity
  8
CARTIGLIO
100
AcDbPolyline
 90
5
 70
0
 10
6280.0
 20
-2300.0
 10
7800.0
 20
-2300.0
 10
7800.0
 20
-2500.0
 10
6280.0
 20
-2500.0
 10
6280.0
 20
-2300.0
  0
TEXT
  5
157
330
17
100
AcDbEntity
  8
TESTI
100
AcDbText
 10
7040.0
 20
-2400.0
 30
0.0
 40
70.0
  1
172413
 72
1
 11
7040.0
 21
-2400.0
 31
0.0
100
AcDbText
 73
2
  0
LWPOLYLINE
  5
158
330
17
100
AcDbEntity
  8
CARTIGLIO
100
AcDbPolyline
 90
5
 70
0
 10
4000.0
 20
-2500.0
 10
5140.0
 20
-2500.0
 10
5140.0
 20
-2700.0
 10
4000.0
 20
-2700.0
 10
4000.0
 20
-2500.0
  0
TEXT
  5
159
330
17
100
AcDbEntity
  8
TESTI
100
AcDbText
 10
4570.0
 20
-2600.0
 30
0.0
 40
70.0
  1
CU2(5)
 72
1
 11
4570.0
 21
-2600.0
 31
0.0
100
AcDbText
 73
2
  0
LWPOLYLINE
  5
15A
330
17
100
AcDbEntity
  8
CARTIGLIO
100
AcDbPolyline
 90
5
 70
0
 10
5140.0
 20
-2500.0
 10
6280.0
 20
-2500.0
 10
6280.0
 20
-2700.0
 10
5140.0
 20
-2700.0
 10
5140.0
 20
-2500.0
  0
TEXT
  5
15B
330
17
100
AcDbEntity
  8
TESTI
100
AcDbText
 10
5710.0
 20
-2600.0
 30
0.0
 40
70.0
  1
CU2
 72
1
 11
5710.0
 21
-2600.0
 31
0.0
100
AcDbText
 73
2
  0
LWPOLYLINE
  5
15C
330
17
100
AcDbEntity
  8
CARTIGLIO
100
AcDbPolyline
 90
5
 70
0
 10
6280.0
 20
-2500.0
 10
7800.0
 20
-2500.0
 10
7800.0
 20
-2700.0
 10
6280.0
 20
-2700.0
 10
6280.0
 20
-2500.0
  0
TEXT
  5
15D
330
17
100
AcDbEntity
  8
TESTI
100
AcDbText
 10
7040.0
 20
-2600.0
 30
0.0
 40
70.0
  1
413413
 72
1
 11
7040.0
 21
-2600.0
 31
0.0
100
AcDbText
 73
2
  0
LWPOLYLINE
  5
15E
330
17
100
AcDbEntity
  8
CARTIGLIO
100
AcDbPolyline
 90
5
 70
0
 10
4000.0
 20
-2700.0
 10
5140.0
 20
-2700.0
 10
5140.0
 20
-2900.0
 10
4000.0
 20
-2900.0
 10
4000.0
 20
-2700.0
  0
TEXT
  5
15F
330
17
100
AcDbEntity
  8
TESTI
100
AcDbText
 10
4570.0
 20
-2800.0
 30
0.0
 40
70.0
  1
CU2(6)
 72
1
 11
4570.0
 21
-2800.0
 31
0.0
100
AcDbText
 73
2
  0
LWPOLYLINE
  5
160
330
17
100
AcDbEntity
  8
CARTIGLIO
100
AcDbPolyline
 90
5
 70
0
 10
5140.0
 20
-2700.0
 10
6280.0
 20
-2700.0
 10
6280.0
 20
-2900.0
 10
5140.0
 20
-2900.0
 10
5140.0
 20
-2700.0
  0
TEXT
  5
161
330
17
100
AcDbEntity
  8
TESTI
100
AcDbText
 10
5710.0
 20
-2800.0
 30
0.0
 40
70.0
  1
CU2
 72
1
 11
5710.0
 21
-2800.0
 31
0.0
100
AcDbText
 73
2
  0
LWPOLYLINE
  5
162
330
17
100
AcDbEntity
  8
CARTIGLIO
100
AcDbPolyline
 90
5
 70
0
 10
6280.0
 20
-2700.0
 10
7800.0
 20
-2700.0
 10
7800.0
 20
-2900.0
 10
6280.0
 20
-2900.0
 10
6280.0
 20
-2700.0
  0
TEXT
  5
163
330
17
100
AcDbEntity
  8
TESTI
100
AcDbText
 10
7040.0
 20
-2800.0
 30
0.0
 40
70.0
  1
413385
 72
1
 11
7040.0
 21
-2800.0
 31
0.0
100
AcDbText
 73
2
  0
LWPOLYLINE
  5
164
330
17
100
AcDbEntity
  8
CARTIGLIO
100
AcDbPolyline
 90
5
 70
0
 10
4000.0
 20
-2900.0
 10
5140.0
 20
-2900.0
 10
5140.0
 20
-3100.0
 10
4000.0
 20
-3100.0
 10
4000.0
 20
-2900.0
  0
TEXT
  5
165
330
17
100
AcDbEntity
  8
TESTI
100
AcDbText
 10
4570.0
 20
-3000.0
 30
0.0
 40
70.0
  1
CU2(7)
 72
1
 11
4570.0
 21
-3000.0
 31
0.0
100
AcDbText
 73
2
  0
LWPOLYLINE
  5
166
330
17
100
AcDbEntity
  8
CARTIGLIO
100
AcDbPolyline
 90
5
 70
0
 10
5140.0
 20
-2900.0
 10
6280.0
 20
-2900.0
 10
6280.0
 20
-3100.0
 10
5140.0
 20
-3100.0
 10
5140.0
 20
-2900.0
  0
TEXT
  5
167
330
17
100
AcDbEntity
  8
TESTI
100
AcDbText
 10
5710.0
 20
-3000.0
 30
0.0
 40
70.0
  1
CU2
 72
1
 11
5710.0
 21
-3000.0
 31
0.0
100
AcDbText
 73
2
  0
LWPOLYLINE
  5
168
330
17
100
AcDbEntity
  8
CARTIGLIO
100
AcDbPolyline
 90
5
 70
0
 10
6280.0
 20
-2900.0
 10
7800.0
 20
-2900.0
 10
7800.0
 20
-3100.0
 10
6280.0
 20
-3100.0
 10
6280.0
 20
-2900.0
  0
TEXT
  5
169
330
17
100
AcDbEntity
  8
TESTI
100
AcDbText
 10
7040.0
 20
-3000.0
 30
0.0
 40
70.0
  1
413385
 72
1
 11
7040.0
 21
-3000.0
 31
0.0
100
AcDbText
 73
2
  0
LWPOLYLINE
  5
16A
330
17
100
AcDbEntity
  8
CARTIGLIO
100
AcDbPolyline
 90
5
 70
0
 10
4000.0
 20
-3100.0
 10
5140.0
 20
-3100.0
 10
5140.0
 20
-3300.0
 10
4000.0
 20
-3300.0
 10
4000.0
 20
-3100.0
  0
TEXT
  5
16B
330
17
100
AcDbEntity
  8
TESTI
100
AcDbText
 10
4570.0
 20
-3200.0
 30
0.0
 40
70.0
  1
CU2(8)
 72
1
 11
4570.0
 21
-3200.0
 31
0.0
100
AcDbText
 73
2
  0
LWPOLYLINE
  5
16C
330
17
100
AcDbEntity
  8
CARTIGLIO
100
AcDbPolyline
 90
5
 70
0
 10
5140.0
 20
-3100.0
 10
6280.0
 20
-3100.0
 10
6280.0
 20
-3300.0
 10
5140.0
 20
-3300.0
 10
5140.0
 20
-3100.0
  0
TEXT
  5
16D
330
17
100
AcDbEntity
  8
TESTI
100
AcDbText
 10
5710.0
 20
-3200.0
 30
0.0
 40
70.0
  1
CU2
 72
1
 11
5710.0
 21
-3200.0
 31
0.0
100
AcDbText
 73
2
  0
LWPOLYLINE
  5
16E
330
17
100
AcDbEntity
  8
CARTIGLIO
100
AcDbPolyline
 90
5
 70
0
 10
6280.0
 20
-3100.0
 10
7800.0
 20
-3100.0
 10
7800.0
 20
-3300.0
 10
6280.0
 20
-3300.0
 10
6280.0
 20
-3100.0
  0
TEXT
  5
16F
330
17
100
AcDbEntity
  8
TESTI
100
AcDbText
 10
7040.0
 20
-3200.0
 30
0.0
 40
70.0
  1
413413
 72
1
 11
7040.0
 21
-3200.0
 31
0.0
100
AcDbText
 73
2
  0
LWPOLYLINE
  5
170
330
17
100
AcDbEntity
  8
CARTIGLIO
100
AcDbPolyline
 90
5
 70
0
 10
4000.0
 20
-3300.0
 10
5140.0
 20
-3300.0
 10
5140.0
 20
-3500.0
 10
4000.0
 20
-3500.0
 10
4000.0
 20
-3300.0
  0
TEXT
  5
171
330
17
100
AcDbEntity
  8
TESTI
100
AcDbText
 10
4570.0
 20
-3400.0
 30
0.0
 40
70.0
  1
CU2(9)
 72
1
 11
4570.0
 21
-3400.0
 31
0.0
100
AcDbText
 73
2
  0
LWPOLYLINE
  5
172
330
17
100
AcDbEntity
  8
CARTIGLIO
100
AcDbPolyline
 90
5
 70
0
 10
5140.0
 20
-3300.0
 10
6280.0
 20
-3300.0
 10
6280.0
 20
-3500.0
 10
5140.0
 20
-3500.0
 10
5140.0
 20
-3300.0
  0
TEXT
  5
173
330
17
100
AcDbEntity
  8
TESTI
100
AcDbText
 10
5710.0
 20
-3400.0
 30
0.0
 40
70.0
  1
CU2
 72
1
 11
5710.0
 21
-3400.0
 31
0.0
100
AcDbText
 73
2
  0
LWPOLYLINE
  5
174
330
17
100
AcDbEntity
  8
CARTIGLIO
100
AcDbPolyline
 90
5
 70
0
 10
6280.0
 20
-3300.0
 10
7800.0
 20
-3300.0
 10
7800.0
 20
-3500.0
 10
6280.0
 20
-3500.0
 10
6280.0
 20
-3300.0
  0
TEXT
  5
175
330
17
100
AcDbEntity
  8
TESTI
100
AcDbText
 10
7040.0
 20
-3400.0
 30
0.0
 40
70.0
  1
413413
 72
1
 11
7040.0
 21
-3400.0
 31
0.0
100
AcDbText
 73
2
  0
LWPOLYLINE
  5
176
330
17
100
AcDbEntity
  8
CARTIGLIO
100
AcDbPolyline
 90
5
 70
0
 10
4000.0
 20
-3500.0
 10
5140.0
 20
-3500.0
 10
5140.0
 20
-3700.0
 10
4000.0
 20
-3700.0
 10
4000.0
 20
-3500.0
  0
TEXT
  5
177
330
17
100
AcDbEntity
  8
TESTI
100
AcDbText
 10
4570.0
 20
-3600.0
 30
0.0
 40
70.0
  1
CU2(10)
 72
1
 11
4570.0
 21
-3600.0
 31
0.0
100
AcDbText
 73
2
  0
LWPOLYLINE
  5
178
330
17
100
AcDbEntity
  8
CARTIGLIO
100
AcDbPolyline
 90
5
 70
0
 10
5140.0
 20
-3500.0
 10
6280.0
 20
-3500.0
 10
6280.0
 20
-3700.0
 10
5140.0
 20
-3700.0
 10
5140.0
 20
-3500.0
  0
TEXT
  5
179
330
17
100
AcDbEntity
  8
TESTI
100
AcDbText
 10
5710.0
 20
-3600.0
 30
0.0
 40
70.0
  1
CU2
 72
1
 11
5710.0
 21
-3600.0
 31
0.0
100
AcDbText
 73
2
  0
LWPOLYLINE
  5
17A
330
17
100
AcDbEntity
  8
CARTIGLIO
100
AcDbPolyline
 90
5
 70
0
 10
6280.0
 20
-3500.0
 10
7800.0
 20
-3500.0
 10
7800.0
 20
-3700.0
 10
6280.0
 20
-3700.0
 10
6280.0
 20
-3500.0
  0
TEXT
  5
17B
330
17
100
AcDbEntity
  8
TESTI
100
AcDbText
 10
7040.0
 20
-3600.0
 30
0.0
 40
70.0
  1
413413
 72
1
 11
7040.0
 21
-3600.0
 31
0.0
100
AcDbText
 73
2
  0
LWPOLYLINE
  5
17C
330
17
100
AcDbEntity
  8
CARTIGLIO
100
AcDbPolyline
 90
5
 70
0
 10
4000.0
 20
-3700.0
 10
5140.0
 20
-3700.0
 10
5140.0
 20
-3900.0
 10
4000.0
 20
-3900.0
 10
4000.0
 20
-3700.0
  0
TEXT
  5
17D
330
17
100
AcDbEntity
  8
TESTI
100
AcDbText
 10
4570.0
 20
-3800.0
 30
0.0
 40
70.0
  1
CU2(11)
 72
1
 11
4570.0
 21
-3800.0
 31
0.0
100
AcDbText
 73
2
  0
LWPOLYLINE
  5
17E
330
17
100
AcDbEntity
  8
CARTIGLIO
100
AcDbPolyline
 90
5
 70
0
 10
5140.0
 20
-3700.0
 10
6280.0
 20
-3700.0
 10
6280.0
 20
-3900.0
 10
5140.0
 20
-3900.0
 10
5140.0
 20
-3700.0
  0
TEXT
  5
17F
330
17
100
AcDbEntity
  8
TESTI
100
AcDbText
 10
5710.0
 20
-3800.0
 30
0.0
 40
70.0
  1
CU2
 72
1
 11
5710.0
 21
-3800.0
 31
0.0
100
AcDbText
 73
2
  0
LWPOLYLINE
  5
180
330
17
100
AcDbEntity
  8
CARTIGLIO
100
AcDbPolyline
 90
5
 70
0
 10
6280.0
 20
-3700.0
 10
7800.0
 20
-3700.0
 10
7800.0
 20
-3900.0
 10
6280.0
 20
-3900.0
 10
6280.0
 20
-3700.0
  0
TEXT
  5
181
330
17
100
AcDbEntity
  8
TESTI
100
AcDbText
 10
7040.0
 20
-3800.0
 30
0.0
 40
70.0
  1
166413
 72
1
 11
7040.0
 21
-3800.0
 31
0.0
100
AcDbText
 73
2
  0
LWPOLYLINE
  5
182
330
17
100
AcDbEntity
  8
CARTIGLIO
100
AcDbPolyline
 90
5
 70
0
 10
4000.0
 20
-3900.0
 10
5140.0
 20
-3900.0
 10
5140.0
 20
-4100.0
 10
4000.0
 20
-4100.0
 10
4000.0
 20
-3900.0
  0
TEXT
  5
183
330
17
100
AcDbEntity
  8
TESTI
100
AcDbText
 10
4570.0
 20
-4000.0
 30
0.0
 40
70.0
  1
CU2(12)
 72
1
 11
4570.0
 21
-4000.0
 31
0.0
100
AcDbText
 73
2
  0
LWPOLYLINE
  5
184
330
17
100
AcDbEntity
  8
CARTIGLIO
100
AcDbPolyline
 90
5
 70
0
 10
5140.0
 20
-3900.0
 10
6280.0
 20
-3900.0
 10
6280.0
 20
-4100.0
 10
5140.0
 20
-4100.0
 10
5140.0
 20
-3900.0
  0
TEXT
  5
185
330
17
100
AcDbEntity
  8
TESTI
100
AcDbText
 10
5710.0
 20
-4000.0
 30
0.0
 40
70.0
  1
CU2
 72
1
 11
5710.0
 21
-4000.0
 31
0.0
100
AcDbText
 73
2
  0
LWPOLYLINE
  5
186
330
17
100
AcDbEntity
  8
CARTIGLIO
100
AcDbPolyline
 90
5
 70
0
 10
6280.0
 20
-3900.0
 10
7800.0
 20
-3900.0
 10
7800.0
 20
-4100.0
 10
6280.0
 20
-4100.0
 10
6280.0
 20
-3900.0
  0
TEXT
  5
187
330
17
100
AcDbEntity
  8
TESTI
100
AcDbText
 10
7040.0
 20
-4000.0
 30
0.0
 40
70.0
  1
185413
 72
1
 11
7040.0
 21
-4000.0
 31
0.0
100
AcDbText
 73
2
  0
LWPOLYLINE
  5
188
330
17
100
AcDbEntity
  8
CARTIGLIO
100
AcDbPolyline
 90
5
 70
0
 10
4000.0
 20
-4100.0
 10
5140.0
 20
-4100.0
 10
5140.0
 20
-4300.0
 10
4000.0
 20
-4300.0
 10
4000.0
 20
-4100.0
  0
TEXT
  5
189
330
17
100
AcDbEntity
  8
TESTI
100
AcDbText
 10
4570.0
 20
-4200.0
 30
0.0
 40
70.0
  1
CU2(13)
 72
1
 11
4570.0
 21
-4200.0
 31
0.0
100
AcDbText
 73
2
  0
LWPOLYLINE
  5
18A
330
17
100
AcDbEntity
  8
CARTIGLIO
100
AcDbPolyline
 90
5
 70
0
 10
5140.0
 20
-4100.0
 10
6280.0
 20
-4100.0
 10
6280.0
 20
-4300.0
 10
5140.0
 20
-4300.0
 10
5140.0
 20
-4100.0
  0
TEXT
  5
18B
330
17
100
AcDbEntity
  8
TESTI
100
AcDbText
 10
5710.0
 20
-4200.0
 30
0.0
 40
70.0
  1
CU2
 72
1
 11
5710.0
 21
-4200.0
 31
0.0
100
AcDbText
 73
2
  0
LWPOLYLINE
  5
18C
330
17
100
AcDbEntity
  8
CARTIGLIO
100
AcDbPolyline
 90
5
 70
0
 10
6280.0
 20
-4100.0
 10
7800.0
 20
-4100.0
 10
7800.0
 20
-4300.0
 10
6280.0
 20
-4300.0
 10
6280.0
 20
-4100.0
  0
TEXT
  5
18D
330
17
100
AcDbEntity
  8
TESTI
100
AcDbText
 10
7040.0
 20
-4200.0
 30
0.0
 40
70.0
  1
172413
 72
1
 11
7040.0
 21
-4200.0
 31
0.0
100
AcDbText
 73
2
  0
LWPOLYLINE
  5
18E
330
17
100
AcDbEntity
  8
CARTIGLIO
100
AcDbPolyline
 90
5
 70
0
 10
4000.0
 20
-4300.0
 10
5140.0
 20
-4300.0
 10
5140.0
 20
-4500.0
 10
4000.0
 20
-4500.0
 10
4000.0
 20
-4300.0
  0
TEXT
  5
18F
330
17
100
AcDbEntity
  8
TESTI
100
AcDbText
 10
4570.0
 20
-4400.0
 30
0.0
 40
70.0
  1
CU2(14)
 72
1
 11
4570.0
 21
-4400.0
 31
0.0
100
AcDbText
 73
2
  0
LWPOLYLINE
  5
190
330
17
100
AcDbEntity
  8
CARTIGLIO
100
AcDbPolyline
 90
5
 70
0
 10
5140.0
 20
-4300.0
 10
6280.0
 20
-4300.0
 10
6280.0
 20
-4500.0
 10
5140.0
 20
-4500.0
 10
5140.0
 20
-4300.0
  0
TEXT
  5
191
330
17
100
AcDbEntity
  8
TESTI
100
AcDbText
 10
5710.0
 20
-4400.0
 30
0.0
 40
70.0
  1
CU2
 72
1
 11
5710.0
 21
-4400.0
 31
0.0
100
AcDbText
 73
2
  0
LWPOLYLINE
  5
192
330
17
100
AcDbEntity
  8
CARTIGLIO
100
AcDbPolyline
 90
5
 70
0
 10
6280.0
 20
-4300.0
 10
7800.0
 20
-4300.0
 10
7800.0
 20
-4500.0
 10
6280.0
 20
-4500.0
 10
6280.0
 20
-4300.0
  0
TEXT
  5
193
330
17
100
AcDbEntity
  8
TESTI
100
AcDbText
 10
7040.0
 20
-4400.0
 30
0.0
 40
70.0
  1
144413
 72
1
 11
7040.0
 21
-4400.0
 31
0.0
100
AcDbText
 73
2
  0
LWPOLYLINE
  5
194
330
17
100
AcDbEntity
  8
CARTIGLIO
100
AcDbPolyline
 90
5
 70
0
 10
4000.0
 20
-4500.0
 10
5140.0
 20
-4500.0
 10
5140.0
 20
-4700.0
 10
4000.0
 20
-4700.0
 10
4000.0
 20
-4500.0
  0
TEXT
  5
195
330
17
100
AcDbEntity
  8
TESTI
100
AcDbText
 10
4570.0
 20
-4600.0
 30
0.0
 40
70.0
  1
CU2(15)
 72
1
 11
4570.0
 21
-4600.0
 31
0.0
100
AcDbText
 73
2
  0
LWPOLYLINE
  5
196
330
17
100
AcDbEntity
  8
CARTIGLIO
100
AcDbPolyline
 90
5
 70
0
 10
5140.0
 20
-4500.0
 10
6280.0
 20
-4500.0
 10
6280.0
 20
-4700.0
 10
5140.0
 20
-4700.0
 10
5140.0
 20
-4500.0
  0
TEXT
  5
197
330
17
100
AcDbEntity
  8
TESTI
100
AcDbText
 10
5710.0
 20
-4600.0
 30
0.0
 40
70.0
  1
CU2
 72
1
 11
5710.0
 21
-4600.0
 31
0.0
100
AcDbText
 73
2
  0
LWPOLYLINE
  5
198
330
17
100
AcDbEntity
  8
CARTIGLIO
100
AcDbPolyline
 90
5
 70
0
 10
6280.0
 20
-4500.0
 10
7800.0
 20
-4500.0
 10
7800.0
 20
-4700.0
 10
6280.0
 20
-4700.0
 10
6280.0
 20
-4500.0
  0
TEXT
  5
199
330
17
100
AcDbEntity
  8
TESTI
100
AcDbText
 10
7040.0
 20
-4600.0
 30
0.0
 40
70.0
  1
170413
 72
1
 11
7040.0
 21
-4600.0
 31
0.0
100
AcDbText
 73
2
  0
LWPOLYLINE
  5
19A
330
17
100
AcDbEntity
  8
CARTIGLIO
100
AcDbPolyline
 90
5
 70
0
 10
4000.0
 20
-4700.0
 10
5140.0
 20
-4700.0
 10
5140.0
 20
-4900.0
 10
4000.0
 20
-4900.0
 10
4000.0
 20
-4700.0
  0
TEXT
  5
19B
330
17
100
AcDbEntity
  8
TESTI
100
AcDbText
 10
4570.0
 20
-4800.0
 30
0.0
 40
70.0
  1
CU2(16)
 72
1
 11
4570.0
 21
-4800.0
 31
0.0
100
AcDbText
 73
2
  0
LWPOLYLINE
  5
19C
330
17
100
AcDbEntity
  8
CARTIGLIO
100
AcDbPolyline
 90
5
 70
0
 10
5140.0
 20
-4700.0
 10
6280.0
 20
-4700.0
 10
6280.0
 20
-4900.0
 10
5140.0
 20
-4900.0
 10
5140.0
 20
-4700.0
  0
TEXT
  5
19D
330
17
100
AcDbEntity
  8
TESTI
100
AcDbText
 10
5710.0
 20
-4800.0
 30
0.0
 40
70.0
  1
CU2
 72
1
 11
5710.0
 21
-4800.0
 31
0.0
100
AcDbText
 73
2
  0
LWPOLYLINE
  5
19E
330
17
100
AcDbEntity
  8
CARTIGLIO
100
AcDbPolyline
 90
5
 70
0
 10
6280.0
 20
-4700.0
 10
7800.0
 20
-4700.0
 10
7800.0
 20
-4900.0
 10
6280.0
 20
-4900.0
 10
6280.0
 20
-4700.0
  0
TEXT
  5
19F
330
17
100
AcDbEntity
  8
TESTI
100
AcDbText
 10
7040.0
 20
-4800.0
 30
0.0
 40
70.0
  1
185413
 72
1
 11
7040.0
 21
-4800.0
 31
0.0
100
AcDbText
 73
2
  0
LWPOLYLINE
  5
1A0
330
17
100
AcDbEntity
  8
CARTIGLIO
100
AcDbPolyline
 90
5
 70
0
 10
4000.0
 20
-4900.0
 10
5140.0
 20
-4900.0
 10
5140.0
 20
-5100.0
 10
4000.0
 20
-5100.0
 10
4000.0
 20
-4900.0
  0
TEXT
  5
1A1
330
17
100
AcDbEntity
  8
TESTI
100
AcDbText
 10
4570.0
 20
-5000.0
 30
0.0
 40
70.0
  1
CUX(1)
 72
1
 11
4570.0
 21
-5000.0
 31
0.0
100
AcDbText
 73
2
  0
LWPOLYLINE
  5
1A2
330
17
100
AcDbEntity
  8
CARTIGLIO
100
AcDbPolyline
 90
5
 70
0
 10
5140.0
 20
-4900.0
 10
6280.0
 20
-4900.0
 10
6280.0
 20
-5100.0
 10
5140.0
 20
-5100.0
 10
5140.0
 20
-4900.0
  0
TEXT
  5
1A3
330
17
100
AcDbEntity
  8
TESTI
100
AcDbText
 10
5710.0
 20
-5000.0
 30
0.0
 40
70.0
  1
CUout_of_spec
 72
1
 11
5710.0
 21
-5000.0
 31
0.0
100
AcDbText
 73
2
  0
LWPOLYLINE
  5
1A4
330
17
100
AcDbEntity
  8
CARTIGLIO
100
AcDbPolyline
 90
5
 70
0
 10
6280.0
 20
-4900.0
 10
7800.0
 20
-4900.0
 10
7800.0
 20
-5100.0
 10
6280.0
 20
-5100.0
 10
6280.0
 20
-4900.0
  0
TEXT
  5
1A5
330
17
100
AcDbEntity
  8
TESTI
100
AcDbText
 10
7040.0
 20
-5000.0
 30
0.0
 40
70.0
  1
172826
 72
1
 11
7040.0
 21
-5000.0
 31
0.0
100
AcDbText
 73
2
  0
LWPOLYLINE
  5
1A6
330
17
100
AcDbEntity
  8
CARTIGLIO
100
AcDbPolyline
 90
5
 70
0
 10
4000.0
 20
-5100.0
 10
5140.0
 20
-5100.0
 10
5140.0
 20
-5300.0
 10
4000.0
 20
-5300.0
 10
4000.0
 20
-5100.0
  0
TEXT
  5
1A7
330
17
100
AcDbEntity
  8
TESTI
100
AcDbText
 10
4570.0
 20
-5200.0
 30
0.0
 40
70.0
  1
CU2(17)
 72
1
 11
4570.0
 21
-5200.0
 31
0.0
100
AcDbText
 73
2
  0
LWPOLYLINE
  5
1A8
330
17
100
AcDbEntity
  8
CARTIGLIO
100
AcDbPolyline
 90
5
 70
0
 10
5140.0
 20
-5100.0
 10
6280.0
 20
-5100.0
 10
6280.0
 20
-5300.0
 10
5140.0
 20
-5300.0
 10
5140.0
 20
-5100.0
  0
TEXT
  5
1A9
330
17
100
AcDbEntity
  8
TESTI
100
AcDbText
 10
5710.0
 20
-5200.0
 30
0.0
 40
70.0
  1
CU2
 72
1
 11
5710.0
 21
-5200.0
 31
0.0
100
AcDbText
 73
2
  0
LWPOLYLINE
  5
1AA
330
17
100
AcDbEntity
  8
CARTIGLIO
100
AcDbPolyline
 90
5
 70
0
 10
6280.0
 20
-5100.0
 10
7800.0
 20
-5100.0
 10
7800.0
 20
-5300.0
 10
6280.0
 20
-5300.0
 10
6280.0
 20
-5100.0
  0
TEXT
  5
1AB
330
17
100
AcDbEntity
  8
TESTI
100
AcDbText
 10
7040.0
 20
-5200.0
 30
0.0
 40
70.0
  1
413413
 72
1
 11
7040.0
 21
-5200.0
 31
0.0
100
AcDbText
 73
2
  0
LWPOLYLINE
  5
1AC
330
17
100
AcDbEntity
  8
CARTIGLIO
100
AcDbPolyline
 90
5
 70
0
 10
4000.0
 20
-5300.0
 10
5140.0
 20
-5300.0
 10
5140.0
 20
-5500.0
 10
4000.0
 20
-5500.0
 10
4000.0
 20
-5300.0
  0
TEXT
  5
1AD
330
17
100
AcDbEntity
  8
TESTI
100
AcDbText
 10
4570.0
 20
-5400.0
 30
0.0
 40
70.0
  1
CUX(2)
 72
1
 11
4570.0
 21
-5400.0
 31
0.0
100
AcDbText
 73
2
  0
LWPOLYLINE
  5
1AE
330
17
100
AcDbEntity
  8
CARTIGLIO
100
AcDbPolyline
 90
5
 70
0
 10
5140.0
 20
-5300.0
 10
6280.0
 20
-5300.0
 10
6280.0
 20
-5500.0
 10
5140.0
 20
-5500.0
 10
5140.0
 20
-5300.0
  0
TEXT
  5
1AF
330
17
100
AcDbEntity
  8
TESTI
100
AcDbText
 10
5710.0
 20
-5400.0
 30
0.0
 40
70.0
  1
CUout_of_spec
 72
1
 11
5710.0
 21
-5400.0
 31
0.0
100
AcDbText
 73
2
  0
LWPOLYLINE
  5
1B0
330
17
100
AcDbEntity
  8
CARTIGLIO
100
AcDbPolyline
 90
5
 70
0
 10
6280.0
 20
-5300.0
 10
7800.0
 20
-5300.0
 10
7800.0
 20
-5500.0
 10
6280.0
 20
-5500.0
 10
6280.0
 20
-5300.0
  0
TEXT
  5
1B1
330
17
100
AcDbEntity
  8
TESTI
100
AcDbText
 10
7040.0
 20
-5400.0
 30
0.0
 40
70.0
  1
413826
 72
1
 11
7040.0
 21
-5400.0
 31
0.0
100
AcDbText
 73
2
  0
LWPOLYLINE
  5
1B2
330
17
100
AcDbEntity
  8
CARTIGLIO
100
AcDbPolyline
 90
5
 70
0
 10
4000.0
 20
-5500.0
 10
5140.0
 20
-5500.0
 10
5140.0
 20
-5700.0
 10
4000.0
 20
-5700.0
 10
4000.0
 20
-5500.0
  0
TEXT
  5
1B3
330
17
100
AcDbEntity
  8
TESTI
100
AcDbText
 10
4570.0
 20
-5600.0
 30
0.0
 40
70.0
  1
CUX(3)
 72
1
 11
4570.0
 21
-5600.0
 31
0.0
100
AcDbText
 73
2
  0
LWPOLYLINE
  5
1B4
330
17
100
AcDbEntity
  8
CARTIGLIO
100
AcDbPolyline
 90
5
 70
0
 10
5140.0
 20
-5500.0
 10
6280.0
 20
-5500.0
 10
6280.0
 20
-5700.0
 10
5140.0
 20
-5700.0
 10
5140.0
 20
-5500.0
  0
TEXT
  5
1B5
330
17
100
AcDbEntity
  8
TESTI
100
AcDbText
 10
5710.0
 20
-5600.0
 30
0.0
 40
70.0
  1
CUout_of_spec
 72
1
 11
5710.0
 21
-5600.0
 31
0.0
100
AcDbText
 73
2
  0
LWPOLYLINE
  5
1B6
330
17
100
AcDbEntity
  8
CARTIGLIO
100
AcDbPolyline
 90
5
 70
0
 10
6280.0
 20
-5500.0
 10
7800.0
 20
-5500.0
 10
7800.0
 20
-5700.0
 10
6280.0
 20
-5700.0
 10
6280.0
 20
-5500.0
  0
TEXT
  5
1B7
330
17
100
AcDbEntity
  8
TESTI
100
AcDbText
 10
7040.0
 20
-5600.0
 30
0.0
 40
70.0
  1
413826
 72
1
 11
7040.0
 21
-5600.0
 31
0.0
100
AcDbText
 73
2
  0
LWPOLYLINE
  5
1B8
330
17
100
AcDbEntity
  8
CARTIGLIO
100
AcDbPolyline
 90
5
 70
0
 10
4000.0
 20
-5700.0
 10
5140.0
 20
-5700.0
 10
5140.0
 20
-5900.0
 10
4000.0
 20
-5900.0
 10
4000.0
 20
-5700.0
  0
TEXT
  5
1B9
330
17
100
AcDbEntity
  8
TESTI
100
AcDbText
 10
4570.0
 20
-5800.0
 30
0.0
 40
70.0
  1
CUX(4)
 72
1
 11
4570.0
 21
-5800.0
 31
0.0
100
AcDbText
 73
2
  0
LWPOLYLINE
  5
1BA
330
17
100
AcDbEntity
  8
CARTIGLIO
100
AcDbPolyline
 90
5
 70
0
 10
5140.0
 20
-5700.0
 10
6280.0
 20
-5700.0
 10
6280.0
 20
-5900.0
 10
5140.0
 20
-5900.0
 10
5140.0
 20
-5700.0
  0
TEXT
  5
1BB
330
17
100
AcDbEntity
  8
TESTI
100
AcDbText
 10
5710.0
 20
-5800.0
 30
0.0
 40
70.0
  1
CUout_of_spec
 72
1
 11
5710.0
 21
-5800.0
 31
0.0
100
AcDbText
 73
2
  0
LWPOLYLINE
  5
1BC
330
17
100
AcDbEntity
  8
CARTIGLIO
100
AcDbPolyline
 90
5
 70
0
 10
6280.0
 20
-5700.0
 10
7800.0
 20
-5700.0
 10
7800.0
 20
-5900.0
 10
6280.0
 20
-5900.0
 10
6280.0
 20
-5700.0
  0
TEXT
  5
1BD
330
17
100
AcDbEntity
  8
TESTI
100
AcDbText
 10
7040.0
 20
-5800.0
 30
0.0
 40
70.0
  1
413826
 72
1
 11
7040.0
 21
-5800.0
 31
0.0
100
AcDbText
 73
2
  0
LWPOLYLINE
  5
1BE
330
17
100
AcDbEntity
  8
CARTIGLIO
100
AcDbPolyline
 90
5
 70
0
 10
4000.0
 20
-5900.0
 10
5140.0
 20
-5900.0
 10
5140.0
 20
-6100.0
 10
4000.0
 20
-6100.0
 10
4000.0
 20
-5900.0
  0
TEXT
  5
1BF
330
17
100
AcDbEntity
  8
TESTI
100
AcDbText
 10
4570.0
 20
-6000.0
 30
0.0
 40
70.0
  1
CUX(5)
 72
1
 11
4570.0
 21
-6000.0
 31
0.0
100
AcDbText
 73
2
  0
LWPOLYLINE
  5
1C0
330
17
100
AcDbEntity
  8
CARTIGLIO
100
AcDbPolyline
 90
5
 70
0
 10
5140.0
 20
-5900.0
 10
6280.0
 20
-5900.0
 10
6280.0
 20
-6100.0
 10
5140.0
 20
-6100.0
 10
5140.0
 20
-5900.0
  0
TEXT
  5
1C1
330
17
100
AcDbEntity
  8
TESTI
100
AcDbText
 10
5710.0
 20
-6000.0
 30
0.0
 40
70.0
  1
CUout_of_spec
 72
1
 11
5710.0
 21
-6000.0
 31
0.0
100
AcDbText
 73
2
  0
LWPOLYLINE
  5
1C2
330
17
100
AcDbEntity
  8
CARTIGLIO
100
AcDbPolyline
 90
5
 70
0
 10
6280.0
 20
-5900.0
 10
7800.0
 20
-5900.0
 10
7800.0
 20
-6100.0
 10
6280.0
 20
-6100.0
 10
6280.0
 20
-5900.0
  0
TEXT
  5
1C3
330
17
100
AcDbEntity
  8
TESTI
100
AcDbText
 10
7040.0
 20
-6000.0
 30
0.0
 40
70.0
  1
413826
 72
1
 11
7040.0
 21
-6000.0
 31
0.0
100
AcDbText
 73
2
  0
LWPOLYLINE
  5
1C4
330
17
100
AcDbEntity
  8
CARTIGLIO
100
AcDbPolyline
 90
5
 70
0
 10
4000.0
 20
-6100.0
 10
5140.0
 20
-6100.0
 10
5140.0
 20
-6300.0
 10
4000.0
 20
-6300.0
 10
4000.0
 20
-6100.0
  0
TEXT
  5
1C5
330
17
100
AcDbEntity
  8
TESTI
100
AcDbText
 10
4570.0
 20
-6200.0
 30
0.0
 40
70.0
  1
CU2(18)
 72
1
 11
4570.0
 21
-6200.0
 31
0.0
100
AcDbText
 73
2
  0
LWPOLYLINE
  5
1C6
330
17
100
AcDbEntity
  8
CARTIGLIO
100
AcDbPolyline
 90
5
 70
0
 10
5140.0
 20
-6100.0
 10
6280.0
 20
-6100.0
 10
6280.0
 20
-6300.0
 10
5140.0
 20
-6300.0
 10
5140.0
 20
-6100.0
  0
TEXT
  5
1C7
330
17
100
AcDbEntity
  8
TESTI
100
AcDbText
 10
5710.0
 20
-6200.0
 30
0.0
 40
70.0
  1
CU2
 72
1
 11
5710.0
 21
-6200.0
 31
0.0
100
AcDbText
 73
2
  0
LWPOLYLINE
  5
1C8
330
17
100
AcDbEntity
  8
CARTIGLIO
100
AcDbPolyline
 90
5
 70
0
 10
6280.0
 20
-6100.0
 10
7800.0
 20
-6100.0
 10
7800.0
 20
-6300.0
 10
6280.0
 20
-6300.0
 10
6280.0
 20
-6100.0
  0
TEXT
  5
1C9
330
17
100
AcDbEntity
  8
TESTI
100
AcDbText
 10
7040.0
 20
-6200.0
 30
0.0
 40
70.0
  1
41363
 72
1
 11
7040.0
 21
-6200.0
 31
0.0
100
AcDbText
 73
2
  0
LWPOLYLINE
  5
1CA
330
17
100
AcDbEntity
  8
CARTIGLIO
100
AcDbPolyline
 90
5
 70
0
 10
4000.0
 20
-6300.0
 10
5140.0
 20
-6300.0
 10
5140.0
 20
-6500.0
 10
4000.0
 20
-6500.0
 10
4000.0
 20
-6300.0
  0
TEXT
  5
1CB
330
17
100
AcDbEntity
  8
TESTI
100
AcDbText
 10
4570.0
 20
-6400.0
 30
0.0
 40
70.0
  1
CU2(19)
 72
1
 11
4570.0
 21
-6400.0
 31
0.0
100
AcDbText
 73
2
  0
LWPOLYLINE
  5
1CC
330
17
100
AcDbEntity
  8
CARTIGLIO
100
AcDbPolyline
 90
5
 70
0
 10
5140.0
 20
-6300.0
 10
6280.0
 20
-6300.0
 10
6280.0
 20
-6500.0
 10
5140.0
 20
-6500.0
 10
5140.0
 20
-6300.0
  0
TEXT
  5
1CD
330
17
100
AcDbEntity
  8
TESTI
100
AcDbText
 10
5710.0
 20
-6400.0
 30
0.0
 40
70.0
  1
CU2
 72
1
 11
5710.0
 21
-6400.0
 31
0.0
100
AcDbText
 73
2
  0
LWPOLYLINE
  5
1CE
330
17
100
AcDbEntity
  8
CARTIGLIO
100
AcDbPolyline
 90
5
 70
0
 10
6280.0
 20
-6300.0
 10
7800.0
 20
-6300.0
 10
7800.0
 20
-6500.0
 10
6280.0
 20
-6500.0
 10
6280.0
 20
-6300.0
  0
TEXT
  5
1CF
330
17
100
AcDbEntity
  8
TESTI
100
AcDbText
 10
7040.0
 20
-6400.0
 30
0.0
 40
70.0
  1
41363
 72
1
 11
7040.0
 21
-6400.0
 31
0.0
100
AcDbText
 73
2
  0
LWPOLYLINE
  5
1D0
330
17
100
AcDbEntity
  8
CARTIGLIO
100
AcDbPolyline
 90
5
 70
0
 10
4000.0
 20
-6500.0
 10
5140.0
 20
-6500.0
 10
5140.0
 20
-6700.0
 10
4000.0
 20
-6700.0
 10
4000.0
 20
-6500.0
  0
TEXT
  5
1D1
330
17
100
AcDbEntity
  8
TESTI
100
AcDbText
 10
4570.0
 20
-6600.0
 30
0.0
 40
70.0
  1
CU2(20)
 72
1
 11
4570.0
 21
-6600.0
 31
0.0
100
AcDbText
 73
2
  0
LWPOLYLINE
  5
1D2
330
17
100
AcDbEntity
  8
CARTIGLIO
100
AcDbPolyline
 90
5
 70
0
 10
5140.0
 20
-6500.0
 10
6280.0
 20
-6500.0
 10
6280.0
 20
-6700.0
 10
5140.0
 20
-6700.0
 10
5140.0
 20
-6500.0
  0
TEXT
  5
1D3
330
17
100
AcDbEntity
  8
TESTI
100
AcDbText
 10
5710.0
 20
-6600.0
 30
0.0
 40
70.0
  1
CU2
 72
1
 11
5710.0
 21
-6600.0
 31
0.0
100
AcDbText
 73
2
  0
LWPOLYLINE
  5
1D4
330
17
100
AcDbEntity
  8
CARTIGLIO
100
AcDbPolyline
 90
5
 70
0
 10
6280.0
 20
-6500.0
 10
7800.0
 20
-6500.0
 10
7800.0
 20
-6700.0
 10
6280.0
 20
-6700.0
 10
6280.0
 20
-6500.0
  0
TEXT
  5
1D5
330
17
100
AcDbEntity
  8
TESTI
100
AcDbText
 10
7040.0
 20
-6600.0
 30
0.0
 40
70.0
  1
413413
 72
1
 11
7040.0
 21
-6600.0
 31
0.0
100
AcDbText
 73
2
  0
LWPOLYLINE
  5
1D6
330
17
100
AcDbEntity
  8
CARTIGLIO
100
AcDbPolyline
 90
5
 70
0
 10
4000.0
 20
-6700.0
 10
5140.0
 20
-6700.0
 10
5140.0
 20
-6900.0
 10
4000.0
 20
-6900.0
 10
4000.0
 20
-6700.0
  0
TEXT
  5
1D7
330
17
100
AcDbEntity
  8
TESTI
100
AcDbText
 10
4570.0
 20
-6800.0
 30
0.0
 40
70.0
  1
CU2(21)
 72
1
 11
4570.0
 21
-6800.0
 31
0.0
100
AcDbText
 73
2
  0
LWPOLYLINE
  5
1D8
330
17
100
AcDbEntity
  8
CARTIGLIO
100
AcDbPolyline
 90
5
 70
0
 10
5140.0
 20
-6700.0
 10
6280.0
 20
-6700.0
 10
6280.0
 20
-6900.0
 10
5140.0
 20
-6900.0
 10
5140.0
 20
-6700.0
  0
TEXT
  5
1D9
330
17
100
AcDbEntity
  8
TESTI
100
AcDbText
 10
5710.0
 20
-6800.0
 30
0.0
 40
70.0
  1
CU2
 72
1
 11
5710.0
 21
-6800.0
 31
0.0
100
AcDbText
 73
2
  0
LWPOLYLINE
  5
1DA
330
17
100
AcDbEntity
  8
CARTIGLIO
100
AcDbPolyline
 90
5
 70
0
 10
6280.0
 20
-6700.0
 10
7800.0
 20
-6700.0
 10
7800.0
 20
-6900.0
 10
6280.0
 20
-6900.0
 10
6280.0
 20
-6700.0
  0
TEXT
  5
1DB
330
17
100
AcDbEntity
  8
TESTI
100
AcDbText
 10
7040.0
 20
-6800.0
 30
0.0
 40
70.0
  1
413413
 72
1
 11
7040.0
 21
-6800.0
 31
0.0
100
AcDbText
 73
2
  0
LWPOLYLINE
  5
1DC
330
17
100
AcDbEntity
  8
CARTIGLIO
100
AcDbPolyline
 90
5
 70
0
 10
4000.0
 20
-6900.0
 10
5140.0
 20
-6900.0
 10
5140.0
 20
-7100.0
 10
4000.0
 20
-7100.0
 10
4000.0
 20
-6900.0
  0
TEXT
  5
1DD
330
17
100
AcDbEntity
  8
TESTI
100
AcDbText
 10
4570.0
 20
-7000.0
 30
0.0
 40
70.0
  1
CUX(6)
 72
1
 11
4570.0
 21
-7000.0
 31
0.0
100
AcDbText
 73
2
  0
LWPOLYLINE
  5
1DE
330
17
100
AcDbEntity
  8
CARTIGLIO
100
AcDbPolyline
 90
5
 70
0
 10
5140.0
 20
-6900.0
 10
6280.0
 20
-6900.0
 10
6280.0
 20
-7100.0
 10
5140.0
 20
-7100.0
 10
5140.0
 20
-6900.0
  0
TEXT
  5
1DF
330
17
100
AcDbEntity
  8
TESTI
100
AcDbText
 10
5710.0
 20
-7000.0
 30
0.0
 40
70.0
  1
CUout_of_spec
 72
1
 11
5710.0
 21
-7000.0
 31
0.0
100
AcDbText
 73
2
  0
LWPOLYLINE
  5
1E0
330
17
100
AcDbEntity
  8
CARTIGLIO
100
AcDbPolyline
 90
5
 70
0
 10
6280.0
 20
-6900.0
 10
7800.0
 20
-6900.0
 10
7800.0
 20
-7100.0
 10
6280.0
 20
-7100.0
 10
6280.0
 20
-6900.0
  0
TEXT
  5
1E1
330
17
100
AcDbEntity
  8
TESTI
100
AcDbText
 10
7040.0
 20
-7000.0
 30
0.0
 40
70.0
  1
170826
 72
1
 11
7040.0
 21
-7000.0
 31
0.0
100
AcDbText
 73
2
  0
LWPOLYLINE
  5
1E2
330
17
100
AcDbEntity
  8
CARTIGLIO
100
AcDbPolyline
 90
5
 70
0
 10
4000.0
 20
-7100.0
 10
5140.0
 20
-7100.0
 10
5140.0
 20
-7300.0
 10
4000.0
 20
-7300.0
 10
4000.0
 20
-7100.0
  0
TEXT
  5
1E3
330
17
100
AcDbEntity
  8
TESTI
100
AcDbText
 10
4570.0
 20
-7200.0
 30
0.0
 40
70.0
  1
CUX(7)
 72
1
 11
4570.0
 21
-7200.0
 31
0.0
100
AcDbText
 73
2
  0
LWPOLYLINE
  5
1E4
330
17
100
AcDbEntity
  8
CARTIGLIO
100
AcDbPolyline
 90
5
 70
0
 10
5140.0
 20
-7100.0
 10
6280.0
 20
-7100.0
 10
6280.0
 20
-7300.0
 10
5140.0
 20
-7300.0
 10
5140.0
 20
-7100.0
  0
TEXT
  5
1E5
330
17
100
AcDbEntity
  8
TESTI
100
AcDbText
 10
5710.0
 20
-7200.0
 30
0.0
 40
70.0
  1
CUout_of_spec
 72
1
 11
5710.0
 21
-7200.0
 31
0.0
100
AcDbText
 73
2
  0
LWPOLYLINE
  5
1E6
330
17
100
AcDbEntity
  8
CARTIGLIO
100
AcDbPolyline
 90
5
 70
0
 10
6280.0
 20
-7100.0
 10
7800.0
 20
-7100.0
 10
7800.0
 20
-7300.0
 10
6280.0
 20
-7300.0
 10
6280.0
 20
-7100.0
  0
TEXT
  5
1E7
330
17
100
AcDbEntity
  8
TESTI
100
AcDbText
 10
7040.0
 20
-7200.0
 30
0.0
 40
70.0
  1
185826
 72
1
 11
7040.0
 21
-7200.0
 31
0.0
100
AcDbText
 73
2
  0
LWPOLYLINE
  5
1E8
330
17
100
AcDbEntity
  8
CARTIGLIO
100
AcDbPolyline
 90
5
 70
0
 10
4000.0
 20
-7300.0
 10
5140.0
 20
-7300.0
 10
5140.0
 20
-7500.0
 10
4000.0
 20
-7500.0
 10
4000.0
 20
-7300.0
  0
TEXT
  5
1E9
330
17
100
AcDbEntity
  8
TESTI
100
AcDbText
 10
4570.0
 20
-7400.0
 30
0.0
 40
70.0
  1
CU2(22)
 72
1
 11
4570.0
 21
-7400.0
 31
0.0
100
AcDbText
 73
2
  0
LWPOLYLINE
  5
1EA
330
17
100
AcDbEntity
  8
CARTIGLIO
100
AcDbPolyline
 90
5
 70
0
 10
5140.0
 20
-7300.0
 10
6280.0
 20
-7300.0
 10
6280.0
 20
-7500.0
 10
5140.0
 20
-7500.0
 10
5140.0
 20
-7300.0
  0
TEXT
  5
1EB
330
17
100
AcDbEntity
  8
TESTI
100
AcDbText
 10
5710.0
 20
-7400.0
 30
0.0
 40
70.0
  1
CU2
 72
1
 11
5710.0
 21
-7400.0
 31
0.0
100
AcDbText
 73
2
  0
LWPOLYLINE
  5
1EC
330
17
100
AcDbEntity
  8
CARTIGLIO
100
AcDbPolyline
 90
5
 70
0
 10
6280.0
 20
-7300.0
 10
7800.0
 20
-7300.0
 10
7800.0
 20
-7500.0
 10
6280.0
 20
-7500.0
 10
6280.0
 20
-7300.0
  0
TEXT
  5
1ED
330
17
100
AcDbEntity
  8
TESTI
100
AcDbText
 10
7040.0
 20
-7400.0
 30
0.0
 40
70.0
  1
413413
 72
1
 11
7040.0
 21
-7400.0
 31
0.0
100
AcDbText
 73
2
  0
LWPOLYLINE
  5
1EE
330
17
100
AcDbEntity
  8
CARTIGLIO
100
AcDbPolyline
 90
5
 70
0
 10
4000.0
 20
-7500.0
 10
5140.0
 20
-7500.0
 10
5140.0
 20
-7700.0
 10
4000.0
 20
-7700.0
 10
4000.0
 20
-7500.0
  0
TEXT
  5
1EF
330
17
100
AcDbEntity
  8
TESTI
100
AcDbText
 10
4570.0
 20
-7600.0
 30
0.0
 40
70.0
  1
CU2(23)
 72
1
 11
4570.0
 21
-7600.0
 31
0.0
100
AcDbText
 73
2
  0
LWPOLYLINE
  5
1F0
330
17
100
AcDbEntity
  8
CARTIGLIO
100
AcDbPolyline
 90
5
 70
0
 10
5140.0
 20
-7500.0
 10
6280.0
 20
-7500.0
 10
6280.0
 20
-7700.0
 10
5140.0
 20
-7700.0
 10
5140.0
 20
-7500.0
  0
TEXT
  5
1F1
330
17
100
AcDbEntity
  8
TESTI
100
AcDbText
 10
5710.0
 20
-7600.0
 30
0.0
 40
70.0
  1
CU2
 72
1
 11
5710.0
 21
-7600.0
 31
0.0
100
AcDbText
 73
2
  0
LWPOLYLINE
  5
1F2
330
17
100
AcDbEntity
  8
CARTIGLIO
100
AcDbPolyline
 90
5
 70
0
 10
6280.0
 20
-7500.0
 10
7800.0
 20
-7500.0
 10
7800.0
 20
-7700.0
 10
6280.0
 20
-7700.0
 10
6280.0
 20
-7500.0
  0
TEXT
  5
1F3
330
17
100
AcDbEntity
  8
TESTI
100
AcDbText
 10
7040.0
 20
-7600.0
 30
0.0
 40
70.0
  1
413276
 72
1
 11
7040.0
 21
-7600.0
 31
0.0
100
AcDbText
 73
2
  0
LWPOLYLINE
  5
1F4
330
17
100
AcDbEntity
  8
CARTIGLIO
100
AcDbPolyline
 90
5
 70
0
 10
4000.0
 20
-7700.0
 10
5140.0
 20
-7700.0
 10
5140.0
 20
-7900.0
 10
4000.0
 20
-7900.0
 10
4000.0
 20
-7700.0
  0
TEXT
  5
1F5
330
17
100
AcDbEntity
  8
TESTI
100
AcDbText
 10
4570.0
 20
-7800.0
 30
0.0
 40
70.0
  1
CU2(24)
 72
1
 11
4570.0
 21
-7800.0
 31
0.0
100
AcDbText
 73
2
  0
LWPOLYLINE
  5
1F6
330
17
100
AcDbEntity
  8
CARTIGLIO
100
AcDbPolyline
 90
5
 70
0
 10
5140.0
 20
-7700.0
 10
6280.0
 20
-7700.0
 10
6280.0
 20
-7900.0
 10
5140.0
 20
-7900.0
 10
5140.0
 20
-7700.0
  0
TEXT
  5
1F7
330
17
100
AcDbEntity
  8
TESTI
100
AcDbText
 10
5710.0
 20
-7800.0
 30
0.0
 40
70.0
  1
CU2
 72
1
 11
5710.0
 21
-7800.0
 31
0.0
100
AcDbText
 73
2
  0
LWPOLYLINE
  5
1F8
330
17
100
AcDbEntity
  8
CARTIGLIO
100
AcDbPolyline
 90
5
 70
0
 10
6280.0
 20
-7700.0
 10
7800.0
 20
-7700.0
 10
7800.0
 20
-7900.0
 10
6280.0
 20
-7900.0
 10
6280.0
 20
-7700.0
  0
TEXT
  5
1F9
330
17
100
AcDbEntity
  8
TESTI
100
AcDbText
 10
7040.0
 20
-7800.0
 30
0.0
 40
70.0
  1
413276
 72
1
 11
7040.0
 21
-7800.0
 31
0.0
100
AcDbText
 73
2
  0
LWPOLYLINE
  5
1FA
330
17
100
AcDbEntity
  8
CARTIGLIO
100
AcDbPolyline
 90
5
 70
0
 10
4000.0
 20
-7900.0
 10
5140.0
 20
-7900.0
 10
5140.0
 20
-8100.0
 10
4000.0
 20
-8100.0
 10
4000.0
 20
-7900.0
  0
TEXT
  5
1FB
330
17
100
AcDbEntity
  8
TESTI
100
AcDbText
 10
4570.0
 20
-8000.0
 30
0.0
 40
70.0
  1
CU2(25)
 72
1
 11
4570.0
 21
-8000.0
 31
0.0
100
AcDbText
 73
2
  0
LWPOLYLINE
  5
1FC
330
17
100
AcDbEntity
  8
CARTIGLIO
100
AcDbPolyline
 90
5
 70
0
 10
5140.0
 20
-7900.0
 10
6280.0
 20
-7900.0
 10
6280.0
 20
-8100.0
 10
5140.0
 20
-8100.0
 10
5140.0
 20
-7900.0
  0
TEXT
  5
1FD
330
17
100
AcDbEntity
  8
TESTI
100
AcDbText
 10
5710.0
 20
-8000.0
 30
0.0
 40
70.0
  1
CU2
 72
1
 11
5710.0
 21
-8000.0
 31
0.0
100
AcDbText
 73
2
  0
LWPOLYLINE
  5
1FE
330
17
100
AcDbEntity
  8
CARTIGLIO
100
AcDbPolyline
 90
5
 70
0
 10
6280.0
 20
-7900.0
 10
7800.0
 20
-7900.0
 10
7800.0
 20
-8100.0
 10
6280.0
 20
-8100.0
 10
6280.0
 20
-7900.0
  0
TEXT
  5
1FF
330
17
100
AcDbEntity
  8
TESTI
100
AcDbText
 10
7040.0
 20
-8000.0
 30
0.0
 40
70.0
  1
413413
 72
1
 11
7040.0
 21
-8000.0
 31
0.0
100
AcDbText
 73
2
  0
LWPOLYLINE
  5
200
330
17
100
AcDbEntity
  8
CARTIGLIO
100
AcDbPolyline
 90
5
 70
0
 10
4000.0
 20
-8100.0
 10
5140.0
 20
-8100.0
 10
5140.0
 20
-8300.0
 10
4000.0
 20
-8300.0
 10
4000.0
 20
-8100.0
  0
TEXT
  5
201
330
17
100
AcDbEntity
  8
TESTI
100
AcDbText
 10
4570.0
 20
-8200.0
 30
0.0
 40
70.0
  1
CU2(26)
 72
1
 11
4570.0
 21
-8200.0
 31
0.0
100
AcDbText
 73
2
  0
LWPOLYLINE
  5
202
330
17
100
AcDbEntity
  8
CARTIGLIO
100
AcDbPolyline
 90
5
 70
0
 10
5140.0
 20
-8100.0
 10
6280.0
 20
-8100.0
 10
6280.0
 20
-8300.0
 10
5140.0
 20
-8300.0
 10
5140.0
 20
-8100.0
  0
TEXT
  5
203
330
17
100
AcDbEntity
  8
TESTI
100
AcDbText
 10
5710.0
 20
-8200.0
 30
0.0
 40
70.0
  1
CU2
 72
1
 11
5710.0
 21
-8200.0
 31
0.0
100
AcDbText
 73
2
  0
LWPOLYLINE
  5
204
330
17
100
AcDbEntity
  8
CARTIGLIO
100
AcDbPolyline
 90
5
 70
0
 10
6280.0
 20
-8100.0
 10
7800.0
 20
-8100.0
 10
7800.0
 20
-8300.0
 10
6280.0
 20
-8300.0
 10
6280.0
 20
-8100.0
  0
TEXT
  5
205
330
17
100
AcDbEntity
  8
TESTI
100
AcDbText
 10
7040.0
 20
-8200.0
 30
0.0
 40
70.0
  1
413413
 72
1
 11
7040.0
 21
-8200.0
 31
0.0
100
AcDbText
 73
2
  0
LWPOLYLINE
  5
206
330
17
100
AcDbEntity
  8
CARTIGLIO
100
AcDbPolyline
 90
5
 70
0
 10
4000.0
 20
-8300.0
 10
5140.0
 20
-8300.0
 10
5140.0
 20
-8500.0
 10
4000.0
 20
-8500.0
 10
4000.0
 20
-8300.0
  0
TEXT
  5
207
330
17
100
AcDbEntity
  8
TESTI
100
AcDbText
 10
4570.0
 20
-8400.0
 30
0.0
 40
70.0
  1
CU2(27)
 72
1
 11
4570.0
 21
-8400.0
 31
0.0
100
AcDbText
 73
2
  0
LWPOLYLINE
  5
208
330
17
100
AcDbEntity
  8
CARTIGLIO
100
AcDbPolyline
 90
5
 70
0
 10
5140.0
 20
-8300.0
 10
6280.0
 20
-8300.0
 10
6280.0
 20
-8500.0
 10
5140.0
 20
-8500.0
 10
5140.0
 20
-8300.0
  0
TEXT
  5
209
330
17
100
AcDbEntity
  8
TESTI
100
AcDbText
 10
5710.0
 20
-8400.0
 30
0.0
 40
70.0
  1
CU2
 72
1
 11
5710.0
 21
-8400.0
 31
0.0
100
AcDbText
 73
2
  0
LWPOLYLINE
  5
20A
330
17
100
AcDbEntity
  8
CARTIGLIO
100
AcDbPolyline
 90
5
 70
0
 10
6280.0
 20
-8300.0
 10
7800.0
 20
-8300.0
 10
7800.0
 20
-8500.0
 10
6280.0
 20
-8500.0
 10
6280.0
 20
-8300.0
  0
TEXT
  5
20B
330
17
100
AcDbEntity
  8
TESTI
100
AcDbText
 10
7040.0
 20
-8400.0
 30
0.0
 40
70.0
  1
413413
 72
1
 11
7040.0
 21
-8400.0
 31
0.0
100
AcDbText
 73
2
  0
LWPOLYLINE
  5
20C
330
17
100
AcDbEntity
  8
CARTIGLIO
100
AcDbPolyline
 90
5
 70
0
 10
4000.0
 20
-8500.0
 10
5140.0
 20
-8500.0
 10
5140.0
 20
-8700.0
 10
4000.0
 20
-8700.0
 10
4000.0
 20
-8500.0
  0
TEXT
  5
20D
330
17
100
AcDbEntity
  8
TESTI
100
AcDbText
 10
4570.0
 20
-8600.0
 30
0.0
 40
70.0
  1
CU2(28)
 72
1
 11
4570.0
 21
-8600.0
 31
0.0
100
AcDbText
 73
2
  0
LWPOLYLINE
  5
20E
330
17
100
AcDbEntity
  8
CARTIGLIO
100
AcDbPolyline
 90
5
 70
0
 10
5140.0
 20
-8500.0
 10
6280.0
 20
-8500.0
 10
6280.0
 20
-8700.0
 10
5140.0
 20
-8700.0
 10
5140.0
 20
-8500.0
  0
TEXT
  5
20F
330
17
100
AcDbEntity
  8
TESTI
100
AcDbText
 10
5710.0
 20
-8600.0
 30
0.0
 40
70.0
  1
CU2
 72
1
 11
5710.0
 21
-8600.0
 31
0.0
100
AcDbText
 73
2
  0
LWPOLYLINE
  5
210
330
17
100
AcDbEntity
  8
CARTIGLIO
100
AcDbPolyline
 90
5
 70
0
 10
6280.0
 20
-8500.0
 10
7800.0
 20
-8500.0
 10
7800.0
 20
-8700.0
 10
6280.0
 20
-8700.0
 10
6280.0
 20
-8500.0
  0
TEXT
  5
211
330
17
100
AcDbEntity
  8
TESTI
100
AcDbText
 10
7040.0
 20
-8600.0
 30
0.0
 40
70.0
  1
413413
 72
1
 11
7040.0
 21
-8600.0
 31
0.0
100
AcDbText
 73
2
  0
LWPOLYLINE
  5
212
330
17
100
AcDbEntity
  8
CARTIGLIO
100
AcDbPolyline
 90
5
 70
0
 10
4000.0
 20
-8700.0
 10
5140.0
 20
-8700.0
 10
5140.0
 20
-8900.0
 10
4000.0
 20
-8900.0
 10
4000.0
 20
-8700.0
  0
TEXT
  5
213
330
17
100
AcDbEntity
  8
TESTI
100
AcDbText
 10
4570.0
 20
-8800.0
 30
0.0
 40
70.0
  1
CU2(29)
 72
1
 11
4570.0
 21
-8800.0
 31
0.0
100
AcDbText
 73
2
  0
LWPOLYLINE
  5
214
330
17
100
AcDbEntity
  8
CARTIGLIO
100
AcDbPolyline
 90
5
 70
0
 10
5140.0
 20
-8700.0
 10
6280.0
 20
-8700.0
 10
6280.0
 20
-8900.0
 10
5140.0
 20
-8900.0
 10
5140.0
 20
-8700.0
  0
TEXT
  5
215
330
17
100
AcDbEntity
  8
TESTI
100
AcDbText
 10
5710.0
 20
-8800.0
 30
0.0
 40
70.0
  1
CU2
 72
1
 11
5710.0
 21
-8800.0
 31
0.0
100
AcDbText
 73
2
  0
LWPOLYLINE
  5
216
330
17
100
AcDbEntity
  8
CARTIGLIO
100
AcDbPolyline
 90
5
 70
0
 10
6280.0
 20
-8700.0
 10
7800.0
 20
-8700.0
 10
7800.0
 20
-8900.0
 10
6280.0
 20
-8900.0
 10
6280.0
 20
-8700.0
  0
TEXT
  5
217
330
17
100
AcDbEntity
  8
TESTI
100
AcDbText
 10
7040.0
 20
-8800.0
 30
0.0
 40
70.0
  1
413413
 72
1
 11
7040.0
 21
-8800.0
 31
0.0
100
AcDbText
 73
2
  0
LWPOLYLINE
  5
218
330
17
100
AcDbEntity
  8
CARTIGLIO
100
AcDbPolyline
 90
5
 70
0
 10
4000.0
 20
-8900.0
 10
5140.0
 20
-8900.0
 10
5140.0
 20
-9100.0
 10
4000.0
 20
-9100.0
 10
4000.0
 20
-8900.0
  0
TEXT
  5
219
330
17
100
AcDbEntity
  8
TESTI
100
AcDbText
 10
4570.0
 20
-9000.0
 30
0.0
 40
70.0
  1
CU2(30)
 72
1
 11
4570.0
 21
-9000.0
 31
0.0
100
AcDbText
 73
2
  0
LWPOLYLINE
  5
21A
330
17
100
AcDbEntity
  8
CARTIGLIO
100
AcDbPolyline
 90
5
 70
0
 10
5140.0
 20
-8900.0
 10
6280.0
 20
-8900.0
 10
6280.0
 20
-9100.0
 10
5140.0
 20
-9100.0
 10
5140.0
 20
-8900.0
  0
TEXT
  5
21B
330
17
100
AcDbEntity
  8
TESTI
100
AcDbText
 10
5710.0
 20
-9000.0
 30
0.0
 40
70.0
  1
CU2
 72
1
 11
5710.0
 21
-9000.0
 31
0.0
100
AcDbText
 73
2
  0
LWPOLYLINE
  5
21C
330
17
100
AcDbEntity
  8
CARTIGLIO
100
AcDbPolyline
 90
5
 70
0
 10
6280.0
 20
-8900.0
 10
7800.0
 20
-8900.0
 10
7800.0
 20
-9100.0
 10
6280.0
 20
-9100.0
 10
6280.0
 20
-8900.0
  0
TEXT
  5
21D
330
17
100
AcDbEntity
  8
TESTI
100
AcDbText
 10
7040.0
 20
-9000.0
 30
0.0
 40
70.0
  1
413276
 72
1
 11
7040.0
 21
-9000.0
 31
0.0
100
AcDbText
 73
2
  0
LWPOLYLINE
  5
21E
330
17
100
AcDbEntity
  8
CARTIGLIO
100
AcDbPolyline
 90
5
 70
0
 10
4000.0
 20
-9100.0
 10
5140.0
 20
-9100.0
 10
5140.0
 20
-9300.0
 10
4000.0
 20
-9300.0
 10
4000.0
 20
-9100.0
  0
TEXT
  5
21F
330
17
100
AcDbEntity
  8
TESTI
100
AcDbText
 10
4570.0
 20
-9200.0
 30
0.0
 40
70.0
  1
CU2(31)
 72
1
 11
4570.0
 21
-9200.0
 31
0.0
100
AcDbText
 73
2
  0
LWPOLYLINE
  5
220
330
17
100
AcDbEntity
  8
CARTIGLIO
100
AcDbPolyline
 90
5
 70
0
 10
5140.0
 20
-9100.0
 10
6280.0
 20
-9100.0
 10
6280.0
 20
-9300.0
 10
5140.0
 20
-9300.0
 10
5140.0
 20
-9100.0
  0
TEXT
  5
221
330
17
100
AcDbEntity
  8
TESTI
100
AcDbText
 10
5710.0
 20
-9200.0
 30
0.0
 40
70.0
  1
CU2
 72
1
 11
5710.0
 21
-9200.0
 31
0.0
100
AcDbText
 73
2
  0
LWPOLYLINE
  5
222
330
17
100
AcDbEntity
  8
CARTIGLIO
100
AcDbPolyline
 90
5
 70
0
 10
6280.0
 20
-9100.0
 10
7800.0
 20
-9100.0
 10
7800.0
 20
-9300.0
 10
6280.0
 20
-9300.0
 10
6280.0
 20
-9100.0
  0
TEXT
  5
223
330
17
100
AcDbEntity
  8
TESTI
100
AcDbText
 10
7040.0
 20
-9200.0
 30
0.0
 40
70.0
  1
413413
 72
1
 11
7040.0
 21
-9200.0
 31
0.0
100
AcDbText
 73
2
  0
LWPOLYLINE
  5
224
330
17
100
AcDbEntity
  8
CARTIGLIO
100
AcDbPolyline
 90
5
 70
0
 10
4000.0
 20
-9300.0
 10
5140.0
 20
-9300.0
 10
5140.0
 20
-9500.0
 10
4000.0
 20
-9500.0
 10
4000.0
 20
-9300.0
  0
TEXT
  5
225
330
17
100
AcDbEntity
  8
TESTI
100
AcDbText
 10
4570.0
 20
-9400.0
 30
0.0
 40
70.0
  1
CU2(32)
 72
1
 11
4570.0
 21
-9400.0
 31
0.0
100
AcDbText
 73
2
  0
LWPOLYLINE
  5
226
330
17
100
AcDbEntity
  8
CARTIGLIO
100
AcDbPolyline
 90
5
 70
0
 10
5140.0
 20
-9300.0
 10
6280.0
 20
-9300.0
 10
6280.0
 20
-9500.0
 10
5140.0
 20
-9500.0
 10
5140.0
 20
-9300.0
  0
TEXT
  5
227
330
17
100
AcDbEntity
  8
TESTI
100
AcDbText
 10
5710.0
 20
-9400.0
 30
0.0
 40
70.0
  1
CU2
 72
1
 11
5710.0
 21
-9400.0
 31
0.0
100
AcDbText
 73
2
  0
LWPOLYLINE
  5
228
330
17
100
AcDbEntity
  8
CARTIGLIO
100
AcDbPolyline
 90
5
 70
0
 10
6280.0
 20
-9300.0
 10
7800.0
 20
-9300.0
 10
7800.0
 20
-9500.0
 10
6280.0
 20
-9500.0
 10
6280.0
 20
-9300.0
  0
TEXT
  5
229
330
17
100
AcDbEntity
  8
TESTI
100
AcDbText
 10
7040.0
 20
-9400.0
 30
0.0
 40
70.0
  1
413413
 72
1
 11
7040.0
 21
-9400.0
 31
0.0
100
AcDbText
 73
2
  0
LWPOLYLINE
  5
22A
330
17
100
AcDbEntity
  8
CARTIGLIO
100
AcDbPolyline
 90
5
 70
0
 10
4000.0
 20
-9500.0
 10
5140.0
 20
-9500.0
 10
5140.0
 20
-9700.0
 10
4000.0
 20
-9700.0
 10
4000.0
 20
-9500.0
  0
TEXT
  5
22B
330
17
100
AcDbEntity
  8
TESTI
100
AcDbText
 10
4570.0
 20
-9600.0
 30
0.0
 40
70.0
  1
CU2(33)
 72
1
 11
4570.0
 21
-9600.0
 31
0.0
100
AcDbText
 73
2
  0
LWPOLYLINE
  5
22C
330
17
100
AcDbEntity
  8
CARTIGLIO
100
AcDbPolyline
 90
5
 70
0
 10
5140.0
 20
-9500.0
 10
6280.0
 20
-9500.0
 10
6280.0
 20
-9700.0
 10
5140.0
 20
-9700.0
 10
5140.0
 20
-9500.0
  0
TEXT
  5
22D
330
17
100
AcDbEntity
  8
TESTI
100
AcDbText
 10
5710.0
 20
-9600.0
 30
0.0
 40
70.0
  1
CU2
 72
1
 11
5710.0
 21
-9600.0
 31
0.0
100
AcDbText
 73
2
  0
LWPOLYLINE
  5
22E
330
17
100
AcDbEntity
  8
CARTIGLIO
100
AcDbPolyline
 90
5
 70
0
 10
6280.0
 20
-9500.0
 10
7800.0
 20
-9500.0
 10
7800.0
 20
-9700.0
 10
6280.0
 20
-9700.0
 10
6280.0
 20
-9500.0
  0
TEXT
  5
22F
330
17
100
AcDbEntity
  8
TESTI
100
AcDbText
 10
7040.0
 20
-9600.0
 30
0.0
 40
70.0
  1
153413
 72
1
 11
7040.0
 21
-9600.0
 31
0.0
100
AcDbText
 73
2
  0
LWPOLYLINE
  5
230
330
17
100
AcDbEntity
  8
CARTIGLIO
100
AcDbPolyline
 90
5
 70
0
 10
4000.0
 20
-9700.0
 10
5140.0
 20
-9700.0
 10
5140.0
 20
-9900.0
 10
4000.0
 20
-9900.0
 10
4000.0
 20
-9700.0
  0
TEXT
  5
231
330
17
100
AcDbEntity
  8
TESTI
100
AcDbText
 10
4570.0
 20
-9800.0
 30
0.0
 40
70.0
  1
CU2(34)
 72
1
 11
4570.0
 21
-9800.0
 31
0.0
100
AcDbText
 73
2
  0
LWPOLYLINE
  5
232
330
17
100
AcDbEntity
  8
CARTIGLIO
100
AcDbPolyline
 90
5
 70
0
 10
5140.0
 20
-9700.0
 10
6280.0
 20
-9700.0
 10
6280.0
 20
-9900.0
 10
5140.0
 20
-9900.0
 10
5140.0
 20
-9700.0
  0
TEXT
  5
233
330
17
100
AcDbEntity
  8
TESTI
100
AcDbText
 10
5710.0
 20
-9800.0
 30
0.0
 40
70.0
  1
CU2
 72
1
 11
5710.0
 21
-9800.0
 31
0.0
100
AcDbText
 73
2
  0
LWPOLYLINE
  5
234
330
17
100
AcDbEntity
  8
CARTIGLIO
100
AcDbPolyline
 90
5
 70
0
 10
6280.0
 20
-9700.0
 10
7800.0
 20
-9700.0
 10
7800.0
 20
-9900.0
 10
6280.0
 20
-9900.0
 10
6280.0
 20
-9700.0
  0
TEXT
  5
235
330
17
100
AcDbEntity
  8
TESTI
100
AcDbText
 10
7040.0
 20
-9800.0
 30
0.0
 40
70.0
  1
153413
 72
1
 11
7040.0
 21
-9800.0
 31
0.0
100
AcDbText
 73
2
  0
LWPOLYLINE
  5
236
330
17
100
AcDbEntity
  8
CARTIGLIO
100
AcDbPolyline
 90
5
 70
0
 10
5500.0
 20
-14100.0
 10
8000.0
 20
-14100.0
 10
8000.0
 20
-12600.0
 10
5500.0
 20
-12600.0
 10
5500.0
 20
-14100.0
  0
TEXT
  5
237
330
17
100
AcDbEntity
  8
TESTI
100
AcDbText
 10
6750.0
 20
-12800.0
 30
0.0
 40
120.0
  1
TEST TEST_PARETE_DWG
 72
1
 11
6750.0
 21
-12800.0
 31
0.0
100
AcDbText
 73
2
  0
TEXT
  5
238
330
17
100
AcDbEntity
  8
TESTI
100
AcDbText
 10
5600.0
 20
-13000.0
 30
0.0
 40
80.0
  1
Data: 27/08/2025 15:09
 11
5600.0
 21
-13000.0
 31
0.0
100
AcDbText
 73
1
  0
TEXT
  5
239
330
17
100
AcDbEntity
  8
TESTI
100
AcDbText
 10
5600.0
 20
-13150.0
 30
0.0
 40
80.0
  1
Blocchi Standard: 32
 11
5600.0
 21
-13150.0
 31
0.0
100
AcDbText
 73
1
  0
TEXT
  5
23A
330
17
100
AcDbEntity
  8
TESTI
100
AcDbText
 10
5600.0
 20
-13300.0
 30
0.0
 40
80.0
  1
Pezzi Custom: 41
 11
5600.0
 21
-13300.0
 31
0.0
100
AcDbText
 73
1
  0
TEXT
  5
23B
330
17
100
AcDbEntity
  8
TESTI
100
AcDbText
 10
5600.0
 20
-13450.0
 30
0.0
 40
80.0
  1
Efficienza: 43.8%
 11
5600.0
 21
-13450.0
 31
0.0
100
AcDbText
 73
1
  0
TEXT
  5
23C
330
17
100
AcDbEntity
  8
TESTI
100
AcDbText
 10
5600.0
 20
-13600.0
 30
0.0
 40
80.0
  1
Algoritmo: Greedy + Backtrack
 11
5600.0
 21
-13600.0
 31
0.0
100
AcDbText
 73
1
  0
TEXT
  5
23D
330
17
100
AcDbEntity
  8
TESTI
100
AcDbText
 10
7950.0
 20
-21500.0
 30
0.0
 40
120.0
  1
LEGENDA E NOTE TECNICHE
 72
1
 11
7950.0
 21
-21500.0
 31
0.0
100
AcDbText
 73
2
  0
TEXT
  5
23E
330
17
100
AcDbEntity
  8
TESTI
100
AcDbText
 10
100.0
 20
-21700.0
 30
0.0
 40
60.0
  1
 Blocchi Standard
 11
100.0
 21
-21700.0
 31
0.0
100
AcDbText
 73
1
  0
TEXT
  5
23F
330
17
100
AcDbEntity
  8
TESTI
100
AcDbText
 10
100.0
 20
-21820.0
 30
0.0
 40
60.0
  1
 Pezzi Custom
 11
100.0
 21
-21820.0
 31
0.0
100
AcDbText
 73
1
  0
TEXT
  5
240
330
17
100
AcDbEntity
  8
TESTI
100
AcDbText
 10
100.0
 20
-21940.0
 30
0.0
 40
60.0
  1
 Aperture
 11
100.0
 21
-21940.0
 31
0.0
100
AcDbText
 73
1
  0
TEXT
  5
241
330
17
100
AcDbEntity
  8
TESTI
100
AcDbText
 10
100.0
 20
-22060.0
 30
0.0
 40
60.0
  1
 Quote (mm)
 11
100.0
 21
-22060.0
 31
0.0
100
AcDbText
 73
1
  0
TEXT
  5
242
330
17
100
AcDbEntity
  8
TESTI
100
AcDbText
 10
8050.0
 20
-21700.0
 30
0.0
 40
60.0
  1
 Dimensioni in millimetri
 11
8050.0
 21
-21700.0
 31
0.0
100
AcDbText
 73
1
  0
TEXT
  5
243
330
17
100
AcDbEntity
  8
TESTI
100
AcDbText
 10
8050.0
 20
-21820.0
 30
0.0
 40
60.0
  1
 Tolleranze taglio 2mm
 11
8050.0
 21
-21820.0
 31
0.0
100
AcDbText
 73
1
  0
TEXT
  5
244
330
17
100
AcDbEntity
  8
TESTI
100
AcDbText
 10
8050.0
 20
-21940.0
 30
0.0
 40
60.0
  1
 CU1: taglio larghezza da blocco C
 11
8050.0
 21
-21940.0
 31
0.0
100
AcDbText
 73
1
  0
TEXT
  5
245
330
17
100
AcDbEntity
  8
TESTI
100
AcDbText
 10
8050.0
 20
-22060.0
 30
0.0
 40
60.0
  1
 CU2: taglio flessibile da blocco C
 11
8050.0
 21
-22060.0
 31
0.0
100
AcDbText
 73
1
  0
ENDSEC
  0
SECTION
  2
OBJECTS
  0
DICTIONARY
  5
A
330
0
100
AcDbDictionary
281
1
  3
ACAD_COLOR
350
B
  3
ACAD_GROUP
350
C
  3
ACAD_LAYOUT
350
D
  3
ACAD_MATERIAL
350
E
  3
ACAD_MLEADERSTYLE
350
F
  3
ACAD_MLINESTYLE
350
10
  3
ACAD_PLOTSETTINGS
350
11
  3
ACAD_PLOTSTYLENAME
350
12
  3
ACAD_SCALELIST
350
14
  3
ACAD_TABLESTYLE
350
15
  3
ACAD_VISUALSTYLE
350
16
  3
EZDXF_META
350
2D
  0
DICTIONARY
  5
B
330
A
100
AcDbDictionary
281
1
  0
DICTIONARY
  5
C
330
A
100
AcDbDictionary
281
1
  0
DICTIONARY
  5
D
330
A
100
AcDbDictionary
281
1
  3
Model
350
1A
  3
Layout1
350
1E
  0
DICTIONARY
  5
E
330
A
100
AcDbDictionary
281
1
  3
ByBlock
350
1F
  3
ByLayer
350
20
  3
Global
350
21
  0
DICTIONARY
  5
F
330
A
100
AcDbDictionary
281
1
  3
Standard
350
2C
  0
DICTIONARY
  5
10
330
A
100
AcDbDictionary
281
1
  3
Standard
350
22
  0
DICTIONARY
  5
11
330
A
100
AcDbDictionary
281
1
  0
ACDBDICTIONARYWDFLT
  5
12
330
A
100
AcDbDictionary
281
1
  3
Normal
350
13
100
AcDbDictionaryWithDefault
340
13
  0
ACDBPLACEHOLDER
  5
13
330
12
  0
DICTIONARY
  5
14
330
A
100
AcDbDictionary
281
1
  0
DICTIONARY
  5
15
330
A
100
AcDbDictionary
281
1
  0
DICTIONARY
  5
16
330
A
100
AcDbDictionary
281
1
  0
LAYOUT
  5
1A
330
D
100
AcDbPlotSettings
  1

  4
A3
  6

 40
7.5
 41
20.0
 42
7.5
 43
20.0
 44
420.0
 45
297.0
 46
0.0
 47
0.0
 48
0.0
 49
0.0
140
0.0
141
0.0
142
1.0
143
1.0
 70
1024
 72
1
 73
0
 74
5
  7

 75
16
 76
0
 77
2
 78
300
147
1.0
148
0.0
149
0.0
100
AcDbLayout
  1
Model
 70
1
 71
0
 10
0.0
 20
0.0
 11
420.0
 21
297.0
 12
0.0
 22
0.0
 32
0.0
 14
1e+20
 24
1e+20
 34
1e+20
 15
-1e+20
 25
-1e+20
 35
-1e+20
146
0.0
 13
0.0
 23
0.0
 33
0.0
 16
1.0
 26
0.0
 36
0.0
 17
0.0
 27
1.0
 37
0.0
 76
1
330
17
  0
LAYOUT
  5
1E
330
D
100
AcDbPlotSettings
  1

  4
A3
  6

 40
7.5
 41
20.0
 42
7.5
 43
20.0
 44
420.0
 45
297.0
 46
0.0
 47
0.0
 48
0.0
 49
0.0
140
0.0
141
0.0
142
1.0
143
1.0
 70
0
 72
1
 73
0
 74
5
  7

 75
16
 76
0
 77
2
 78
300
147
1.0
148
0.0
149
0.0
100
AcDbLayout
  1
Layout1
 70
1
 71
1
 10
0.0
 20
0.0
 11
420.0
 21
297.0
 12
0.0
 22
0.0
 32
0.0
 14
1e+20
 24
1e+20
 34
1e+20
 15
-1e+20
 25
-1e+20
 35
-1e+20
146
0.0
 13
0.0
 23
0.0
 33
0.0
 16
1.0
 26
0.0
 36
0.0
 17
0.0
 27
1.0
 37
0.0
 76
1
330
1B
  0
MATERIAL
  5
1F
102
{ACAD_REACTORS
330
E
102
}
330
E
100
AcDbMaterial
  1
ByBlock
  2

 70
0
 40
1.0
 71
1
 41
1.0
 91
-1023410177
 42
1.0
 72
1
  3

 73
1
 74
1
 75
1
 44
0.5
 73
0
 45
1.0
 46
1.0
 77
1
  4

 78
1
 79
1
170
1
 48
1.0
171
1
  6

172
1
173
1
174
1
140
1.0
141
1.0
175
1
  7

176
1
177
1
178
1
143
1.0
179
1
  8

270
1
271
1
272
1
145
1.0
146
1.0
273
1
  9

274
1
275
1
276
1
 42
1.0
 72
1
  3

 73
1
 74
1
 75
1
 94
63
  0
MATERIAL
  5
20
102
{ACAD_REACTORS
330
E
102
}
330
E
100
AcDbMaterial
  1
ByLayer
  2

 70
0
 40
1.0
 71
1
 41
1.0
 91
-1023410177
 42
1.0
 72
1
  3

 73
1
 74
1
 75
1
 44
0.5
 73
0
 45
1.0
 46
1.0
 77
1
  4

 78
1
 79
1
170
1
 48
1.0
171
1
  6

172
1
173
1
174
1
140
1.0
141
1.0
175
1
  7

176
1
177
1
178
1
143
1.0
179
1
  8

270
1
271
1
272
1
145
1.0
146
1.0
273
1
  9

274
1
275
1
276
1
 42
1.0
 72
1
  3

 73
1
 74
1
 75
1
 94
63
  0
MATERIAL
  5
21
102
{ACAD_REACTORS
330
E
102
}
330
E
100
AcDbMaterial
  1
Global
  2

 70
0
 40
1.0
 71
1
 41
1.0
 91
-1023410177
 42
1.0
 72
1
  3

 73
1
 74
1
 75
1
 44
0.5
 73
0
 45
1.0
 46
1.0
 77
1
  4

 78
1
 79
1
170
1
 48
1.0
171
1
  6

172
1
173
1
174
1
140
1.0
141
1.0
175
1
  7

176
1
177
1
178
1
143
1.0
179
1
  8

270
1
271
1
272
1
145
1.0
146
1.0
273
1
  9

274
1
275
1
276
1
 42
1.0
 72
1
  3

 73
1
 74
1
 75
1
 94
63
  0
MLINESTYLE
  5
22
102
{ACAD_REACTORS
330
10
102
}
330
10
100
AcDbMlineStyle
  2
Standard
 70
0
  3

 62
256
 51
90.0
 52
90.0
 71
2
 49
0.5
 62
256
  6
BYLAYER
 49
-0.5
 62
256
  6
BYLAYER
  0
MLEADERSTYLE
  5
2C
102
{ACAD_REACTORS
330
F
102
}
330
F
100
AcDbMLeaderStyle
179
2
170
2
171
1
172
0
 90
2
 40
0.0
 41
0.0
173
1
 91
-1056964608
 92
-2
290
1
 42
2.0
291
1
 43
8.0
  3
Standard
 44
4.0
300

342
29
174
1
175
1
176
0
178
1
 93
-1056964608
 45
4.0
292
0
297
0
 46
4.0
 94
-1056964608
 47
1.0
 49
1.0
140
1.0
294
1
141
0.0
177
0
142
1.0
295
0
296
0
143
3.75
271
0
272
9
273
9
  0
DICTIONARY
  5
2D
330
A
100
AcDbDictionary
280
1
281
1
  3
CREATED_BY_EZDXF
350
2E
  3
WRITTEN_BY_EZDXF
350
248
  0
DICTIONARYVAR
  5
2E
330
2D
100
DictionaryVariables
280
0
  1
1.4.2 @ 2025-08-27T13:09:04.673249+00:00
  0
DICTIONARYVAR
  5
248
330
2D
100
DictionaryVariables
280
0
  1
1.4.2 @ 2025-08-27T13:09:04.713634+00:00
  0
ENDSEC
  0
EOF
